<?xml version="1.0" standalone="no"?>
<!DOCTYPE svg PUBLIC "-//W3C//DTD SVG 1.1//EN" "http://www.w3.org/Graphics/SVG/1.1/DTD/svg11.dtd" >
<svg xmlns="http://www.w3.org/2000/svg">
<metadata></metadata>
<defs>
<font id="SSGlyphish-Filled" >
<font-face font-family="SS Glyphish Filled" units-per-em="2048" ascent="2176" descent="-640" />
<missing-glyph  />
<glyph unicode="+" horiz-adv-x="2048" d="M2011 1061q16 0 26.5 -11t10.5 -26t-10.5 -25.5t-26.5 -10.5h-950v-951q0 -16 -11 -26.5t-26 -10.5t-26 10.5t-11 26.5v951h-950q-16 0 -26.5 10.5t-10.5 25.5t10.5 26t26.5 11h950v951q0 15 11 25.5t26 10.5t26 -10.5t11 -25.5v-951h950z" />
<glyph unicode="-" horiz-adv-x="2048" d="M2011 1061q16 0 26.5 -11t10.5 -26t-10.5 -25.5t-26.5 -10.5h-1974q-16 0 -26.5 10.5t-10.5 25.5t10.5 26t26.5 11h1974z" />
<glyph unicode="@" horiz-adv-x="2048" d="M1080 0q-176 0 -335.5 41t-295.5 125.5t-236.5 205.5t-157 290t-56.5 370q0 175 56 333.5t157 281.5t235 214.5t297 139.5t336 48q199 0 375.5 -60.5t308 -169t208 -270t76.5 -353.5q0 -157 -60.5 -306.5t-154 -254t-208.5 -168t-222 -63.5q-89 0 -143 51t-39 129
q-25 -31 -56 -58t-80 -57t-119.5 -47.5t-151.5 -17.5q-171 0 -291 121t-120 292q0 106 33.5 220.5t98 221t150 191.5t198.5 136.5t233 51.5q135 0 248.5 -68.5t160.5 -175.5h6l72 187h75l-335 -815q-62 -145 -53 -207q6 -42 30 -63t89 -21q73 0 152.5 35.5t152.5 102
t132 153.5t94 199.5t35 230.5q0 174 -70 321.5t-190.5 247.5t-284.5 155.5t-350 55.5q-171 0 -326.5 -46.5t-278.5 -132t-213.5 -201.5t-139 -261t-48.5 -303q0 -184 52 -340t144.5 -269t219 -193t276 -119t314.5 -39q261 0 480.5 113.5t368.5 316.5h86
q-148 -231 -396 -366.5t-539 -135.5zM826 475q157 0 260 76t199 252l203 498q-20 71 -61.5 124.5t-95.5 83.5t-110.5 44.5t-116.5 14.5q-101 0 -198.5 -47t-173.5 -125.5t-135 -175.5t-90.5 -202.5t-31.5 -200.5q0 -142 100.5 -242t250.5 -100z" />
<glyph unicode="&#x2026;" horiz-adv-x="2048" d="M219 1243q91 0 155.5 -64t64.5 -155t-64.5 -155t-155.5 -64t-155 64t-64 155t64 155t155 64zM1829 1243q91 0 155 -64t64 -155t-64 -155t-155 -64t-155.5 64t-64.5 155t64.5 155t155.5 64zM1024 1243q91 0 155 -64t64 -155t-64 -155t-155 -64t-155 64t-64 155t64 155
t155 64z" />
<glyph unicode="&#x2139;" horiz-adv-x="2048" d="M1024 2048q209 0 398.5 -81t326.5 -218t218 -326.5t81 -398.5q0 -208 -81 -397.5t-218 -327t-327 -218.5t-398 -81t-398 81t-327 218.5t-218 327t-81 397.5q0 209 81 398.5t218 326.5t326.5 218t398.5 81zM1016 1274q45 0 77.5 33t32.5 79t-32.5 79.5t-77.5 33.5
t-77.5 -33t-32.5 -80t32.5 -79.5t77.5 -32.5zM1207 593q-44 7 -64.5 23.5t-20.5 51.5v488l-8 9l-273 -16v-45q99 -12 99 -86v-358q0 -37 -19.5 -50t-65.5 -17v-44h352v44z" />
<glyph unicode="&#x21a9;" horiz-adv-x="2050" d="M2048 293q-62 98 -140 184t-176.5 160.5t-207.5 127.5t-237.5 83t-262.5 30v-476q0 -15 -10.5 -25.5t-26.5 -10.5q-11 0 -21 7l-951 695q-15 12 -15 29q0 19 15 29v1l951 695v-1q10 8 21 8q16 0 26.5 -11t10.5 -26v-475q78 -2 161.5 -14.5t185.5 -45t195 -81.5
t182.5 -130t154.5 -183.5t105 -249.5t40 -320z" />
<glyph unicode="&#x21ba;" horiz-adv-x="2048" d="M1024 0q-208 0 -398 81t-327 218.5t-218 327t-81 397.5q0 15 10.5 26t26.5 11q15 0 25.5 -11t10.5 -26q0 -193 75.5 -369.5t202.5 -303.5t303.5 -202.5t369.5 -75.5t369.5 75.5t303.5 202.5t202.5 303.5t75.5 369.5t-75.5 369.5t-202.5 303.5t-303.5 202.5t-369.5 75.5
q-271 0 -496.5 -140t-346.5 -372h441q15 0 25.5 -10.5t10.5 -26.5q0 -15 -10.5 -25.5t-25.5 -10.5h-512q-15 0 -26 10.5t-11 25.5v512q0 16 11 26.5t26 10.5t25.5 -10.5t10.5 -26.5v-390q137 229 369.5 364.5t508.5 135.5q209 0 398.5 -81t326.5 -218t218 -326.5t81 -398.5
q0 -208 -81 -397.5t-218 -327t-327 -218.5t-398 -81z" />
<glyph unicode="&#x21bb;" horiz-adv-x="2048" d="M2048 1024q0 -208 -81 -397.5t-218 -327t-327 -218.5t-398 -81t-398 81t-327 218.5t-218 327t-81 397.5q0 209 81 398.5t218 326.5t326.5 218t398.5 81q276 0 508.5 -135.5t369.5 -364.5v390q0 16 10.5 26.5t25.5 10.5t26 -10.5t11 -26.5v-512q0 -15 -11 -25.5t-26 -10.5
h-512q-15 0 -25.5 10.5t-10.5 25.5q0 16 10.5 26.5t25.5 10.5h441q-121 232 -346.5 372t-496.5 140q-193 0 -369.5 -75.5t-303.5 -202.5t-202.5 -303.5t-75.5 -369.5t75.5 -369.5t202.5 -303.5t303.5 -202.5t369.5 -75.5t369.5 75.5t303.5 202.5t202.5 303.5t75.5 369.5
q0 15 10.5 26t25.5 11q16 0 26.5 -11t10.5 -26z" />
<glyph unicode="&#x21dd;" horiz-adv-x="2048" d="M2037 940q11 -9 11 -26q0 -15 -11 -26l-219 -219q-11 -11 -26 -11t-26 11t-11 26q0 13 11 26l157 157h-277q-76 0 -129.5 53.5t-53.5 129.5v292q0 46 -32 78t-78 32q-45 0 -77.5 -32t-32.5 -78v-658q0 -76 -53 -129.5t-129 -53.5t-129.5 53.5t-53.5 129.5v658
q0 46 -32 78t-78 32t-78 -32t-32 -78v-658q0 -76 -53.5 -129.5t-129.5 -53.5t-129 53.5t-53 129.5v219q0 46 -32.5 78t-77.5 32h-146q-16 0 -26.5 10.5t-10.5 26.5q0 15 10.5 25.5t26.5 10.5h146q76 0 129.5 -53.5t53.5 -129.5v-219q0 -46 32 -78t77 -32q46 0 78 32t32 78
v658q0 76 53.5 129.5t129.5 53.5t129.5 -53.5t53.5 -129.5v-658q0 -46 32 -78t78 -32q45 0 77 32t32 78v658q0 76 53.5 129.5t129.5 53.5t129.5 -53.5t53.5 -129.5q0 -14 -4 -36h4v-256q0 -46 32 -78t78 -32h277l-157 157q-11 11 -11 26t11 25.5t26 10.5q14 0 26 -10z" />
<glyph unicode="&#x22c6;" horiz-adv-x="2048" d="M2048 1243l-631 -448l229 -722l-622 421l-622 -421l229 722l-631 448h782l242 732l242 -732h782z" />
<glyph unicode="&#x2301;" horiz-adv-x="2048" d="M695 0q-15 0 -26 10.5t-11 26.5q0 5 4 15l342 753h-748q-15 0 -26 10.5t-11 25.5q0 13 10 25l1097 1170h1q10 12 26 12q15 0 26 -10.5t11 -26.5q0 -5 -4 -15l-342 -753h748q15 0 26 -10.5t11 -25.5q0 -13 -10 -25l-1097 -1170h-1q-10 -12 -26 -12z" />
<glyph unicode="&#x2302;" horiz-adv-x="2048" d="M731 877v-878h-438q-31 0 -52.5 21.5t-21.5 52.5v1051l-156 -163v1q-12 -12 -26 -12q-16 0 -26.5 11t-10.5 26t10 25l988 1024q9 11 26 11t26 -11l340 -352v144q0 30 21 51.5t52 21.5h146q31 0 52 -21.5t21 -51.5v-447l356 -369q10 -10 10 -25t-10.5 -26t-26.5 -11
q-14 0 -26 12v-1l-156 163v-1051q0 -31 -21.5 -52.5t-52.5 -21.5h-438v878q0 31 -21.5 52t-52.5 21h-438q-31 0 -52.5 -21t-21.5 -52zM805 -1v878h438v-878h-438z" />
<glyph unicode="&#x2315;" horiz-adv-x="2048" d="M1609 1463q181 0 310 -128.5t129 -310.5t-129 -310.5t-310 -128.5h-1170q-182 0 -310.5 128.5t-128.5 310.5t128.5 310.5t310.5 128.5q181 0 310 -128.5t129 -310.5q0 -113 -53 -209.5t-144 -156.5h686q-91 60 -144 156.5t-53 209.5q0 182 129 310.5t310 128.5z" />
<glyph unicode="&#x2316;" horiz-adv-x="2048" d="M987 1899v-181q0 -15 11 -25.5t26 -10.5t26 10.5t11 25.5v181q-26 2 -37 2t-37 -2zM1024 804q91 0 155 64t64 155t-64 155.5t-155 64.5t-155 -64.5t-64 -155.5t64 -155t155 -64zM1024 1170q61 0 103.5 -43t42.5 -104q0 -60 -42.5 -103t-103.5 -43t-103.5 43t-42.5 103
q0 61 42.5 104t103.5 43zM1024 -1q-15 0 -26 11t-11 26v112q-168 7 -320 75t-263.5 179.5t-180 264t-75.5 320.5h-111q-16 0 -26.5 10.5t-10.5 25.5q0 16 10.5 26.5t26.5 10.5h111q0 -6 -1 -18t-1 -19q0 -6 1 -18t1 -18h181q15 0 26 10.5t11 25.5q0 16 -11 26.5t-26 10.5
h-181q7 168 75.5 320t180 263.5t263.5 180t320 75.5v112q0 15 11 25.5t26 10.5t26 -10.5t11 -25.5v-112q168 -7 320 -75.5t263.5 -180t180 -263.5t75.5 -320h-181q-15 0 -26 -10.5t-11 -26.5q0 -15 11 -25.5t26 -10.5h181q-7 -168 -75.5 -320.5t-180 -264t-263.5 -179.5
t-320 -75v-112q0 -15 -11 -26t-26 -11zM2011 1060q16 0 26.5 -10.5t10.5 -26.5q0 -15 -10.5 -25.5t-26.5 -10.5h-111q0 6 1 18t1 18q0 7 -1 19t-1 18h111zM1061 148v181q0 15 -11 25.5t-26 10.5t-26 -10.5t-11 -25.5v-181q26 -2 37 -2t37 2z" />
<glyph unicode="&#x2388;" horiz-adv-x="2048" d="M987 1534q-168 -12 -298 -124l156 -156q67 50 142 59v221zM1061 1534v-221q75 -9 142 -59l156 156q-130 112 -298 124zM1313 1060h221q-12 170 -124 298l-156 -156q49 -64 59 -142zM638 1358q-112 -128 -124 -298h221q10 78 59 142zM1024 877q61 0 103.5 43t42.5 103
q0 61 -42.5 104t-103.5 43t-103.5 -43t-42.5 -104q0 -60 42.5 -103t103.5 -43zM514 987q12 -170 124 -298l156 156q-49 63 -59 142h-221zM1410 689q112 128 124 298h-221q-10 -79 -59 -142zM987 513v220q-76 10 -142 60l-156 -156q130 -112 298 -124zM1061 513
q168 12 298 124l-156 156q-66 -50 -142 -60v-220zM2011 1060q16 0 26.5 -10.5t10.5 -26.5q0 -15 -10.5 -25.5t-26.5 -10.5h-184q-7 -144 -61.5 -273.5t-147.5 -231.5l130 -131q10 -11 10 -26t-10 -26t-25.5 -11t-26.5 11l-130 131q-103 -94 -232.5 -148.5t-272.5 -60.5v-185
q0 -15 -11 -26t-26 -11t-26 11t-11 26v185q-143 6 -272.5 60.5t-232.5 148.5l-130 -131q-11 -11 -26.5 -11t-25.5 11t-10 26t10 26l130 131q-93 102 -147.5 231.5t-61.5 273.5h-184q-16 0 -26.5 10.5t-10.5 25.5q0 16 10.5 26.5t26.5 10.5h184q7 144 61.5 273.5t147.5 231.5
l-130 131q-10 10 -10 25.5t10 26.5q10 10 25.5 10t26.5 -10l130 -131q103 94 232.5 148t272.5 61v185q0 15 11 25.5t26 10.5t26 -10.5t11 -25.5v-185q143 -7 272.5 -61t232.5 -148l130 131q11 10 26.5 10t25.5 -10q10 -11 10 -26.5t-10 -25.5l-130 -131
q93 -102 147.5 -231.5t61.5 -273.5h184z" />
<glyph unicode="&#x2399;" horiz-adv-x="2048" d="M1682 1974v-439h-1316v439q0 31 21 52t52 21h1170q31 0 52 -21t21 -52zM1755 1097q31 0 52.5 21t21.5 52q0 30 -21.5 51.5t-52.5 21.5q-30 0 -51.5 -21.5t-21.5 -51.5q0 -31 21.5 -52t51.5 -21zM1902 1462q60 0 103 -42.5t43 -103.5v-805q0 -60 -43 -103t-103 -43h-147
v439q0 61 -42.5 103.5t-103.5 42.5h-1170q-61 0 -103.5 -42.5t-42.5 -103.5v-439h-147q-60 0 -103 43t-43 103v805q0 61 43 103.5t103 42.5h1756zM1609 877q31 0 52 -21.5t21 -51.5v-731q0 -31 -21 -52.5t-52 -21.5h-1170q-31 0 -52 21.5t-21 52.5v731q0 30 21 51.5t52 21.5
h1170zM1426 585q15 0 26 10.5t11 25.5t-11 26t-26 11h-804q-16 0 -26.5 -11t-10.5 -26t10.5 -25.5t26.5 -10.5h804zM585 438q0 -15 10.5 -25.5t26.5 -10.5h658q15 0 26 10.5t11 25.5t-11 26t-26 11h-658q-16 0 -26.5 -11t-10.5 -26zM1426 219q15 0 26 10.5t11 25.5
q0 16 -11 26.5t-26 10.5h-804q-16 0 -26.5 -10.5t-10.5 -26.5q0 -15 10.5 -25.5t26.5 -10.5h804z" />
<glyph unicode="&#x23f0;" horiz-adv-x="2048" d="M574 1934l-460 -460q-11 -11 -26.5 -11t-26.5 11v-1q-61 101 -61 205q0 150 110 260t260 110q59 0 118.5 -20.5t86.5 -40.5h-1q11 -11 11 -26.5t-11 -26.5zM1024 1646q-15 0 -26 -11t-11 -26v-621h-402q-15 0 -25.5 -11t-10.5 -26t10.5 -26t25.5 -11h439q15 0 26 11
t11 26v658q0 15 -11 26t-26 11zM1678 2048q150 0 260 -110t110 -260q0 -104 -61 -205v1q-11 -11 -26.5 -11t-26.5 11l-460 460q-11 11 -11 26.5t11 26.5h-1q27 20 86.5 40.5t118.5 20.5zM1024 1902q193 0 369.5 -75.5t303.5 -202.5t202.5 -303.5t75.5 -369.5
q0 -191 -72 -362.5t-201 -303.5l226 -225q10 -11 10 -25t-10 -24q-10 -11 -25 -11t-25 11l-227 227q-128 -113 -289 -175.5t-338 -62.5t-338 62.5t-289 175.5l-228 -227q-10 -11 -24.5 -11t-24.5 11q-10 10 -10 24t10 25l226 225q-129 132 -201 303.5t-72 362.5
q0 193 75.5 369.5t202.5 303.5t303.5 202.5t369.5 75.5z" />
<glyph unicode="&#x23f1;" horiz-adv-x="2048" d="M1061 1900q250 -9 460 -138t332 -344t122 -467q0 -193 -75.5 -369.5t-202.5 -303.5t-303.5 -202.5t-369.5 -75.5t-369.5 75.5t-303.5 202.5t-202.5 303.5t-75.5 369.5q0 252 122 467t332 344t460 138v112q0 15 11 25.5t26 10.5t26 -10.5t11 -25.5v-112zM1725 1673l-52 52
q23 23 29.5 42.5t1.5 27.5l-5 8q-11 11 -11 26t11 25q11 11 26 11t26 -11l103 -103q11 -11 11 -26t-11 -26q-10 -11 -25 -11t-26 11q-14 11 -31.5 5t-31.5 -18zM1061 1054v592q0 15 -11 25.5t-26 10.5t-26 -10.5t-11 -25.5v-592q-32 -11 -52.5 -39.5t-20.5 -63.5t20.5 -63.5
t52.5 -39.5v-116q0 -16 11 -26.5t26 -10.5t26 10.5t11 26.5v116q32 11 52.5 39.5t20.5 63.5t-20.5 63.5t-52.5 39.5z" />
<glyph unicode="&#x23f2;" horiz-adv-x="2048" d="M1024 2047q209 0 398.5 -81t326.5 -218t218 -326.5t81 -398.5q0 -208 -81 -397.5t-218 -327t-327 -218.5t-398 -81t-398 81t-327 218.5t-218 327t-81 397.5q0 209 81 398.5t218 326.5t326.5 218t398.5 81zM1061 1023v732q0 15 -11 25.5t-26 10.5t-26 -10.5t-11 -25.5
v-695h-438q-16 0 -26.5 -10.5t-10.5 -26.5q0 -15 10.5 -25.5t26.5 -10.5h475q15 0 26 10.5t11 25.5z" />
<glyph unicode="&#x25ce;" horiz-adv-x="2048" d="M1024 2048q209 0 398.5 -81t326.5 -218t218 -326.5t81 -398.5t-81 -398.5t-218 -326.5t-326.5 -218t-398.5 -81t-398.5 81t-326.5 218t-218 326.5t-81 398.5t81 398.5t218 326.5t326.5 218t398.5 81zM1024 439q159 0 293.5 78.5t213 213t78.5 293.5t-78.5 293.5t-213 213
t-293.5 78.5t-293.5 -78.5t-213 -213t-78.5 -293.5t78.5 -293.5t213 -213t293.5 -78.5zM1024 1536q212 0 362 -150t150 -362t-150 -362t-362 -150t-362 150t-150 362t150 362t362 150zM1024 878q61 0 103.5 42.5t42.5 103.5t-42.5 103.5t-103.5 42.5t-103.5 -42.5
t-42.5 -103.5t42.5 -103.5t103.5 -42.5z" />
<glyph unicode="&#x25d0;" horiz-adv-x="2048" d="M1024 2048q209 0 398.5 -81t326.5 -218t218 -326.5t81 -398.5t-81 -398.5t-218 -326.5t-326.5 -218t-398.5 -81t-398.5 81t-326.5 218t-218 326.5t-81 398.5t81 398.5t218 326.5t326.5 218t398.5 81zM1061 75q250 9 460 138t332 344t122 467t-122 467t-332 344t-460 138
v-1898z" />
<glyph unicode="&#x2600;" horiz-adv-x="2048" d="M2011 1060q16 0 26.5 -10.5t10.5 -26.5q0 -15 -10.5 -25.5t-26.5 -10.5h-184q-7 -144 -61.5 -273.5t-147.5 -231.5l130 -131q10 -11 10 -26t-10 -26t-25.5 -11t-26.5 11l-130 131q-103 -94 -232.5 -148.5t-272.5 -60.5v-185q0 -15 -11 -26t-26 -11t-26 11t-11 26v185
q-143 6 -272.5 60.5t-232.5 148.5l-130 -131q-11 -11 -26.5 -11t-25.5 11t-10 26t10 26l130 131q-93 102 -147.5 231.5t-61.5 273.5h-184q-16 0 -26.5 10.5t-10.5 25.5q0 16 10.5 26.5t26.5 10.5h184q7 144 61.5 273.5t147.5 231.5l-130 131q-10 10 -10 25.5t10 26.5
q10 10 25.5 10t26.5 -10l130 -131q103 94 232.5 148t272.5 61v185q0 15 11 25.5t26 10.5t26 -10.5t11 -25.5v-185q143 -7 272.5 -61t232.5 -148l130 131q11 10 26.5 10t25.5 -10q10 -11 10 -26.5t-10 -25.5l-130 -131q93 -102 147.5 -231.5t61.5 -273.5h184z" />
<glyph unicode="&#x2601;" horiz-adv-x="2048" d="M1390 219h-878q-212 0 -362 150t-150 362q0 206 142.5 354t346.5 157q-14 54 -14 111q0 97 37.5 184.5t101.5 151.5t152 101.5t185 37.5q146 0 265 -81t174 -212q134 0 255.5 -52t210 -140t140.5 -210t52 -256t-52 -255.5t-140.5 -210t-210 -140.5t-255.5 -52z" />
<glyph unicode="&#x2602;" horiz-adv-x="2048" d="M1061 1899q187 -7 356.5 -81.5t291.5 -196t194 -287t72 -347.5q0 -15 -11 -26t-26 -11h-877v-621q0 -137 -96.5 -233.5t-233.5 -96.5q-136 0 -232.5 97t-96.5 233q0 15 11 25.5t26 10.5t25.5 -10.5t10.5 -25.5q0 -106 75 -181t181 -75q107 0 181.5 74.5t74.5 181.5v621
h-877q-15 0 -26 11t-11 26q0 182 72 347.5t194 287t291.5 196t356.5 81.5v112q0 15 11 25.5t26 10.5t26 -10.5t11 -25.5v-112z" />
<glyph unicode="&#x2607;" horiz-adv-x="2048" d="M1536 1280l-622 -1280l110 878h-512l293 1170h512l-220 -768h439z" />
<glyph unicode="&#x2615;" horiz-adv-x="2048" d="M1682 1499q152 0 259 -107.5t107 -258.5v-256q0 -151 -107 -258.5t-259 -107.5h-73v-146q0 -99 -107.5 -183.5t-293 -133.5t-403.5 -49q-219 0 -404.5 49t-293 133.5t-107.5 183.5v1317q0 99 107.5 183t293 133t404.5 49q218 0 403.5 -49t293 -133t107.5 -183v-183h73z
M805 1389q199 0 367 39t266 106.5t98 147.5q0 79 -97.5 146.5t-266 106.5t-367.5 39t-367.5 -39t-266.5 -106.5t-98 -146.5q0 -80 98 -147.5t266.5 -106.5t367.5 -39zM1975 877v256q0 121 -85.5 207t-207.5 86h-73v-841h73q121 0 207 85.5t86 206.5z" />
<glyph unicode="&#x2620;" horiz-adv-x="2048" d="M841 1682q-30 0 -51.5 -21t-21.5 -52q0 -30 21.5 -51.5t51.5 -21.5q31 0 52 21.5t21 51.5q0 31 -21 52t-52 21zM1207 1682q-31 0 -52 -21t-21 -52q0 -30 21 -51.5t52 -21.5q30 0 51.5 21.5t21.5 51.5q0 31 -21.5 52t-51.5 21zM951 1280q-15 0 -26 -10.5t-11 -26.5
q0 -15 11 -25.5t26 -10.5h146q15 0 26 10.5t11 25.5q0 16 -11 26.5t-26 10.5q-36 37 -36 73q0 15 -11 26t-26 11t-26 -11t-11 -26q0 -16 -9 -34.5t-18 -28.5zM274 658q-68 0 -116 48.5t-48 116.5q0 74 57 123q30 26 64 35q-12 33 -12 61q0 68 48.5 116.5t116.5 48.5
t116.5 -48.5t48.5 -116.5q0 -33 -15 -66l353 -163l-340 -157l-144 66q-32 -43 -85 -57q-4 -2 -6 -2q-20 -5 -38 -5zM658 1134v195q-109 122 -109 280q0 182 139 310.5t336 128.5t336 -128.5t139 -310.5q0 -158 -109 -280v-195q0 -61 -43 -104t-104 -43q-33 0 -63 16
q-24 -41 -65.5 -65t-90.5 -24t-90.5 24t-65.5 65q-30 -16 -63 -16q-61 0 -104 43t-43 104zM1645 722l-1105 -508q9 -27 9 -49q0 -68 -48.5 -116.5t-116.5 -48.5t-116.5 48.5t-48.5 116.5q0 28 12 61q-53 14 -87 58t-34 100q0 68 48 116.5t116 48.5q43 0 80.5 -21.5
t59.5 -57.5l1100 506q-15 33 -15 66q0 68 48.5 116.5t116.5 48.5t116.5 -48.5t48.5 -116.5q0 -28 -12 -61q53 -14 87 -58t34 -100q0 -68 -48 -116.5t-116 -48.5q-80 0 -129 64zM1774 549q68 0 116 -48.5t48 -116.5q0 -56 -34 -100t-87 -58q12 -33 12 -61q0 -68 -48.5 -116.5
t-116.5 -48.5t-116.5 48.5t-48.5 116.5q0 22 9 49l-349 161l340 157l135 -62q22 36 59.5 57.5t80.5 21.5z" />
<glyph unicode="&#x2622;" horiz-adv-x="2048" d="M874 1393q-94 -62 -137 -141t-43 -191h-694q0 295 126 527t369 386zM1553 1974q243 -154 368.5 -386t125.5 -527h-694q0 113 -43 192.5t-137 139.5zM1024 914q-76 0 -129.5 53.5t-53.5 129.5t53.5 129.5t129.5 53.5t129.5 -53.5t53.5 -129.5t-53.5 -129.5t-129.5 -53.5z
M814 841q102 -69 209.5 -69t210.5 69l379 -581q-273 -186 -589 -186q-313 0 -590 186z" />
<glyph unicode="&#x263b;" horiz-adv-x="2048" d="M1170 2047q168 0 294.5 -19t226 -62.5t166 -110t110 -166t62.5 -226t19 -293.5v-293q0 -167 -19 -293.5t-62.5 -226t-110 -166.5t-166 -110.5t-226 -62.5t-294.5 -19h-292q-168 0 -294.5 19t-226 62.5t-166 110.5t-110 166.5t-62.5 226t-19 293.5v293q0 167 19 293.5
t62.5 226t110 166t166 110t226 62.5t294.5 19h292zM512 1243q0 -61 43 -103.5t103 -42.5q61 0 104 42.5t43 103.5t-43 103.5t-104 42.5q-60 0 -103 -42.5t-43 -103.5zM1390 1097q60 0 103 42.5t43 103.5t-43 103.5t-103 42.5q-61 0 -104 -42.5t-43 -103.5t43 -103.5
t104 -42.5zM1024 548q60 0 115 6t95.5 16t75 22t59 24.5t40.5 22t26 17.5l10 7l-38 63q-3 -3 -15.5 -11.5t-46.5 -25.5t-75.5 -31.5t-107.5 -25.5t-138 -11t-138 11.5t-107.5 25.5t-75.5 31t-46.5 25.5t-15.5 11.5l-38 -63l10 -7q10 -8 26 -17.5t40.5 -22t59 -24t75 -21.5
t95.5 -16.5t115 -6.5z" />
<glyph unicode="&#x2665;" horiz-adv-x="2048" d="M1463 1938q159 0 293.5 -78.5t213 -213t78.5 -293.5q0 -119 -35.5 -233.5t-93.5 -208t-137.5 -184t-163 -161t-174.5 -141t-167 -122t-146.5 -104.5t-106.5 -90q-36 37 -106.5 90t-146.5 104.5t-167 122t-174.5 141t-163 161t-137.5 184t-93.5 208t-35.5 233.5
q0 159 78.5 293.5t213 213t293.5 78.5q129 0 243 -53t196 -146q82 93 196 146t243 53z" />
<glyph unicode="&#x266a;" horiz-adv-x="2048" d="M1280 2014q0 -116 28.5 -192t105.5 -147q46 -42 69.5 -64.5t60 -65.5t55 -77.5t33 -84t14.5 -101.5q0 -97 -17.5 -178t-38.5 -124.5t-50 -77.5t-40 -41.5t-21 -13.5q-10 -4 -16 -4q-22 0 -33 21q-7 13 -2 27.5t18 21.5q2 0 13.5 9t31.5 35.5t38 65t31 107.5t13 152
q0 43 -12.5 84t-28.5 70.5t-49 67t-54 58t-64 59.5q-47 43 -85 99v-1316q0 -104 -68.5 -197.5t-185 -150t-249.5 -56.5q-166 0 -270.5 85.5t-104.5 211.5q0 74 39 146t105.5 127.5t161 89.5t197.5 34q92 0 171 -30t131 -85v1435q0 15 10.5 25.5t25.5 10.5q16 0 26.5 -10.5
t10.5 -25.5z" />
<glyph unicode="&#x266b;" horiz-adv-x="2048" d="M375 0q-162 0 -269 79.5t-107 201.5q0 97 69.5 184t185 139.5t244.5 52.5q44 0 87 -6v1214q0 14 9.5 24t23.5 12v1l1390 146v-1l1 1h2q16 0 26.5 -10.5t10.5 -25.5v-1462q0 -119 -74 -213t-187.5 -142t-240.5 -48q-162 0 -269 79.5t-107 201.5q0 97 69.5 184t185 139.5
t244.5 52.5q47 0 86 -7v881l-877 -101v-1174q0 -119 -74.5 -213t-188 -142t-240.5 -48z" />
<glyph unicode="&#x2672;" horiz-adv-x="2048" d="M2032 767h-489l-212 425q-7 13 -2 27.5t18 21.5l166 77l-269 23l-157 13h-1q-15 0 -26 10.5t-11 25.5t11 26t26 11l1 -1h2v1l102 -8l-166 244l-260 380q30 4 46 4h403q126 0 197 -44t128 -158q48 -95 94 -175l48 120h1q8 23 33 23q16 0 26.5 -10.5t10.5 -25.5
q0 -9 -3 -15l-168 -412l169 79q13 7 28 2t22 -18l221 -419q46 -123 11 -227zM623 983l-376 -640l-204 351h2q-35 67 -42 125t9 113.5t58 128.5q57 98 105 173l-122 -17v1q-2 -1 -5 -1q-15 0 -26 10.5t-11 25.5q0 14 9.5 24t22.5 12v1l441 62l-165 115q-1 0 -2 1
q-13 9 -15.5 23.5t6.5 27.5l252 401q57 71 131 103l290 -426l-248 -375v1q-9 -13 -24 -15.5t-27 6.5v-1l-131 92l183 -386l1 -1h-1q3 -6 3 -13q0 -16 -10.5 -26.5t-25.5 -10.5q-20 0 -32 19v-1zM1327 18q-15 0 -25 10h-1q0 1 -1 2l-276 355v-166q0 -15 -10.5 -26t-26.5 -11
h-493q-5 0 -13.5 0.5t-33 6t-48 14.5t-53.5 28.5t-54 45.5l246 417h449q16 0 26.5 -10.5t10.5 -25.5v-189l159 226l95 135q10 17 31 17q15 0 25.5 -10.5t10.5 -25.5q0 -12 -8 -22h1l-66 -94l724 -1l-192 -333q-61 -104 -135.5 -141.5t-205.5 -37.5h-190l83 -106q7 -12 7 -22
q0 -15 -10.5 -25.5t-25.5 -10.5z" />
<glyph unicode="&#x2691;" horiz-adv-x="2048" d="M582 2049q116 0 213.5 -22.5t169 -55l143 -65t170.5 -55t217 -22.5q119 0 229.5 27.5t161.5 54.5l52 27v-1097q-7 -4 -20.5 -11.5t-58.5 -26.5t-93 -33t-122 -26t-149 -12q-119 0 -219.5 22.5t-172.5 55t-143.5 65t-168 55t-210.5 22.5q-203 0 -398 -77v-875h-73v1938
q8 5 23 12t64 26.5t101 34t129.5 26.5t154.5 12z" />
<glyph unicode="&#x2693;" horiz-adv-x="2048" d="M2011 732q16 0 26.5 -11t10.5 -26v-366q0 -15 -10.5 -25.5t-26.5 -10.5q-15 0 -25.5 10.5t-10.5 25.5v252q-51 -67 -109 -131.5t-155 -150t-196.5 -148t-230.5 -107t-260 -44.5t-260 44.5t-230.5 107t-196.5 148t-155 150t-109 131.5v-252q0 -15 -10.5 -25.5t-25.5 -10.5
q-16 0 -26.5 10.5t-10.5 25.5v366q0 15 10.5 26t26.5 11h365q15 0 26 -11t11 -26t-11 -26t-26 -11h-295q40 -54 85.5 -108.5t124 -131.5t160 -138.5t189 -115.5t214.5 -75l51 1008h-353q-11 -32 -39.5 -52.5t-63.5 -20.5q-45 0 -77 32t-32 78q0 45 32 77.5t77 32.5
q35 0 63.5 -20.5t39.5 -53.5h356l15 303q-95 25 -156.5 103.5t-61.5 179.5q0 121 86 206.5t207 85.5t207 -85.5t86 -206.5q0 -101 -61.5 -179.5t-156.5 -103.5l15 -303h356q11 33 39.5 53.5t63.5 20.5q45 0 77 -32.5t32 -77.5q0 -46 -32 -78t-77 -32q-35 0 -63.5 20.5
t-39.5 52.5h-353l51 -1008q107 21 214.5 75t189 115.5t160 138.5t124 131.5t85.5 108.5h-295q-15 0 -26 11t-11 26t11 26t26 11h365z" />
<glyph unicode="&#x2694;" horiz-adv-x="2048" d="M327 1902h220q14 0 26 -10l399 -399l-271 -271l-398 397q-10 12 -10 26v220q0 15 9.5 26t24.5 11zM1891 815l-512 -512q-11 -11 -26 -11t-26 11l-146 146q-11 11 -11 26t11 26l120 120l-225 226l271 271l226 -226l120 121q12 10 26 10t26 -10l146 -147q11 -9 11 -25
q0 -17 -11 -26zM1475 1892q12 10 26 10h220q15 0 24.5 -11t9.5 -26v-220q0 -14 -10 -26l-998 -998l120 -120q11 -11 11 -26t-11 -26l-146 -146q-11 -11 -26 -11t-26 11l-512 512q-11 9 -11 26q0 16 11 25l146 147q12 10 26 10t26 -10l120 -121zM11 354l252 252l198 -198
l-252 -252q-12 -10 -26 -10t-26 10l-146 147q-11 9 -11 26q0 16 11 25zM2037 354q11 -9 11 -25q0 -17 -11 -26l-146 -147q-12 -10 -26 -10t-26 10l-252 252l198 198z" />
<glyph unicode="&#x2696;" horiz-adv-x="2048" d="M642 1061l-276 737l-277 -737h553zM1536 73v-73h-1024v73q0 61 42.5 104t103.5 43h256v1648q-17 8 -47 24q-44 23 -65 33t-56.5 24t-57.5 16.5t-56 3.5t-65 -8t-71.5 -25t-87.5 -42l321 -857q2 -8 2 -13q0 -8 -3 -15q-17 -102 -120 -171.5t-242 -69.5t-242 69t-120 172
q-4 7 -4 15q0 7 3 13h-1l314 836l13 65q104 62 180.5 89.5t147 20t112 -23.5t125.5 -58l22 -11q6 39 36.5 66t71.5 27q46 0 78 -32t32 -78v-238q54 30 89.5 46.5t82 31.5t86.5 15t91.5 -9t108.5 -35t126 -67l17 -71l311 -830h-1q3 -6 3 -13q0 -8 -4 -15q-17 -103 -120 -172
t-242 -69t-241.5 69t-119.5 172q-4 10 -4 15t2 13l321 856q-105 58 -178.5 71t-143 -9t-184.5 -88v-1391h256q61 0 103.5 -43t42.5 -104zM1682 1542l-276 -737h553z" />
<glyph unicode="&#x2698;" horiz-adv-x="2048" d="M878 1609q0 -61 42.5 -104t103.5 -43t103.5 43t42.5 104q0 60 -42.5 103t-103.5 43t-103.5 -43t-42.5 -103zM1682 987q0 -3 -2 -11h1l-76 -245h-1162l-76 245h1q-2 8 -2 11q0 15 10.5 25.5t25.5 10.5h585v151q-72 16 -112 74q-44 -8 -86.5 5t-74.5 45q-67 67 -51 161
q-78 55 -78 150q0 94 78 149q-16 94 51 161q32 32 74.5 45t86.5 5q55 78 149 78t149 -78q44 8 86.5 -5t74.5 -45q67 -67 51 -161q78 -55 78 -149q0 -95 -78 -150q16 -94 -51 -161q-32 -32 -74.5 -45t-86.5 -5q-40 -58 -112 -74v-151h585q15 0 25.5 -10.5t10.5 -25.5z
M1353 -1h-658q-26 0 -35 26l-195 633h1118l-195 -633q-9 -26 -35 -26z" />
<glyph unicode="&#x2699;" horiz-adv-x="2048" d="M1024 731q121 0 207 85.5t86 206.5t-85.5 207t-207.5 86t-207.5 -86t-85.5 -207t86 -206.5t207 -85.5zM1173 26q-9 -27 -36 -27h-226q-27 0 -36 27h-1l-77 264q-68 21 -130 54l-243 -132v1q-24 -14 -44 6l-160 160q-19 21 -7 45l132 243q-33 61 -54 129l-264 78
q-27 8 -27 36v227q0 28 27 35v1l264 78q21 67 54 129l-132 243q-12 25 7 44l160 161q20 20 44 6v1l243 -133q74 39 137 57l75 262h1q7 26 34 26h220q27 0 34 -26h1l75 -262q68 -20 144 -60l239 132q26 13 43 -6l156 -155q18 -20 5 -43l1 -1l-133 -239q37 -67 60 -144
l262 -75q27 -8 27 -35v-219q0 -27 -27 -35l-262 -75q-22 -75 -60 -145l133 -238l-1 -1q13 -23 -5 -43l-156 -155q-18 -20 -43 -6l-239 132q-68 -37 -137 -58l-77 -264h-1z" />
<glyph unicode="&#x269b;" horiz-adv-x="2048" d="M1024 1975q-85 0 -159.5 -95.5t-125.5 -261.5q134 -36 284 -103q144 64 286 103q-51 166 -125.5 261.5t-159.5 95.5zM1681 1074q119 127 164 239.5t2 186.5q-54 95 -237 95q-96 0 -215 -27q36 -133 55 -298q126 -93 231 -196zM438 1595q-183 0 -237 -95q-43 -74 2.5 -186
t163.5 -240q101 101 232 196q17 164 54 298q-119 27 -215 27zM720 1551q-26 -101 -42 -226q117 79 259 150q-118 49 -217 76zM1371 1325q-17 125 -43 226q-99 -27 -217 -76q134 -67 260 -150zM1380 817q17 195 1 413q-166 115 -358 206q-189 -88 -355 -205q-19 -214 -1 -413
q166 -115 358 -206q189 92 355 205zM590 874q-9 150 0 300q-91 -69 -174 -150q76 -75 174 -150zM1458 1174q9 -150 0 -300q98 75 174 150q-83 81 -174 150zM1024 1097q30 0 51.5 -21.5t21.5 -51.5t-21.5 -51.5t-51.5 -21.5t-51.5 21.5t-21.5 51.5t21.5 51.5t51.5 21.5z
M367 975q-119 -128 -164 -240t-2 -186q55 -96 239 -96q96 0 213 27q-36 133 -55 298q-129 95 -231 197zM1608 453q184 0 239 96q43 74 -2.5 186t-163.5 239q-107 -106 -232 -196q-17 -162 -54 -298q117 -27 213 -27zM677 724q17 -127 43 -227q99 27 217 76q-147 74 -260 151
zM1328 497q26 101 42 226q-109 -73 -259 -149q114 -49 217 -77zM1024 73q85 0 159.5 95.5t125.5 262.5q-131 35 -284 102q-147 -65 -286 -102q51 -167 125.5 -262.5t159.5 -95.5zM1911 1536q51 -97 2 -230t-185 -282q136 -149 185 -282t-2 -230q-72 -125 -305 -125
q-106 0 -230 27q-61 -192 -153.5 -303t-198.5 -111t-198.5 111t-153.5 303q-125 -27 -230 -27q-233 0 -305 125q-51 97 -2 230t185 282q-136 149 -185 282t2 230q72 125 305 125q106 0 230 -27q61 192 153.5 303t198.5 111t198.5 -111t153.5 -303q125 27 230 27
q233 0 305 -125z" />
<glyph unicode="&#x26a0;" horiz-adv-x="2048" d="M2038 181q10 -17 10 -35q0 -31 -21.5 -52t-51.5 -21h-1902q-30 0 -51.5 21t-21.5 52q0 18 10 35h-1l952 1758h1q20 35 62 35t62 -35h1l952 -1758h-1zM1097 731l73 512q0 30 -21 51.5t-52 21.5h-146q-31 0 -52 -21.5t-21 -51.5l73 -512q0 -31 21.5 -52t51.5 -21t51.5 21
t21.5 52zM1024 292q61 0 103.5 43t42.5 103q0 61 -42.5 104t-103.5 43t-103.5 -43t-42.5 -104q0 -60 42.5 -103t103.5 -43z" />
<glyph unicode="&#x26bd;" horiz-adv-x="2048" d="M1024 2048q209 0 398.5 -81t326.5 -218t218 -326.5t81 -398.5t-81 -398.5t-218 -326.5t-326.5 -218t-398.5 -81t-398.5 81t-326.5 218t-218 326.5t-81 398.5t81 398.5t218 326.5t326.5 218t398.5 81zM1341 128q241 86 406 279l-277 28l-215 305l88 352l387 119l244 -162
q-7 273 -157 498l-119 -269l-377 -116l-260 232v357l216 189q-16 4 -46 12h-2q-101 23 -205 23q-146 0 -284 -43l247 -186v-349l-295 -236l-340 113l-121 273q-6 -7 -25 -39q-133 -225 -133 -484q0 -5 1 -8l246 192l349 -116l86 -346l-180 -280l-277 -55q3 -3 9 -9.5
t9 -10.5q168 -187 401 -266l-81 300l173 270h388l212 -300l-113 -282z" />
<glyph unicode="&#x26be;" horiz-adv-x="2048" d="M247 1085q-102 -24 -210 -24q-6 0 -17.5 0.5t-17.5 0.5q10 264 143 486t355 355t486 143q0 -6 0.5 -17.5t0.5 -17.5q0 -108 -24 -210l-69 19q-15 4 -28 -4t-17 -22q-4 -15 3.5 -28t22.5 -17l70 -19q-25 -82 -68 -162l-62 36q-14 7 -28 3.5t-22 -16.5q-7 -14 -3.5 -28
t16.5 -22l62 -36q-43 -70 -106 -139l-51 51q-11 11 -26 11t-26 -11t-11 -26t11 -26l51 -51q-69 -63 -139 -106l-36 62q-8 13 -22 16.5t-28 -3.5q-13 -8 -16.5 -22t3.5 -28l36 -62q-80 -43 -162 -68l-19 70q-4 15 -17 22.5t-28 3.5q-14 -4 -22 -17t-4 -28zM961 356
q-14 4 -27 -4t-18 -22q-4 -15 4 -28t22 -17l72 -19q-27 -118 -27 -229q0 -7 1 -19t1 -18h-75q-14 0 -24 10q-182 24 -343 109.5t-279 214.5t-189 299t-77 356q5 0 17 -1t18 -1q111 0 229 27l19 -72q4 -14 17 -22t28 -4q14 5 22 18t4 27l-19 71q94 30 179 75l37 -64
q8 -13 22.5 -17t27.5 4q13 7 17.5 22t-3.5 28l-38 64q79 49 155 119l52 -53q11 -10 26.5 -10t25.5 10t10 25t-10 26l-53 53q70 76 119 155l64 -38q13 -8 28 -3.5t22 17.5t3.5 27.5t-16.5 22.5l-64 37q43 81 75 179l71 -19q14 -4 27 4t18 22q4 15 -4 28t-22 17l-72 19
q27 118 27 229q0 6 -1 18t-1 17q198 -7 377.5 -87t311 -211.5t211.5 -311t87 -377.5q-5 0 -17 1t-18 1q-111 0 -229 -27l-19 72q-4 14 -17.5 22t-27.5 4q-15 -4 -22.5 -17.5t-3.5 -27.5l19 -71q-96 -30 -179 -75l-37 64q-8 13 -22.5 17t-27.5 -4q-13 -7 -17.5 -22t3.5 -28
l38 -64q-79 -49 -155 -119l-53 53q-11 10 -26 10t-25 -10q-11 -10 -11 -25t11 -26l53 -53q-70 -76 -119 -155l-64 38q-13 8 -28 3.5t-22 -17.5q-8 -13 -4.5 -27.5t17.5 -22.5l64 -37q-43 -81 -75 -179zM1801 963q102 24 210 24q6 0 18 -0.5t17 -0.5q-7 -186 -78 -355.5
t-188.5 -297.5t-279 -213.5t-342.5 -109.5q-10 -10 -24 -10h-72q0 6 -0.5 18t-0.5 19q0 108 24 210l69 -19q15 -4 28 4t17 22q4 15 -3.5 28t-22.5 17l-70 19q25 82 68 162l62 -36q13 -7 27.5 -3.5t22.5 16.5q7 14 3.5 28t-16.5 22l-62 36q43 70 106 139l51 -51
q11 -11 26 -11t26 11t11 26t-11 26l-51 51q69 63 139 106l36 -62q8 -13 22 -16.5t28 3.5q13 8 16.5 22t-3.5 28l-36 62q80 43 162 68l19 -70q4 -15 17 -22.5t28 -3.5q14 4 22 17t4 28z" />
<glyph unicode="&#x26c5;" horiz-adv-x="2048" d="M37 987q-16 0 -26.5 10.5t-10.5 25.5q0 16 10.5 26.5t26.5 10.5h184q7 144 61 273.5t148 231.5l-130 131q-10 10 -10 25.5t10 26.5q10 10 25.5 10t26.5 -10l130 -131q103 94 232.5 148t272.5 61v185q0 15 11 25.5t26 10.5t26 -10.5t11 -25.5v-185q143 -7 272.5 -61
t232.5 -148l130 131q11 10 26.5 10t25.5 -10q10 -11 10 -26.5t-10 -25.5l-130 -131q117 -130 171 -295q-182 119 -399 119q-195 0 -360.5 -95t-263.5 -256q-123 59 -254 59q-187 0 -340 -110h-135zM1390 -1h-878q-139 0 -257 68.5t-186.5 186.5t-68.5 257q0 212 150 362
t362 150q156 0 283 -85q80 170 240.5 274t354.5 104q134 0 255.5 -52t210 -140.5t140.5 -210t52 -255.5t-52 -256t-140.5 -210.5t-210 -140.5t-255.5 -52z" />
<glyph unicode="&#x26c8;" horiz-adv-x="2048" d="M889 670l-116 -232h-261q-139 0 -257 68.5t-186.5 186.5t-68.5 257q0 206 142.5 354t346.5 157q-14 56 -14 111q0 197 139.5 336t336.5 139q146 0 265 -80.5t174 -211.5q134 0 255.5 -52t210 -140.5t140.5 -210t52 -255.5t-52 -256t-140.5 -210.5t-210 -140.5t-255.5 -52
h-189l67 134q12 26 12 49q0 46 -32 78t-78 32h-183q-31 0 -57 -17t-40 -44h-1zM878 -1q-15 0 -26 11t-11 26q0 7 3 13v1l24 96h-100q-15 0 -26 10.5t-11 25.5q0 2 3 14q0 1 1 1l218 438h1q9 23 33 23h183q15 0 26 -11t11 -26q0 -7 -6 -19l-118 -237h51q15 0 25.5 -10.5
t10.5 -25.5t-9 -24l-255 -293h-1q-13 -13 -27 -13z" />
<glyph unicode="&#x26f0;" horiz-adv-x="2048" d="M1531 420h-1q6 -8 6 -18q0 -15 -10.5 -26t-26.5 -11h-1462q-16 0 -26.5 11t-10.5 26q0 10 6 18h-1l731 1244l1 -1q10 19 31 19t31 -19l1 1zM2011 365h-292q-20 0 -31 18l-323 548l1 1q-6 8 -6 18q0 12 9 23l-1 1l179 185l1 1q10 10 25 10q19 0 30 -18h1l439 -731l-1 -1
q6 -8 6 -18q0 -15 -10.5 -26t-26.5 -11zM888 1122q11 11 26 11q10 0 18 -5l146 -81l-310 526l-309 -526l145 81q8 5 18 5q15 0 26 -11l120 -120z" />
<glyph unicode="&#x26f3;" horiz-adv-x="2048" d="M658 5q-118 8 -219 27v1687q-73 56 -73 146q0 76 53.5 129t129.5 53t129 -53t53 -129q0 -87 -69 -143l634 -300q21 -10 21 -33t-21 -33l-638 -302v-1049zM805 585q164 0 312.5 -23t256.5 -62.5t171.5 -93.5t63.5 -114t-63.5 -114t-171.5 -93.5t-256.5 -62.5t-312.5 -23
q-24 0 -74 2v581q8 0 23 1t27.5 1.5t23.5 0.5zM0 292q0 76 99 140.5t267 104.5v-490q-168 40 -267 104.5t-99 140.5zM1902 438q60 0 103 -42.5t43 -103.5t-43 -103.5t-103 -42.5q-61 0 -104 42.5t-43 103.5t43 103.5t104 42.5z" />
<glyph unicode="&#x26f5;" horiz-adv-x="2048" d="M2011 512q16 0 26.5 -10.5t10.5 -26.5q0 -10 -1 -27t-10.5 -66.5t-25.5 -94.5t-52 -99.5t-84 -94t-126.5 -66.5t-175.5 -27h-1098q-76 0 -141 16t-110.5 43.5t-82.5 63.5t-59.5 75.5t-39.5 78.5t-24.5 75t-12 63.5t-5.5 43.5v16q0 16 10.5 26.5t26.5 10.5h914v1499
q0 16 10.5 26.5t25.5 10.5q16 0 26.5 -10.5t10.5 -26.5v-1499h987zM1104 643q132 186 130.5 488.5t-136.5 871.5q-5 24 14 38t40 2q129 -76 242 -173t195 -193.5t151.5 -205.5t115 -204t82 -194.5t55.5 -171t33 -140t17.5 -94.5t4.5 -41v-1q2 -17 -10 -28q-10 -12 -27 -12
h-877q-23 0 -33 20t3 38zM841 585h-658q-15 0 -26 11t-11 26q0 11 8 21v1l658 877q12 15 29 15q15 0 26 -10.5t11 -26.5v-877q0 -15 -11 -26t-26 -11z" />
<glyph unicode="&#x26fd;" horiz-adv-x="2048" d="M1024 1755h-731v-585h731v585zM951 1243h-585v439h585v-439zM2004 624q45 -94 45 -147q0 -60 -16 -115.5t-49 -105t-92 -79t-136 -29.5q-167 0 -254 91q-49 52 -70.5 134t-18.5 167t7 181q7 98 7 149q0 102 -59 149q-68 55 -198 40v-840h110q15 0 26 -10.5t11 -25.5
t-11 -26t-26 -11h-1243q-16 0 -26.5 11t-10.5 26t10.5 25.5t26.5 10.5h109v1610q0 30 21.5 51.5t51.5 21.5h878q31 0 52 -21.5t21 -51.5v-697q155 16 244 -56q86 -68 86 -206q0 -58 -7 -153q-5 -85 -6 -129t2.5 -110.5t20 -112t46.5 -76.5q62 -68 200 -68q77 0 128 39.5
t71 95t20 121.5q0 39 -37 115q-22 46 -34 76t-25 89.5t-13 122.5q0 104 18 160t18 96q0 47 -26.5 88t-97.5 88q-30 -32 -67 -32t-70 23t-68.5 57.5t-63.5 68t-54 57.5t-41 24q-52 0 -59.5 22.5t22.5 49.5q28 27 87 27t168 -27q5 -1 13.5 -4t34 -13t45 -21.5t46 -30t37 -38.5
t19 -47t-8.5 -55q80 -53 118.5 -109t38.5 -128q0 -48 -18 -101t-18 -155q0 -56 11.5 -108.5t22 -78t31.5 -69.5z" />
<glyph unicode="&#x2702;" horiz-adv-x="2048" d="M614 1063q-201 159 -433 288q-82 42 -131.5 121t-49.5 173q0 137 96 233t233 96t233 -96t96 -233q0 -111 -67 -199l251 -191q-52 -45 -228 -192zM329 73q-136 0 -232.5 96t-96.5 232q0 95 49.5 174t131.5 120q219 121 383 249t574 484q45 39 68 59q381 366 645 339
q34 -3 65 -13.5t49.5 -22t34.5 -25t21 -19.5t7 -10l20 -29l-1457 -1107q67 -88 67 -199q0 -136 -96.5 -232t-232.5 -96zM329 1718q-30 0 -51.5 -21t-21.5 -52q0 -30 21.5 -51.5t51.5 -21.5q31 0 52 21.5t21 51.5q0 31 -21 52t-52 21zM903 1060q-15 0 -26 -10.5t-11 -26.5
q0 -15 11 -25.5t26 -10.5t25.5 10.5t10.5 25.5q0 16 -10.5 26.5t-25.5 10.5zM944 786l255 197l849 -646l-20 -28q-4 -7 -19 -23t-59.5 -39t-98.5 -29q-263 -27 -645 340q-215 185 -262 228zM329 328q31 0 52 21.5t21 52.5q0 30 -21 51.5t-52 21.5q-30 0 -51.5 -21.5
t-21.5 -51.5q0 -31 21.5 -52.5t51.5 -21.5z" />
<glyph unicode="&#x2708;" horiz-adv-x="2048" d="M1463 37q0 -16 -11 -26.5t-26 -10.5q-9 0 -17 5l-385 209l-385 -209q-8 -5 -17 -5q-15 0 -26 10.5t-11 26.5v146q0 15 11 26l209 209v442l-681 -272h-1q-6 -3 -13 -3q-15 0 -26 11t-11 26v146q0 18 16 30l716 501v530q0 91 64 155t155 64t155 -64t64 -155v-530l716 -501
q16 -12 16 -30v-146q0 -15 -11 -26t-26 -11q-7 0 -13 3h-1l-681 272v-442l209 -209q11 -11 11 -26v-146z" />
<glyph unicode="&#x2709;" horiz-adv-x="2048" d="M1076 789q-22 -22 -52.5 -22t-52.5 22l-893 893h1890zM11 1648l624 -624l-624 -625q-11 19 -11 39v1171q0 20 11 39zM2036 1648q12 -17 12 -39v-1171q0 -22 -12 -39l-624 625zM1125 738l236 235l607 -608h-1890l608 608l235 -235q43 -43 102.5 -43t101.5 43z" />
<glyph unicode="&#x270e;" horiz-adv-x="2048" d="M2037 1525q11 -11 11 -26t-11 -26l-248 -248l-564 563l249 249q10 10 25 10q16 0 26 -10zM658 212v226h-183q-15 0 -25.5 11t-10.5 26v183h-227l-127 -574zM44 1q-4 -2 -7 -2q-16 0 -26.5 11t-10.5 26q0 2 0.5 4t0.5 4l146 658h1q1 9 10 18h-1l1016 1017l564 -564
l-1016 -1017q-7 -6 -18 -9l-658 -147z" />
<glyph unicode="&#x2713;" horiz-adv-x="2048" d="M1170 2047q168 0 294.5 -19t226 -62.5t166 -110t110 -166t62.5 -226t19 -293.5v-293q0 -167 -19 -293.5t-62.5 -226t-110 -166.5t-166 -110.5t-226 -62.5t-294.5 -19h-292q-168 0 -294.5 19t-226 62.5t-166 110.5t-110 166.5t-62.5 226t-19 293.5v293q0 167 19 293.5
t62.5 226t110 166t166 110t226 62.5t294.5 19h292zM1525 1290q11 11 11 26t-10.5 26t-26.5 11q-14 0 -25 -11l-560 -559l-340 339q-9 11 -25 11t-26.5 -10.5t-10.5 -25.5q0 -17 11 -26l365 -366q11 -11 26 -11q17 0 26 11z" />
<glyph unicode="&#x2753;" horiz-adv-x="2048" d="M1024 2048q209 0 398.5 -81t326.5 -218t218 -326.5t81 -398.5q0 -208 -81 -397.5t-218 -327t-327 -218.5t-398 -81t-398 81t-327 218.5t-218 327t-81 397.5q0 209 81 398.5t218 326.5t326.5 218t398.5 81zM1280 1259q0 105 -66 173t-178 68q-108 0 -180.5 -65.5
t-87.5 -176.5l125 -13q6 65 44 105t97 40q56 0 92.5 -39.5t36.5 -97.5q0 -27 -8.5 -51.5t-29 -50t-32.5 -38t-41 -40.5q-56 -54 -71 -88t-15 -94v-77h117v57q0 52 10.5 76t50.5 64l85 92q51 70 51 156zM1022 549q35 0 58 25t23 61t-23 60.5t-58 24.5t-57.5 -24.5
t-22.5 -60.5t22.5 -61t57.5 -25z" />
<glyph unicode="&#x27a1;" horiz-adv-x="2048" d="M549 0q-16 0 -26.5 10.5t-10.5 26.5q0 13 10 25l927 962l-927 962q-10 12 -10 26q0 15 10.5 25.5t26.5 10.5q15 0 26 -11l951 -988q10 -10 10 -25t-10 -25l-951 -988q-11 -11 -26 -11z" />
<glyph unicode="&#x2922;" horiz-adv-x="2048" d="M2011 2048q16 0 26.5 -10.5t10.5 -26.5v-731q0 -15 -10.5 -26t-26.5 -11q-15 0 -25.5 11t-10.5 26v643l-742 -742q-11 -11 -26 -11t-26 11t-11 26t11 26l742 742h-643q-15 0 -26 10.5t-11 25.5q0 16 11 26.5t26 10.5h731zM841 878q15 0 26 -11t11 -26t-11 -26l-742 -742
h643q15 0 26 -10.5t11 -25.5q0 -16 -11 -26.5t-26 -10.5h-731q-16 0 -26.5 10.5t-10.5 26.5v731q0 15 10.5 26t26.5 11q15 0 25.5 -11t10.5 -26v-643l742 742q11 11 26 11z" />
<glyph unicode="&#x2940;" horiz-adv-x="2048" d="M987 1463q16 0 26.5 -11t10.5 -26v-475h256q15 0 26 -11t11 -26t-11 -25.5t-26 -10.5h-293q-15 0 -25.5 10.5t-10.5 25.5v512q0 15 10.5 26t25.5 11zM1024 2048q209 0 398.5 -81t326.5 -218t218 -326.5t81 -398.5t-81 -398.5t-218 -326.5t-326.5 -218t-398.5 -81
q-329 0 -598 195q-24 9 -24 34q0 15 11 25.5t26 10.5q14 0 23 -9l1 1q253 -184 561 -184q193 0 369.5 75.5t303.5 202.5t202.5 303.5t75.5 369.5t-75.5 369.5t-202.5 303.5t-303.5 202.5t-369.5 75.5q-104 0 -204 -24.5t-179.5 -63t-155 -93t-130 -107t-105 -112.5
t-79.5 -102t-54 -83h432q15 0 25.5 -11t10.5 -26t-10.5 -25.5t-25.5 -10.5h-512q-16 0 -26.5 10.5t-10.5 25.5v512q0 15 10.5 26t26.5 11q15 0 25.5 -11t10.5 -26v-412q28 44 59.5 87.5t84.5 105t110.5 114t136 107.5t161.5 93.5t187 63t212 24.5z" />
<glyph unicode="&#x2b05;" horiz-adv-x="2048" d="M1499 0q-15 0 -26 11l-951 988q-10 10 -10 25t10 25l951 988q11 11 26 11q16 0 26.5 -10.5t10.5 -25.5q0 -14 -10 -26l-927 -962l927 -962q10 -12 10 -25q0 -16 -10.5 -26.5t-26.5 -10.5z" />
<glyph unicode="&#x2b06;" horiz-adv-x="2048" d="M2011 512q-13 0 -25 10l-962 927l-962 -927q-12 -10 -25 -10q-16 0 -26.5 10.5t-10.5 26.5q0 15 11 26l988 951q10 10 25 10t25 -10l988 -951q11 -11 11 -26q0 -16 -10.5 -26.5t-26.5 -10.5z" />
<glyph unicode="&#x2b07;" horiz-adv-x="2048" d="M1024 512q-15 0 -25 10l-988 951q-11 11 -11 27q0 15 10.5 25.5t26.5 10.5q13 0 25 -10l962 -927l962 927q12 10 25 10q16 0 26.5 -10.5t10.5 -25.5q0 -16 -11 -27l-988 -951q-10 -10 -25 -10z" />
<glyph unicode="&#xe001;" horiz-adv-x="2048" d="M1097 -1q-23 0 -33 22v-1l-270 575l-366 -365q-9 -11 -26 -11q-15 0 -25.5 10.5t-10.5 25.5v1756q0 15 10.5 25.5t25.5 10.5q16 0 25 -10l1280 -1206v-1q12 -10 12 -26q0 -15 -11 -26t-26 -11h-490l267 -549q4 -8 4 -15q0 -25 -22 -33v-1l-329 -166q-10 -4 -15 -4z" />
<glyph unicode="&#xe002;" horiz-adv-x="2048" d="M2037 62q11 -10 11 -25t-11 -26q-10 -11 -25 -11t-26 11l-577 576q-115 -105 -261 -163.5t-307 -58.5q-171 0 -326.5 66.5t-268.5 179.5t-179.5 268.5t-66.5 326.5t66.5 327t179.5 268.5t268.5 179t326.5 66.5t327 -66.5t268.5 -179t179 -268.5t66.5 -327
q0 -161 -58 -307t-164 -261zM1243 1170q16 0 26.5 10.5t10.5 25.5t-10.5 26t-26.5 11h-365v366q0 15 -11 25.5t-26 10.5t-25.5 -10.5t-10.5 -25.5v-366h-366q-15 0 -26 -11t-11 -26t11 -25.5t26 -10.5h366v-366q0 -15 10.5 -26t25.5 -11t26 11t11 26v366h365z" />
<glyph unicode="&#xe003;" horiz-adv-x="2048" d="M2037 62q11 -10 11 -25t-11 -26q-10 -11 -25 -11t-26 11l-577 576q-115 -105 -261 -163.5t-307 -58.5q-171 0 -326.5 66.5t-268.5 179.5t-179.5 268.5t-66.5 326.5t66.5 327t179.5 268.5t268.5 179t326.5 66.5t327 -66.5t268.5 -179t179 -268.5t66.5 -327
q0 -161 -58 -307t-164 -261zM1243 1170q16 0 26.5 10.5t10.5 25.5t-10.5 26t-26.5 11h-804q-15 0 -26 -11t-11 -26t11 -25.5t26 -10.5h804z" />
<glyph unicode="&#xe010;" horiz-adv-x="2048" d="M1609 292q-162 0 -284 104.5t-148 261.5h-306q-26 -157 -148 -261.5t-284 -104.5q-182 0 -310.5 128.5t-128.5 310.5q0 105 49 201h-1l414 729h1q24 43 66 68.5t93 25.5q65 0 115.5 -41.5t63.5 -104.5l18 -204l46 -528h318l46 528l18 204q13 63 63.5 104.5t115.5 41.5
q51 0 93 -25.5t66 -68.5h1l414 -729h-1q49 -96 49 -201q0 -182 -128.5 -310.5t-310.5 -128.5zM1115 950h-182l-58 659h298zM914 1389q0 -15 11 -25.5t26 -10.5h146q15 0 26 10.5t11 25.5t-11 26t-26 11h-146q-15 0 -26 -11t-11 -26zM1609 365q151 0 258.5 107.5t107.5 258.5
t-107.5 258.5t-258.5 107.5q-135 0 -236.5 -87.5t-123.5 -218.5l-6 -61q1 -151 108 -258t258 -107zM439 365q151 0 258 106.5t108 258.5l-6 61q-22 131 -123.5 218.5t-236.5 87.5q-151 0 -258.5 -107.5t-107.5 -258.5t107.5 -258.5t258.5 -107.5zM878 731h292v4q2 33 6 64
l1 5h-305v-5q4 -31 6 -64v-4z" />
<glyph unicode="&#xe014;" horiz-adv-x="2048" d="M2011 1061q16 0 26.5 -11t10.5 -26q0 -208 -81 -397.5t-218 -327t-327 -218.5t-398 -81t-398 81t-327 218.5t-218 327t-81 397.5q0 209 81 398.5t218 326.5t326.5 218t398.5 81q304 0 559 -166l106 151l1 -1q10 16 29 16q15 0 26 -11l292 -292q11 -11 11 -26
q0 -18 -16 -29v-1l-871 -614q9 -24 9 -51q0 -61 -42.5 -103.5t-103.5 -42.5t-103.5 42.5t-42.5 103.5t42.5 103.5t103.5 42.5q27 0 51 -9l213 301q-121 74 -264 74q-212 0 -362 -150t-150 -362t150 -362t362 -150t362 150t150 362q0 15 10.5 26t26.5 11q15 0 25.5 -11
t10.5 -26q0 -159 -78.5 -293.5t-213 -213t-293.5 -78.5t-293.5 78.5t-213 213t-78.5 293.5t78.5 293.5t213 213t293.5 78.5q165 0 306 -87l211 300q-237 153 -517 153q-193 0 -369.5 -75.5t-303.5 -202.5t-202.5 -303.5t-75.5 -369.5t75.5 -369.5t202.5 -303.5t303.5 -202.5
t369.5 -75.5t369.5 75.5t303.5 202.5t202.5 303.5t75.5 369.5q0 15 10.5 26t25.5 11z" />
<glyph unicode="&#xe015;" horiz-adv-x="2048" d="M20 1540q-20 10 -20 32q0 15 10.5 26t26.5 11q8 0 16 -5v1l73 -37q45 69 118 109.5t158 40.5q239 0 369.5 -64.5t165.5 -175.5q38 21 87 21t87 -21q35 111 165.5 175.5t369.5 64.5q85 0 158 -40.5t118 -109.5l73 37v-1q8 5 16 5q16 0 26.5 -11t10.5 -26q0 -22 -20 -32v-1
l-74 -36q21 -58 21 -114q0 -136 -96.5 -232.5t-232.5 -96.5q-81 0 -155.5 9.5t-148 33t-126.5 60t-86 94.5t-33 132q0 10 2 28q-31 9 -75 9t-75 -9q2 -18 2 -28q0 -74 -33 -132t-86 -94.5t-126.5 -60t-148 -33t-155.5 -9.5q-136 0 -232.5 96.5t-96.5 232.5q0 56 21 114
l-74 36v1zM1719 767q61 0 117.5 19t93.5 45.5t65 53.5t41 46l12 19q0 -119 -50 -235t-128.5 -199.5t-177 -135t-193.5 -51.5q-102 0 -178 15t-116.5 36.5t-69.5 43t-55.5 36.5t-55.5 15t-55.5 -15t-55.5 -36.5t-69.5 -43t-116.5 -36.5t-178 -15q-95 0 -193.5 51.5t-177 135
t-128.5 199.5t-50 235q4 -7 13 -19.5t40 -44t66 -55.5t92 -44t118 -20q44 0 77.5 10t54 26t38 35.5t36.5 39.5t42.5 36t62.5 26t91 10q74 0 147 -36.5t146 -36.5t146 36.5t147 36.5q52 0 91 -10t62.5 -26t42.5 -36t36.5 -39.5t38 -35.5t54 -26t77.5 -10z" />
<glyph unicode="&#xe072;" horiz-adv-x="2048" d="M1061 1461q175 -9 329 -97v245q0 151 -107 258t-259 107t-259 -107t-107 -258v-245q154 88 329 97v-255q0 -15 11 -25.5t26 -10.5t26 10.5t11 25.5v255zM1024 438q122 0 207.5 86t85.5 207t-86 206.5t-207 85.5t-207 -85.5t-86 -206.5t85.5 -207t207.5 -86zM1024 804
q30 0 51.5 -21.5t21.5 -51.5q0 -31 -21.5 -52t-51.5 -21t-51.5 21t-21.5 52q0 30 21.5 51.5t51.5 21.5zM1463 731q0 -15 10.5 -26t25.5 -11h255q-7 -128 -56 -244.5t-133 -208.5l-179 180q-10 11 -25.5 11t-26.5 -11q-10 -11 -10 -26t10 -26l180 -179q-195 -176 -453 -189
v254q0 16 -11 26.5t-26 10.5t-26 -10.5t-11 -26.5v-254q-258 13 -453 189l180 179q10 11 10 26t-10 26q-11 11 -26.5 11t-25.5 -11l-179 -180q-84 92 -133 208.5t-56 244.5h255q15 0 25.5 11t10.5 26t-10.5 25.5t-25.5 10.5h-255q12 257 189 454l179 -180q10 -11 25.5 -11
t26.5 11q10 11 10 26t-10 26l-180 179q39 34 51 43v294q0 181 128.5 309.5t310.5 128.5t310.5 -128.5t128.5 -309.5v-294q12 -9 51 -43l-180 -179q-10 -11 -10 -26t10 -26q11 -11 26.5 -11t25.5 11l179 180q177 -197 189 -454h-255q-15 0 -25.5 -10.5t-10.5 -25.5z" />
<glyph unicode="&#xe073;" horiz-adv-x="2048" d="M1024 2048q209 0 398.5 -81t326.5 -218t218 -326.5t81 -398.5q0 -208 -81 -397.5t-218 -327t-327 -218.5t-398 -81t-398 81t-327 218.5t-218 327t-81 397.5q0 209 81 398.5t218 326.5t326.5 218t398.5 81zM1087 1025q99 40 146 108t47 147q0 106 -75 181t-181 75
t-181 -75t-75 -181q0 -79 47 -147t146 -108l-135 -513h396z" />
<glyph unicode="&#xe074;" horiz-adv-x="2048" d="M2011 439q16 0 26.5 -11t10.5 -26t-10.5 -25.5t-26.5 -10.5h-438q-16 0 -26.5 10.5t-10.5 25.5t10.5 26t26.5 11h182v881q-49 10 -88 46q-238 -196 -643 -196t-643 196q-39 -36 -88 -46v-881h182q16 0 26.5 -11t10.5 -26t-10.5 -25.5t-26.5 -10.5h-438q-16 0 -26.5 10.5
t-10.5 25.5t10.5 26t26.5 11h182v881q-63 13 -104.5 63.5t-41.5 115.5q0 76 53.5 129.5t129.5 53.5t129.5 -53.5t53.5 -129.5q0 -39 -18 -78q219 -178 603 -178t603 178q-18 39 -18 78q0 76 53.5 129.5t129.5 53.5t129.5 -53.5t53.5 -129.5q0 -65 -41.5 -115.5t-104.5 -63.5
v-881h182z" />
<glyph unicode="&#xe102;" horiz-adv-x="2048" d="M2027 2044q13 -6 18.5 -20.5t-0.5 -27.5q-8 -16 -14 -27.5t-33 -55t-52.5 -77t-69 -79t-86.5 -75.5t-101 -51.5t-116 -21.5q-135 0 -230 -120l-53 52q115 141 283 141q67 0 133.5 36t112.5 84.5t84.5 102t55.5 85t19 37.5q7 14 21 19t28 -2zM1280 1170q0 59 -50 92
q44 139 113 227l255 -256q11 -11 11 -26v-366q0 -15 -11 -26l-804 -804q-11 -11 -26 -11t-26 11l-731 731q-11 11 -11 26t11 26l804 804q11 11 26 11h366q15 0 26 -11l57 -57q-83 -100 -132 -262q-41 -5 -69 -36t-28 -73q0 -45 32 -77t77 -32q46 0 78 32t32 77zM1158 1279
q2 0 6 0.5t6 0.5q32 0 60 -18q-7 -25 -13 -49l-9 -36l-2 -12q-1 -13 -11.5 -22t-24.5 -9h-5q-15 2 -24 14.5t-7 27.5q8 46 24 103zM946 846l42 66q-45 38 -108 57l19 73l-68 18l-21 -77q-66 7 -110.5 -19.5t-58.5 -77.5q-14 -52 13.5 -94t92.5 -85q82 -54 70 -103
q-7 -28 -36.5 -38.5t-68.5 0.5q-67 17 -121 69l-42 -68q43 -46 126 -70l-21 -77l69 -18l21 81q69 -8 116.5 21t61.5 81q14 51 -9 94t-87 87q-50 35 -68.5 58t-11.5 46q6 22 29.5 33t64.5 0q50 -13 106 -57z" />
<glyph unicode="&#xe104;" horiz-adv-x="2048" d="M1172 1975q-34 1 -73 -11t-62 -35l-915 -917q-47 -45 -47 -130l-31 32q-43 43 -43 103t43 103l884 886q45 44 108 42h720q40 0 73.5 -20t52.5 -53h-710zM2048 1755l-1 -719q2 -62 -42 -107l-885 -885q-43 -43 -103.5 -43t-103.5 43l-723 723q-43 43 -43 103.5t43 103.5
l885 885q43 45 107 43h720q61 0 103.5 -43t42.5 -104zM1646 1354q61 0 103.5 42.5t42.5 103.5q0 60 -42.5 103t-103.5 43q-60 0 -103 -43t-43 -103q0 -61 43 -103.5t103 -42.5z" />
<glyph unicode="&#xe202;" horiz-adv-x="2048" d="M1829 1682h-1536q-61 0 -104 -43t-43 -104v-1097h-73q-30 0 -51.5 21.5t-21.5 51.5v1244q0 30 21.5 51.5t51.5 21.5h1682q31 0 52.5 -21.5t21.5 -51.5v-73zM1975 1609q30 0 51.5 -21.5t21.5 -52.5v-1243q0 -30 -21.5 -51.5t-51.5 -21.5h-1682q-31 0 -52.5 21.5
t-21.5 51.5v1243q0 31 21.5 52.5t52.5 21.5h1682z" />
<glyph unicode="&#xe203;" horiz-adv-x="2048" d="M1426 1536l-57 199l-199 57l199 57l57 199l57 -199l199 -57l-199 -57zM475 1682l-40 143l-142 40l142 41l40 142l41 -142l142 -41l-142 -40zM987 1536l-24 85l-85 25l85 24l24 86l25 -86l85 -24l-85 -25zM134 1402l-24 -85l-25 85l-85 24l85 25l25 85l24 -85l85 -25z
M854 1453l1184 -1184q21 -21 -2 -74.5t-76 -106.5q-40 -40 -82 -64t-71 -24q-18 0 -28 10l-1184 1184q-21 22 2 75t76 106q40 40 82 64t71 24q18 0 28 -10zM1459 1321l40 142l41 -142l142 -41l-142 -41l-41 -142l-40 142l-142 41zM329 1061l49 -171l171 -49l-171 -49
l-49 -170l-49 170l-170 49l170 49zM1018 875q-11 11 4.5 41t47.5 62q56 56 91 56q8 0 12 -4l-345 345q-4 4 -12 4q-35 0 -91 -56q-32 -32 -47.5 -62t-4.5 -41zM695 658l24 -85l86 -24l-86 -25l-24 -85l-25 85l-85 25l85 24z" />
<glyph unicode="&#xe207;" horiz-adv-x="2048" d="M1042 664q-10 -6 -18 -6t-18 6l-1 -1l-987 586q-18 11 -18 31t18 31l987 586l1 -1q10 6 18 6t18 -6l1 1l987 -586q18 -11 18 -31t-18 -31l-987 -586zM1042 408q-10 -6 -18 -6t-18 6l-1 -1l-987 586q-18 11 -18 31t18 31l91 55l859 -510v1q27 -16 56 -16t56 16v-1l859 510
l91 -55q18 -11 18 -31t-18 -31l-987 -586zM1042 152q-10 -6 -18 -6t-18 6l-1 -1l-987 586q-18 11 -18 31t18 31l91 55l859 -510v1q27 -16 56 -16t56 16v-1l859 510l91 -55q18 -11 18 -31t-18 -31l-987 -586z" />
<glyph unicode="&#xe224;" horiz-adv-x="2048" d="M1755 1682q31 0 52.5 21.5t21.5 51.5q0 31 -21.5 52.5t-52.5 21.5q-30 0 -51.5 -21.5t-21.5 -52.5q0 -30 21.5 -51.5t51.5 -21.5zM2011 2013q69 -71 2 -233q-47 -113 -135 -239.5t-186.5 -232t-200 -187.5t-178.5 -115l102 -102q28 -28 40.5 -55.5t12.5 -46.5
t-10.5 -40.5t-19 -31t-23.5 -24.5q-6 -6 -18 -14.5t-36.5 -24.5t-44.5 -30l-693 693q44 44 80 84q17 17 27.5 26.5t30.5 19t40 9.5q49 0 102 -53l101 -101q39 95 155.5 224t252.5 240.5t277.5 190t226.5 78.5q60 0 95 -35zM28 950h1q133 34 300 141q125 80 242 188l687 -687
q-256 -210 -383 -567q-8 -25 -35 -25q-11 0 -20 6q-295 205 -527 471q-184 210 -290 421q-8 16 0 32q8 17 25 20z" />
<glyph unicode="&#xe225;" horiz-adv-x="2048" d="M2011 1755q16 0 26.5 -10.5t10.5 -25.5v-585q0 -15 -10.5 -26t-26.5 -11h-1060v-146q61 0 103.5 -43t42.5 -103v-659q0 -61 -42.5 -103.5t-103.5 -42.5h-73q-61 0 -104 42.5t-43 103.5v659q0 60 43 103t104 43v183q0 15 10.5 25.5t25.5 10.5h1061v512h-73v-146
q0 -61 -43 -103.5t-104 -42.5h-1609q-61 0 -103.5 42.5t-42.5 103.5v366q0 61 42.5 103.5t103.5 42.5h1609q61 0 104 -42.5t43 -103.5v-147h109z" />
<glyph unicode="&#xe226;" horiz-adv-x="2048" d="M878 1274q-99 44 -159.5 134t-60.5 201q0 151 107 258.5t259 107.5t259 -107.5t107 -258.5q0 -111 -60.5 -201t-159.5 -134v-579q0 -61 -42.5 -103.5t-103.5 -42.5t-103.5 42.5t-42.5 103.5v579zM1963 366h-1878l137 342q10 23 34 23h512q15 0 26 -10.5t11 -25.5
q0 -91 64 -155.5t155 -64.5t155 64.5t64 155.5q0 15 11 25.5t26 10.5h512q24 0 34 -23zM0 293h2048v-183q0 -15 -10.5 -26t-26.5 -11h-1974q-16 0 -26.5 11t-10.5 26v183z" />
<glyph unicode="&#xe351;" horiz-adv-x="2048" d="M1902 182q0 -76 -53.5 -129.5t-129.5 -53.5q-73 0 -128 53q-55 -53 -128 -53t-128 53q-55 -53 -128 -53t-128 53q-55 -53 -128 -53t-128 53q-55 -53 -128 -53t-128 53q-55 -53 -128 -53t-128 53q-55 -53 -128 -53q-76 0 -129.5 53.5t-53.5 129.5q0 74 52 128
q-52 54 -52 128t52 128q-52 54 -52 128t52 128q-52 54 -52 128t52 128q-52 54 -52 128t52 128q-52 54 -52 128t52 128q-25 27 -38 58v1q-7 16 -10 33q-1 3 -1.5 8.5t-0.5 8.5q-2 12 -2 19q0 76 53.5 129.5t129.5 53.5q1 0 4.5 -0.5t5.5 -0.5q14 0 26 -3q17 -3 30 -9
q3 0 4 -1q31 -13 58 -38q54 52 128 52t128 -52q54 52 128 52t128 -52q54 52 128 52t128 -52q54 52 128 52t128 -52q54 52 128 52q47 0 87.5 -22.5t64.5 -60.5l3 -3l-502 -502q-52 -9 -95.5 -38t-70.5 -72q-32 52 -85.5 82.5t-117.5 30.5q-99 0 -167 -62.5t-68 -156.5
q0 -65 30 -129t75.5 -113t101 -95t103 -77t84.5 -56.5t44 -35.5q8 11 58 44t112 78t124 101t104 131t42 152q0 39 -16 79l442 441q0 -1 1 -1t2 -1q38 -25 60.5 -65.5t22.5 -87.5q0 -75 -53 -128q53 -53 53 -128t-53 -128q53 -53 53 -128t-53 -128q53 -53 53 -128t-53 -128
q53 -53 53 -128t-53 -128q53 -53 53 -128zM1996 1944h52l-129 -130h-52l-834 -833l52 -52l-207 -52l52 208l52 -52l833 833v52l129 130v-52z" />
<glyph unicode="&#xe355;" horiz-adv-x="2048" d="M695 439q-14 0 -23 9l-1 -1l-658 549q-13 11 -13 28t13 28l658 549l1 -1q9 9 23 9q15 0 25.5 -10.5t10.5 -25.5v-193l-326 -272q-39 -32 -39 -84t39 -84l326 -272v-193q0 -15 -10.5 -25.5t-25.5 -10.5zM1170 475q0 -15 -10.5 -25.5t-25.5 -10.5q-14 0 -23 9l-1 -1
l-658 549q-13 11 -13 28t13 28l658 549l1 -1q9 9 23 9q15 0 25.5 -10.5t10.5 -25.5v-329q47 0 98 -3.5t136.5 -18t162 -38t162 -69t148.5 -106.5q89 -85 130.5 -174t41.5 -214v-120q-20 44 -50.5 81t-96.5 79t-157 71t-239 49.5t-336 22.5v-329z" />
<glyph unicode="&#xe399;" horiz-adv-x="2048" d="M1609 1975q181 0 310 -128.5t129 -310.5v-658q0 -182 -128.5 -310.5t-310.5 -128.5h-585l-512 -366v366h-73q-182 0 -310.5 128.5t-128.5 310.5v658q0 182 128.5 310.5t310.5 128.5h1170zM1024 1061q61 0 103.5 42.5t42.5 103.5t-42.5 103.5t-103.5 42.5t-103.5 -42.5
t-42.5 -103.5t42.5 -103.5t103.5 -42.5zM585 1061q61 0 103.5 42.5t42.5 103.5t-42.5 103.5t-103.5 42.5t-103.5 -42.5t-42.5 -103.5t42.5 -103.5t103.5 -42.5zM1463 1061q61 0 103.5 42.5t42.5 103.5t-42.5 103.5t-103.5 42.5t-103.5 -42.5t-42.5 -103.5t42.5 -103.5
t103.5 -42.5z" />
<glyph unicode="&#xe400;" horiz-adv-x="2048" d="M1499 731q90 -45 129.5 -69.5t85.5 -73.5t62 -119t16 -177h-1536q0 107 16 177t62 119t85.5 73.5t129.5 69.5q49 24 97 43.5t76.5 28.5t54 19t38 20t19.5 27.5t7 44.5q0 70 -11.5 118t-27.5 75t-32 53.5t-27.5 74.5t-11.5 118q0 109 24.5 189.5t67.5 125.5t93 66t108 21
t108 -21t93 -66t67.5 -125.5t24.5 -189.5q0 -70 -11.5 -118t-27.5 -74.5t-32 -53.5t-27.5 -75t-11.5 -118q0 -27 7 -44.5t19.5 -27.5t38 -20t54 -19t76.5 -28.5t97 -43.5zM633 844q-345 -123 -420 -333h-213q0 73 7 118t28 76.5t45.5 52t71.5 51.5q11 6 16 10q23 15 55 32.5
t42 25t19 25t9 45.5q0 60 -11.5 98.5t-25 55t-25 55t-11.5 98.5q0 136 56.5 208.5t153.5 72.5q99 0 163.5 -73.5t64.5 -207.5q0 -49 -7.5 -82.5t-19 -52.5t-22.5 -37.5t-18.5 -52t-7.5 -82.5q0 -41 7 -56t34 -39q6 -5 9 -8zM1881 819q85 -57 107 -80q48 -48 57 -141
q4 -36 4 -87h-213q-77 209 -421 333q35 32 41 44q9 16 9 59q0 49 -7.5 82.5t-18.5 52t-22.5 37.5t-19 52.5t-7.5 82.5q0 135 63.5 208t164.5 73q99 0 154.5 -72t55.5 -209q0 -49 -7.5 -82.5t-18 -52.5t-21 -37.5t-18 -52t-7.5 -82.5q0 -28 9 -45.5t19 -25t42 -25t55 -32.5z
" />
<glyph unicode="&#xe406;" horiz-adv-x="2048" d="M1134 1390h-220q-15 0 -25.5 10.5t-10.5 25.5v366q0 15 10.5 26t25.5 11h220q15 0 25.5 -11t10.5 -26v-366q0 -15 -10.5 -25.5t-25.5 -10.5zM951 1755v-146h146v146h-146zM1975 1609q30 0 51.5 -21.5t21.5 -51.5v-1243q0 -31 -21.5 -52.5t-51.5 -21.5h-1902
q-30 0 -51.5 21.5t-21.5 52.5v1243q0 30 21.5 51.5t51.5 21.5h732v-183q0 -45 32 -77t77 -32h220q45 0 77 32t32 77v183h732zM951 1536v-73h146v73h-146zM329 512h805q15 0 25.5 10.5t10.5 26.5q0 56 -18 94t-47 56.5t-64.5 30.5t-73 20.5t-69.5 20.5t-56.5 36.5t-32.5 63.5
q105 73 105 208q0 98 -53.5 168t-129.5 70t-129 -70t-53 -168q0 -135 105 -208q-8 -39 -32.5 -63.5t-56.5 -36.5t-69.5 -20.5t-73 -20.5t-64.5 -30.5t-47 -56.5t-18 -94q0 -16 10.5 -26.5t25.5 -10.5zM1755 1170v73h-585v-73h585zM1755 1024v73h-585v-73h585zM1755 878v73
h-585v-73h585zM1755 731v74h-512v-74h512zM1755 585v73h-438v-73h438z" />
<glyph unicode="&#xe500;" horiz-adv-x="2048" d="M565 1536l43 -256h-232l-77 402h-262q-16 0 -26.5 11t-10.5 26t10.5 25.5t26.5 10.5h292q13 0 23 -8.5t12 -20.5h1l37 -190h163zM1429 1536l-28 -256h-194v256h222zM1725 1536l-54 -256h-196l28 256h222zM864 1280h-182l-43 256h198zM938 1280l-28 256h224v-256h-196z
M1984 1280h-238l54 256h211q16 0 26.5 -10.5t10.5 -26.5q0 -4 -2 -10zM719 1061l-25 146h178l16 -146h-169zM1207 1207h187l-16 -146h-171v146zM962 1061l-16 146h188v-146h-172zM1656 1207l-31 -146h-174l16 146h189zM620 1207l25 -146h-227l-28 146h230zM1700 1061l30 146
h232l-44 -146h-218zM1630 731l54 256h212l-69 -229h-1q-7 -27 -34 -27h-162zM701 731h-189q-13 0 -23 8.5t-12 21.5h-1l-43 226h224zM732 987h164l27 -256h-148zM1555 731h-139l27 256h166zM1207 731v256h163l-28 -256h-135zM997 731l-28 256h165v-256h-137zM695 658
q76 0 129.5 -53.5t53.5 -129.5t-53.5 -129t-129.5 -53t-129.5 53t-53.5 129t53.5 129.5t129.5 53.5zM1573 658q76 0 129 -53.5t53 -129.5t-53 -129t-129 -53t-129.5 53t-53.5 129t53.5 129.5t129.5 53.5z" />
<glyph unicode="&#xe532;" horiz-adv-x="2048" d="M0 219v1610h73v-1610h-73zM1317 219v1610h73v-1610h-73zM1097 219v1610h146v-1610h-146zM366 219v1610h73v-1610h-73zM512 219v1610h73v-1610h-73zM658 219v1610h220v-1610h-220zM1755 219v1610h147v-1610h-147zM1609 219v1610h73v-1610h-73zM146 219v1610h147v-1610
h-147zM1975 1829h73v-1610h-73v1610zM951 219v1610h73v-1610h-73zM1463 219v1610h73v-1610h-73z" />
<glyph unicode="&#xe545;" horiz-adv-x="2048" d="M1061 1574q-64 0 -120 -8.5t-88 -18.5t-60.5 -24.5t-36 -20.5t-14.5 -12q-10 -10 -10 -25t10 -26t25.5 -11.5t25.5 10.5l3 2q3 2 8.5 6t14 8.5t21.5 10t28 10.5t35.5 9.5t43.5 8.5t52.5 6t61.5 2q55 0 103 -6.5t76.5 -15.5t49 -18.5t28.5 -16.5l9 -6q11 -11 26 -11t26 11
q11 10 11 26t-11 26q-95 84 -318 84zM1854 1314q82 -10 138 -71.5t56 -145.5q0 -83 -56 -145t-138 -72q-57 -125 -172 -225v-180q0 -76 -53.5 -129t-129.5 -53q-74 0 -127 51.5t-55 125.5q-126 -31 -256 -31q-131 0 -257 31q-2 -74 -55 -125.5t-127 -51.5q-76 0 -129.5 53
t-53.5 129v180q-154 132 -200 305q-45 34 -83 71.5t-75.5 87.5t-59 110.5t-21.5 123.5q0 15 10.5 26t26.5 11q15 0 25.5 -11t10.5 -26q0 -150 148 -282q0 5 -1 13t-1 13q0 134 66.5 256t179.5 210t269 140t327 52q320 0 558 -167q94 94 173 94q15 0 26 -10.5t11 -25.5
t-11 -26t-26 -11q-58 0 -115 -66q120 -100 177 -229z" />
<glyph unicode="&#xe548;" horiz-adv-x="2048" d="M792 1626l-74 -127l64 -37l74 127zM2028 886q31 -53 15 -112t-69 -90l-1019 -590q-53 -31 -112 -15t-89 69l-332 575q-30 53 -14 112t68 90l1020 591q52 30 111 14t90 -68zM413 973q-66 -51 -83 -132t25 -155l144 -249l-425 244q-53 31 -69 90t14 111l590 1019
q31 52 90.5 68t111.5 -14l577 -332q31 -18 53 -53l-639 -369l182 315l-64 37l-247 -427l-128 -74l182 315l-64 36zM1516 1186l-128 -74l37 -64l128 74zM1244 773l382 221l-37 64l-382 -221zM751 743l37 -64l541 314l-36 64zM861 551l319 185l-37 64l-319 -185z" />
<glyph unicode="&#xe553;" horiz-adv-x="2048" d="M804 400q-1 -14 -11.5 -24t-24.5 -10q-15 0 -26 10.5t-11 25.5l1 1v2l39 629l-286 53l-46 -687h-1q-1 -14 -11 -24t-25 -10t-25.5 10.5t-10.5 25.5v3l46 695l-382 71v1q-13 2 -21.5 12t-8.5 23q0 15 10.5 25.5t26.5 10.5q1 0 3 -0.5t3 -0.5v1l374 -69l22 328q2 14 12 24
t24 10q16 0 26.5 -10.5t10.5 -26.5v-2l-23 -337l286 -53l30 468q1 14 11.5 24t24.5 10q15 0 26 -10.5t11 -25.5v-1l-1 -2h1l-30 -476l284 -53l38 534h1q1 14 11.5 24t24.5 10q15 0 25.5 -10.5t10.5 -25.5v-3l-38 -542l289 -54l42 674q2 14 12 24t25 10t25.5 -10.5
t10.5 -25.5v-3l-43 -682l452 -84v-1q13 -2 21.5 -12t8.5 -23q0 -15 -10.5 -25.5t-26.5 -10.5q-4 0 -6 1v-1l-443 82l-26 -414q-2 -14 -12 -24t-25 -10t-25.5 10.5t-10.5 25.5v3l26 423l-290 53l-29 -408q-2 -14 -12 -24t-24 -10q-15 0 -26 10.5t-11 26.5q1 1 1 2h-1l30 417
l-284 52z" />
<glyph unicode="&#xe570;" horiz-adv-x="2048" d="M1061 2046q308 -11 555 -187.5t358 -454.5l-913 -328v970zM995 1003l-1 -1l602 -828q-259 -174 -572 -174q-209 0 -398.5 81t-326.5 218t-218 326.5t-81 398.5q0 163 49.5 316t140.5 277.5t212.5 219.5t272 149t312.5 60v-1022q0 -9 8 -21zM1999 1335q49 -155 49 -311
q0 -242 -105 -452t-289 -354l-572 788z" />
<glyph unicode="&#xe577;" horiz-adv-x="2048" d="M768 1463q-15 0 -26 10.5t-11 25.5v512q0 16 11 26.5t26 10.5h512q15 0 26 -10.5t11 -26.5v-512q0 -15 -11 -25.5t-26 -10.5h-512zM329 1024v-366h-73v403q0 15 10.5 25.5t26.5 10.5h694v293h74v-293h694q16 0 26.5 -10.5t10.5 -25.5v-403h-73v366h-658v-366h-74v366
h-658zM549 585q15 0 25.5 -10.5t10.5 -25.5v-512q0 -16 -10.5 -26.5t-25.5 -10.5h-512q-16 0 -26.5 10.5t-10.5 26.5v512q0 15 10.5 25.5t26.5 10.5h512zM2011 585q16 0 26.5 -10.5t10.5 -25.5v-512q0 -16 -10.5 -26.5t-26.5 -10.5h-512q-15 0 -25.5 10.5t-10.5 26.5v512
q0 15 10.5 25.5t25.5 10.5h512zM1280 585q15 0 26 -10.5t11 -25.5v-512q0 -16 -11 -26.5t-26 -10.5h-512q-15 0 -26 10.5t-11 26.5v512q0 15 11 25.5t26 10.5h512z" />
<glyph unicode="&#xe57a;" horiz-adv-x="2048" d="M1902 1536q61 0 103.5 -42.5t42.5 -103.5t-42.5 -103.5t-103.5 -42.5q-63 0 -104 43l-195 -114q6 -18 6 -39q0 -61 -42.5 -103.5t-103.5 -42.5q-37 0 -69 17l-247 -268q23 -34 23 -79q0 -60 -42.5 -103t-103.5 -43t-103.5 43t-42.5 103q0 54 35 94l-276 392
q-27 -10 -52 -10q-42 0 -79 24l-231 -212q18 -33 18 -68q0 -61 -43 -103.5t-104 -42.5t-103.5 42.5t-42.5 103.5t42.5 103.5t103.5 42.5q43 0 80 -24l230 212q-17 34 -17 68q0 61 42.5 103.5t103.5 42.5t103.5 -42.5t42.5 -103.5q0 -53 -35 -94l276 -391q28 10 52 10
q35 0 69 -18l248 267q-24 37 -24 80q0 61 42.5 103.5t103.5 42.5q59 0 104 -43l194 113q-6 26 -6 40q0 61 43 103.5t104 42.5z" />
<glyph unicode="&#xe57b;" horiz-adv-x="2048" d="M2011 1829q16 0 26.5 -11t10.5 -26v-110h-2048v110q0 15 10.5 26t26.5 11h950v109q0 15 11 26t26 11t26 -11t11 -26v-109h950zM73 475v1134h1902v-1134q0 -15 -11 -25.5t-26 -10.5h-860l-7 -9l238 -297l-1 -1q9 -11 9 -22q0 -15 -11 -26t-26 -11q-16 0 -28 14h-1
l-227 284l-227 -284h-1q-12 -14 -28 -14q-15 0 -26 11t-11 26q0 11 9 22l-1 1l238 297l-7 9h-860q-16 0 -26.5 10.5t-10.5 25.5zM622 1390q-122 0 -207.5 -86t-85.5 -207t86 -206.5t207 -85.5v292h292q0 121 -85.5 207t-206.5 86zM1170 1317v-74h512v74h-512zM1170 1097v-73
h512v73h-512zM695 731q121 0 206.5 86t85.5 207h-292v-293zM1170 878v-73h512v73h-512z" />
<glyph unicode="&#xe581;" horiz-adv-x="2048" d="M1608 1655l172 -632h-1512l172 632h1q3 11 12.5 19t21.5 8h110v183q0 76 53.5 129t129.5 53q56 0 102 -31.5t67 -81.5q22 -8 36 -26.5t14 -42.5q0 -31 -21 -52.5t-52 -21.5q-30 0 -51.5 21.5t-21.5 52.5t23 52q-32 57 -96 57q-46 0 -78 -32t-32 -77v-183h915
q12 0 21.5 -8t12.5 -19h1zM1792 804h-1536q-15 0 -26 10.5t-11 26.5q0 1 1 4t1 5l27 100h1552l27 -100q0 -2 1 -5t1 -4q0 -16 -11 -26.5t-26 -10.5zM1243 219q61 0 104 -43t43 -103v-74h-732v74q0 60 43 103t104 43h109v512h220v-512h109z" />
<glyph unicode="&#xe583;" horiz-adv-x="2048" d="M560 1270l-101 50v1q-20 10 -20 32q0 15 11 26l658 658q9 11 26 11q22 0 32 -20l51 -101zM1259 1865l606 -606l-637 -637l-606 606zM1353 439q-22 0 -32 20h-1l-50 101l657 657l101 -51q20 -10 20 -32q0 -17 -11 -26l-658 -658q-11 -11 -26 -11zM183 0q-76 0 -129.5 53.5
t-53.5 129.5q0 90 72 144l-3 3l667 670l259 -258l-668 -670q-54 -72 -144 -72z" />
<glyph unicode="&#xe5d8;" horiz-adv-x="2048" d="M1061 1828h914q30 0 51.5 -21.5t21.5 -51.5v-695h-752q107 66 185.5 154t89.5 173q15 109 -87 177q-67 45 -139 45q-83 0 -158.5 -59.5t-125.5 -159.5v438zM0 1060v695q0 30 21.5 51.5t51.5 21.5h914v-438q-50 100 -125.5 159.5t-158.5 59.5q-71 0 -139 -45
q-102 -68 -87 -177q11 -85 89.5 -173t185.5 -154h-752zM702 1536q70 0 136.5 -62t107 -164.5t39.5 -213.5l2 -36h-71q-78 28 -159.5 83.5t-140.5 125t-67 128.5q-7 64 55 106q48 33 98 33zM1444 1503q62 -42 55 -106q-8 -59 -67 -128.5t-140.5 -125t-159.5 -83.5h-71l2 36
q1 112 41.5 214t106 164t135.5 62q50 0 98 -33zM770 633q-8 25 16 72.5t80 104.5q50 50 121 98v-689h-914q-30 0 -51.5 21.5t-21.5 51.5v695h903q23 -7 45 -18q-78 -52 -134 -108q-70 -70 -100 -136t-13 -115q8 -25 35 -25q7 0 11 2q14 4 21 18t2 28zM1100 969q22 11 45 18
h903v-695q0 -30 -21.5 -51.5t-51.5 -21.5h-914v689q71 -48 121 -98q56 -57 80 -104.5t16 -72.5q-5 -14 2 -28t21 -18q4 -2 11 -2q27 0 35 25q17 49 -13 115t-100 136q-56 56 -134 108z" />
<glyph unicode="&#xe5e9;" horiz-adv-x="2048" d="M768 -1q-106 0 -181 75t-75 181q0 80 44 144t115 93l-303 1214l-321 -96v1q-6 -2 -10 -2q-16 0 -26.5 10.5t-10.5 25.5q0 26 26 35l324 97l-56 225q0 2 -0.5 5t-0.5 4q0 15 10.5 25.5t25.5 10.5q28 0 35 -27h1l377 -1511q18 2 26 2q108 0 184 -78l976 296q6 2 10 2
q15 0 26 -10.5t11 -26.5q0 -27 -26 -34v-1l-953 -289q28 -56 28 -115q0 -106 -75 -181t-181 -75zM878 548q-28 0 -35 28l-1 -1l-219 841l1 1q-2 6 -2 9q0 27 26 34l-1 1l1061 329v-1q8 2 11 2q27 0 35 -27l220 -841h-1q2 -6 2 -9q0 -26 -26 -35l-1060 -329h-1q-6 -2 -10 -2z
" />
<glyph unicode="&#xe601;" horiz-adv-x="2048" d="M731 658v439h-146v-439h146zM1463 658v439h-146v-439h146zM1755 1901l293 -292v-1463h-585v146h-146v-146h-586v146h-146v-146h-585v1463l293 292l292 -292v-147h146v147l293 292l293 -292v-147h146v147z" />
<glyph unicode="&#xe602;" horiz-adv-x="2048" d="M1829 1609q-16 0 -26.5 11t-10.5 26q0 9 -0.5 23t-5 47.5t-12.5 64.5t-24.5 68t-38.5 63.5t-58 44.5t-80 18q-36 0 -62.5 -9.5t-49 -33t-37.5 -46.5t-38 -66q-18 -32 -28 -49t-31 -46.5t-41 -46t-48 -35t-63.5 -26.5t-77.5 -8q-51 0 -95.5 14.5t-73 33.5t-58 54t-43.5 57
t-38 62q-32 54 -51 80t-49 45.5t-67 19.5q-52 0 -94 -19.5t-64 -44.5t-37.5 -55.5t-19.5 -46t-5 -23.5q-3 -15 -15 -24t-27 -6q-15 2 -24 14.5t-6 27.5q5 28 16.5 59t35.5 66t55.5 62t79.5 45t105 18q44 0 78.5 -14t63.5 -45t45 -54t43 -68q22 -38 34.5 -57t36.5 -48
t46 -43.5t55.5 -25.5t72.5 -11q47 0 81.5 12.5t61.5 41t42 51.5t39 68q20 37 31.5 56t36 50t47.5 46.5t59 28t78 12.5q66 0 118.5 -29t84 -72.5t52.5 -99.5t29 -105.5t8 -95.5q0 -15 -10.5 -26t-25.5 -11zM1938 1536q15 0 26 -10.5t11 -26.5v-1462q0 -16 -11 -26.5
t-26 -10.5h-1828q-16 0 -26.5 10.5t-10.5 26.5v1170q0 15 10.5 25.5t26.5 10.5q14 0 26 -10l376 -377v351q0 15 10.5 25.5t26.5 10.5q15 0 25 -10l377 -377v351q0 15 10.5 25.5t25.5 10.5q16 0 26 -10l428 -428h241v694q0 16 11 26.5t26 10.5h219zM549 329q30 0 51.5 21.5
t21.5 51.5q0 31 -21.5 52t-51.5 21q-31 0 -52.5 -21t-21.5 -52q0 -30 21.5 -51.5t52.5 -21.5zM1024 329q30 0 51.5 21.5t21.5 51.5q0 31 -21.5 52t-51.5 21t-51.5 -21t-21.5 -52q0 -30 21.5 -51.5t51.5 -21.5zM1499 329q31 0 52.5 21.5t21.5 51.5q0 31 -21.5 52t-52.5 21
q-30 0 -51.5 -21t-21.5 -52q0 -30 21.5 -51.5t51.5 -21.5z" />
<glyph unicode="&#xe670;" horiz-adv-x="2048" d="M1134 0q-15 0 -26 10.5t-11 26.5v1060h-1060q-16 0 -26.5 11t-10.5 26q0 23 22 33l1975 878q6 3 14 3q16 0 26.5 -10.5t10.5 -25.5q0 -9 -3 -15l-878 -1975q-10 -22 -33 -22z" />
<glyph unicode="&#xe671;" horiz-adv-x="2048" d="M2047 1l-1180 869l-867 1177l1179 -868v-1zM1606 718l-367 520l-521 367q99 52 205 68l101 229l101 -229q212 -33 364 -184.5t185 -363.5l228 -102l-228 -101q-18 -110 -68 -204zM442 1329l366 -519l522 -368q-99 -52 -205 -68l-101 -229l-101 229q-212 32 -364 184
t-185 364l-228 101l228 102q18 108 68 204zM1024 1097q-30 0 -51.5 -21.5t-21.5 -52.5q0 -30 21.5 -51.5t51.5 -21.5t51.5 21.5t21.5 51.5q0 31 -21.5 52.5t-51.5 21.5z" />
<glyph unicode="&#xe672;" horiz-adv-x="2048" d="M2037 1561q11 -9 11 -26q0 -16 -11 -25l-256 -256q-9 -11 -26 -11h-621v-146h475q31 0 52 -21.5t21 -52.5v-438q0 -31 -21 -52.5t-52 -21.5h-475v-512h-220v512h-621q-15 0 -26 11l-256 256q-11 11 -11 26t11 26l256 256q11 11 26 11h621v146h-475q-31 0 -52 21.5
t-21 51.5v439q0 30 21 51.5t52 21.5h475v110q0 45 32 77t78 32t78 -32t32 -77v-110h621q17 0 26 -11z" />
<glyph unicode="&#xe673;" horiz-adv-x="2048" d="M0 146v1609l658 146v-1609zM1552 1260q-6 -14 -1 -28t19 -20q7 -4 15 -4q25 0 34 22l59 134l106 -35q3 -2 11 -2q27 0 35 25q5 14 -2 28t-21 18l-99 33l38 84q6 14 0.5 28.5t-19.5 20.5q-13 6 -27.5 0.5t-20.5 -19.5l-41 -91l-124 42q-14 5 -28 -2t-18 -22
q-5 -14 2 -27.5t21 -18.5l118 -39zM1736 1129q8 -23 33 -23q8 0 14 3q14 5 20 19.5t0 28.5q-12 30 -32 69q-8 14 -22 18t-28 -3q-13 -7 -17.5 -21.5t2.5 -27.5q8 -14 30 -63zM365 1206q-14 -6 -20.5 -20t-0.5 -28q8 -23 34 -23q7 0 13 3l3 1q29 9 50 6q15 -2 27.5 6.5
t14.5 23.5t-7 27.5t-24 14.5q-39 6 -84 -9zM505 1021q-5 -14 2 -28t22 -18q6 -2 11 -2q27 0 35 25l1 5q7 24 7 52q0 17 -3 34q-2 14 -14.5 22.5t-27.5 6.5q-15 -3 -23.5 -15.5t-6.5 -27.5q2 -6 2 -20q0 -19 -5 -34zM191 1035q-6 -13 -0.5 -27.5t19.5 -20.5q6 -3 15 -3
q23 0 33 21q11 26 34 53q10 12 8.5 27t-12.5 25q-12 10 -27 8t-25 -13q-29 -35 -45 -70zM1831 895q15 1 24.5 13.5t7.5 27.5q-4 31 -14 75q-3 15 -16 23t-27 5q-15 -4 -23 -16.5t-5 -27.5q7 -34 12 -68q1 -14 11.5 -23t24.5 -9h5zM1062 981q-15 0 -25.5 -11t-10.5 -26
t10.5 -26t25.5 -11q28 0 56 -14q8 -3 15 -3q23 0 33 21q7 14 1.5 28.5t-19.5 20.5q-43 19 -85 21h-1zM855 857q-11 -10 -10.5 -25.5t11.5 -25.5q11 -11 25 -11q15 0 26 11q42 42 51 50q11 11 11.5 26t-9.5 26t-25 11.5t-26 -9.5q-19 -16 -54 -53zM518 861q6 14 -0.5 28
t-20.5 19q-13 6 -27.5 0t-19.5 -20q-17 -46 -24 -75q-4 -15 4 -27.5t23 -16.5q3 -1 8 -1q29 0 36 28q6 28 21 65zM731 747v1154l586 -146v-921q-5 4 -19 17t-22 19q-11 10 -26.5 9t-25.5 -12q-10 -12 -8.5 -27t12.5 -25q5 -4 54 -48q10 -9 23 -9q4 0 12 2v-614l-586 146v371
q14 7 35 19q15 9 30 21q12 9 14.5 24t-6.5 27t-24 14t-28 -7q-11 -9 -21 -14zM1836 699q18 40 25 80q3 15 -6 27.5t-24 14.5q-14 3 -26.5 -5.5t-15.5 -23.5q-6 -36 -19 -60q-7 -13 -2 -27.5t19 -21.5q7 -4 16 -4q21 0 33 20zM608 656q1 15 -9.5 26t-26.5 11q-32 2 -50 14
q-13 8 -28 4.5t-23 -16.5t-4.5 -27.5t16.5 -22.5q35 -23 88 -25h1q15 0 25.5 10.5t10.5 25.5zM1390 1755l658 146v-1609l-658 -146v532q4 -6 7 -8q35 -26 66 -42q8 -4 17 -4q22 0 33 19q7 13 2 28t-18 22q-35 19 -57 36q-12 9 -26.5 6.5t-23.5 -13.5v1033zM1701 592
q15 4 23 16.5t4 27.5t-16.5 23t-27.5 4q-8 -2 -14 -2q-20 -3 -40 -3h-9q-15 1 -26 -9.5t-12 -25.5q0 -16 10 -27t26 -11h11q26 0 50 3q4 0 11 2t10 2z" />
<glyph unicode="&#xe680;" horiz-adv-x="2048" d="M1024 2047q209 0 398.5 -81t326.5 -218t218 -326.5t81 -398.5q0 -208 -81 -397.5t-218 -327t-327 -218.5t-398 -81t-398 81t-327 218.5t-218 327t-81 397.5q0 209 81 398.5t218 326.5t326.5 218t398.5 81zM987 438q25 0 33 22h1l438 950v1q4 8 4 15q0 15 -11 25.5
t-26 10.5q-8 0 -15 -3l-951 -439q-21 -10 -21 -33q0 -15 10.5 -26t25.5 -11h476v-475q0 -15 10.5 -26t25.5 -11z" />
<glyph unicode="&#xe6d0;" horiz-adv-x="2048" d="M1024 2048q141 0 270 -55t222 -148t148 -222t55 -270q0 -119 -38.5 -258.5t-99.5 -266.5t-135 -252.5t-148.5 -227.5t-135.5 -181.5t-100 -122.5l-38 -44q-15 16 -40 45t-97 120t-137.5 184t-146 225.5t-138 255.5t-97 263.5t-39.5 259.5q0 141 55 270t148 222t222 148
t270 55zM1024 1097q106 0 181 75t75 181t-75 181t-181 75t-181 -75t-75 -181t75 -181t181 -75z" />
<glyph unicode="&#xe6d1;" horiz-adv-x="2048" d="M1609 1316q0 -75 -32.5 -167.5t-84 -181.5t-114 -178.5t-124.5 -164.5t-113.5 -134t-84.5 -92l-32 -33q-12 12 -33 34t-82 90t-116 135.5t-122.5 162.5t-116 181t-82 179.5t-33.5 168.5q0 159 78.5 293.5t213 213t293.5 78.5t293.5 -78.5t213 -213t78.5 -293.5zM805 1316
q0 -91 64 -155t155 -64t155 64t64 155t-64 155t-155 64t-155 -64t-64 -155zM2011 146h-1974q-16 0 -26.5 10.5t-10.5 25.5q0 10 5 18l365 658h1q10 19 31 19h73q16 0 26.5 -10.5t10.5 -25.5q0 -16 -10.5 -26.5t-26.5 -10.5h-51l-325 -585h1850l-325 585h-51
q-16 0 -26.5 10.5t-10.5 26.5q0 15 10.5 25.5t26.5 10.5h73q21 0 31 -19h1l365 -658q5 -8 5 -18q0 -15 -10.5 -25.5t-26.5 -10.5z" />
<glyph unicode="&#xe710;" horiz-adv-x="2048" d="M1908 1231q-81 -45 -200 -20l225 -378q8 -13 3.5 -27.5t-17.5 -21.5l-427 -239q-20 -12 -39 2q-20 13 -15 35q15 77 -16 129q-48 80 -108.5 96t-142.5 -30q-83 -47 -99 -105.5t32 -138.5q30 -51 107 -78q22 -9 24 -30q2 -24 -18 -35l-427 -239q-14 -7 -28 -3.5t-22 16.5
l-225 377q-11 -33 -22 -56t-36.5 -52.5t-59.5 -48.5q-110 -61 -199 -38t-152 129t-39 193t133 148q34 20 73 26.5t65 4t62 -9.5l-225 378q-8 13 -3.5 27.5t17.5 21.5l403 226q19 10 37 -1t18 -32q-3 -51 21 -90q47 -80 107.5 -95.5t143.5 30.5q82 46 98 105t-31 139
q-24 40 -69 62q-20 10 -20 31q-2 21 18 32l403 226q14 7 28 3.5t22 -16.5l225 -378q17 52 42.5 91t75.5 67q110 61 199 38t152 -129q128 -217 -94 -342z" />
<glyph unicode="&#xe711;" horiz-adv-x="2048" d="M1353 1279q0 -16 -11 -25l-292 -293q-11 -11 -26 -11t-26 11l-292 293q-11 9 -11 25t10.5 26.5t25.5 10.5q17 0 26 -11l230 -230v936q0 15 11 25.5t26 10.5t26 -10.5t11 -25.5v-936l230 230q9 11 26 11q15 0 25.5 -10.5t10.5 -26.5zM1061 13v666l646 308l-274 129l1 1
q-23 9 -23 33q0 16 11 26.5t26 10.5q9 0 17 -5l343 -162q21 -10 21 -33v-585q0 -22 -21 -33zM987 13l-747 356q-21 11 -21 33v585q0 23 21 33l342 162q8 5 17 5q15 0 25.5 -10.5t10.5 -26.5q0 -22 -20 -32l1 -1l-275 -130l646 -308v-666z" />
<glyph unicode="&#xe781;" horiz-adv-x="2048" d="M1902 1829q60 0 103 -43t43 -104v-1316q0 -61 -43 -104t-103 -43h-1756q-61 0 -103.5 43t-42.5 104v1316q0 61 42.5 104t103.5 43h1756zM329 805q11 0 21 7v-1l512 366v1q16 11 16 29q0 21 -19 31v1l-512 292q-8 5 -18 5q-15 0 -25.5 -10.5t-10.5 -26.5q0 -20 18 -31
l462 -265l-465 -332v-1q-15 -10 -15 -29q0 -15 10.5 -25.5t25.5 -10.5zM1170 731q15 0 26 11t11 26t-11 26t-26 11h-365q-16 0 -26.5 -11t-10.5 -26t10.5 -26t26.5 -11h365z" />
<glyph unicode="&#xe7a0;" horiz-adv-x="2048" d="M1024 1536q-218 0 -403.5 34.5t-293.5 93.5t-108 128t108 128t293.5 93.5t403.5 34.5t403.5 -34.5t293.5 -93.5t108 -128t-108 -128t-293.5 -93.5t-403.5 -34.5zM1744 1604q31 16 56 35q29 -34 29 -66v-293q0 -69 -108 -128t-293.5 -93.5t-403.5 -34.5t-403.5 34.5
t-293.5 93.5t-108 128v293q0 32 29 66q25 -19 56 -35q-11 -16 -11 -31q0 -50 98 -92t266 -66.5t367 -24.5t367 24.5t266 66.5t98 92q0 15 -11 31zM1744 1092q31 16 56 35q29 -34 29 -66v-293q0 -69 -108 -128t-293.5 -93.5t-403.5 -34.5t-403.5 34.5t-293.5 93.5t-108 128
v293q0 32 29 66q25 -19 56 -35q-11 -16 -11 -31q0 -50 98 -92t266 -66.5t367 -24.5t367 24.5t266 66.5t98 92q0 15 -11 31zM1744 580q31 16 56 35q29 -34 29 -66v-293q0 -69 -108 -128t-293.5 -93.5t-403.5 -34.5t-403.5 34.5t-293.5 93.5t-108 128v293q0 32 29 66
q25 -19 56 -35q-11 -16 -11 -31q0 -50 98 -92t266 -66.5t367 -24.5t367 24.5t266 66.5t98 92q0 15 -11 31z" />
<glyph unicode="&#xe800;" horiz-adv-x="2048" d="M357 524q-13 -13 -28 -13h-256q-30 0 -51.5 21.5t-21.5 52.5v1097q0 30 21.5 51.5t51.5 21.5h1902q30 0 51.5 -21.5t21.5 -51.5v-1097q0 -31 -21.5 -52.5t-51.5 -21.5h-256q-15 0 -28 13l-667 773zM1682 292h-1316q-15 0 -26 10.5t-11 26.5q0 12 9 23l658 768h1
q10 13 27 13t27 -13h1l658 -768q9 -11 9 -23q0 -16 -11 -26.5t-26 -10.5z" />
<glyph unicode="&#xe801;" horiz-adv-x="2048" d="M293 2048h1462v-2048h-1462v2048zM1024 878q182 0 310.5 128.5t128.5 310.5q0 181 -128.5 309.5t-310.5 128.5t-310.5 -128.5t-128.5 -309.5q0 -182 128.5 -310.5t310.5 -128.5zM1024 1682q152 0 259 -107t107 -258t-107 -258.5t-259 -107.5t-259 107.5t-107 258.5
t107 258t259 107zM1024 1170q61 0 103.5 43t42.5 104q0 60 -42.5 103t-103.5 43t-103.5 -43t-42.5 -103q0 -61 42.5 -104t103.5 -43zM695 293q45 0 77.5 32t32.5 77q0 46 -32.5 78t-77.5 32q-46 0 -78 -32t-32 -78q0 -45 32 -77t78 -32z" />
<glyph unicode="&#xe808;" horiz-adv-x="2048" d="M987 2047q46 0 78 -32t32 -77v-1829q0 -45 -32 -77.5t-78 -32.5q-38 0 -69 26h-1l-551 454v1089l551 454h1q30 25 69 25zM0 1389q0 61 43 103.5t103 42.5h147v-1024h-147q-60 0 -103 43t-43 104v731zM1515 987l157 -157q10 -12 10 -26q0 -15 -10.5 -26t-25.5 -11t-26 11
l-157 157l-157 -157q-13 -11 -26 -11q-15 0 -26 11t-11 26t11 26l157 157l-157 157q-11 11 -11 26t11 25.5t26 10.5q14 0 26 -10l157 -157l157 157q10 10 26 10q15 0 25.5 -10.5t10.5 -25.5q0 -16 -10 -26z" />
<glyph unicode="&#xe809;" horiz-adv-x="2048" d="M1682 2048q31 0 52 -21.5t21 -51.5v-1902q0 -30 -21 -51.5t-52 -21.5h-1316q-31 0 -52 21.5t-21 51.5v1902q0 30 21 51.5t52 21.5h1316zM1024 1829q-122 0 -207.5 -85.5t-85.5 -207.5t85.5 -207.5t207.5 -85.5t207.5 85.5t85.5 207.5t-85.5 207.5t-207.5 85.5zM1024 1317
q-91 0 -155 64t-64 155t64 155t155 64t155 -64t64 -155t-64 -155t-155 -64zM1024 1609q-30 0 -51.5 -21.5t-21.5 -51.5t21.5 -51.5t51.5 -21.5t51.5 21.5t21.5 51.5t-21.5 51.5t-51.5 21.5zM1024 219q197 0 336 139.5t139 336.5q0 129 -63.5 238.5t-173 173t-238.5 63.5
t-238.5 -63.5t-173 -173t-63.5 -238.5q0 -197 139 -336.5t336 -139.5zM1024 1097q166 0 284 -117.5t118 -284.5t-118 -284.5t-284 -117.5t-284 117.5t-118 284.5t118 284.5t284 117.5zM1024 549q61 0 103.5 42.5t42.5 103.5t-42.5 103.5t-103.5 42.5t-103.5 -42.5
t-42.5 -103.5t42.5 -103.5t103.5 -42.5z" />
<glyph unicode="&#xe80a;" horiz-adv-x="2048" d="M402 73v805h-36q-31 0 -52 21t-21 52v878h-183v-1756h292zM1426 73v805h-36q-31 0 -52 21t-21 52v878h-74v-878q0 -31 -21 -52t-52 -21h-36v-805h292zM1938 73v1756h-183v-878q0 -31 -21 -52t-52 -21h-36v-805h292zM914 73v805h-36q-31 0 -52 21t-21 52v878h-74v-878
q0 -31 -21 -52t-52 -21h-36v-805h292zM1938 1902q31 0 52 -21.5t21 -51.5v-1756q0 -30 -21 -51.5t-52 -21.5h-292q-31 0 -52 21.5t-21 51.5v805h-74v-805q0 -30 -21 -51.5t-52 -21.5h-292q-31 0 -52 21.5t-21 51.5v805h-74v-805q0 -30 -21 -51.5t-52 -21.5h-292
q-31 0 -52 21.5t-21 51.5v805h-74v-805q0 -30 -21 -51.5t-52 -21.5h-292q-31 0 -52 21.5t-21 51.5v1756q0 30 21 51.5t52 21.5h183v73q0 30 21 51.5t52 21.5h292q31 0 52 -21.5t21 -51.5v-73h74v73q0 30 21 51.5t52 21.5h292q31 0 52 -21.5t21 -51.5v-73h74v73q0 30 21 51.5
t52 21.5h292q31 0 52 -21.5t21 -51.5v-73h183z" />
<glyph unicode="&#xe810;" horiz-adv-x="2048" d="M1463 1682v-1316q0 -31 -21.5 -52t-51.5 -21h-1317q-30 0 -51.5 21t-21.5 52v1316q0 31 21.5 52t51.5 21h1317q30 0 51.5 -21t21.5 -52zM1536 1665q222 -50 367 -229t145 -412t-145 -412t-367 -229v478q73 67 73 163q0 97 -73 162v479zM407 513q95 0 173 62t78 162v658
l439 62v-538q-50 31 -115 31q-95 0 -172.5 -61.5t-77.5 -146.5q0 -67 52 -111.5t135 -44.5q95 0 173 62t78 162v689q0 16 -10.5 26.5t-25.5 10.5h-3l-2 -1v1l-512 -74q-14 -2 -23 -12t-9 -24v-580q-50 31 -115 31q-95 0 -172.5 -61.5t-77.5 -146.5q0 -67 52 -111.5
t135 -44.5zM978 878q56 0 87 -27.5t31 -61.5q0 -53 -52 -92t-120 -39q-56 0 -88 28t-32 62q0 49 52 89.5t122 40.5zM466 805q56 0 87 -27.5t31 -61.5q0 -53 -52 -92t-120 -39q-56 0 -88 28t-32 62q0 49 52 89.5t122 40.5z" />
<glyph unicode="&#xe820;" horiz-adv-x="2048" d="M1463 658q0 -31 -21.5 -52t-51.5 -21h-1317q-30 0 -51.5 21t-21.5 52v1316q0 31 21.5 52t51.5 21h1317q30 0 51.5 -21t21.5 -52v-1316zM1755 365q0 -30 -21 -51.5t-52 -21.5h-1316q-31 0 -52 21.5t-21 51.5v146h1097q60 0 103 43t43 104v1097h146q31 0 52 -21.5t21 -51.5
v-1317zM1975 1462q30 0 51.5 -21t21.5 -52v-1316q0 -31 -21.5 -52.5t-51.5 -21.5h-1317q-30 0 -51.5 21.5t-21.5 52.5v146h1097q61 0 104 42.5t43 103.5v1097h146zM878 1534q55 -5 105.5 -18t83 -28t57 -29t35.5 -23l11 -10q-9 127 -41 182q-83 147 -288 147h-110
q-33 0 -53 -22.5t-20 -50.5v-442l-36 3q-106 0 -181 -53.5t-75 -129.5t75 -129.5t181 -53.5t181 53.5t75 129.5v474zM841 1682q173 0 232 -125q-98 52 -232 52h-36v-549q0 -46 -53.5 -78t-129.5 -32t-129.5 32t-53.5 78t53.5 78t129.5 32q60 0 109 -23v535h110z" />
<glyph unicode="&#xe851;" horiz-adv-x="2048" d="M146 1975v-1170h220v-439h-293v1682h1536v-293h-73v220h-1390zM439 1682h1536v-1682h-1536v1682zM1902 439v1170h-1390v-1170h1390z" />
<glyph unicode="&#xe8b2;" horiz-adv-x="2048" d="M1097 1426h951v-1024h-951v-73q0 -50 -73.5 -92t-199.5 -66.5t-275 -24.5t-275.5 24.5t-200 66.5t-73.5 92v1408h3q20 70 176.5 117.5t369.5 47.5q212 0 368.5 -47.5t176.5 -117.5h3v-311zM549 1609q197 0 336 32t139 78q0 45 -139.5 77.5t-335.5 32.5
q-197 0 -336.5 -32.5t-139.5 -77.5q0 -46 139.5 -78t336.5 -32zM549 1755q60 0 103 -10.5t43 -25.5t-43 -26t-103 -11t-103.5 11t-43.5 26t43 25.5t104 10.5zM1975 1207v146h-73v-146h73zM1097 1353v-146h73v146h-73zM1390 1207v146h-147v-146h147zM1829 1207v146h-147v-146
h147zM1609 1207v146h-146v-146h146zM1170 1134v-439h73v439h-73zM1170 475v147h-73v-147h73zM1609 475v147h-146v-147h146zM1975 475v147h-73v-147h73zM1829 475v147h-147v-147h147zM1390 475v147h-147v-147h147z" />
<glyph unicode="&#xe8b4;" horiz-adv-x="2048" d="M1792 2048q15 0 26 -10.5t11 -26.5v-1974q0 -16 -11 -26.5t-26 -10.5h-1536q-15 0 -26 10.5t-11 26.5v1974q0 16 11 26.5t26 10.5h1536zM439 1719v256h-146v-256h146zM1755 1719v256h-146v-256h146zM439 1390v256h-146v-256h146zM1755 1390v256h-146v-256h146zM1536 1317
v73h-987v-73h987zM439 1061v256h-146v-256h146zM1755 1061v256h-146v-256h146zM439 731v256h-146v-256h146zM1755 731v256h-146v-256h146zM1536 658v73h-1024v-73h1024zM439 402v256h-146v-256h146zM1755 402v256h-146v-256h146zM439 73v256h-146v-256h146zM1755 73v256
h-146v-256h146z" />
<glyph unicode="&#xe8c0;" horiz-adv-x="2048" d="M1902 1682q61 0 103.5 -42.5t42.5 -103.5v-878q0 -61 -42.5 -103.5t-103.5 -42.5h-841v-73h292q15 0 26 -11t11 -26t-11 -25.5t-26 -10.5h-658q-15 0 -26 10.5t-11 25.5t11 26t26 11h292v73h-841q-61 0 -103.5 42.5t-42.5 103.5v878q0 61 42.5 103.5t103.5 42.5h1756z
" />
<glyph unicode="&#xe901;" horiz-adv-x="2048" d="M1975 1974q30 0 51.5 -21t21.5 -52v-366q0 -30 -21.5 -51.5t-51.5 -21.5h-1902q-30 0 -51.5 21.5t-21.5 51.5v366q0 31 21.5 52t51.5 21h1902zM73 73v1316h1902v-1316h-1902zM768 1243q-46 0 -78 -32t-32 -78q0 -45 32 -77.5t78 -32.5h512q46 0 78 32.5t32 77.5
q0 46 -32 78t-78 32h-512z" />
<glyph unicode="&#xe904;" horiz-adv-x="2048" d="M73 585q-30 0 -51.5 21.5t-21.5 51.5v1024q0 31 21.5 52t51.5 21h1682q31 0 52.5 -21t21.5 -52h-1756v-1097zM219 439q-30 0 -51.5 21.5t-21.5 51.5v1024q0 30 21.5 51.5t51.5 21.5h1683q30 0 51.5 -21.5t21.5 -51.5h-1756v-1097zM1097 1170v73h-585v-73h585zM1829 1170
v73h-586v-73h586zM1097 1024v73h-585v-73h585zM1829 1024v73h-586v-73h586zM951 878v73h-439v-73h439zM1682 878v73h-439v-73h439zM1975 1463q30 0 51.5 -21.5t21.5 -51.5v-1024q0 -31 -21.5 -52t-51.5 -21h-402v146h73q15 0 25.5 10.5t10.5 25.5q0 16 -10.5 26.5
t-25.5 10.5h-220q-15 0 -25.5 -10.5t-10.5 -26.5q0 -15 10.5 -25.5t25.5 -10.5h73v-146h-658v146h73q15 0 26 10.5t11 25.5q0 16 -11 26.5t-26 10.5h-219q-15 0 -26 -10.5t-11 -26.5q0 -15 11 -25.5t26 -10.5h73v-146h-402q-31 0 -52 21t-21 52v1024q0 30 21 51.5t52 21.5
h1609z" />
<glyph unicode="&#xe972;" horiz-adv-x="2048" d="M1975 2048q30 0 51.5 -21.5t21.5 -51.5v-1390h-549q-15 0 -25.5 -10.5t-10.5 -25.5v-549h-1390q-30 0 -51.5 21.5t-21.5 51.5v1902q0 30 21.5 51.5t51.5 21.5h1902zM1536 21v491h491z" />
<glyph unicode="&#xe973;" horiz-adv-x="2048" d="M1755 1390v73h-1462v-73h1462zM1755 1170v73h-1462v-73h1462zM1170 951v73h-877v-73h877zM1902 1755q60 0 103 -42.5t43 -103.5v-1170q0 -61 -43 -103.5t-103 -42.5h-183q-15 0 -26 10.5t-11 25.5q0 49 -63 79.5t-156 30.5t-156.5 -30.5t-63.5 -79.5q0 -15 -10.5 -25.5
t-25.5 -10.5h-366q-15 0 -25.5 10.5t-10.5 25.5q0 49 -63.5 79.5t-156.5 30.5t-156 -30.5t-63 -79.5q0 -15 -11 -25.5t-26 -10.5h-183q-61 0 -103.5 42.5t-42.5 103.5v1170q0 61 42.5 103.5t103.5 42.5h1756z" />
<glyph unicode="&#xe9a0;" horiz-adv-x="2048" d="M146 2048h293q61 0 103.5 -42.5t42.5 -103.5v-293q0 -61 -42.5 -103.5t-103.5 -42.5h-293q-60 0 -103 42.5t-43 103.5v293q0 61 43 103.5t103 42.5zM878 2048h292q61 0 104 -42.5t43 -103.5v-293q0 -61 -43 -103.5t-104 -42.5h-292q-61 0 -104 42.5t-43 103.5v293
q0 61 43 103.5t104 42.5zM1609 2048h293q61 0 103.5 -42.5t42.5 -103.5v-293q0 -61 -42.5 -103.5t-103.5 -42.5h-293q-61 0 -103.5 42.5t-42.5 103.5v293q0 61 42.5 103.5t103.5 42.5zM146 1317h293q61 0 103.5 -43t42.5 -104v-292q0 -61 -42.5 -104t-103.5 -43h-293
q-60 0 -103 43t-43 104v292q0 61 43 104t103 43zM1609 1317h293q61 0 103.5 -43t42.5 -104v-292q0 -61 -42.5 -104t-103.5 -43h-293q-61 0 -103.5 43t-42.5 104v292q0 61 42.5 104t103.5 43zM878 1317h292q61 0 104 -43t43 -104v-292q0 -61 -43 -104t-104 -43h-292
q-61 0 -104 43t-43 104v292q0 61 43 104t104 43zM1609 585h293q61 0 103.5 -42.5t42.5 -103.5v-293q0 -60 -42.5 -103t-103.5 -43h-293q-61 0 -103.5 43t-42.5 103v293q0 61 42.5 103.5t103.5 42.5zM146 585h293q61 0 103.5 -42.5t42.5 -103.5v-293q0 -60 -42.5 -103
t-103.5 -43h-293q-60 0 -103 43t-43 103v293q0 61 43 103.5t103 42.5zM878 585h292q61 0 104 -42.5t43 -103.5v-293q0 -60 -43 -103t-104 -43h-292q-61 0 -104 43t-43 103v293q0 61 43 103.5t104 42.5z" />
<glyph unicode="&#xe9a1;" horiz-adv-x="2048" d="M146 2048h1756q61 0 103.5 -42.5t42.5 -103.5v-293q0 -61 -42.5 -103.5t-103.5 -42.5h-1756q-60 0 -103 42.5t-43 103.5v293q0 61 43 103.5t103 42.5zM146 1317h1756q61 0 103.5 -43t42.5 -104v-292q0 -61 -42.5 -104t-103.5 -43h-1756q-60 0 -103 43t-43 104v292
q0 61 43 104t103 43zM146 585h1756q61 0 103.5 -42.5t42.5 -103.5v-293q0 -60 -42.5 -103t-103.5 -43h-1756q-60 0 -103 43t-43 103v293q0 61 43 103.5t103 42.5z" />
<glyph unicode="&#xe9b0;" horiz-adv-x="2048" d="M1024 2047q278 0 514 -39t373 -106.5t137 -146.5q0 -60 -48.5 -148.5t-126 -183t-171 -194.5t-187 -188t-171 -158t-126.5 -111l-48 -41v-658q0 -31 -21 -52.5t-52 -21.5h-146q-31 0 -52 21.5t-21 52.5v658q-18 15 -50 42t-123 109t-174 161t-184 185t-174 196.5
t-123 180.5t-50 150q0 79 137 146.5t373 106.5t514 39zM1024 1535q258 0 477 29.5t346.5 80t127.5 110.5t-127.5 110t-346.5 79.5t-477 29.5t-477 -29.5t-346.5 -79.5t-127.5 -110t127.5 -110.5t346.5 -80t477 -29.5z" />
<glyph unicode="&#xe9b2;" horiz-adv-x="2048" d="M914 585q15 0 26 -10.5t11 -25.5q0 -17 -11 -26l-439 -439q-9 -11 -26 -11q-16 0 -25 11l-439 439q-11 9 -11 26q0 15 10.5 25.5t26.5 10.5h256v1317q0 30 21 51.5t52 21.5h219q31 0 52 -21.5t21 -51.5v-1317h256zM1975 1975q30 0 51.5 -21.5t21.5 -51.5v-220
q0 -30 -21.5 -51.5t-51.5 -21.5h-1097q-31 0 -52 21.5t-21 51.5v220q0 30 21 51.5t52 21.5h1097zM1682 1536q31 0 52 -21.5t21 -51.5v-219q0 -31 -21 -52.5t-52 -21.5h-804q-31 0 -52 21.5t-21 52.5v219q0 30 21 51.5t52 21.5h804zM1390 1097q30 0 51.5 -21.5t21.5 -51.5
v-219q0 -31 -21.5 -52t-51.5 -21h-512q-31 0 -52 21t-21 52v219q0 30 21 51.5t52 21.5h512z" />
<glyph unicode="&#xe9b3;" horiz-adv-x="2048" d="M878 1609q-31 0 -52 21.5t-21 51.5v220q0 30 21 51.5t52 21.5h512q30 0 51.5 -21.5t21.5 -51.5v-220q0 -30 -21.5 -51.5t-51.5 -21.5h-512zM914 585q15 0 26 -10.5t11 -25.5q0 -17 -11 -26l-439 -439q-9 -11 -26 -11q-16 0 -25 11l-439 439q-11 9 -11 26q0 15 10.5 25.5
t26.5 10.5h256v1317q0 30 21 51.5t52 21.5h219q31 0 52 -21.5t21 -51.5v-1317h256zM878 1170q-31 0 -52 21.5t-21 52.5v219q0 30 21 51.5t52 21.5h804q31 0 52 -21.5t21 -51.5v-219q0 -31 -21 -52.5t-52 -21.5h-804zM1975 1097q30 0 51.5 -21.5t21.5 -51.5v-219
q0 -31 -21.5 -52t-51.5 -21h-1097q-31 0 -52 21t-21 52v219q0 30 21 51.5t52 21.5h1097z" />
<glyph unicode="&#xea00;" horiz-adv-x="2048" d="M1954 512h-1860q-21 36 -21 73v1097q0 61 43 104t103 43h1610q60 0 103 -43t43 -104v-1097q0 -37 -21 -73zM2046 267q2 -6 2 -11q0 -15 -10.5 -26t-26.5 -11h-1974q-16 0 -26.5 11t-10.5 26q0 5 2 11v1l1 2v1l72 168h1898l72 -168v-1l1 -2v-1z" />
<glyph unicode="&#xea01;" horiz-adv-x="2048" d="M1682 2048q61 0 104 -42.5t43 -103.5v-1756q0 -61 -43 -103.5t-104 -42.5h-1316q-61 0 -104 42.5t-43 103.5v1756q0 61 43 103.5t104 42.5h1316zM1682 293v1609h-1316v-1609h1316zM1609 1829v-1463h-1170v1463h1170zM1024 146q15 0 26 11t11 26t-11 25.5t-26 10.5
t-26 -10.5t-11 -25.5t11 -26t26 -11z" />
<glyph unicode="&#xea02;" horiz-adv-x="2048" d="M1536 2048q61 0 103.5 -42.5t42.5 -103.5v-147h-1316v147q0 61 42.5 103.5t103.5 42.5h1024zM1097 1829q15 0 26 10.5t11 25.5t-11 26t-26 11h-146q-15 0 -26 -11t-11 -26t11 -25.5t26 -10.5h146zM366 366v1316h1316v-1316h-1316zM366 146v147h1316v-147
q0 -61 -42.5 -103.5t-103.5 -42.5h-1024q-61 0 -103.5 42.5t-42.5 103.5zM1024 256q-30 0 -51.5 -21.5t-21.5 -51.5q0 -31 21.5 -52t51.5 -21t51.5 21t21.5 52q0 30 -21.5 51.5t-51.5 21.5z" />
<glyph unicode="&#xea06;" horiz-adv-x="2048" d="M1573 2048q60 0 103 -42.5t43 -103.5v-1756q0 -61 -43 -103.5t-103 -42.5h-1024q-61 0 -104 42.5t-43 103.5v1756q0 61 43 103.5t104 42.5h1024zM1573 1243v659h-1024v-659h1024zM1499 1829v-512h-877v512h877zM1061 146q104 0 198.5 40.5t163.5 109.5t109.5 163.5
t40.5 198.5q0 139 -68.5 257t-186.5 186.5t-257 68.5q-212 0 -362 -150t-150 -362q0 -139 68.5 -257t186.5 -186.5t257 -68.5zM1061 1097q182 0 310 -128.5t128 -310.5t-128.5 -310.5t-309.5 -128.5q-182 0 -310.5 128.5t-128.5 310.5t128.5 310.5t310.5 128.5zM1061 512
q60 0 103 42.5t43 103.5t-43 104t-103 43q-61 0 -104 -43t-43 -104t43 -103.5t104 -42.5z" />
<glyph unicode="&#xea80;" horiz-adv-x="2048" d="M1755 2047q31 0 52.5 -21t21.5 -52v-292h-1610v292q0 31 21.5 52t52.5 21h1462zM1243 1755q31 0 52.5 21.5t21.5 51.5t-21.5 51.5t-52.5 21.5q-30 0 -51.5 -21.5t-21.5 -51.5t21.5 -51.5t51.5 -21.5zM1536 1755q30 0 51.5 21.5t21.5 51.5t-21.5 51.5t-51.5 21.5
t-51.5 -21.5t-21.5 -51.5t21.5 -51.5t51.5 -21.5zM219 73v1536h1610v-1536q0 -31 -21.5 -52.5t-52.5 -21.5h-1462q-31 0 -52.5 21.5t-21.5 52.5zM1024 1389q-159 0 -293.5 -78.5t-213 -213t-78.5 -293.5t78.5 -293.5t213 -213t293.5 -78.5t293.5 78.5t213 213t78.5 293.5
t-78.5 293.5t-213 213t-293.5 78.5zM1024 292q-190 0 -333 123.5t-172 308.5q33 19 74 34.5t107.5 30.5t148 4.5t159.5 -49.5q129 -65 270 -65q113 0 255 71q-13 -127 -84 -232t-183 -165.5t-242 -60.5z" />
<glyph unicode="&#xea87;" horiz-adv-x="2048" d="M2041 276q8 -60 -29 -108.5t-97 -56.5l-798 -105q-60 -8 -108 29t-56 97l-105 798q-8 60 29 108.5t97 55.5l333 44l-144 691q-13 0 -31 7l-307 -532l346 -93q19 -5 32 -13l-238 -31q-91 -12 -146 -84t-43 -162l101 -767l-768 206q-58 16 -88.5 68t-14.5 111l208 777
q16 59 68.5 89.5t110.5 14.5l358 -96l324 559q-14 25 -14 55q0 45 32 77t77 32q46 0 78 -32t32 -77q0 -58 -46 -89l146 -701l392 51q60 8 108 -29t56 -97zM1619 958q-45 -6 -72.5 -42t-21.5 -81t42 -73t81 -22t72.5 42t21.5 81t-42 73t-81 22zM1090 777q6 -45 42 -72.5
t81 -21.5t72.5 42t21.5 81t-42 72.5t-81 22.5q-45 -6 -72.5 -42t-21.5 -82zM746 757q12 44 -11 83.5t-67 51.5q-44 11 -83 -11.5t-51 -66.5t11 -83.5t67 -50.5q43 -12 82.5 10.5t51.5 66.5zM1459 494q45 6 72.5 42t21.5 81t-42 73t-81 22t-72.5 -42t-21.5 -81
q6 -46 42 -73.5t81 -21.5zM1705 305q45 6 72.5 42t22.5 81q-6 45 -42 73t-82 22q-45 -6 -72.5 -42t-21.5 -81t42 -73t81 -22zM1270 248q45 6 72.5 42t21.5 81q-5 45 -41.5 72.5t-81.5 21.5q-45 -5 -72.5 -41.5t-21.5 -81.5t42 -72.5t81 -21.5z" />
<glyph unicode="&#xea8a;" horiz-adv-x="2048" d="M2041 1154q7 -10 7 -20q0 -15 -10.5 -26t-26.5 -11h-950v-1024h256q15 0 25.5 -10.5t10.5 -25.5q0 -16 -10.5 -26.5t-25.5 -10.5h-586q-15 0 -25.5 10.5t-10.5 26.5q0 15 10.5 25.5t25.5 10.5h256v1024h-950q-16 0 -26.5 11t-10.5 26q0 10 7 20h-1l585 878l1 -1
q10 17 30 17h804q20 0 30 -17l1 1l585 -878h-1zM1499 1024q16 0 26.5 -10.5t10.5 -26.5v-219q0 -15 -10.5 -26t-26.5 -11q-15 0 -25.5 11t-10.5 26v219q0 16 10.5 26.5t25.5 10.5z" />
<glyph unicode="&#xea8b;" horiz-adv-x="2048" d="M1719 1353q15 0 25.5 -10.5t10.5 -25.5q0 -16 -10.5 -26.5t-25.5 -10.5h-37v-219q0 -16 -10.5 -26.5t-25.5 -10.5h-256v-110q0 -15 -11 -26l-303 -303l522 -523q11 -9 11 -25t-10.5 -26.5t-25.5 -10.5q-17 0 -26 11l-136 135h-774l-136 -135q-9 -11 -26 -11
q-15 0 -25.5 10.5t-10.5 26.5t11 25l522 523l-303 303q-11 11 -11 26v110h-256q-15 0 -25.5 10.5t-10.5 26.5v219h-37q-15 0 -25.5 10.5t-10.5 26.5q0 15 10.5 25.5t25.5 10.5h37v658q0 16 10.5 26.5t25.5 10.5t26 -10.5t11 -26.5v-36h1170v36q0 16 11 26.5t26 10.5
t25.5 -10.5t10.5 -26.5v-658h37zM1609 1353v110h-1170v-110h36q16 0 26.5 -10.5t10.5 -25.5q0 -16 -10.5 -26.5t-26.5 -10.5h-36v-183h1170v183h-36q-16 0 -26.5 10.5t-10.5 26.5q0 15 10.5 25.5t26.5 10.5h36zM1317 929v95h-586v-95l293 -292zM1338 219l-314 314l-314 -314
h628z" />
<glyph unicode="&#xea8c;" horiz-adv-x="2048" d="M1646 1390q-9 0 -746 332h-1q-21 10 -21 33q0 26 24 35q739 258 744 258q15 0 25.5 -10.5t10.5 -26.5v-585q0 -15 -10.5 -25.5t-25.5 -10.5zM805 1646h36l329 -220v-256h-329q-15 0 -25.5 -10.5t-10.5 -25.5v-585q0 -16 10.5 -26.5t25.5 -10.5h329v-439q0 -30 -21 -51.5
t-52 -21.5h-658q-31 0 -52 21.5t-21 51.5v1353l329 220h36v109q0 16 11 26.5t26 10.5t26 -10.5t11 -26.5v-109zM878 585v512h292v-512h-292z" />
<glyph unicode="&#xea8d;" horiz-adv-x="2048" d="M1646 1902q-31 0 -52 21t-21 52q0 30 21 51.5t52 21.5q30 0 51.5 -21.5t21.5 -51.5q0 -31 -21.5 -52t-51.5 -21zM1061 1413q131 -63 211.5 -187t80.5 -275v-878q0 -30 -21.5 -51.5t-51.5 -21.5h-878q-30 0 -51.5 21.5t-21.5 51.5v878q0 151 80.5 275t212.5 187v452
q0 46 32 78t77 32h220q45 0 77.5 -32t32.5 -78v-452zM1426 1902q31 0 52 -21.5t21 -51.5q0 -31 -21 -52.5t-52 -21.5q-30 0 -51.5 21.5t-21.5 52.5q0 30 21.5 51.5t51.5 21.5zM987 1609v146q-30 0 -51.5 -21t-21.5 -52q0 -30 21.5 -51.5t51.5 -21.5zM1207 1609
q-31 0 -52 21.5t-21 51.5q0 31 21 52t52 21q30 0 51.5 -21t21.5 -52q0 -30 -21.5 -51.5t-51.5 -21.5zM1646 1755q30 0 51.5 -21t21.5 -52q0 -30 -21.5 -51.5t-51.5 -21.5q-31 0 -52 21.5t-21 51.5q0 31 21 52t52 21zM1426 1609q31 0 52 -21.5t21 -51.5t-21 -51.5t-52 -21.5
q-30 0 -51.5 21.5t-21.5 51.5t21.5 51.5t51.5 21.5zM1646 1463q30 0 51.5 -21.5t21.5 -51.5q0 -31 -21.5 -52t-51.5 -21q-31 0 -52 21t-21 52q0 30 21 51.5t52 21.5z" />
<glyph unicode="&#xea8e;" horiz-adv-x="2048" d="M1061 1536q0 -61 -43 -103.5t-104 -42.5t-103.5 42.5t-42.5 103.5t42.5 103.5t103.5 42.5t104 -42.5t43 -103.5zM914 1390q231 0 363 -147h-726q133 147 363 147zM439 951q0 101 49 199q-109 94 -195 94q-94 0 -157 -76.5t-63 -171.5q0 -46 33.5 -96t90.5 -76
q115 -53 257 37q-15 42 -15 90zM1170 402q0 -15 -10.5 -25.5t-25.5 -10.5h-439q-15 0 -26 10.5t-11 25.5q0 17 11 26l69 69l51 101q-101 22 -180.5 73t-123.5 123q-102 -62 -199 -62q-65 0 -119 25q-78 35 -122.5 104t-44.5 135q0 125 83.5 223t209.5 98q134 0 281 -147h756
q19 -31 34 -73h647q16 0 26.5 -10.5t10.5 -25.5q0 -23 -21 -34l-877 -394v1q-44 -21 -110 -36l51 -101l69 -69q10 -10 10 -26z" />
<glyph unicode="&#xea93;" horiz-adv-x="2048" d="M1975 1865q30 0 51.5 -21.5t21.5 -52.5v-1536q0 -30 -21.5 -51.5t-51.5 -21.5h-1902q-30 0 -51.5 21.5t-21.5 51.5v1536q0 31 21.5 52.5t51.5 21.5h1902zM1829 402v1243h-1610v-1243h1610zM1024 1097q-30 0 -51.5 -21.5t-21.5 -52.5q0 -30 21.5 -51.5t51.5 -21.5
t51.5 21.5t21.5 51.5q0 31 -21.5 52.5t-51.5 21.5zM612 786q-30 52 -14 110.5t68 89.5q33 18 96 37q-66 21 -96 38q-52 31 -68 89.5t14 110.5q31 52 89.5 68t110.5 -14q32 -19 81 -65q-15 62 -15 103q0 60 42.5 103t103.5 43t103.5 -43t42.5 -103q0 -40 -15 -103
q49 46 81 65q52 30 110.5 14t89.5 -68q30 -52 14 -110.5t-68 -89.5q-30 -17 -96 -38q63 -19 96 -37q52 -31 68 -89.5t-14 -110.5q-31 -52 -89.5 -68t-110.5 14q-32 19 -81 65q15 -63 15 -103q0 -60 -42.5 -103t-103.5 -43t-103.5 43t-42.5 103q0 40 15 103q-49 -46 -81 -65
q-52 -30 -110.5 -14t-89.5 68z" />
<glyph unicode="&#xeaa5;" horiz-adv-x="2048" d="M727 458q0 -15 -10.5 -26t-26.5 -11h-1q-4 0 -27.5 5.5t-67.5 22t-92 41.5t-99.5 68.5t-91.5 98t-66 136t-26 176.5q0 211 67.5 397.5t175.5 281.5q-23 9 -23 34q0 15 10.5 25.5t25.5 10.5h35q-35 110 -35 220q0 45 32.5 77t77.5 32q46 0 78 -32t32 -77q0 -117 50 -220
h23q15 0 26 -10.5t11 -25.5q0 -22 -20 -32q61 -87 152.5 -137.5t196.5 -50.5t196 50.5t152 137.5q-19 10 -19 32q0 15 10.5 25.5t25.5 10.5h24q50 106 50 220q0 45 32 77t77 32q46 0 78 -32t32 -77q0 -108 -34 -220h34q15 0 26 -10.5t11 -25.5t-11 -26t-26 -11h-37v-493
q0 -98 -20.5 -186t-47 -144t-62.5 -104.5t-57 -68.5t-40 -34l-1 -1h-1q-2 -2 -4 -3t-2 -2q-10 -5 -18 -5q-15 0 -26 10.5t-11 26.5t15 28l-1 1q13 10 25 20t48.5 54t61.5 93.5t46.5 134.5t21.5 180v402q-90 -143 -234.5 -227t-313.5 -84q-189 0 -345.5 103.5t-240.5 274.5
q-105 -67 -180 -249t-75 -403q0 -83 22.5 -153.5t55 -117t78.5 -85t83.5 -59t80.5 -36t59.5 -19.5t28.5 -6v-1q26 -7 26 -34zM1134 1170q77 0 154 17l65 -1041q0 -61 -64 -104t-155 -43t-155.5 43t-64.5 104l65 1041q77 -17 155 -17z" />
<glyph unicode="&#xeaa6;" horiz-adv-x="2048" d="M1829 1902q91 0 155 -64.5t64 -155.5t-64 -155t-155 -64q-13 0 -37 4l-503 -590l-240 240l565 521q-5 23 -5 44q0 91 64.5 155.5t155.5 64.5zM611 1452l1024 -1024q11 -9 11 -26q0 -15 -11 -26l-219 -219q-11 -11 -26 -11q-16 0 -26.5 11t-10.5 26v131l-856 856h-131
q-16 0 -26.5 11t-10.5 26t11 26l219 219q11 11 26 11t26 -11zM294 146h-257q-16 0 -26.5 11t-10.5 26q0 13 10 25l656 689l182 -182zM396 146l503 518l183 -183l-325 -324q-9 -11 -26 -11h-335z" />
<glyph unicode="&#xeaa7;" horiz-adv-x="2048" d="M354 1971l447 -878l483 253q-141 277 -382.5 439.5t-547.5 185.5zM1277 158q138 243 148.5 543.5t-110.5 578.5l-480 -253zM1243 0q-12 0 -22 7q-12 9 -14 24t7 27q3 4 9 14t9 14l-462 907l-148 -78v-184q0 -15 -11 -25.5t-26 -10.5t-25.5 10.5t-10.5 25.5v146l-37 -19
v-200q0 -15 -10.5 -25.5t-26.5 -10.5q-15 0 -25.5 10.5t-10.5 25.5v161l-20 -10q-7 -4 -17 -4q-15 0 -25.5 10.5t-10.5 25.5q0 22 19 32v1l18 9l-139 80q-13 7 -17 22t4 28q8 14 22 17.5t28 -4.5l179 -103l38 20l-136 79q-13 8 -16.5 22t3.5 27t22 17.5t28 -3.5l175 -101
l143 74l-467 916q-2 0 -7 0.5t-7 0.5q-16 0 -26.5 10.5t-10.5 25.5q0 16 10.5 26.5t26.5 10.5q359 0 645 -174.5t447 -493.5l351 185l-138 46q-25 9 -25 35q0 15 10.5 25.5t26.5 10.5q3 0 11 -2l220 -73h-1q26 -9 26 -34l-3 -12h1l-73 -219h-1q-8 -25 -34 -25
q-15 0 -26 10.5t-11 25.5q0 6 3 12h-1l45 133l-350 -184q144 -325 115.5 -680.5t-221.5 -618.5q-12 -15 -30 -15z" />
<glyph unicode="&#xeaa8;" horiz-adv-x="2048" d="M1829 624v-587q0 -16 -11 -26.5t-26 -10.5h-1536q-15 0 -26 10.5t-11 26.5v587q0 34 54 93t134.5 118.5t186 111.5t197.5 70q-91 110 -165 356q-41 47 -41 92q0 30 18 57t46 41q-42 189 91 325q120 149 210 125q3 1 17.5 7t20.5 8.5t20.5 7t25 6.5t26 4t31.5 2
q32 0 60 -10.5t62 -37.5t68 -83.5t66 -139.5q70 -59 48 -212q29 -14 48.5 -41.5t19.5 -58.5q0 -45 -41 -92q-74 -246 -165 -356q92 -18 197.5 -70t186 -111.5t134.5 -118.5t54 -93zM1024 1536q61 0 103.5 42.5t42.5 103.5t-42.5 104t-103.5 43t-103.5 -43t-42.5 -104
t42.5 -103.5t103.5 -42.5zM1024 1755q30 0 51.5 -21t21.5 -52q0 -30 -21.5 -51.5t-51.5 -21.5t-51.5 21.5t-21.5 51.5q0 31 21.5 52t51.5 21zM1024 878q-152 0 -259 -107t-107 -259t107 -259t259 -107t259 107t107 259t-107 259t-259 107zM1024 219q-122 0 -207.5 85.5
t-85.5 207.5t85.5 207.5t207.5 85.5t207.5 -85.5t85.5 -207.5t-85.5 -207.5t-207.5 -85.5zM1024 731q-91 0 -155 -64t-64 -155t64 -155t155 -64t155 64t64 155t-64 155t-155 64zM1024 366q-61 0 -103.5 42.5t-42.5 103.5t42.5 103.5t103.5 42.5t103.5 -42.5t42.5 -103.5
t-42.5 -103.5t-103.5 -42.5zM1024 585q-30 0 -51.5 -21.5t-21.5 -51.5t21.5 -51.5t51.5 -21.5t51.5 21.5t21.5 51.5t-21.5 51.5t-51.5 21.5z" />
<glyph unicode="&#xeab4;" horiz-adv-x="2048" d="M1024 658q106 0 181 75t75 181t-75 181t-181 75t-181 -75t-75 -181t75 -181t181 -75zM1829 73q0 -31 -21.5 -52.5t-52.5 -21.5h-1462q-31 0 -52.5 21.5t-21.5 52.5v1051l-156 -163v1q-12 -12 -26 -12q-16 0 -26.5 11t-10.5 26t10 25l988 1024q9 11 26 11t26 -11
l988 -1024q10 -10 10 -25t-10.5 -26t-26.5 -11q-14 0 -26 12v-1l-156 163v-1051zM1024 1097q76 0 129.5 -53.5t53.5 -129.5t-53.5 -129.5t-129.5 -53.5t-129.5 53.5t-53.5 129.5t53.5 129.5t129.5 53.5zM1024 292q30 0 51.5 21.5t21.5 51.5q0 31 -21.5 52t-51.5 21
t-51.5 -21t-21.5 -52q0 -30 21.5 -51.5t51.5 -21.5z" />
<glyph unicode="&#xeab5;" horiz-adv-x="2048" d="M658 621v-622h-365q-31 0 -52.5 21.5t-21.5 52.5v1051l-156 -163v1q-12 -12 -26 -12q-16 0 -26.5 11t-10.5 26t10 25l988 1024q9 11 26 11t26 -11l988 -1024q10 -10 10 -25t-10.5 -26t-26.5 -11q-14 0 -26 12v-1l-156 163v-1051q0 -31 -21.5 -52.5t-52.5 -21.5h-365v622
q0 151 -107 258.5t-259 107.5t-259 -107.5t-107 -258.5zM1024 914q122 0 207.5 -86t85.5 -207v-622h-586v622q0 121 85.5 207t207.5 86z" />
<glyph unicode="&#xeb00;" horiz-adv-x="2048" d="M1713 1424q141 -11 238 -116t97 -248q0 -152 -107 -259t-259 -107h-621v622q0 15 -11 26t-26 11t-26 -11t-11 -26v-622h-585q-167 0 -284.5 118t-117.5 285q0 137 83 244t213 143q14 100 91 167t180 67q88 0 157 -50q53 152 185.5 247.5t297.5 95.5q212 0 362 -150
t150 -362q0 -25 -6 -75zM987 161v533h74v-533l230 230q9 11 26 11q15 0 25.5 -11t10.5 -26t-11 -26l-292 -292q-11 -11 -26 -11t-26 11l-292 292q-11 11 -11 26t10.5 26t25.5 11q17 0 26 -11z" />
<glyph unicode="&#xeb01;" horiz-adv-x="2048" d="M1061 2011v-549h-74v549q0 15 11 25.5t26 10.5t26 -10.5t11 -25.5zM1719 1462q30 0 51.5 -21t21.5 -52v-1316q0 -31 -21.5 -52.5t-51.5 -21.5h-1390q-30 0 -51.5 21.5t-21.5 52.5v1316q0 31 21.5 52t51.5 21h658v-606l-230 230q-11 11 -26 11t-25.5 -11t-10.5 -26t11 -26
l292 -292q11 -11 26 -11t26 11l292 292q11 11 11 26t-10.5 26t-25.5 11t-26 -11l-230 -230v606h658z" />
<glyph unicode="&#xeb02;" horiz-adv-x="2048" d="M2037 1598q11 -11 11 -26v-1353q0 -31 -21.5 -52t-51.5 -21h-1902q-30 0 -51.5 21t-21.5 52v1353q0 15 11 26l292 292q11 11 26 11h1390q15 0 26 -11zM125 1609h1798l-219 219h-1360zM1342 742q11 9 11 25t-10.5 26.5t-25.5 10.5q-17 0 -26 -11l-230 -230v716
q0 16 -11 26.5t-26 10.5t-26 -10.5t-11 -26.5v-716l-230 230q-9 11 -26 11q-15 0 -25.5 -10.5t-10.5 -26.5t11 -25l292 -293q11 -11 26 -11t26 11z" />
<glyph unicode="&#xeb40;" horiz-adv-x="2048" d="M1713 1424q141 -11 238 -116t97 -248q0 -152 -107 -259t-259 -107h-621v534l230 -230q9 -11 26 -11q15 0 25.5 10.5t10.5 25.5q0 17 -11 26l-292 293q-13 11 -26 11t-26 -11l-292 -293q-11 -9 -11 -26q0 -15 10.5 -25.5t25.5 -10.5q17 0 26 11l230 230v-534h-585
q-167 0 -284.5 118t-117.5 285q0 137 83 244t213 143q14 100 91 167t180 67q88 0 157 -50q53 152 185.5 247.5t297.5 95.5q212 0 362 -150t150 -362q0 -25 -6 -75zM987 73v621h74v-621q0 -16 -11 -26.5t-26 -10.5t-26 10.5t-11 26.5z" />
<glyph unicode="&#xeb41;" horiz-adv-x="2048" d="M1024 1923v-461h-73v461l-230 -231q-12 -10 -26 -10q-15 0 -26 10.5t-11 25.5q0 17 11 26l293 293q10 10 25 10q16 0 26 -10l293 -293q11 -11 11 -26t-11 -25.5t-26 -10.5q-14 0 -26 10zM1682 1462q31 0 52 -21t21 -52v-1316q0 -31 -21 -52.5t-52 -21.5h-1389
q-31 0 -52.5 21.5t-21.5 52.5v1316q0 31 21.5 52t52.5 21h658v-695q0 -15 10.5 -25.5t25.5 -10.5q16 0 26.5 10.5t10.5 25.5v695h658z" />
<glyph unicode="&#xeb80;" horiz-adv-x="2048" d="M1499 2048q106 0 181 -75t75 -181q0 -96 -62.5 -167.5t-156.5 -85.5v-222q0 -151 -107 -258.5t-259 -107.5h-585v-442q94 -14 157 -85.5t63 -167.5q0 -106 -75 -181t-181 -75t-181 75t-75 181q0 96 62.5 167.5t156.5 85.5v1030q-94 14 -156.5 85.5t-62.5 167.5
q0 106 75 181t181 75t181 -75t75 -181q0 -96 -63 -167.5t-157 -85.5v-515h585q122 0 207.5 86t85.5 207v222q-94 14 -157 85.5t-63 167.5q0 106 75 181t181 75z" />
<glyph unicode="&#xeb81;" horiz-adv-x="2048" d="M658 1792q0 -96 -62.5 -167t-156.5 -85v-1032q94 -14 156.5 -85t62.5 -167q0 -106 -75 -181t-181 -75t-181 75t-75 181q0 96 63 167t157 85v1032q-94 14 -157 85t-63 167q0 106 75 181t181 75t181 -75t75 -181zM1682 508q94 -14 157 -85t63 -167q0 -106 -75 -181
t-181 -75t-181 75t-75 181q0 96 62.5 167t156.5 85v955q0 121 -85.5 206.5t-206.5 85.5h-388l157 -157q11 -9 11 -25t-10.5 -26.5t-25.5 -10.5q-17 0 -26 11l-220 219q-10 12 -10 26t10 26l220 219q9 11 26 11q15 0 25.5 -10.5t10.5 -26.5t-11 -25l-157 -157h388
q151 0 258 -107t107 -259v-955z" />
<glyph unicode="&#xeb84;" horiz-adv-x="2048" d="M2042 1336q6 -12 6 -19q0 -17 -11 -26l-109 -110q-11 -11 -26 -11q-20 0 -30 17h-1q-144 192 -365 306q-225 116 -482 116q-112 0 -218.5 -22.5t-187.5 -58t-153.5 -80t-122 -87.5t-87.5 -82t-56 -62.5t-22 -28.5v-1h-1q-10 -17 -30 -17q-15 0 -26 11l-109 110
q-11 9 -11 26q0 7 6 19h-1q11 17 23.5 34.5t60.5 71t100 98t141 101t185 95.5t230.5 66t278.5 27t278.5 -27t230.5 -66t185 -95.5t141 -101t100 -98t60.5 -71t23.5 -34.5h-1zM1609 878q-17 0 -29 15l-1 1q-80 99 -202 174q-170 103 -353 103q-247 0 -459 -180
q-52 -44 -97 -98q-12 -15 -29 -15q-14 0 -26 10l-110 110q-10 12 -10 26q0 12 8 22l-1 1q8 10 20 24t49 49.5t78 67.5t105.5 70.5t132.5 66t157.5 46.5t181.5 19t181.5 -19t157.5 -46.5t132.5 -66t105.5 -70.5t78 -67.5t49 -49.5t20 -24l-1 -1q8 -10 8 -22q0 -14 -10 -26
l-110 -110q-12 -10 -26 -10zM1455 755l-1 -1q9 -11 9 -23q0 -16 -11 -25l-110 -110q-9 -11 -25 -11q-19 0 -29 15h-1v1q-56 69 -141 105q-60 26 -122 26q-44 0 -86 -12.5t-72.5 -31t-53.5 -37.5t-36.5 -33.5t-14.5 -16.5v-1h-1q-10 -15 -29 -15q-16 0 -25 11l-110 110
q-11 9 -11 25q0 12 9 23l-1 1q12 14 22 24.5t54.5 46.5t89 59.5t117 44.5t148.5 21t148.5 -21t117 -44.5t89 -59.5t54.5 -46.5t22 -24.5zM1166 456v-1q4 -7 4 -16q0 -14 -10 -26l-110 -110q-12 -10 -26 -10t-26 10l-110 110q-10 12 -10 26q0 9 4 16v1q1 2 6 10.5t17.5 23
t28 27.5t39.5 22.5t51 9.5t51 -9.5t39.5 -22.5t28 -27.5t17.5 -23t6 -10.5z" />
<glyph unicode="&#xeb85;" horiz-adv-x="2048" d="M1719 2048q137 0 233 -96t96 -233q0 -127 -84.5 -220t-208.5 -107v-368q0 -15 -10.5 -26t-25.5 -11h-368q-14 -124 -107.5 -208t-219.5 -84t-219.5 84t-107.5 208h-331v-331q124 -14 208 -107t84 -220q0 -137 -96 -233t-233 -96t-233 96t-96 233q0 127 84.5 220
t208.5 107v368q0 15 10.5 26t25.5 11h368q14 124 107.5 208t219.5 84t219.5 -84t107.5 -208h331v331q-124 14 -208 107t-84 220q0 137 96 233t233 96z" />
<glyph unicode="&#xeb88;" horiz-adv-x="2048" d="M579 383q-10 -17 -30 -17h-512q-16 0 -26.5 10.5t-10.5 25.5t10.5 26t26.5 11h491l540 878h-1031q-16 0 -26.5 10.5t-10.5 25.5t10.5 26t26.5 11h1886l-230 230q-11 9 -11 26q0 15 11 25.5t26 10.5q14 0 26 -10l292 -293q11 -11 11 -26t-11 -26l-292 -292
q-11 -11 -26 -11t-26 10.5t-11 26.5t11 25l230 231h-769l-574 -934h-1z" />
<glyph unicode="&#xeb89;" horiz-adv-x="2048" d="M1745 230q-13 -11 -26 -11q-15 0 -26 11t-11 26t11 26l230 230h-1886q-16 0 -26.5 10.5t-10.5 26.5q0 15 10.5 25.5t26.5 10.5h345l574 934l1 -1q10 18 30 18h936l-230 230q-11 11 -11 26t11 26t26 11q13 0 26 -11l292 -293q11 -9 11 -26q0 -16 -11 -25l-292 -293
q-11 -11 -26 -11t-26 11t-11 26t11 26l230 230h-915l-540 -878h1455l-230 230q-11 11 -11 26t11 26t26 11t26 -11l292 -293q11 -9 11 -25q0 -17 -11 -26z" />
<glyph unicode="&#xeb8a;" horiz-adv-x="2048" d="M1353 0h-658q-15 0 -26 10.5t-11 26.5q0 15 11 25.5t26 10.5h292v497l-768 768v-277q0 -16 -10.5 -26.5t-25.5 -10.5t-26 10.5t-11 26.5v365q0 15 11 26t26 11h366q15 0 25.5 -11t10.5 -26t-10.5 -25.5t-25.5 -10.5h-278l716 -717v1250l-230 -230q-9 -11 -26 -11
q-15 0 -25.5 11t-10.5 26t11 26l292 292q11 11 26 11t26 -11l292 -292q11 -11 11 -26t-10.5 -26t-25.5 -11q-17 0 -26 11l-230 230v-1250l716 717h-278q-15 0 -25.5 10.5t-10.5 25.5t10.5 26t25.5 11h366q15 0 26 -11t11 -26v-365q0 -16 -11 -26.5t-26 -10.5t-25.5 10.5
t-10.5 26.5v277l-768 -768v-497h292q15 0 26 -10.5t11 -25.5q0 -16 -11 -26.5t-26 -10.5z" />
<glyph unicode="&#xec00;" horiz-adv-x="2048" d="M1390 1645q0 -15 10.5 -25.5t25.5 -10.5h403v-1098q0 -30 -21.5 -51.5t-52.5 -21.5h-292v512h110q15 0 25.5 11t10.5 26t-10.5 25.5t-25.5 10.5h-110v256l-110 110h220q15 0 25.5 11t10.5 26t-10.5 25.5t-25.5 10.5h-293l-219 220h-403v292q0 31 21.5 52t51.5 21h659
v-402zM1463 2047l366 -365h-366v365zM951 1206q0 -15 10.5 -25.5t25.5 -10.5h403v-1097q0 -31 -21.5 -52.5t-51.5 -21.5h-1024q-31 0 -52.5 21.5t-21.5 52.5v1462q0 31 21.5 52.5t52.5 21.5h658v-403zM1024 1243v366l366 -366h-366zM1170 987q0 15 -10.5 25.5t-25.5 10.5
h-659q-15 0 -25.5 -10.5t-10.5 -25.5t10.5 -26t25.5 -11h659q15 0 25.5 11t10.5 26zM439 767q0 -15 10.5 -25.5t25.5 -10.5h439q16 0 26.5 10.5t10.5 25.5q0 16 -10.5 26.5t-26.5 10.5h-439q-15 0 -25.5 -10.5t-10.5 -26.5zM1134 511q15 0 25.5 11t10.5 26t-10.5 26
t-25.5 11h-659q-15 0 -25.5 -11t-10.5 -26t10.5 -26t25.5 -11h659z" />
<glyph unicode="&#xed50;" horiz-adv-x="2048" d="M110 1572q30 0 51.5 -21.5t21.5 -51.5q0 -31 -21.5 -52t-51.5 -21q-31 0 -52 21t-21 52q0 30 21 51.5t52 21.5zM366 1462q-15 0 -26 11t-11 26t11 25.5t26 10.5h1536q15 0 25.5 -10.5t10.5 -25.5t-10.5 -26t-25.5 -11h-1536zM110 1206q30 0 51.5 -21t21.5 -52
q0 -30 -21.5 -51.5t-51.5 -21.5q-31 0 -52 21.5t-21 51.5q0 31 21 52t52 21zM1902 1170q15 0 25.5 -11t10.5 -26t-10.5 -25.5t-25.5 -10.5h-1536q-15 0 -26 10.5t-11 25.5t11 26t26 11h1536zM110 877q30 0 51.5 -21.5t21.5 -51.5t-21.5 -51.5t-51.5 -21.5q-31 0 -52 21.5
t-21 51.5t21 51.5t52 21.5zM1902 841q15 0 25.5 -11t10.5 -26t-10.5 -26t-25.5 -11h-1536q-15 0 -26 11t-11 26t11 26t26 11h1536zM110 548q30 0 51.5 -21.5t21.5 -51.5q0 -31 -21.5 -52t-51.5 -21q-31 0 -52 21t-21 52q0 30 21 51.5t52 21.5zM1902 511q15 0 25.5 -10.5
t10.5 -25.5t-10.5 -26t-25.5 -11h-1536q-15 0 -26 11t-11 26t11 25.5t26 10.5h1536z" />
<glyph unicode="&#xed51;" horiz-adv-x="2048" d="M219 1842l52 -160h168l-135 -98l49 -158l-134 92l-133 -92l49 158l-135 98h168zM622 1573q-15 0 -26 10.5t-11 25.5t11 26t26 11h1389q16 0 26.5 -11t10.5 -26t-10.5 -25.5t-26.5 -10.5h-1389zM219 1257l52 -160h168l-135 -98l49 -158l-134 92l-133 -92l49 158l-135 98
h168zM2011 1061q16 0 26.5 -11t10.5 -26t-10.5 -25.5t-26.5 -10.5h-1389q-15 0 -26 10.5t-11 25.5t11 26t26 11h1389zM271 512h168l-135 -98l49 -158l-134 92l-133 -92l49 158l-135 98h168l51 160zM2011 476q16 0 26.5 -11t10.5 -26t-10.5 -26t-26.5 -11h-1389q-15 0 -26 11
t-11 26t11 26t26 11h1389z" />
<glyph unicode="&#xeda0;" horiz-adv-x="2048" d="M1902 1902q60 0 103 -43t43 -104v-1462q0 -61 -43 -104t-103 -43h-1756q-61 0 -103.5 43t-42.5 104v1462q0 61 42.5 104t103.5 43h1756zM1902 293v1462h-1756v-1462h1756zM1829 1682v-1316h-1610v1316h1610z" />
<glyph unicode="&#xeda1;" horiz-adv-x="2048" d="M1902 1902q60 0 103 -43t43 -104v-1462q0 -61 -43 -104t-103 -43h-1756q-61 0 -103.5 43t-42.5 104v1462q0 61 42.5 104t103.5 43h1756zM1902 293v1462h-841v-1462h841zM987 293v1462h-841v-1462h841zM1829 1682v-1316h-696v1316h696zM915 1682v-1316h-696v1316h696z" />
<glyph unicode="&#xeda2;" horiz-adv-x="2048" d="M1902 1902q60 0 103 -43t43 -104v-1462q0 -61 -43 -104t-103 -43h-1756q-61 0 -103.5 43t-42.5 104v1462q0 61 42.5 104t103.5 43h1756zM1902 1061v694h-841v-694h841zM987 293v1462h-841v-1462h841zM915 1682v-1316h-696v1316h696zM1829 1682v-548h-696v548h696z
M1902 293v694h-841v-694h841zM1829 914v-548h-696v548h696z" />
<glyph unicode="&#xeda3;" horiz-adv-x="2048" d="M1902 1902q60 0 103 -43t43 -104v-1462q0 -61 -43 -104t-103 -43h-1756q-61 0 -103.5 43t-42.5 104v1462q0 61 42.5 104t103.5 43h1756zM987 1061v694h-841v-694h841zM1902 1061v694h-841v-694h841zM915 1682v-548h-696v548h696zM1829 1682v-548h-696v548h696zM987 293
v694h-841v-694h841zM1902 293v694h-841v-694h841zM1829 914v-548h-696v548h696zM915 914v-548h-696v548h696z" />
<glyph unicode="&#xee00;" horiz-adv-x="2048" d="M1646 731q15 0 25.5 -10.5t10.5 -25.5v-439q0 -15 -10.5 -26t-25.5 -11h-1609q-16 0 -26.5 11t-10.5 26v1170q0 15 10.5 26t26.5 11h512q15 0 25.5 -11t10.5 -26t-10.5 -25.5t-25.5 -10.5h-476v-1097h1536v402q0 15 11 25.5t26 10.5zM1243 1023q-121 -3 -230 -22.5
t-190.5 -49.5t-152 -70t-119 -80.5t-87.5 -86t-61 -81.5t-37 -70v132q0 141 59.5 266t153.5 212t211.5 152t233 98t219.5 39v330q0 15 11 26t26 11q11 0 22 -9l1 1l731 -586q14 -12 14 -28q0 -18 -16 -30l-731 -512q-11 -7 -21 -7q-15 0 -26 11t-11 26v328z" />
<glyph unicode="&#xee01;" horiz-adv-x="2048" d="M2048 2011q0 -16 -11 -25l-742 -743h643q15 0 26 -10.5t11 -25.5t-11 -26t-26 -11h-731q-15 0 -26 11t-11 26v731q0 15 11 26t26 11t25.5 -11t10.5 -26v-643l743 742q9 11 25 11t26.5 -10.5t10.5 -26.5zM841 878q15 0 26 -11t11 -26v-731q0 -15 -11 -26t-26 -11t-25.5 11
t-10.5 26v643l-743 -742q-9 -11 -25 -11t-26.5 10.5t-10.5 26.5t11 25l742 743h-643q-15 0 -26 10.5t-11 25.5t11 26t26 11h731z" />
<glyph unicode="&#xee06;" horiz-adv-x="2048" d="M183 1463q-76 0 -129.5 53.5t-53.5 129.5t53.5 129.5t129.5 53.5h1682q76 0 129.5 -53.5t53.5 -129.5t-53.5 -129.5t-129.5 -53.5h-1682zM1865 1207q76 0 129.5 -53.5t53.5 -129.5t-53.5 -129.5t-129.5 -53.5h-1682q-76 0 -129.5 53.5t-53.5 129.5t53.5 129.5t129.5 53.5
h1682zM1865 585q76 0 129.5 -53.5t53.5 -129.5t-53.5 -129.5t-129.5 -53.5h-1682q-76 0 -129.5 53.5t-53.5 129.5t53.5 129.5t129.5 53.5h1682z" />
<glyph unicode="&#xee11;" horiz-adv-x="2048" d="M1024 1536q-161 0 -294 -93l-365 365q136 114 305 177t354 63t354 -63t305 -177l-365 -365q-133 93 -294 93zM512 1024q0 -161 93 -294l-365 -365q-114 136 -177 305t-63 354t63 354t177 305l365 -365q-93 -133 -93 -294zM1808 1683q114 -136 177 -305t63 -354t-63 -354
t-177 -305l-365 365q93 133 93 294t-93 294zM1024 512q161 0 294 93l365 -365q-136 -114 -305 -177t-354 -63t-354 63t-305 177l365 365q133 -93 294 -93z" />
<glyph unicode="&#xef60;" horiz-adv-x="2048" d="M1955 1024q43 -28 68 -71t25 -94q0 -83 -64 -142t-155 -59q-88 0 -135.5 56.5t-47.5 144.5q0 13 1 19h-1246q1 -6 1 -19q0 -88 -47.5 -144.5t-135.5 -56.5q-91 0 -155 59t-64 142q0 51 25 94t68 71q-43 28 -68 71t-25 94q0 83 64 142t155 59q88 0 135.5 -56.5
t47.5 -144.5q0 -13 -1 -19h1246q-1 6 -1 19q0 88 47.5 144.5t135.5 56.5q91 0 155 -59t64 -142q0 -51 -25 -94t-68 -71z" />
<glyph unicode="&#xef62;" horiz-adv-x="2048" d="M1270 1396q-101 29 -147 143t-12 247t129.5 208t195.5 47t147 -141.5t12 -247.5q-34 -133 -129.5 -208.5t-195.5 -47.5zM778 1396q-100 -28 -195.5 47.5t-129.5 208.5q-35 134 12 247.5t147 141.5t195.5 -47t129.5 -208t-12 -247t-147 -143zM1875 1602
q100 -28 147 -141.5t12 -247.5t-130 -208.5t-195 -46.5t-147 141.5t-12 247.5t130 208.5t195 46.5zM339 958q-100 -28 -195 46.5t-130 208.5t12 247.5t147 141.5t195 -46.5t130 -208.5t-12 -247.5t-147 -141.5zM1496 0q-71 0 -120.5 15t-79.5 37t-60.5 44t-83 37t-128.5 15
t-128.5 -15t-83.5 -37l-62 -44t-84.5 -37t-129.5 -15q-83 0 -147.5 13t-106 38.5t-69.5 56t-42 71t-19.5 76.5t-5.5 80q0 48 8 88.5t18.5 68.5t32 53.5t37.5 40.5t46.5 32t48 24.5t51.5 21.5q48 20 74.5 32.5t64.5 39.5t66 61q30 36 53.5 83.5t33 76t27.5 86.5
q34 116 63 161q68 105 227 112q13 1 27 1q68 0 119 -15.5t81.5 -38.5t53.5 -61t35.5 -72t26.5 -82q1 -4 1 -5q18 -58 27.5 -86.5t33 -76t53.5 -83.5q28 -34 66 -61t64.5 -39.5t74.5 -32.5q34 -14 51.5 -21.5t48 -24.5t46.5 -32t37.5 -40.5t32 -53.5t18.5 -68.5t8 -88.5
q0 -53 -8.5 -96.5t-34.5 -90t-69.5 -77.5t-118 -51t-175.5 -20z" />
<glyph unicode="&#xf000;" horiz-adv-x="2048" d="M1024 2047q209 0 398.5 -81t326.5 -218t218 -326.5t81 -398.5q0 -225 -92 -424.5t-255 -342.5q-110 151 -288.5 240t-388.5 89t-388.5 -89t-288.5 -240q-163 143 -255 342.5t-92 424.5q0 209 81 398.5t218 326.5t326.5 218t398.5 81zM987 1791v-146q0 -15 11 -25.5
t26 -10.5t26 10.5t11 25.5v146q0 16 -11 26.5t-26 10.5t-26 -10.5t-11 -26.5zM1440 1670q8 13 3.5 28t-17.5 22t-27.5 3.5t-22.5 -16.5l-73 -127q-8 -13 -3.5 -28t17.5 -22q13 -8 27.5 -3.5t22.5 17.5zM731 1530q13 7 17.5 22t-3.5 28l-73 127q-8 13 -22.5 16.5t-27.5 -3.5
t-17.5 -22t3.5 -28l73 -126q8 -13 22.5 -17.5t27.5 3.5zM517 1316q7 14 3.5 28t-16.5 22l-127 73q-13 7 -27.5 3.5t-22.5 -16.5t-3.5 -28t17.5 -22l126 -73q14 -7 28 -3.5t22 16.5zM1544 1366q-13 -8 -16.5 -22t3.5 -28q8 -13 22 -16.5t28 3.5l126 73q13 7 17.5 22t-3.5 28
t-22.5 16.5t-27.5 -3.5zM1416 1364q11 10 11 26t-11 26q-10 10 -25 10t-26 -10l-294 -294q-22 11 -47 11q-46 0 -78 -32t-32 -78q0 -45 32 -77t78 -32t78 32t32 77q0 25 -11 47zM1792 987q15 0 26 10.5t11 25.5q0 16 -11 26.5t-26 10.5h-146q-16 0 -26.5 -10.5t-10.5 -26.5
q0 -15 10.5 -25.5t26.5 -10.5h146zM256 987h146q16 0 26.5 10.5t10.5 25.5q0 16 -10.5 26.5t-26.5 10.5h-146q-15 0 -26 -10.5t-11 -26.5q0 -15 11 -25.5t26 -10.5zM1721 621q8 13 3.5 28t-17.5 22l-126 73q-14 7 -28 3.5t-22 -16.5q-7 -14 -3.5 -28t16.5 -22l127 -73
q13 -7 27.5 -3.5t22.5 16.5zM504 681q13 8 16.5 22t-3.5 28q-8 13 -22 16.5t-28 -3.5l-126 -73q-13 -7 -17.5 -22t3.5 -28t22.5 -16.5t27.5 3.5zM1024 511q193 0 357.5 -82t263.5 -220q-277 -210 -621 -210t-621 210q99 138 263.5 220t357.5 82z" />
<glyph unicode="&#xf002;" horiz-adv-x="2048" d="M1902 1902q60 0 103 -43t43 -104v-1462q0 -61 -43 -104t-103 -43h-1756q-61 0 -103.5 43t-42.5 104v1462q0 61 42.5 104t103.5 43h1756zM951 439v1170h-658v-1170h658zM1755 439v1170h-658v-1170h658zM878 1536v-1024h-512v1024h512zM1682 1536v-1024h-512v1024h512z
M805 1097v366h-366v-366h366zM1609 585v366h-366v-366h366z" />
<glyph unicode="&#xf004;" horiz-adv-x="2048" d="M1024 2047q209 0 398.5 -81t326.5 -218t218 -326.5t81 -398.5q0 -208 -81 -397.5t-218 -327t-327 -218.5t-398 -81t-398 81t-327 218.5t-218 327t-81 397.5q0 209 81 398.5t218 326.5t326.5 218t398.5 81zM1024 146q179 0 341.5 69.5t280 187t187 280t69.5 340.5
q0 179 -69.5 341.5t-187 280t-280 187t-341.5 69.5q-15 0 -26 -10.5t-11 -25.5v-366q0 -15 11 -26t26 -11t26 11t11 26v327q210 -9 386.5 -118.5t279 -291t102.5 -393.5q0 -164 -64 -312.5t-171.5 -256.5t-256.5 -171.5t-313 -63.5t-313 63.5t-256.5 171.5t-171.5 256.5
t-64 312.5t62 310.5t173 257.5l-1 1q13 10 13 27q0 15 -10.5 25.5t-25.5 10.5t-24 -9h-1l-3 -3q-121 -122 -188.5 -282t-67.5 -338t69.5 -340.5t187 -280t280 -187t341.5 -69.5zM617 1431q25 -43 65.5 -109t129 -198t134.5 -178v1q32 -32 78 -32t77 32q32 32 32 77.5
t-32 77.5l-3 3q-48 47 -168 128.5t-216 139.5z" />
<glyph unicode="&#xf012;" horiz-adv-x="2048" d="M512 1646h-439v365q0 16 10.5 26.5t26.5 10.5h365q16 0 26.5 -10.5t10.5 -26.5v-365zM1938 2048q15 0 26 -10.5t11 -26.5v-365h-439v365q0 16 10.5 26.5t26.5 10.5h365zM1097 1902l-36 -256l-403 256l293 -73l36 219l403 -219zM1536 951v622h439v-622
q0 -193 -75.5 -369.5t-202.5 -303.5t-303.5 -202.5t-369.5 -75.5t-369.5 75.5t-303.5 202.5t-202.5 303.5t-75.5 369.5v622h439v-622q0 -212 150 -362t362 -150t362 150t150 362z" />
<glyph unicode="&#xf030;" horiz-adv-x="2048" d="M1390 1536v146q0 31 -21.5 52t-51.5 21h-586q-30 0 -51.5 -21t-21.5 -52v-146h732zM1902 1536q60 0 103 -42.5t43 -103.5v-366h-366v73q0 31 -21 52t-52 21h-146q-31 0 -52 -21t-21 -52v-73h-732v73q0 31 -21 52t-52 21h-146q-31 0 -52 -21t-21 -52v-73h-366v366
q0 61 42.5 103.5t103.5 42.5h439v146q0 61 43 104t103 43h586q60 0 103 -43t43 -104v-146h439zM1609 1097v-219h-146v219h146zM585 1097v-219h-146v219h146zM1682 878v73h293v-585q0 -61 -43 -104t-103 -43h-1610q-60 0 -103 43t-43 104v585h293v-73q0 -31 21 -52t52 -21
h146q31 0 52 21t21 52v73h732v-73q0 -31 21 -52t52 -21h146q31 0 52 21t21 52z" />
<glyph unicode="&#xf038;" horiz-adv-x="2048" d="M1024 951q182 0 310.5 128.5t128.5 310.5h73v-732h-1024v732h73q0 -182 128.5 -310.5t310.5 -128.5zM1024 1024q-152 0 -259 107t-107 259h732q0 -152 -107 -259t-259 -107zM1682 1390q152 0 259 -107t107 -259t-107 -259t-259 -107h-73v732h73zM0 1024q0 152 107 259
t259 107h73v-732h-73q-152 0 -259 107t-107 259z" />
<glyph unicode="&#xf039;" horiz-adv-x="2048" d="M1061 2047q202 -2 324 -27.5t173 -72t51 -119.5q0 -32 -18.5 -50.5t-36.5 -20.5l-18 -2h-293v-45l-438 -264v309h-293q-3 0 -8 0.5t-17.5 4.5t-22 10.5t-17.5 22t-8 35.5q0 73 51 119.5t173 72t324 27.5v-73h74v73zM805 1264v97l438 263v-97zM805 1081v97l438 264v-98z
M805 898v97l438 264v-98zM805 715v98l438 263v-98zM805 532v98l438 263v-98zM853 378l-30 80l420 252v-97zM910 230l-30 79l363 218v-16q0 -5 -2 -13l-35 -91zM1024 -1q-25 0 -34 24l-53 138l226 135l-105 -273q-9 -24 -34 -24z" />
<glyph unicode="&#xf100;" horiz-adv-x="2048" d="M695 1390q-121 0 -207 -86t-86 -207t86 -206.5t207 -85.5t206.5 85.5t85.5 206.5t-85.5 207t-206.5 86zM100 1445q82 147 232 228.5t363 81.5q116 0 261 -29.5t295.5 -82.5t293.5 -132t255 -171.5t180 -208.5t68 -235q0 -120 -33.5 -218t-90 -159t-127.5 -93.5
t-148 -32.5q-72 0 -157 26.5t-151 57.5t-151.5 57.5t-158.5 26.5q-91 0 -169 -27.5t-133.5 -67t-107 -79t-113.5 -67t-131 -27.5q-175 0 -276 186t-101 523q0 265 100 443z" />
<glyph unicode="&#xf119;" horiz-adv-x="2048" d="M1024 2048q159 0 293.5 -78.5t213 -213t78.5 -293.5v-805q0 -61 -42.5 -103.5t-103.5 -42.5h-878q-61 0 -103.5 42.5t-42.5 103.5v805q0 159 78.5 293.5t213 213t293.5 78.5zM878 146v293h292v-293q0 -61 -42.5 -103.5t-103.5 -42.5t-103.5 42.5t-42.5 103.5z" />
<glyph unicode="&#xf120;" horiz-adv-x="2048" d="M1902 1609h-1756v73q0 31 21.5 52t51.5 21h14l137 273q10 20 32 20h1244q22 0 32 -20l137 -273h14q30 0 51.5 -21t21.5 -52v-73zM1134 1719q15 0 25.5 10.5t10.5 25.5q0 16 -10.5 26.5t-25.5 10.5h-220q-15 0 -25.5 -10.5t-10.5 -26.5q0 -15 10.5 -25.5t25.5 -10.5h220z
M324 1243l-28 293h1456l-28 -293h-1400zM393 512l-62 658h1386l-62 -658h-1262zM1573 0h-1098q-14 0 -24 9.5t-12 23.5l-39 406h1248l-39 -406h-1q-1 -14 -11 -23.5t-24 -9.5z" />
<glyph unicode="&#xf122;" horiz-adv-x="2048" d="M1243 2011v-109h-438v109q0 16 10.5 26.5t25.5 10.5h366q15 0 25.5 -10.5t10.5 -26.5zM1243 1608q36 -2 72.5 -7.5t90.5 -17t99.5 -33t87 -51.5t65.5 -77t24 -105v-220h-1316v220q0 58 24 105t65.5 77t87 51.5t99.5 33t90.5 17t72.5 7.5v221h438v-221zM366 512v512h1316
v-512h-1316zM366 146v293h1316v-293q0 -61 -42.5 -103.5t-103.5 -42.5h-1024q-61 0 -103.5 42.5t-42.5 103.5z" />
<glyph unicode="&#xf123;" horiz-adv-x="2048" d="M1170 2011v-109h-292v109q0 16 10.5 26.5t25.5 10.5h220q15 0 25.5 -10.5t10.5 -26.5zM1170 1605q26 -4 50.5 -12.5t57 -30t56 -51t40 -80t16.5 -114.5v-220h-732v220q0 64 16.5 114.5t40 80t56 51t57 30t50.5 12.5v224h292v-224zM658 512v512h732v-512h-732zM658 146
v293h732v-293q0 -61 -43 -103.5t-104 -42.5h-438q-61 0 -104 42.5t-43 103.5z" />
<glyph unicode="&#xf125;" horiz-adv-x="2048" d="M1573 -1h-1098q-13 0 -23 9.5t-12 23.5h-1l-160 1445q-1 0 -1 1l-58 529v1q-1 2 -1 3q0 15 11 25.5t26 10.5h1536q15 0 26 -10.5t11 -25.5q0 -1 -1 -3v-1l-219 -1975h-1q-2 -14 -12 -23.5t-23 -9.5zM1687 1395l64 579h-1454l52 -469q24 -29 54 -58.5t83.5 -72t122 -69
t138.5 -26.5q50 0 93.5 17t67 34.5t66.5 55.5q40 35 65 54t70.5 45t100.5 38t122 12q238 0 355 -140zM970 997q-15 -26 -7 -55.5t34 -44.5l127 -73q26 -16 55.5 -8t44.5 34l73 127q15 26 7 55.5t-34 44.5l-126 73q-26 15 -55.5 7t-44.5 -34zM951 585v146q0 30 -21.5 51.5
t-51.5 21.5h-147q-30 0 -51.5 -21.5t-21.5 -51.5v-146q0 -31 21.5 -52.5t51.5 -21.5h147q30 0 51.5 21.5t21.5 52.5zM1390 511v147q0 30 -21.5 51.5t-51.5 21.5h-147q-30 0 -51.5 -21.5t-21.5 -51.5v-147q0 -30 21.5 -51.5t51.5 -21.5h147q30 0 51.5 21.5t21.5 51.5z" />
<glyph unicode="&#xf128;" horiz-adv-x="2048" d="M914 1829q-30 0 -51.5 21t-21.5 52v73q0 30 21.5 51.5t51.5 21.5h220q30 0 51.5 -21.5t21.5 -51.5v-73q0 -31 -21.5 -52t-51.5 -21h-220zM1482 1480q54 -52 54 -129v-144h-1024v144q0 77 54 129l275 275h366zM512 987v147h1024v-147h-1024zM512 768v146h1024v-146h-1024z
M512 549v146h1024v-146h-1024zM512 146v329h1024v-329q0 -61 -43 -103.5t-103 -42.5h-732q-61 0 -103.5 42.5t-42.5 103.5z" />
<glyph unicode="&#xf162;" horiz-adv-x="2048" d="M1865 2048q15 0 26 -10.5t11 -26.5q0 -15 -11 -25.5t-26 -10.5h-36v-1829q0 -61 -43 -103.5t-104 -42.5h-1316q-61 0 -104 42.5t-43 103.5v147h256q16 0 26.5 10.5t10.5 25.5t-10.5 26t-26.5 11h-256v219h403q15 0 25.5 11t10.5 26t-10.5 25.5t-25.5 10.5h-403v220h256
q16 0 26.5 10.5t10.5 25.5t-10.5 26t-26.5 11h-256v219h403q15 0 25.5 11t10.5 26t-10.5 25.5t-25.5 10.5h-403v220h256q16 0 26.5 10.5t10.5 25.5q0 16 -10.5 26.5t-26.5 10.5h-256v439h-36q-15 0 -26 10.5t-11 25.5q0 16 11 26.5t26 10.5h110v-219h1462v219h110z" />
<glyph unicode="&#xf180;" horiz-adv-x="2048" d="M768 219h-585q-14 0 -24 9.5t-12 23.5h-1l-146 1243h1q0 1 -1 3v1q0 16 10.5 26.5t26.5 10.5h493l56 264l1 -1q2 13 12 21.5t23 8.5h439q15 0 25.5 -11t10.5 -26t-10.5 -26t-25.5 -11h-410l-46 -219h309q15 0 26 -10.5t11 -26.5l-1 -1v-3h1l-147 -1243q-2 -14 -12 -23.5
t-24 -9.5zM113 1165q167 22 331 -39l71 337h-437zM329 366q30 0 35 29h1l148 703q141 -51 313 -32l47 397h-283l-77 -365q-4 2 -12.5 5t-12.5 4q-25 12 -44 18l-151 -715h1q0 -1 -0.5 -3.5t-0.5 -4.5q0 -15 10.5 -25.5t25.5 -10.5zM955 658q5 25 15 46.5t29 46.5t54 39.5
t81 14.5h731q6 0 17 -1t39 -9t51 -22t45 -44t28 -71h-1090zM951 585h1097v-146h-1097v146zM1134 219q-46 0 -81 14.5t-54 39.5t-29 46.5t-15 46.5h1090q-6 -41 -27 -71t-46.5 -44t-49.5 -22t-40 -9l-17 -1h-731z" />
<glyph unicode="&#xf1a0;" horiz-adv-x="2048" d="M1981 635q67 -44 67 -123q0 -61 -42.5 -103.5t-103.5 -42.5h-1756q-61 0 -103.5 42.5t-42.5 103.5q0 79 67 123l922 557q4 34 21.5 62.5t33 41.5t43.5 33q30 21 43.5 33t26.5 39t13 63q0 62 -40.5 104t-105.5 42q-69 0 -107.5 -43.5t-38.5 -102.5q0 -15 -11 -26t-26 -11
t-25.5 11t-10.5 26q0 94 59 156.5t160 62.5q100 0 159.5 -63.5t59.5 -155.5q0 -41 -9.5 -73t-29.5 -56t-34.5 -36t-40.5 -30q-33 -23 -48 -39t-19 -40zM1902 439q30 0 51.5 21.5t21.5 51.5q0 40 -35 62l-916 554l-916 -554q-35 -22 -35 -62q0 -30 21.5 -51.5t51.5 -21.5
h1756z" />
<glyph unicode="&#xf1a2;" horiz-adv-x="2048" d="M1024 0q-15 0 -26 11l-292 292q-11 11 -11 26v6l215 1362l-203 177q-12 12 -12 28v6q1 0 1 2q3 13 9 26.5t28 35t55 37t94.5 27.5t141.5 12t141.5 -12t94.5 -27.5t55 -37t28 -35t9 -26.5q0 -2 1 -2v-6q0 -16 -12 -28l-203 -177l215 -1362v-6q0 -15 -11 -26l-292 -292
q-11 -11 -26 -11z" />
<glyph unicode="&#xf1a3;" horiz-adv-x="2048" d="M110 512q-11 0 -18 1t-20 11t-21 28t-19 55.5t-17 90.5t-10.5 136.5t-4.5 189.5t4.5 189.5t10.5 136.5t17 90.5t19 55.5t21 28t20 11t18 1q8 0 15 -3l606 -273v-472l-606 -273q-7 -3 -15 -3zM1940 512q-8 0 -15 3l-608 279v460l608 279q7 3 15 3q11 0 17.5 -1t19.5 -11
t21 -28t18.5 -56t16.5 -90.5t10.5 -136t4.5 -189.5t-4.5 -189.5t-10.5 -136t-16.5 -90.5t-18.5 -56t-21 -28t-19.5 -11t-17.5 -1zM1170 1243q31 0 52 -21t21 -52v-292q0 -31 -21 -52t-52 -21h-292q-31 0 -52 21t-21 52v292q0 31 21 52t52 21h292z" />
<glyph unicode="&#xf1a5;" horiz-adv-x="2048" d="M1536 1609v-804h-1024v804h1024zM1755 1486q29 -14 59 -33.5t75 -60.5t78 -89t57 -122t24 -157q0 -78 -21 -144t-48.5 -103.5t-61 -66t-50.5 -37.5t-25 -12q-6 -3 -13 -3q-24 0 -34 23q-6 14 0 28t20 20q6 2 19.5 9.5t39 30.5t47 53.5t38 84.5t16.5 117t-16 120t-39 96.5
t-54.5 74t-57.5 54t-53 35.5v-892q0 -30 -21 -51.5t-52 -21.5h-1316q-31 0 -52 21.5t-21 51.5v892q-27 -16 -53 -35.5t-57.5 -54t-54.5 -74t-39 -96.5t-16 -120t16.5 -117t38 -84.5t47 -53.5t39 -30.5t19.5 -9.5q14 -6 20 -20t0 -28q-10 -23 -34 -23q-7 0 -13 3q-8 3 -25 12
t-50.5 37.5t-61 66t-48.5 103.5t-21 144q0 83 24 157t57 122t78 89t75 60.5t59 33.5v50q0 30 21 51.5t52 21.5h73v-804q0 -31 21.5 -52.5t51.5 -21.5h1024q30 0 51.5 21.5t21.5 52.5v804h73q31 0 52 -21.5t21 -51.5v-50z" />
<glyph unicode="&#xf1b2;" horiz-adv-x="2048" d="M144 1610q31 -100 91 -228t132 -216q-148 -166 -199 -387q-168 236 -168 492q0 216 79 348l42 64zM1971 1619q3 -4 10 -16t19.5 -43.5t23.5 -69t19 -96.5t8 -123q0 -254 -169 -492q-49 218 -199 387q72 88 132 216t91 228l23 73zM914 1381q65 9 110 9t110 -9v-723h-220
v723zM1207 1368q251 -59 422.5 -254.5t195.5 -455.5h-618v710zM223 658q24 260 195.5 455.5t422.5 254.5v-710h-618zM1061 1170v73h-74v-73h74zM1061 1024v73h-74v-73h74zM1061 878v73h-74v-73h74zM1061 731v74h-74v-74h74zM1207 366v219h622v-183q0 -15 -11 -25.5
t-26 -10.5h-585zM219 402v183h622v-219h-585q-15 0 -26 10.5t-11 25.5zM914 366v219h220v-219h-220z" />
<glyph unicode="&#xf1b4;" horiz-adv-x="2048" d="M1097 2011v-182h-804v219h768q15 0 25.5 -10.5t10.5 -26.5zM1097 1755v-73h-804v73h804zM1097 1009l505 -292l-404 -685l-638 348q25 55 25 114q0 113 -80.5 193.5t-193.5 80.5q-3 0 -9 -0.5t-9 -0.5v842h804v-600zM496 415l-180 100l-1 1h-2l-3 2q-17 12 -17 31v144
q12 2 18 2q83 0 142 -59t59 -142q0 -41 -16 -79zM1656 665q99 -112 99 -263q0 -166 -117.5 -284t-284.5 -118q-38 0 -83 10z" />
<glyph unicode="&#xf1c0;" horiz-adv-x="2048" d="M1755 1070v-814q0 -69 -97.5 -128t-266 -93.5t-367.5 -34.5t-367.5 34.5t-266 93.5t-97.5 128v814q0 89 146 159v782q0 16 10.5 26.5t25.5 10.5h147q15 0 25.5 -10.5t10.5 -26.5v-18q0 -159 107 -271.5t259 -112.5t259 112.5t107 271.5v18q0 16 10.5 26.5t25.5 10.5h147
q15 0 25.5 -10.5t10.5 -26.5v-782q146 -70 146 -159zM1024 1719q-56 0 -106 12.5t-80.5 29.5t-54.5 37t-33.5 31.5t-11.5 15.5q-9 12 -6 27t16 23q12 8 27 5.5t23 -15.5q4 -6 9.5 -12t25.5 -22t43.5 -27.5t63 -21.5t84.5 -10q44 0 82.5 9.5t62 21t44 27t26.5 22.5t11 13
q8 13 22.5 16t27.5 -6q13 -8 16 -23t-6 -27q-2 -4 -11.5 -15.5t-33.5 -31.5t-54.5 -37t-80.5 -29.5t-106 -12.5zM1318 659q0 135 -80 218.5t-211 83.5q-54 0 -103 -21.5t-80 -59.5l-3 2l56 290h379v72h-433l-84 -453h66q33 49 83.5 76.5t109.5 27.5q96 0 159 -65t63 -162
q0 -100 -59.5 -169.5t-157.5 -69.5q-88 0 -149 56.5t-64 145.5h-77q0 -121 80.5 -194t203.5 -73q125 0 213 84t88 211z" />
<glyph unicode="&#xf1fa;" horiz-adv-x="2048" d="M439 0q-182 0 -310.5 128.5t-128.5 310.5q0 167 113 293h-1l827 827q10 8 22 8q15 0 26 -10.5t11 -26.5q0 -14 -10 -24l-635 -637q42 9 86 9q181 0 310 -129t129 -310q0 -44 -9 -86l637 635q10 10 24 10q15 0 26 -11t11 -26q0 -14 -10 -24l-824 -824q-126 -113 -294 -113
zM936 1557q1 0 1 1q2 2 4 3l-2 -2l-2 -1zM1662 1048q-15 -4 -28 4t-17 22q-6 21 11 36l258 260q89 104 89 239q0 151 -107.5 258.5t-258.5 107.5q-136 0 -239 -90l-1 1l-234 -233l389 -390l230 235h-1q39 50 39 111q0 48 -25 91q-21 -18 -48 -18q-31 0 -52 21.5t-21 52.5
q0 30 21 51.5t52 21.5q30 0 56 -24q90 -80 90 -196q0 -83 -50 -153l-265 -270q-9 -11 -25 -11q-13 0 -25 10l-445 445q-8 10 -8 23q0 17 12 26l237 238h1q128 131 312 131q182 0 310.5 -128.5t128.5 -310.5q0 -90 -34.5 -170t-95.5 -141l-236 -236l-1 1q-6 -10 -19 -15z
M706 190q99 107 99 249q0 151 -107.5 258.5t-258.5 107.5q-144 0 -249 -99l-19 -18q-98 -108 -98 -249q0 -151 107.5 -258.5t258.5 -107.5q142 0 248 98z" />
<glyph unicode="&#xf201;" horiz-adv-x="2048" d="M1317 765q68 -61 107 -146t39 -180q0 -182 -128.5 -310.5t-310.5 -128.5t-310.5 128.5t-128.5 310.5q0 95 39 180t107 146v186h183q15 0 26 10.5t11 25.5q0 16 -11 26.5t-26 10.5h-183v146h256q16 0 26.5 11t10.5 26t-10.5 25.5t-26.5 10.5h-256v147h183q15 0 26 10.5
t11 25.5t-11 26t-26 11h-183v146h256q16 0 26.5 11t10.5 26t-10.5 25.5t-26.5 10.5h-256v73q0 121 85.5 207t207.5 86t207.5 -86t85.5 -207v-990zM1024 146q122 0 207.5 86t85.5 207q0 80 -40 147t-107 106v734q0 15 -10.5 26t-25.5 11q-16 0 -26.5 -11t-10.5 -26v-780
q65 -24 105.5 -80.5t40.5 -126.5q0 -91 -64 -155.5t-155 -64.5t-155 64.5t-64 155.5q0 70 40.5 126.5t105.5 80.5v159q0 15 -11 25.5t-26 10.5t-25.5 -10.5t-10.5 -25.5v-113q-67 -38 -107 -105.5t-40 -147.5q0 -121 85.5 -207t207.5 -86z" />
<glyph unicode="&#xf282;" horiz-adv-x="2048" d="M1719 1829q89 0 165 -108t120 -293.5t44 -403.5t-44 -403.5t-120 -293.5t-165 -108h-1390q-89 0 -165 108t-120 293.5t-44 403.5t44 403.5t120 293.5t165 108h1390zM1353 1463q-15 0 -25.5 -11t-10.5 -26v-439q0 -15 10.5 -25.5t25.5 -10.5t26 10.5t11 25.5v439
q0 15 -11 26t-26 11zM695 1463q-15 0 -26 -11t-11 -26v-439q0 -15 11 -25.5t26 -10.5t25.5 10.5t10.5 25.5v439q0 15 -10.5 26t-25.5 11zM1024 731q-37 0 -67.5 -10t-49 -26t-32 -35.5t-20 -39t-10 -35.5t-3.5 -26l-1 -10q0 -16 11 -26.5t26 -10.5h292q15 0 26 10.5t11 26.5
q0 4 -0.5 10.5t-4 25.5t-10 36t-20 38t-32 36t-49 25.5t-67.5 10.5z" />
<glyph unicode="&#xf2a0;" horiz-adv-x="2048" d="M1681 1047q-237 -152 -567 -276q-312 -118 -599 -165q-149 183 -149 418q0 179 88 330.5t239.5 239.5t330.5 88q175 0 324 -84.5t238 -230.5t95 -320zM2040 1387q53 -138 -227 -343q-68 -48 -134 -88q3 35 3 68q0 4 -0.5 11.5t-0.5 11.5q51 32 89 60q120 87 168 153.5
t34 101.5q-11 30 -68 47t-146 17q-46 0 -119 -7q-24 36 -51 69q93 11 166 11q242 0 286 -112zM515 606q26 -31 63 -65q-160 -29 -284 -29q-242 0 -286 113q-26 67 32 154.5t195 187.5q4 3 25 17.5t33 22.5q1 -40 8 -86q-2 -1 -10.5 -7t-12.5 -10q-120 -87 -168 -153.5
t-34 -101.5q11 -30 68 -47t146 -17q93 0 225 21zM578 541q270 49 563 160q297 111 538 255q-13 -122 -69.5 -231.5t-142.5 -188t-201.5 -124.5t-241.5 -46q-127 0 -241.5 46t-204.5 129z" />
<glyph unicode="&#xf301;" horiz-adv-x="2048" d="M1609 1133v220q0 30 -21.5 51.5t-51.5 21.5h-366q-30 0 -51.5 -21.5t-21.5 -51.5v-220q0 -30 21.5 -51.5t51.5 -21.5h366q30 0 51.5 21.5t21.5 51.5zM951 1133v220q0 30 -21.5 51.5t-51.5 21.5h-585q-31 0 -52.5 -21.5t-21.5 -51.5v-220q0 -30 21.5 -51.5t52.5 -21.5h585
q30 0 51.5 21.5t21.5 51.5zM293 1133v220h585v-220h-585zM1170 1133v220h366v-220h-366zM2011 767q16 0 26.5 -10.5t10.5 -25.5v-146q0 -16 -10.5 -26.5t-26.5 -10.5h-880q3 36 3 37q0 106 -75 181t-181 75t-181 -75t-75 -181q0 -19 3 -37h-406q-91 0 -155 64t-64 155v659
q0 91 64 155t155 64h1390q91 0 155.5 -64t64.5 -155v-659q0 -82 -57 -146h203v110q0 15 10.5 25.5t25.5 10.5zM878 767q76 0 129.5 -53t53.5 -129t-53.5 -129.5t-129.5 -53.5t-129.5 53.5t-53.5 129.5t53.5 129t129.5 53z" />
<glyph unicode="&#xf304;" horiz-adv-x="2048" d="M1975 1390q0 -96 -182 -172t-470 -106l213 -928q0 -50 -68.5 -92t-186.5 -67t-257 -25t-257 25t-186.5 67t-68.5 92l213 928q-288 30 -470 106t-182 172q0 86 151 157.5t398 107.5q4 164 121 278.5t281 114.5t281 -114.5t121 -278.5q247 -36 398 -107.5t151 -157.5z
M1437 291l-188 815q-108 -9 -225 -9t-225 9l-188 -815q155 75 413 75t413 -75z" />
<glyph unicode="&#xf305;" horiz-adv-x="2048" d="M183 878q-15 0 -26 10.5t-11 25.5q0 12 9 23l-1 1l1 1q80 111 116 269q21 90 21 183q0 77 -14.5 152t-33.5 126t-41 93.5t-34 60t-15 20.5v1q-8 10 -8 21q0 15 11 26t26 11h230q22 -32 44.5 -73.5t54.5 -112t52.5 -156.5t20.5 -169t-21 -171t-53.5 -158.5t-55 -112
t-43.5 -71.5h-229zM498 878q61 99 110.5 233.5t49.5 279.5q0 249 -158 511h206q21 -32 44 -73.5t55 -112t52 -156.5t20 -169t-21 -171t-53.5 -158.5t-55 -112t-43.5 -71.5h-206zM1646 878h-270q61 99 110 233t49 280q0 247 -157 511h268q14 0 27 -13h1q10 -13 19 -26
t36.5 -64.5t46.5 -103.5t35.5 -135t16.5 -167v-1l1 -2l-1 -2v-2q-1 -94 -19.5 -182t-46.5 -151t-47 -96.5t-36 -56.5q-8 -22 -33 -22zM1084 878q159 262 159 513q0 249 -158 511h206q21 -32 44 -73.5t55 -112t52 -156.5t20 -169t-21 -171t-53.5 -158.5t-55 -112t-43.5 -71.5
h-205zM1170 731q61 0 104 -42.5t43 -103.5t-43 -103.5t-104 -42.5t-103.5 42.5t-42.5 103.5t42.5 103.5t103.5 42.5zM293 439q-61 0 -104 42.5t-43 103.5t43 103.5t104 42.5q60 0 103 -42.5t43 -103.5t-43 -103.5t-103 -42.5zM512 585q0 61 42.5 103.5t103.5 42.5t104 -42.5
t43 -103.5t-43 -103.5t-104 -42.5t-103.5 42.5t-42.5 103.5zM1536 731q61 0 103.5 -42.5t42.5 -103.5t-42.5 -103.5t-103.5 -42.5t-103.5 42.5t-42.5 103.5t42.5 103.5t103.5 42.5zM1902 585q6 -1 16 -4t35 -11t44 -16.5t35 -20t16 -21.5q0 -16 -36.5 -34.5t-73.5 -28.5
l-36 -10q-42 0 -63 36h-10v-73h-2q-14 -139 -118.5 -234t-245.5 -95h-1097q-142 0 -246 95t-118 234h-2v110q0 15 10.5 26t26.5 11q15 0 25.5 -11t10.5 -26v-110h3q0 -6 8 -36h794v512h-87q61 99 110 233t49 280q0 249 -158 511h86v36q0 15 10.5 26t25.5 11t26 -11t11 -26
v-36h47q22 -32 44.5 -73.5t54.5 -112t52.5 -156.5t20.5 -169t-21 -171t-53.5 -158.5t-55 -112t-43.5 -71.5h-46v-512h794q6 24 8 36h2v110q0 15 11 26t26 11h47q21 36 63 36z" />
<glyph unicode="&#xf317;" horiz-adv-x="2048" d="M1463 1573v-37h-878v37q9 109 68.5 200t152.5 144q6 55 47.5 93t97.5 38h146q56 0 97.5 -38t47.5 -93q93 -53 152.5 -144t68.5 -200zM1463 1463v-146h73v-586h-73v-658h36q16 0 26.5 -10.5t10.5 -25.5q0 -16 -10.5 -26.5t-26.5 -10.5h-950q-16 0 -26.5 10.5t-10.5 26.5
q0 15 10.5 25.5t26.5 10.5h36v658h-73v586h73v146h878zM1024 731q122 0 207.5 85.5t85.5 207.5t-85.5 207.5t-207.5 85.5t-207.5 -85.5t-85.5 -207.5t85.5 -207.5t207.5 -85.5zM1792 1061q15 0 26 -11t11 -26t-11 -26t-26 -11h-37v-182q0 -31 -21 -52.5t-52 -21.5h-73v586
h73q31 0 52 -21.5t21 -52.5v-182h37zM293 1243q0 31 21 52.5t52 21.5h73v-586h-73q-31 0 -52 21.5t-21 52.5v182h-37q-15 0 -26 11t-11 26t11 26t26 11h37v182zM1024 1243q91 0 155 -64t64 -155t-64 -155t-155 -64t-155 64t-64 155t64 155t155 64zM1024 914q46 0 78 32
t32 78t-32 78t-78 32t-78 -32t-32 -78t32 -78t78 -32z" />
<glyph unicode="&#xf402;" horiz-adv-x="2048" d="M2048 1317q0 -170 -87 -348t-234 -314t-313 -188l-947 947q52 166 188 313t314 234t348 87q199 0 367 -98t266 -266t98 -367zM439 1243q0 41 8 87l883 -883q-46 -8 -87 -8q-146 0 -292.5 68.5t-258.5 179t-182.5 258.5t-70.5 298zM1829 439q91 0 155 -64.5t64 -155.5
t-64 -155t-155 -64t-155.5 64t-64.5 155t64.5 155.5t155.5 64.5zM532 745q91 -122 213 -213l-462 -520v1q-11 -13 -27 -13q-15 0 -26 11l-219 219q-11 11 -11 26q0 16 13 27h-1z" />
<glyph unicode="&#xf405;" horiz-adv-x="2048" d="M438 1499q0 117 42 212t110 156.5t160 103.5t187.5 59.5t195.5 17.5q80 0 166 -19.5t175 -64.5t158.5 -110.5t114 -167t44.5 -223.5q0 -193 -9 -376.5t-18 -287.5l-9 -104q0 -30 -14.5 -70t-50 -76.5t-82.5 -36.5h-841q-31 0 -60 8.5t-55.5 28t-46.5 37t-45 50.5
t-39 53.5t-40 58.5q-43 63 -111 127q-150 143 -150 258q0 34 14 65t30 49.5t40 36.5t31 22t16 8q4 1 13 6.5t25 22.5t27 41q39 -33 86.5 -64.5t119 -68t163 -58.5t186.5 -22q97 0 186 15t152.5 37t121 53.5t91.5 56.5t64.5 55t38.5 40t15 19q8 13 5 27.5t-16 23.5
q-12 8 -27 5t-23 -16l-1 -1q-65 -80 -183 -143q-181 -98 -410 -98q-87 0 -172.5 20t-144.5 47t-113 61t-79 55t-40 37q2 22 2 34zM1609 439q31 0 52 -21.5t21 -51.5v-293q0 -30 -21 -51.5t-52 -21.5h-878q-30 0 -51.5 21.5t-21.5 51.5v110h403q15 0 25.5 10.5t10.5 25.5
q0 16 -10.5 26.5t-25.5 10.5h-403v110q0 30 21.5 51.5t51.5 21.5h878z" />
<glyph unicode="&#xf406;" horiz-adv-x="2048" d="M1024 2048q209 0 398.5 -81t326.5 -218t218 -326.5t81 -398.5t-81 -398.5t-218 -326.5t-326.5 -218t-398.5 -81t-398.5 81t-326.5 218t-218 326.5t-81 398.5t81 398.5t218 326.5t326.5 218t398.5 81zM841 1499q46 0 78 32.5t32 77.5q0 46 -32 78t-78 32q-45 0 -77.5 -32
t-32.5 -78q0 -45 32.5 -77.5t77.5 -32.5zM549 1207q45 0 77 32t32 78q0 45 -32 77t-77 32q-46 0 -78 -32t-32 -77q0 -46 32 -78t78 -32zM1061 987q45 0 77 32.5t32 77.5q0 46 -32 78t-77 32q-46 0 -78 -32t-32 -78q0 -45 32 -77.5t78 -32.5z" />
<glyph unicode="&#xf40b;" horiz-adv-x="2048" d="M1719 987q-46 0 -78 32.5t-32 77.5q0 35 20.5 63.5t52.5 39.5v482q0 15 11 26t26 11q7 0 19 -6l293 -183h-1q18 -11 18 -31t-18 -30l1 -1l-276 -172v-96q33 -11 53.5 -39.5t20.5 -63.5q0 -45 -32.5 -77.5t-77.5 -32.5zM541 1243q15 0 25.5 -10.5t10.5 -25.5
q1 -15 -10 -25.5t-26 -11.5q-31 0 -73 -5q-13 -1 -23.5 8.5t-12.5 24.5t7 26.5t24 13.5q42 5 77 5h1zM770 1190q13 -7 16 -21.5t-5 -26.5q-11 -17 -31 -17q-11 0 -20 6q-29 17 -57 25q-14 5 -21 18t-2 26q5 14 18 21t28 2q34 -11 74 -33zM312 1196q13 6 27.5 1t21.5 -19
t2 -28t-19 -20q-33 -17 -56 -34q-11 -8 -22 -8q-18 0 -29 14q-10 12 -8 27t14 25q31 24 69 42zM909 1005q5 -14 -1.5 -27t-21.5 -18q-3 -1 -11 -1q-27 0 -35 23q-10 29 -26 59q-7 14 -3 27.5t18 20.5t28 2.5t21 -17.5q18 -32 31 -69zM130 913q-14 5 -20.5 18.5t-1.5 27.5
q11 36 32 73q7 13 21.5 17.5t27.5 -3.5q13 -7 17.5 -22t-2.5 -28q-16 -26 -27 -61q-10 -24 -35 -24q-8 0 -12 2zM1716 914q15 1 26 -8.5t13 -24.5q1 -11 1 -30q0 -9 -2 -43q-1 -14 -11.5 -24t-24.5 -10h-3q-15 1 -25 12.5t-9 26.5q1 13 1 62q-1 15 9 26.5t25 12.5zM961 796
q4 -14 -4.5 -26t-23.5 -15q-2 -1 -7 -1q-29 0 -36 28q-6 28 -15 69q-3 14 5.5 26t23.5 15q14 3 27 -5t16 -22zM109 695q-15 0 -25.5 10.5t-10.5 25.5q0 39 3 77q2 15 13.5 24.5t26.5 8.5q15 -2 24.5 -13.5t8.5 -26.5q-3 -33 -3 -70q0 -15 -10.5 -25.5t-26.5 -10.5zM1702 724
q15 -4 22 -17t2 -27q-12 -36 -30 -70q-10 -19 -32 -19q-8 0 -17 3q-13 7 -18 20.5t2 26.5q11 22 26 60q4 14 17.5 21t27.5 2zM998 666q13 -33 28 -59q8 -12 3.5 -26t-17.5 -21q-8 -5 -18 -5q-21 0 -32 18q-21 36 -32 69q-5 14 1 27t20 18t28 -1.5t19 -19.5zM110 622
q45 0 77 -32t32 -78t-32 -78t-77 -32q-46 0 -78 32t-32 78t32 78t78 32zM1551 543q12 10 27 8.5t25 -12.5q9 -11 7.5 -25.5t-12.5 -24.5q-31 -23 -68 -42q-7 -4 -16 -4q-24 0 -33 19q-7 13 -2 26.5t18 20.5q35 18 54 34zM1170 493q14 -5 20.5 -18.5t1.5 -26.5
q-8 -24 -34 -24q-4 0 -12 2q-41 14 -73 34q-13 7 -16.5 21.5t4.5 26.5t23 15t28 -4q26 -17 58 -26zM1370 475q15 1 26.5 -8t13.5 -23q1 -15 -8 -26t-24 -13q-30 -3 -78 -3q-15 1 -25.5 11.5t-10.5 24.5q1 15 12.5 25t25.5 9q42 0 68 3z" />
<glyph unicode="&#xf40c;" horiz-adv-x="2048" d="M1024 2048q164 0 313 -63.5t256.5 -171.5t171.5 -257t64 -313v-438q0 -164 -64 -313t-171.5 -257t-256.5 -171.5t-313 -63.5t-313 63.5t-256.5 171.5t-171.5 257t-64 313v438q0 164 64 313t171.5 257t256.5 171.5t313 63.5zM841 1536q31 0 52 21.5t21 51.5q0 31 -21 52
t-52 21q-30 0 -51.5 -21t-21.5 -52q0 -30 21.5 -51.5t51.5 -21.5zM1207 1682q-31 0 -52 -21t-21 -52q0 -30 21 -51.5t52 -21.5q30 0 51.5 21.5t21.5 51.5q0 31 -21.5 52t-51.5 21zM731 1024q76 0 129.5 42.5t53.5 103.5t-53.5 104t-129.5 43t-129 -43t-53 -104t53 -103.5
t129 -42.5zM1317 1024q76 0 129 42.5t53 103.5t-53 104t-129 43t-129.5 -43t-53.5 -104t53.5 -103.5t129.5 -42.5zM841 585q31 0 52 21.5t21 51.5q0 31 -21 52t-52 21q-30 0 -51.5 -21t-21.5 -52q0 -30 21.5 -51.5t51.5 -21.5zM1207 585q30 0 51.5 21.5t21.5 51.5
q0 31 -21.5 52t-51.5 21q-31 0 -52 -21t-21 -52q0 -30 21 -51.5t52 -21.5zM841 293q31 0 52 21t21 52q0 30 -21 51.5t-52 21.5q-30 0 -51.5 -21.5t-21.5 -51.5q0 -31 21.5 -52t51.5 -21zM1207 293q30 0 51.5 21t21.5 52q0 30 -21.5 51.5t-51.5 21.5q-31 0 -52 -21.5
t-21 -51.5q0 -31 21 -52t52 -21z" />
<glyph unicode="&#xf40d;" horiz-adv-x="2048" d="M1829 867l-675 688q-54 54 -130 54q-75 0 -129 -54l-683 -683l-202 199q-11 11 -11 26t18 55.5t51.5 101t86 130.5t116.5 142.5t147.5 140t174.5 120t203 84t227 31.5t227 -31.5t203 -84t174.5 -120t147.5 -140t116.5 -142.5t86 -130.5t51.5 -101t18 -55.5q0 -14 -12 -26
h1zM1681 870q0 36 -23 67l119 -122l-616 -607q-24 -27 -63 -44.5t-74 -17.5q-34 0 -72.5 17t-67.5 45l-620 612l124 124q-27 -30 -27 -71q0 -45 32 -77.5t78 -32.5q45 0 77.5 32.5t32.5 77.5q0 46 -32.5 78t-77.5 32q-41 0 -71 -27l541 541q-27 -32 -27 -71q0 -45 32 -77
t78 -32t78 32t32 77q0 43 -29 74l535 -546q-28 25 -69 25q-45 0 -77 -32t-32 -77q0 -46 32 -78t77 -32q46 0 78 32t32 78zM1024 219q46 0 78 32.5t32 77.5q0 46 -32 78t-78 32t-78 -32t-32 -78q0 -45 32 -77.5t78 -32.5z" />
<glyph unicode="&#xf40e;" horiz-adv-x="2048" d="M1207 1426q30 0 51.5 21.5t21.5 51.5q0 31 -21.5 52.5t-51.5 21.5q-31 0 -52 -21.5t-21 -52.5q0 -30 21 -51.5t52 -21.5zM641 0q-142 0 -217 101q-84 115 -67 255q-141 -18 -256 69q-101 76 -101 222q0 56 13 107.5t29 82.5t38 59t30.5 35.5t15.5 13.5q13 8 28 5.5
t23 -15.5t5 -28t-15 -23q-4 -3 -11.5 -10.5t-23 -28.5t-28 -46.5t-22 -66t-9.5 -85.5q0 -109 72 -164q26 -19 47.5 -31t51 -21t64 -7.5t76.5 12.5l280 279q-64 80 -75.5 197t25.5 246.5t122 269t208 262.5q124 124 278.5 201t309.5 106l5 22q3 12 13 20.5t23 8.5
q15 0 25.5 -10.5t10.5 -26.5l-100 -468q500 66 502 66q16 0 26.5 -10.5t10.5 -25.5q0 -14 -9 -24t-23 -12v-1l-19 -2q-29 -157 -105.5 -311t-201.5 -279q-170 -170 -363.5 -264t-360.5 -94q-152 0 -251 78l-280 -281q-17 -52 -11 -99t18.5 -75.5t38.5 -63.5q54 -72 160 -72
q44 0 84 9.5t64.5 22t45.5 28t28 23t10 11.5q8 12 22.5 15t27.5 -5q12 -8 14.5 -23t-5.5 -28q-3 -4 -12.5 -15t-35 -31t-57 -37t-81.5 -30t-105 -13z" />
<glyph unicode="&#xf40f;" horiz-adv-x="2048" d="M778 882l345 -344q11 -11 11 -26t-11 -26t-26 -11q-13 0 -26 11l-365 366q-11 9 -11 26q0 10 7 20h-1l712 1077h-206q-15 0 -26 10.5t-11 25.5q0 16 11 26.5t26 10.5h292q16 0 26.5 -10.5t10.5 -26.5v-292q0 -15 -10.5 -26t-26.5 -11q-15 0 -25.5 11t-10.5 26v199z
M293 1719q0 -13 -11 -26l-84 -84l84 -84q11 -11 11 -26t-11 -25.5t-26 -10.5t-26 11l-84 83l-84 -83q-9 -11 -25 -11t-26.5 10.5t-10.5 25.5q0 17 11 26l84 84l-84 84q-11 11 -11 26t10.5 25.5t26.5 10.5q15 0 25 -10l84 -84l84 84q12 10 26 10q15 0 26 -10.5t11 -25.5z
M815 1474l-84 83l-83 -83q-11 -11 -26 -11t-26 10.5t-11 25.5q0 17 11 26l84 84l-84 84q-11 11 -11 26t11 25.5t26 10.5q14 0 26 -10l83 -84l84 84q12 10 26 10q15 0 26 -10.5t11 -25.5t-11 -26l-84 -84l84 -84q11 -9 11 -26q0 -15 -11 -25.5t-26 -10.5t-26 11zM1953 1609
l84 -84q11 -9 11 -26q0 -15 -10.5 -25.5t-26.5 -10.5t-25 11l-84 83l-84 -83q-11 -11 -26 -11t-26 10.5t-11 25.5t11 26l84 84l-84 84q-11 13 -11 26q0 15 11 25.5t26 10.5q14 0 26 -10l84 -84l84 84q10 10 25 10q16 0 26.5 -10.5t10.5 -25.5t-11 -26zM1379 1160l84 -84
l84 84q10 10 26 10q15 0 25.5 -10.5t10.5 -25.5q0 -17 -11 -26l-83 -84l83 -84q11 -9 11 -26q0 -15 -10.5 -25.5t-25.5 -10.5q-16 0 -26 10l-84 84l-84 -84q-12 -10 -26 -10q-15 0 -25.5 10.5t-10.5 25.5q0 16 10 26l84 84l-84 84q-10 10 -10 26q0 15 10.5 25.5t25.5 10.5
q14 0 26 -10zM1536 585q121 0 207 -85.5t86 -206.5t-85.5 -207t-207.5 -86t-207.5 86t-85.5 207t86 206.5t207 85.5z" />
<glyph unicode="&#xf410;" horiz-adv-x="2048" d="M987 1682q-76 0 -129 53.5t-53 129.5t53 129t129 53t129.5 -53t53.5 -129t-53.5 -129.5t-129.5 -53.5zM731 1576l-201 -627l-209 67q-58 18 -85.5 72t-9.5 112l112 348q19 58 72.5 85.5t111.5 9.5zM1499 -1q-15 0 -25.5 11t-10.5 26q0 3 2 9h-1l366 1390q8 27 35 27
q15 0 26 -10.5t11 -25.5q0 -3 -2 -9v-1l-365 -1389h-1q-7 -28 -35 -28zM1317 182q0 -76 -53.5 -129.5t-129.5 -53.5q-58 0 -103.5 32t-66.5 84h-1l-122 329l-123 -333l-1 1q-21 -50 -66.5 -81.5t-101.5 -31.5q-76 0 -129.5 53.5t-53.5 129.5q0 24 6 45l2 8q20 61 370 1156h1
q24 64 80 104t126 40q91 0 155 -64t64 -155q0 -36 -13 -72q0 -7 -2 -12t-11.5 -26.5t-20.5 -50.5l334 -99v-1q34 -10 56.5 -39t22.5 -66q0 -45 -32 -77t-78 -32q-10 0 -30 4l-322 93l234 -702q9 -31 9 -54z" />
<glyph unicode="&#xf416;" horiz-adv-x="2048" d="M2048 1534q0 -40 -20.5 -74t-54.5 -53l-565 566q19 34 53 54.5t74 20.5q61 0 104 -43l157 -157l43 43q11 11 26 11t26 -11t11 -26t-11 -26l-44 -43l158 -158q43 -41 43 -104zM1231 2046l815 -815q2 -14 2 -24q0 -76 -53.5 -129.5t-129.5 -53.5t-130 54l-657 657
q-54 52 -54 130q0 76 53.5 129.5t129.5 53.5q8 0 24 -2zM595 793l660 660l198 -198l-660 -660zM313 970l657 -657q54 -54 54 -130t-53.5 -129.5t-129.5 -53.5q-14 0 -29 3l-809 809q-3 15 -3 29q0 76 53.5 129.5t129.5 53.5q78 0 130 -54zM0 513q0 83 73 126l566 -567
q-19 -33 -52.5 -52.5t-72.5 -19.5q-63 0 -104 43l-158 157l-43 -43q-11 -11 -26 -11t-26 11t-11 26t11 26l43 43l-157 157q-43 43 -43 104z" />
<glyph unicode="&#xf4b2;" horiz-adv-x="2048" d="M1964 1760q84 -84 84 -203t-84 -203l-298 -298l-610 609l298 298q85 85 204 85t203 -85zM433 1042l572 573l610 -610l-572 -573zM1097 1316q0 30 -21.5 51.5t-51.5 21.5t-51.5 -21.5t-21.5 -51.5t21.5 -51.5t51.5 -21.5t51.5 21.5t21.5 51.5zM878 1243q-31 0 -52 -21.5
t-21 -51.5q0 -31 21 -52t52 -21q30 0 51.5 21t21.5 52q0 30 -21.5 51.5t-51.5 21.5zM1170 1243q-30 0 -51.5 -21.5t-21.5 -51.5q0 -31 21.5 -52t51.5 -21q31 0 52 21t21 52q0 30 -21 51.5t-52 21.5zM1024 1097q-30 0 -51.5 -21.5t-21.5 -52.5q0 -30 21.5 -51.5t51.5 -21.5
t51.5 21.5t21.5 51.5q0 31 -21.5 52.5t-51.5 21.5zM1317 1097q-31 0 -52.5 -21.5t-21.5 -52.5q0 -30 21.5 -51.5t52.5 -21.5q30 0 51.5 21.5t21.5 51.5q0 31 -21.5 52.5t-51.5 21.5zM731 950q31 0 52.5 21.5t21.5 51.5q0 31 -21.5 52.5t-52.5 21.5q-30 0 -51.5 -21.5
t-21.5 -52.5q0 -30 21.5 -51.5t51.5 -21.5zM382 991l610 -610l-298 -298q-85 -84 -204 -84t-203 84l-203 204q-84 84 -84 203t84 203zM1170 804q31 0 52 21.5t21 51.5q0 31 -21 52t-52 21q-30 0 -51.5 -21t-21.5 -52q0 -30 21.5 -51.5t51.5 -21.5zM878 804q30 0 51.5 21.5
t21.5 51.5q0 31 -21.5 52t-51.5 21q-31 0 -52 -21t-21 -52q0 -30 21 -51.5t52 -21.5zM1024 658q30 0 51.5 21t21.5 52q0 30 -21.5 51.5t-51.5 21.5t-51.5 -21.5t-21.5 -51.5q0 -31 21.5 -52t51.5 -21z" />
<glyph unicode="&#xf4b8;" horiz-adv-x="2048" d="M1059 176q-2 -13 -12 -21.5t-23 -8.5q-14 0 -24 10t-12 24l-131 1497l-310 -993h-1q-7 -26 -34 -26h-219l-293 37l293 36h192l358 1145q9 26 35 26q14 0 24 -10t12 -24l125 -1433l169 816q3 12 13 20.5t22 8.5q25 0 34 -23l211 -526h273q12 48 51.5 79t89.5 31
q61 0 103.5 -42.5t42.5 -103.5t-42.5 -103.5t-103.5 -42.5q-51 0 -90 30.5t-51 78.5h-298q-25 0 -34 23l-174 436l-195 -942z" />
<glyph unicode="&#xf4c0;" horiz-adv-x="2048" d="M1463 1221q33 -33 74 -76.5t114.5 -126t137 -169.5t125.5 -184t98 -195.5t36 -177.5q0 -122 -86 -207.5t-207 -85.5h-1462q-121 0 -207 85.5t-86 207.5q0 79 36 177.5t98 195.5t125.5 184t137 169.5t114.5 126t74 76.5v607h-110q-15 0 -25.5 10.5t-10.5 26.5v146
q0 15 10.5 25.5t25.5 10.5h1098q15 0 25.5 -10.5t10.5 -25.5v-146q0 -16 -10.5 -26.5t-25.5 -10.5h-110v-607zM512 1901h1024v73h-1024v-73zM1390 1547v281h-732v-251q103 32 194 32q120 0 193 -56q11 -8 28 -18.5t60.5 -24t87.5 -13.5q85 0 169 50zM1061 877q91 0 155 64.5
t64 155.5t-64 155t-155 64t-155.5 -64t-64.5 -155t64.5 -155.5t155.5 -64.5zM1061 1243q60 0 103 -43t43 -103q0 -61 -43 -104t-103 -43q-61 0 -104 43t-43 104q0 60 43 103t104 43zM841 511q61 0 103.5 43t42.5 104t-42.5 103.5t-103.5 42.5t-103.5 -42.5t-42.5 -103.5
t42.5 -104t103.5 -43zM841 731q31 0 52 -21.5t21 -51.5q0 -31 -21 -52t-52 -21q-30 0 -51.5 21t-21.5 52q0 30 21.5 51.5t51.5 21.5zM1170 292q46 0 78 32t32 78q0 45 -32 77t-78 32q-45 0 -77 -32t-32 -77q0 -46 32 -78t77 -32zM1170 438q15 0 26 -10.5t11 -25.5t-11 -26
t-26 -11t-25.5 11t-10.5 26t10.5 25.5t25.5 10.5z" />
<glyph unicode="&#xf4c1;" horiz-adv-x="2048" d="M1536 2048q30 0 51.5 -21.5t21.5 -51.5v-73q0 -31 -21.5 -52t-51.5 -21h-73v-1390q0 -182 -128.5 -310.5t-310.5 -128.5t-310.5 128.5t-128.5 310.5v1390h-73q-30 0 -51.5 21t-21.5 52v73q0 30 21.5 51.5t51.5 21.5h1024zM512 1902h1024v73h-1024v-73zM1390 1548v281
h-732v-252q107 33 195 33q58 0 99.5 -11.5t66 -28t48.5 -33t62 -28t91 -11.5q88 0 170 50zM1097 878q91 0 155.5 64t64.5 155t-64.5 155.5t-155.5 64.5t-155 -64.5t-64 -155.5t64 -155t155 -64zM1097 1243q61 0 103.5 -42.5t42.5 -103.5t-42.5 -103.5t-103.5 -42.5
t-103.5 42.5t-42.5 103.5t42.5 103.5t103.5 42.5zM878 549q60 0 103 42.5t43 103.5t-43 103.5t-103 42.5q-61 0 -104 -42.5t-43 -103.5t43 -103.5t104 -42.5zM878 768q30 0 51.5 -21.5t21.5 -51.5q0 -31 -21.5 -52t-51.5 -21q-31 0 -52 21t-21 52q0 30 21 51.5t52 21.5z
M1134 329q45 0 77 32t32 78q0 45 -32 77.5t-77 32.5q-46 0 -78 -32.5t-32 -77.5q0 -46 32 -78t78 -32zM1134 475q15 0 25.5 -10.5t10.5 -25.5t-10.5 -26t-25.5 -11q-16 0 -26.5 11t-10.5 26t10.5 25.5t26.5 10.5z" />
<glyph unicode="&#xf503;" horiz-adv-x="2048" d="M2004 1127q43 -43 43 -103t-43 -103l-877 -878q-43 -43 -103.5 -43t-103.5 43l-878 878q-43 43 -43 103t43 103l878 878q43 43 103.5 43t103.5 -43zM1317 1133v329h-330l111 -110q-367 -311 -363 -731h146q-1 91 20 178t53.5 152t78 124.5t86 99t84.5 72.5z" />
<glyph unicode="&#xf505;" horiz-adv-x="2048" d="M42 1127l877 878q43 43 103.5 43t103.5 -43l878 -878q43 -43 43 -103t-43 -103l-878 -878q-43 -43 -103.5 -43t-103.5 43l-877 878q-43 43 -43 103t43 103zM729 1133l114 114q44 -33 84.5 -72.5t86 -99t78 -124.5t53.5 -152t20 -178h146q4 420 -363 731l111 110h-330
v-329z" />
<glyph unicode="&#xf600;" horiz-adv-x="2048" d="M1390 512q15 0 25.5 -10.5t10.5 -26.5q0 -15 -10.5 -25.5t-25.5 -10.5h-988q-15 0 -25.5 10.5t-10.5 25.5v1009l-304 -303q-9 -11 -25 -11t-26.5 11t-10.5 26t11 26l365 365q11 11 26 11q17 0 26 -11l366 -365q11 -13 11 -26q0 -15 -11 -26t-26 -11t-26 11l-303 303v-972
h951zM2011 878q16 0 26.5 -11t10.5 -26t-11 -26l-365 -365q-11 -11 -26 -11q-17 0 -26 11l-366 365q-11 13 -11 26q0 15 11 26t26 11t26 -11l303 -303v972h-951q-15 0 -25.5 10.5t-10.5 26.5q0 15 10.5 25.5t25.5 10.5h988q15 0 25.5 -10.5t10.5 -25.5v-1009l304 303
q9 11 25 11z" />
<glyph unicode="&#x1f304;" horiz-adv-x="2048" d="M1975 1828q30 0 51.5 -21.5t21.5 -51.5v-1463q0 -30 -21.5 -51.5t-51.5 -21.5h-1902q-30 0 -51.5 21.5t-21.5 51.5v1463q0 30 21.5 51.5t51.5 21.5h1902zM1682 1316q61 0 104 43t43 103q0 61 -43 104t-104 43t-103.5 -43t-42.5 -104q0 -60 42.5 -103t103.5 -43zM1792 438
q15 0 26 11t11 26q0 13 -10 23l1 1l-439 512v-1q-11 13 -28 13q-14 0 -26 -10l-193 -194l-340 340q-11 11 -26 11q-18 0 -28 -15l-1 1l-512 -659h1q-9 -11 -9 -22q0 -15 11 -26t26 -11h1536z" />
<glyph unicode="&#x1f30e;" horiz-adv-x="2048" d="M1024 2047q209 0 398.5 -81t326.5 -218t218 -326.5t81 -398.5q0 -208 -81 -397.5t-218 -327t-327 -218.5t-398 -81t-398 81t-327 218.5t-218 327t-81 397.5q0 209 81 398.5t218 326.5t326.5 218t398.5 81zM1353 1682q-2 -5 -4 -12.5t-7.5 -30.5t-8.5 -44t-3.5 -46
t4.5 -43.5t19.5 -31t36.5 -12.5q26 0 57 19.5t57 45.5t57.5 50.5t57 34.5t57.5 -2q-145 160 -348 236q-7 -14 -11 -18q-13 -13 -25 -29.5t-20 -37.5t-6 -38t24 -29t63 -12zM1536 1206q0 -65 33.5 -129t88 -114.5t107.5 -87.5t109 -66q28 114 28 214q0 277 -161 505
q7 -27 -11.5 -48.5t-50 -42.5t-64 -47t-56 -73.5t-23.5 -110.5zM731 1170q38 14 53.5 4t15.5 -27t8.5 -33.5t32.5 -16.5q20 0 28.5 11.5t12.5 31.5t11 43t30.5 49.5t63.5 46.5q48 24 79.5 47.5t40.5 35.5t23.5 19.5t39.5 7.5q35 0 45 36q12 41 -21.5 75.5t-96.5 34.5
q-40 0 -64 -18t-32 -39t-16.5 -37.5t-24 -13t-46.5 34.5q-31 32 -37.5 50t8.5 28t37 16.5t52.5 20t49.5 32.5q38 38 7 62q-27 22 -69 11q-34 -9 -48 -37q-4 4 -12 10.5t-31 15.5t-44 6.5t-48 -28.5t-48 -77q-6 4 -16 10t-38 26t-52 40.5t-50 48.5t-41 54q-109 -72 -194 -179
q51 -26 99 -73q20 -20 32.5 -42t19 -39.5t6 -41t-2 -37.5t-11 -38t-13.5 -33.5t-16.5 -33.5t-14.5 -28q-16 -32 11.5 -78t63.5 -76l35 -29q109 -73 219 -109l12 10q31 39 -76 94q-4 3 -9 5q-4 4 -11 12t-18 29t-11.5 39t17.5 37.5t59 29.5zM1251 575q49 50 60.5 102t-6.5 89
t-54 55q-18 9 -23.5 17t-5 15t-4.5 15.5t-30 23t-73 34.5q-128 48 -201 13.5t-73 -118.5q0 -43 7.5 -80t19.5 -61.5t27 -44t29.5 -30.5t26.5 -18t19 -9l8 -3q-40 -205 34 -281q9 -9 29 -35.5t32.5 -35t26.5 -0.5q11 7 28 72t48 149.5t75 130.5z" />
<glyph unicode="&#x1f310;" horiz-adv-x="2048" d="M1024 2047q209 0 398.5 -81t326.5 -218t218 -326.5t81 -398.5q0 -208 -81 -397.5t-218 -327t-327 -218.5t-398 -81t-398 81t-327 218.5t-218 327t-81 397.5q0 209 81 398.5t218 326.5t326.5 218t398.5 81zM1024 73q193 0 369.5 75t303.5 202.5t202.5 303.5t75.5 369
q0 194 -75.5 370t-202.5 303.5t-303.5 202.5t-369.5 75t-369.5 -75t-303.5 -202.5t-202.5 -303.5t-75.5 -370q0 -193 75.5 -369t202.5 -303.5t303.5 -202.5t369.5 -75zM1235 1875q109 -109 180 -313q-160 -56 -354 -62v400q85 -4 174 -25zM633 1562q71 204 180 313
q89 21 174 25v-400q-194 6 -354 62zM691 1835q-71 -99 -124 -247q-81 35 -142 76q117 109 266 171zM1623 1664q-61 -41 -142 -76q-53 148 -124 247q149 -62 266 -171zM545 1519q-64 -218 -68 -459h-329q6 156 65 297.5t161 254.5q74 -52 171 -93zM1571 1060q-4 241 -68 459
q97 41 171 93q102 -113 161 -254.5t65 -297.5h-329zM1437 1493q58 -201 62 -433h-438v367q200 6 376 66zM549 1060q4 232 62 433q176 -60 376 -66v-367h-438zM477 987q4 -241 68 -459q-97 -41 -171 -93q-102 113 -161 254.5t-65 297.5h329zM1503 528q64 218 68 459h329
q-6 -156 -65 -297.5t-161 -254.5q-74 52 -171 93zM1499 987q-4 -234 -62 -433q-176 60 -376 66v367h438zM611 554q-58 199 -62 433h438v-367q-200 -6 -376 -66zM813 172q-108 107 -180 313q160 56 354 62v-400q-93 5 -174 25zM1061 547q194 -6 354 -62q-72 -206 -180 -313
q-81 -20 -174 -25v400zM425 383q67 44 142 76q52 -146 124 -247q-146 59 -266 171zM1357 212q72 101 124 247q75 -32 142 -76q-120 -112 -266 -171z" />
<glyph unicode="&#x1f319;" horiz-adv-x="2048" d="M1871 302q5 0 15 0.5t15 0.5q-142 -143 -330 -223t-398 -80q-209 0 -399 81t-327.5 218t-219 327t-81.5 398q0 137 35.5 267.5t99.5 241.5t156 205t201 161t238.5 106t265.5 43q-141 -142 -219.5 -328t-78.5 -393q0 -208 81.5 -398t219 -327.5t327.5 -218.5t399 -81z" />
<glyph unicode="&#x1f327;" horiz-adv-x="2048" d="M1390 73q-46 0 -78 32t-32 77q0 27 27.5 91t54.5 115l28 50h-212q-23 56 -61.5 129.5t-65.5 118.5l-27 45q-103 -166 -154 -293h-358q-139 0 -257 68.5t-186.5 186.5t-68.5 257q0 206 142.5 354t346.5 157q-14 56 -14 111q0 197 139.5 336t336.5 139q146 0 265 -80.5
t174 -211.5q134 0 255.5 -52t210 -140.5t140.5 -210t52 -255.5t-52 -256t-140.5 -210.5t-210 -140.5t-255.5 -52q109 -195 109 -256q0 -45 -32 -77t-77 -32zM914 329q0 27 27.5 91t54.5 114l28 51q110 -196 110 -256q0 -46 -32 -78t-78 -32t-78 32t-32 78zM549 109
q0 27 27.5 91t54.5 114l27 51q110 -195 110 -256q0 -45 -32 -77.5t-78 -32.5q-45 0 -77 32.5t-32 77.5z" />
<glyph unicode="&#x1f328;" horiz-adv-x="2048" d="M1390 1755q134 0 255.5 -52t210 -140.5t140.5 -210t52 -255.5t-52 -256t-140.5 -210.5t-210 -140.5t-255.5 -52h-117q7 21 7 37q0 54 -44 88q7 54 -31 93q-38 38 -93 31q-34 44 -88 44t-88 -44q-55 7 -93 -31q-38 -39 -31 -93q-44 -34 -44 -88q0 -16 7 -37h-263
q-139 0 -257 68.5t-186.5 186.5t-68.5 257q0 206 142.5 354t346.5 157q-14 56 -14 111q0 197 139.5 336t336.5 139q146 0 265 -80.5t174 -211.5zM1170 511q16 0 26.5 -10.5t10.5 -25.5t-10.5 -26t-26.5 -11h-58l41 -41q11 -10 11 -25.5t-11 -25.5q-11 -11 -26 -11t-25 11
l-41 41v-58q0 -16 -11 -26.5t-26 -10.5t-26 10.5t-11 26.5v58l-41 -41q-10 -11 -25.5 -11t-25.5 11q-11 10 -11 25t11 26l41 41h-58q-15 0 -26 11t-11 26t11 25.5t26 10.5h58l-41 41q-11 11 -11 26.5t11 25.5t26 10t25 -10l41 -41v58q0 15 11 26t26 11t26 -11t11 -26v-58
l41 41q10 10 25 10t26 -10t11 -25.5t-11 -26.5l-41 -41h58zM1573 292q15 0 25.5 -10.5t10.5 -26.5q0 -15 -10.5 -25.5t-25.5 -10.5h-58l41 -41q10 -10 10 -26t-10 -26q-11 -10 -26.5 -10t-25.5 10l-41 41v-58q0 -15 -11 -25.5t-26 -10.5t-25.5 10.5t-10.5 25.5v58l-41 -41
q-11 -10 -26 -10t-26 10t-11 26t11 26l41 41h-58q-15 0 -26 10.5t-11 25.5q0 16 11 26.5t26 10.5h58l-41 41q-11 11 -11 26t11 26t26 11t26 -11l41 -41v58q0 15 10.5 25.5t25.5 10.5t26 -10.5t11 -25.5v-58l41 41q10 11 25.5 11t26.5 -11q10 -11 10 -26t-10 -26l-41 -41h58z
M768 219q15 0 26 -11t11 -26t-11 -25.5t-26 -10.5h-58l41 -41q11 -11 11 -26t-11 -26t-26 -11t-26 11l-41 41v-58q0 -15 -10.5 -26t-25.5 -11t-26 11t-11 26v58l-41 -41q-10 -11 -25.5 -11t-26.5 11q-10 11 -10 26t10 26l41 41h-58q-15 0 -25.5 10.5t-10.5 25.5t10.5 26
t25.5 11h58l-41 41q-10 10 -10 25.5t10 26.5q11 10 26.5 10t25.5 -10l41 -41v58q0 15 11 25.5t26 10.5t25.5 -10.5t10.5 -25.5v-58l41 41q11 10 26 10t26 -10q11 -11 11 -26.5t-11 -25.5l-41 -41h58z" />
<glyph unicode="&#x1f332;" horiz-adv-x="2048" d="M1792 366h-1536q-15 0 -26 10.5t-11 25.5q0 10 7 20v1l254 382h-78q-15 0 -25.5 10.5t-10.5 25.5q0 12 8 22h-1l285 380h-73q-15 0 -25.5 11t-10.5 26q0 10 7 22l285 380h-36q-16 0 -26.5 11t-10.5 26q0 11 8 21l-1 1l220 292q12 15 29 15t29 -15l220 -292l-1 -1
q8 -10 8 -21q0 -15 -10.5 -26t-26.5 -11h-36l285 -380q7 -12 7 -22q0 -15 -10.5 -26t-25.5 -11h-73l285 -380h-1q8 -10 8 -22q0 -15 -10.5 -25.5t-25.5 -10.5h-78l254 -382v-1q7 -11 7 -20q0 -15 -11 -25.5t-26 -10.5zM878 37v256h292v-256q0 -16 -10.5 -26.5t-25.5 -10.5
h-220q-15 0 -25.5 10.5t-10.5 26.5z" />
<glyph unicode="&#x1f355;" horiz-adv-x="2048" d="M1890 1621q-52 28 -119.5 56t-181.5 66t-263 62t-302 24t-302 -24t-263 -62t-181.5 -66t-119.5 -56l-81 154q-4 10 -4 17q0 22 19 32q24 13 55 28t131 54t201 67t251 51.5t294 23.5t294 -23.5t251 -51.5t201 -67t131 -54t55 -28q19 -10 19 -32q0 -7 -4 -17zM1024 0
q-22 0 -32 20l-800 1536q48 26 112.5 52.5t174.5 63.5t254 60t291 23q146 0 289.5 -23t254 -60t175 -63.5t113.5 -52.5l-800 -1536q-10 -20 -32 -20zM658 1426q0 -61 43 -103.5t104 -42.5q60 0 103 42.5t43 103.5t-43 104t-103 43q-61 0 -104 -43t-43 -104zM1243 1390
q-60 0 -103 -43t-43 -104q0 -60 43 -103t103 -43q61 0 104 43t43 103q0 61 -43 104t-104 43zM805 987q0 -45 32 -77t77 -32q46 0 78 32t32 77q0 46 -32 78t-78 32q-45 0 -77 -32t-32 -78zM1170 695q0 45 -32 77.5t-77 32.5q-46 0 -78 -32.5t-32 -77.5q0 -46 32 -78t78 -32
q45 0 77 32t32 78z" />
<glyph unicode="&#x1f357;" horiz-adv-x="2048" d="M1390 585q-179 0 -331 59t-240 160t-88 220q0 155 145.5 274.5t367.5 152.5v1q4 0 11 1t10 1q10 2 15 2q7 1 19 2.5t18 1.5q2 -90 87 -153.5t205 -63.5q73 0 136 25.5t104 69.5q4 -3 29 -22q1 0 1 1q3 -3 9 -8t10 -7q1 -2 4.5 -4t5.5 -4h-1q141 -120 141 -270
q0 -119 -88 -220t-239.5 -160t-330.5 -59zM401 1170h288q-31 -71 -31 -146t31 -146h-288q1 -6 1 -19q0 -88 -47.5 -144.5t-135.5 -56.5q-91 0 -155 59t-64 142q0 51 25 94t68 71q-43 28 -68 71t-25 94q0 83 64 142t155 59q88 0 135.5 -56.5t47.5 -144.5q0 -13 -1 -19z" />
<glyph unicode="&#x1f368;" horiz-adv-x="2048" d="M1463 1609q121 0 206.5 -86t85.5 -207t-85 -206.5t-207 -86.5h-866l-1 2q-128 10 -215.5 104t-87.5 224q0 128 86.5 222t212.5 105q26 157 148 262t284 105q182 0 310.5 -128.5t128.5 -309.5zM1024 -1q-25 0 -34 24l-364 927h796l-364 -927q-9 -24 -34 -24z" />
<glyph unicode="&#x1f374;" horiz-adv-x="2048" d="M987 2048q46 0 78 -32t32 -78v-768q0 -91 -64 -155t-155 -64h-73v-914q0 -16 -11 -26.5t-26 -10.5h-146q-16 0 -26.5 10.5t-10.5 26.5v914h-73q-91 0 -155 64t-64 155v768q0 46 32 78t77 32q46 0 78 -32t32 -78v-695h73v695q0 46 32 78t78 32q45 0 77.5 -32t32.5 -78
v-695h73v695q0 46 32 78t77 32zM1536 2048q91 0 155 -64t64 -155v-1792q0 -16 -10.5 -26.5t-25.5 -10.5h-146q-16 0 -26.5 10.5t-10.5 26.5v768h-146q-31 0 -52 21t-21 52v951q0 91 64 155t155 64z" />
<glyph unicode="&#x1f377;" horiz-adv-x="2048" d="M1609 1463q0 -153 -72.5 -283.5t-198.5 -210.5t-277 -89v-807h512q15 0 25.5 -10.5t10.5 -25.5q0 -16 -10.5 -26.5t-25.5 -10.5h-1098q-15 0 -25.5 10.5t-10.5 26.5q0 15 10.5 25.5t25.5 10.5h512v807q-151 9 -277 89t-198.5 210.5t-72.5 283.5v548q0 16 10.5 26.5
t25.5 10.5h1098q15 0 25.5 -10.5t10.5 -26.5v-548zM750 1866q90 0 158.5 -17.5t105.5 -38t107 -38t162 -17.5q130 0 253 39v181h-1024v-152q113 43 238 43z" />
<glyph unicode="&#x1f378;" horiz-adv-x="2048" d="M1573 0h-1098q-15 0 -25.5 10.5t-10.5 26.5q0 15 10.5 25.5t25.5 10.5h512v899l-903 867q-11 13 -11 26q0 15 10.5 26t26.5 11h1199l87 130v-1q12 17 30 17q15 0 26 -10.5t11 -26.5q0 -10 -7 -19l1 -1l-60 -89h541q15 0 26 -11t11 -26q0 -14 -12 -26h1l-903 -867v-899
h512q15 0 25.5 -10.5t10.5 -25.5q0 -16 -10.5 -26.5t-25.5 -10.5zM1348 1829l-187 -282q62 -11 133 -11q156 0 294 44l259 249h-499zM201 1829l258 -248q130 65 290 65q149 0 288 -63q24 -11 48 -18l175 264h-1059zM987 1463q0 -31 21.5 -52t52.5 -21q30 0 51.5 21t21.5 52
q0 30 -21.5 51.5t-51.5 21.5q-31 0 -52.5 -21.5t-21.5 -51.5zM1018 1333l16 24q-36 9 -61 40l-16 -24l-43 -129z" />
<glyph unicode="&#x1f37a;" horiz-adv-x="2048" d="M1609 1975q91 0 155.5 -64.5t64.5 -155.5t-64.5 -155t-155.5 -64q-55 0 -107 29q-89 -102 -222 -102q-124 0 -210 89q-42 -16 -83 -16q-49 0 -93 22q-77 -95 -199 -95q-107 0 -181.5 74.5t-74.5 181.5q0 106 75 181t181 75q84 0 153 -51q63 51 139 51q41 0 83 -16
q86 89 210 89q133 0 222 -102q52 29 107 29zM1518 1478q42 -15 91 -15q79 0 146 39v-1429q0 -30 -21 -51.5t-52 -21.5h-1097q-30 0 -51.5 21.5t-21.5 51.5v366h-219q-31 0 -52.5 21.5t-21.5 51.5v878q0 30 21.5 51.5t52.5 21.5h195q90 -73 207 -73q125 0 218 83
q40 -10 74 -10q28 0 65 7q99 -80 228 -80q136 0 238 88zM512 512v878h-219v-878h219zM878 293v1024q0 15 -11 25.5t-26 10.5t-25.5 -10.5t-10.5 -25.5v-1024q0 -16 10.5 -26.5t25.5 -10.5t26 10.5t11 26.5zM1170 293v1024q0 15 -10.5 25.5t-25.5 10.5q-16 0 -26.5 -10.5
t-10.5 -25.5v-1024q0 -16 10.5 -26.5t26.5 -10.5q15 0 25.5 10.5t10.5 26.5zM1463 293v1024q0 15 -11 25.5t-26 10.5t-25.5 -10.5t-10.5 -25.5v-1024q0 -16 10.5 -26.5t25.5 -10.5t26 10.5t11 26.5z" />
<glyph unicode="&#x1f381;" horiz-adv-x="2048" d="M1975 1535q30 0 51.5 -21t21.5 -52v-292h-805v365q95 0 188 32.5t145 72.5q51 40 79 91.5t28 104.5q0 63 -39 100.5t-104 37.5q-41 0 -79.5 -17.5t-66.5 -40t-61.5 -67t-52 -74t-51.5 -84.5q-66 -111 -106 -156h47v-365h-292v365h48q-41 45 -107 156q-33 55 -51.5 84.5
t-52 74t-61.5 67t-66.5 40t-79.5 17.5q-65 0 -104 -37.5t-39 -100.5q0 -53 28 -104.5t79 -91.5q52 -40 145.5 -72.5t187.5 -32.5v-365h-805v292q0 31 21.5 52t51.5 21h428q-45 25 -74 48q-64 51 -99.5 117t-35.5 136q0 93 60.5 152t155.5 59q30 0 59 -7t52.5 -16.5t48.5 -28
t43.5 -34t40.5 -42t36 -44.5t34 -49.5t30.5 -48t29.5 -48.5q90 -152 142 -182q52 30 142 182q19 32 29.5 48.5t30.5 48t34 49.5t36 44.5t40.5 42t43.5 34t48.5 28t52.5 16.5t59 7q95 0 155.5 -59t60.5 -152q0 -70 -35.5 -136t-99.5 -117q-29 -23 -74 -48h428zM1243 -1v1098
h732v-1024q0 -31 -21.5 -52.5t-51.5 -21.5h-659zM878 -1v1098h292v-1098h-292zM73 73v1024h732v-1098h-659q-30 0 -51.5 21.5t-21.5 52.5z" />
<glyph unicode="&#x1f382;" horiz-adv-x="2048" d="M1024 1645q-61 0 -103.5 43t-42.5 103q0 40 11 64.5t27 37.5t32.5 27t27.5 45.5t11 81.5q52 0 90 -28t57 -70.5t27.5 -82.5t8.5 -75q0 -60 -42.5 -103t-103.5 -43zM821 1426q-14 -4 -27 4t-17 22q-4 15 3.5 28t22.5 17l423 113q15 4 28 -3.5t17 -21.5q4 -15 -3.5 -28
t-22.5 -17l-75 -20v-497h-292v418zM1829 585q-49 -8 -132 -20.5t-296.5 -33t-376.5 -20.5t-364 18.5t-321 36.5l-120 19v219q0 61 43 103.5t104 42.5h1316q61 0 104 -42.5t43 -103.5v-219zM1938 73q15 0 26 -11t11 -26t-11 -26t-26 -11h-1828q-15 0 -26 11t-11 26t11 26
t26 11h109v438q49 -8 132 -20t296.5 -32.5t376.5 -20.5t364 18t321 36l120 19v-438h109z" />
<glyph unicode="&#x1f388;" horiz-adv-x="2048" d="M1059 2048q214 0 391.5 -114t278 -306.5t100.5 -419.5q0 -190 -70 -362t-185.5 -292.5t-268.5 -191t-315 -70.5q-154 0 -295.5 64.5t-246.5 175t-167.5 267.5t-62.5 333q0 187 69 358t183.5 292.5t269 193.5t319.5 72zM818 1685q14 6 19.5 20t-0.5 28t-20 19.5t-28 -0.5
q-6 -2 -19.5 -9t-40.5 -24.5t-54.5 -40.5t-57.5 -59.5t-53 -78.5t-38 -100.5t-15 -122.5q0 -16 10.5 -26.5t25.5 -10.5q16 0 26.5 10.5t10.5 26.5q0 74 24 138.5t55 103.5t68.5 70t57.5 42t29 14zM910 0q-78 0 -160.5 45t-90.5 113q-6 57 35 117q37 -15 84 -28
q107 -29 231 -26q15 -58 15 -99q0 -51 -26 -86.5t-88 -35.5z" />
<glyph unicode="&#x1f393;" horiz-adv-x="2048" d="M1024 1021l-975 361l-25 9v1q-24 9 -24 34t24 34l987 366v-1q6 3 13 3t13 -3v1l987 -366q24 -9 24 -34t-24 -34v-1l-25 -9zM256 219q-13 0 -23 9t-12 22h-1l-63 419q-14 -100 -35 -205t-35 -160l-14 -54h-1q-2 -13 -12 -22t-23 -9q-16 0 -26.5 10.5t-10.5 25.5q0 1 0.5 3
t0.5 3h-1q1 3 3 7v2q88 314 104 615q-31 12 -50.5 39.5t-19.5 62.5q0 39 24 68.5t60 37.5q15 79 56 164l68 -25q-36 -80 -50 -147q28 -14 44.5 -40t16.5 -58q0 -64 -58 -95l94 -631q0 -1 0.5 -3t0.5 -3q0 -15 -11 -25.5t-26 -10.5zM1046 446q-14 -8 -22 -8t-22 8l-274 205
l-273 -136v1q-8 -5 -16 -5q-15 0 -26 11t-11 26v2q1 1 1 2l62 598l546 -202q8 -2 13 -2t13 2l546 202l62 -598q0 -1 1 -2v-2q0 -15 -11 -26t-26 -11q-8 0 -16 5v-1l-273 136z" />
<glyph unicode="&#x1f396;" horiz-adv-x="2048" d="M695 1097q-7 0 -14 3l-365 146q-23 10 -23 34v731q0 16 10.5 26.5t25.5 10.5h366q15 0 25.5 -10.5t10.5 -26.5v-877q0 -15 -10.5 -26t-25.5 -11zM1353 1097q-15 0 -25.5 11t-10.5 26v877q0 16 10.5 26.5t25.5 10.5h366q15 0 25.5 -10.5t10.5 -26.5v-731q0 -24 -23 -34
l-365 -146q-7 -3 -14 -3zM922 1611h-1l-116 -311v711q0 16 10.5 26.5t25.5 10.5h366q15 0 25.5 -10.5t10.5 -26.5v-711l-116 311h-1q-11 32 -39 51.5t-63 19.5t-63 -19.5t-39 -51.5zM1499 0q-12 0 -22 8l-453 348l-453 -348q-10 -8 -22 -8q-16 0 -26.5 10.5t-10.5 26.5
q0 3 2 9h-1l141 562l-421 351v1q-14 10 -14 27q0 16 11 26.5t26 10.5h523l211 561q9 24 34 24t34 -24l211 -561h523q15 0 26 -10.5t11 -26.5q0 -17 -14 -27v-1l-421 -351l141 -562h-1q2 -6 2 -9q0 -16 -10.5 -26.5t-26.5 -10.5z" />
<glyph unicode="&#x1f399;" horiz-adv-x="2048" d="M1463 1609v-292h-878v292q0 182 128.5 310.5t310.5 128.5t310.5 -128.5t128.5 -310.5zM1499 0h-950q-16 0 -26.5 10.5t-10.5 26.5q0 15 10.5 25.5t26.5 10.5h438v295q-151 9 -277 89t-198.5 210.5t-72.5 283.5v329q0 15 10.5 26t25.5 11q16 0 26.5 -11t10.5 -26v-329
q0 -212 150 -362t362 -150t362 150t150 362v329q0 15 10.5 26t26.5 11q15 0 25.5 -11t10.5 -26v-329q0 -153 -72.5 -283.5t-198.5 -210.5t-277 -89v-295h438q16 0 26.5 -10.5t10.5 -25.5q0 -16 -10.5 -26.5t-26.5 -10.5zM1024 512q-182 0 -310.5 128.5t-128.5 310.5v292h878
v-292q0 -182 -128.5 -310.5t-310.5 -128.5z" />
<glyph unicode="&#x1f39a;" horiz-adv-x="2048" d="M1902 2048q60 0 103 -42.5t43 -103.5v-1756q0 -61 -43 -103.5t-103 -42.5h-1756q-61 0 -103.5 42.5t-42.5 103.5v1756q0 61 42.5 103.5t103.5 42.5h1756zM439 1682v-292h73v292q0 15 -10.5 26t-26.5 11q-15 0 -25.5 -11t-10.5 -26zM987 1682v-804h74v804q0 15 -11 26
t-26 11t-26 -11t-11 -26zM1536 1682v-439h73v439q0 15 -10.5 26t-25.5 11q-16 0 -26.5 -11t-10.5 -26zM622 1243v74h-293v-74h293zM1719 1097v73h-293v-73h293zM512 366v804h-73v-804q0 -15 10.5 -26t25.5 -11q16 0 26.5 11t10.5 26zM1609 366v658h-73v-658q0 -15 10.5 -26
t26.5 -11q15 0 25.5 11t10.5 26zM1170 731v74h-292v-74h292zM1061 366v292h-74v-292q0 -15 11 -26t26 -11t26 11t11 26z" />
<glyph unicode="&#x1f39e;" horiz-adv-x="2048" d="M1902 1828q60 0 103 -42.5t43 -103.5v-1317q0 -61 -43 -103.5t-103 -42.5h-1756q-60 0 -103 42.5t-43 103.5v1317q0 61 43 103.5t103 42.5h1756zM512 1609v-147h146v147h-146zM219 1609v-147h147v147h-147zM1829 1462v147h-147v-147h147zM951 1462v147h-146v-147h146z
M1097 1609v-147h146v147h-146zM1390 1609v-147h146v147h-146zM1829 731v585h-732v-585h732zM951 731v585h-732v-585h732zM1755 1243v-439h-585v439h585zM878 1243v-439h-585v439h585zM951 438v147h-146v-147h146zM658 438v147h-146v-147h146zM1536 438v147h-146v-147h146z
M1243 438v147h-146v-147h146zM366 438v147h-147v-147h147zM1829 438v147h-147v-147h147z" />
<glyph unicode="&#x1f3a4;" horiz-adv-x="2048" d="M949 823l295 265l-155 155l-266 -294zM1573 2047q129 0 238.5 -63.5t173 -173t63.5 -238.5q0 -159 -94.5 -284t-241.5 -171v1q-8 -2 -10 -2q-17 0 -26 11l-549 548q-10 12 -10 26q0 3 2 11h-1q46 147 171 241t284 94zM352 8q-13 -9 -23 -9q-13 0 -26 11l-292 293
q-11 9 -11 26q0 12 8 22l986 1242h1q11 16 29 16q16 0 26 -12l549 -548q10 -12 10 -26q0 -16 -14 -28l-1243 -988v1z" />
<glyph unicode="&#x1f3a7;" horiz-adv-x="2048" d="M1755 1317q121 0 207 -85.5t86 -207.5v-146q0 -122 -86 -207.5t-207 -85.5h-21q-36 -124 -126 -225.5t-219 -165.5q-3 -81 -61 -137.5t-139 -56.5h-183q-83 0 -142 59t-59 142t59 142t142 59h183q64 0 115.5 -36.5t72.5 -95.5q103 55 176.5 137t105.5 181
q-22 6 -34.5 23.5t-14.5 32.5l-1 14v586q0 3 0.5 8t4.5 17.5t10.5 22t22 17.5t35.5 8q0 134 -52 255.5t-140 210t-210 140.5t-256 52t-256 -52t-210 -140.5t-140 -210t-52 -255.5q32 0 50.5 -18.5t20.5 -36.5l2 -18v-586q0 -3 -0.5 -8t-4.5 -17.5t-10.5 -22t-22 -17.5
t-35.5 -8h-73q-121 0 -207 85.5t-86 207.5v146q0 122 86 207.5t207 85.5q0 199 98 367t266 266t367 98t367 -98t266 -266t98 -367z" />
<glyph unicode="&#x1f3a8;" horiz-adv-x="2048" d="M951 2047q125 0 248.5 -31t237.5 -90t212 -151t170.5 -206.5t114 -264t41.5 -317.5q0 -114 -23.5 -219t-60.5 -183.5t-89 -149.5t-102 -119.5t-107 -91.5q-154 -115 -328 -170t-314 -55q-126 0 -228.5 22.5t-169.5 57.5t-117 84t-76.5 95.5t-42.5 99t-20 87t-4 66.5
q0 49 10.5 89t32.5 72t39 50t45 43q26 24 38 37t27 35.5t21 49.5t6 63q0 46 -32 72t-121 62q-31 13 -47.5 20.5t-47.5 22.5t-49 28.5t-43.5 34t-40.5 43.5t-30 52t-21.5 64.5t-6.5 76.5q0 131 67 246t183.5 197.5t279.5 130t348 47.5zM951 1755q-61 0 -103.5 -43t-42.5 -103
q0 -61 42.5 -104t103.5 -43t103.5 43t42.5 104q0 60 -42.5 103t-103.5 43zM951 1535q-31 0 -52 21.5t-21 52.5q0 30 21 51.5t52 21.5q30 0 51.5 -21.5t21.5 -51.5q0 -31 -21.5 -52.5t-51.5 -21.5zM585 1316q61 0 103.5 43t42.5 103q0 61 -42.5 104t-103.5 43t-103.5 -43
t-42.5 -104q0 -60 42.5 -103t103.5 -43zM1170 1462q0 -60 43 -103t104 -43q60 0 103 43t43 103q0 61 -43 104t-103 43q-61 0 -104 -43t-43 -104zM1317 1535q30 0 51.5 -21t21.5 -52q0 -30 -21.5 -51.5t-51.5 -21.5q-31 0 -52.5 21.5t-21.5 51.5q0 31 21.5 52t52.5 21z
M585 1535q31 0 52 -21t21 -52q0 -30 -21 -51.5t-52 -21.5q-30 0 -51.5 21.5t-21.5 51.5q0 31 21.5 52t51.5 21zM1536 950q61 0 103.5 43t42.5 104q0 60 -42.5 103t-103.5 43t-103.5 -43t-42.5 -103q0 -61 42.5 -104t103.5 -43zM1536 1170q30 0 51.5 -21.5t21.5 -51.5
q0 -31 -21.5 -52.5t-51.5 -21.5t-51.5 21.5t-21.5 52.5q0 30 21.5 51.5t51.5 21.5zM951 365q91 0 155 64.5t64 155.5t-64 155t-155 64t-155.5 -64t-64.5 -155t64.5 -155.5t155.5 -64.5zM951 731q61 0 103.5 -43t42.5 -103q0 -61 -42.5 -104t-103.5 -43t-103.5 43t-42.5 104
q0 60 42.5 103t103.5 43z" />
<glyph unicode="&#x1f3ab;" horiz-adv-x="2048" d="M2011 1207q-76 0 -129 -53.5t-53 -129.5t53 -129.5t129 -53.5q16 0 26.5 -10.5t10.5 -25.5v-403q0 -15 -10.5 -25.5t-26.5 -10.5h-1974q-16 0 -26.5 10.5t-10.5 25.5v403q0 15 10.5 25.5t26.5 10.5q76 0 129 53.5t53 129.5t-53 129.5t-129 53.5q-16 0 -26.5 10.5
t-10.5 25.5v403q0 15 10.5 25.5t26.5 10.5h1974q16 0 26.5 -10.5t10.5 -25.5v-403q0 -15 -10.5 -25.5t-26.5 -10.5zM1463 1536h-878q-91 0 -155 -64t-64 -155v-586q0 -91 64 -155t155 -64h878q91 0 155 64t64 155v586q0 91 -64 155t-155 64zM1243 585h-658q-61 0 -103.5 43
t-42.5 103v586q0 60 42.5 103t103.5 43h658v-878zM1609 731q0 -60 -42.5 -103t-103.5 -43h-146v878h146q61 0 103.5 -43t42.5 -103v-586zM1024 695q15 0 26 10.5t11 25.5l-3 12h1l-65 195l163 131h-1q14 11 14 28q0 15 -10.5 26t-25.5 11h-193l-65 194h-1q-7 25 -34 25
q-26 0 -34 -25h-1l-64 -194h-193q-16 0 -26.5 -11t-10.5 -26q0 -16 14 -28l163 -131l-65 -195q-2 -8 -2 -12q0 -15 10.5 -25.5t25.5 -10.5q13 0 23 8l160 128l160 -128h1q10 -8 22 -8zM950 837l-86 69q-11 8 -23 8t-22 -8h-1l-86 -69l34 102q2 8 2 12q0 16 -14 28l-101 82
h115q26 0 34 25h1l38 115l39 -115q8 -25 34 -25h115l-101 -82q-14 -12 -14 -28q0 -6 3 -12h-1z" />
<glyph unicode="&#x1f3ac;" horiz-adv-x="2048" d="M2048 512h-2048v1207q0 13 9 23t22 12v1q1978 293 1980 293q16 0 26.5 -10.5t10.5 -26.5v-292q0 -13 -9 -23.5t-22 -12.5l-1484 -220h1478q16 0 26.5 -11t10.5 -26v-914zM1403 1666l332 49l-246 182l-331 -49zM536 1537l331 49l-245 183l-332 -49zM1405 1390l-220 -220
h336l219 220h-335zM863 1390h-336l-219 -220h335zM658 585v512h-73v-512h73zM1463 585v512h-73v-512h73zM0 37v402h2048v-402q0 -16 -10.5 -26.5t-26.5 -10.5h-1974q-16 0 -26.5 10.5t-10.5 26.5zM366 293v-74h1316v74h-1316z" />
<glyph unicode="&#x1f3ad;" horiz-adv-x="2048" d="M1123 1629q87 -469 15 -782q-71 -310 -296 -385q-71 -23 -136 -23q-98 0 -188.5 50.5t-155 121.5t-125.5 178.5t-96 188t-69 187t-42.5 138t-18.5 75.5q-1 2 -1 3l-11 45h47q164 0 256.5 1.5t193.5 10t159.5 21.5t132 40t134 62t144.5 91l46 30zM985 1217q11 10 13 25
t-8 27q-4 5 -8.5 10t-15.5 16t-22.5 19.5t-28.5 18t-33 14.5t-35.5 5t-38.5 -7q-36 -13 -68.5 -47.5t-44.5 -55t-19 -35.5q-7 -14 -1.5 -28t19.5 -21q8 -3 15 -3q23 0 33 21q12 26 37.5 58t54.5 42q23 9 53 -11.5t46 -41.5q10 -12 25 -13.5t27 7.5zM1746 1070q10 11 8 26
t-14 25q-11 10 -26 8t-25 -14q-18 -22 -47.5 -41.5t-52.5 -11.5q-29 10 -54 42t-37 58q-9 22 -33 22q-5 0 -15 -4q-14 -6 -19.5 -20.5t1.5 -27.5q7 -15 18.5 -35.5t44.5 -55.5t69 -48q25 -12 53 -6t48 15t39.5 26t28 26.5t13.5 15.5zM364 1084q8 25 29 55t46 30
q31 0 66 -21.5t54 -41.5q10 -11 26 -10.5t26 11.5q11 11 11 26t-11 25q-13 13 -30.5 27.5t-60 35.5t-81.5 21q-27 0 -52 -13.5t-39.5 -29.5t-28 -39t-17.5 -33l-8 -20q-5 -14 2 -28t21 -18q8 -2 12 -2q27 0 35 25zM737 701q59 12 103.5 39t66.5 60t32.5 63t10.5 56
q0 16 -11 26.5t-26 10.5t-25.5 -10.5t-10.5 -26.5q0 -4 -1 -13t-9.5 -30t-23 -39.5t-46 -37t-74.5 -27.5q-44 -9 -78.5 -2.5t-59.5 19t-41.5 29t-25 28.5t-11.5 16v1q-7 13 -21.5 18t-27.5 -2t-18 -21.5t2 -27.5q24 -49 85 -92.5t147 -43.5q32 0 63 7zM2001 1353h47l-11 -45
q-84 -354 -232 -603q-203 -339 -463 -339q-66 0 -137 23q-91 31 -156 99q103 112 155 298q62 35 142 19q43 -9 74.5 -27.5t46 -37t23 -39.5t9.5 -30t1 -13q0 -16 10.5 -26.5t25.5 -10.5t26 10.5t11 26.5q0 26 -10.5 56t-32.5 63t-66 60t-103 39q-31 7 -63 7q-38 0 -74 -11
q21 104 29 235q49 17 114 73q11 10 11 25.5t-11 26.5q-11 10 -26 10t-26 -10q-24 -24 -59 -44q1 117 -6 241q124 -49 276 -62.5t475 -13.5z" />
<glyph unicode="&#x1f3ae;" horiz-adv-x="2048" d="M1536 1243q212 0 362 -150t150 -362q0 -139 -68.5 -257t-186.5 -186.5t-257 -68.5q-128 0 -238.5 59t-181.5 161h-184q-71 -102 -181.5 -161t-238.5 -59q-139 0 -257 68.5t-186.5 186.5t-68.5 257q0 212 150 362t362 150h475q0 120 20 217t52.5 156t71.5 103t78 64
t71.5 31.5t52.5 13.5l20 1q15 0 26 -11t11 -26t-11 -26t-26 -11q-6 0 -16.5 -1t-41 -11t-58 -27.5t-61 -56t-58 -90.5t-41 -137t-16.5 -189h475zM731 695v73h-182v183h-74v-183h-182v-73h182v-183h74v183h182zM1646 768q30 0 51.5 21.5t21.5 51.5q0 31 -21.5 52t-51.5 21
q-31 0 -52 -21t-21 -52q0 -30 21 -51.5t52 -21.5zM1426 549q31 0 52 21t21 52q0 30 -21 51.5t-52 21.5q-30 0 -51.5 -21.5t-21.5 -51.5q0 -31 21.5 -52t51.5 -21z" />
<glyph unicode="&#x1f3af;" horiz-adv-x="2048" d="M1738 1336l61 42q103 -204 103 -428q0 -193 -75.5 -369.5t-202.5 -303.5t-303.5 -202.5t-369.5 -75.5t-369.5 75.5t-303.5 202.5t-202.5 303.5t-75.5 369.5t75.5 369.5t202.5 303.5t303.5 202.5t369.5 75.5q226 0 428 -102l-42 -61q-185 90 -386 90q-179 0 -341.5 -69.5
t-280 -187t-187 -280t-69.5 -341.5q0 -178 69.5 -340.5t187 -280t280 -187t341.5 -69.5t341.5 69.5t280 187t187 280t69.5 340.5q0 201 -91 386zM951 1462q-212 0 -362 -150t-150 -362q0 -139 68.5 -257t186.5 -186.5t257 -68.5t257 68.5t186.5 186.5t68.5 257q0 89 -32 177
l62 43q43 -104 43 -220q0 -159 -78.5 -293.5t-213 -213t-293.5 -78.5t-293.5 78.5t-213 213t-78.5 293.5t78.5 293.5t213 213t293.5 78.5q115 0 219 -43l-42 -62q-84 32 -177 32zM951 1170q56 0 106 -29l416 541l157 366l52 -262l183 79l-78 -183l261 -53l-366 -156
l-540 -416q28 -53 28 -107q0 -91 -64 -155t-155 -64t-155.5 64t-64.5 155t64.5 155.5t155.5 64.5z" />
<glyph unicode="&#x1f3b1;" horiz-adv-x="2048" d="M1024 2048q209 0 398.5 -81t326.5 -218t218 -326.5t81 -398.5t-81 -398.5t-218 -326.5t-326.5 -218t-398.5 -81t-398.5 81t-326.5 218t-218 326.5t-81 398.5t81 398.5t218 326.5t326.5 218t398.5 81zM1170 658q139 0 257 68.5t186.5 186.5t68.5 257q0 212 -150 362
t-362 150t-362 -150t-150 -362q0 -139 68.5 -257t186.5 -186.5t257 -68.5zM1170 1609q182 0 310.5 -128.5t128.5 -310.5t-128.5 -310.5t-310.5 -128.5q-119 0 -220 59t-160 160t-59 220q0 182 128.5 310.5t310.5 128.5zM1271 888q85 23 126.5 82.5t22.5 132.5
q-13 49 -50 76.5t-87 33.5l-1 3q71 64 48 145q-15 56 -68.5 85.5t-133.5 7.5q-76 -20 -115 -75t-21 -121q9 -37 38 -64t74 -36l1 -2q-88 -72 -61 -169q16 -61 77.5 -92t149.5 -7zM1238 1325q8 -30 -5 -57t-39 -43q-93 2 -109 62q-8 32 6.5 58.5t50.5 36.5q38 10 63 -7.5
t33 -49.5zM1195 1143q106 -2 126 -76q9 -36 -9 -65.5t-57 -39.5q-41 -11 -72.5 8.5t-39.5 55.5q-19 73 52 117z" />
<glyph unicode="&#x1f3b8;" horiz-adv-x="2048" d="M2037 1745q11 -11 11 -26t-11 -26l-50 -50q24 -9 24 -34q0 -15 -10.5 -25.5t-25.5 -10.5q-25 0 -34 24l-27 -27q24 -9 24 -34q0 -15 -10.5 -26t-25.5 -11q-25 0 -34 24l-50 -49q-11 -11 -26 -11h-131l-269 -269q85 -143 69 -307.5t-130 -278.5q-82 -82 -197 -115
q-13 -200 -153 -340q-153 -153 -378 -153q-116 0 -226.5 45.5t-198.5 133.5q-113 112 -156 259.5t-9 292t139 250.5q139 138 340 152q31 115 115 197q133 133 326 133q139 0 260 -72l270 270v131q0 15 11 26l49 50q-24 9 -24 34q0 15 11 25.5t26 10.5q25 0 34 -24l27 27
q-24 9 -24 34q0 15 10.5 25.5t25.5 10.5q25 0 34 -24l50 50q11 11 26 11t26 -11zM987 878q46 0 78 32t32 77q0 46 -32 78t-78 32q-45 0 -77 -32t-32 -78q0 -45 32 -77t77 -32z" />
<glyph unicode="&#x1f3b9;" horiz-adv-x="2048" d="M1902 1243q60 0 103 -43t43 -103v-805q0 -30 -21.5 -51.5t-51.5 -21.5h-1902q-30 0 -51.5 21.5t-21.5 51.5v1024q0 212 150 362t362 150q82 0 152.5 -20t122 -54t96 -78t79.5 -92t67 -96.5t63 -92.5t63.5 -78t73.5 -54t88 -20h585zM1975 292v293h-146v-110q0 -15 -11 -26
t-26 -11t-26 11t-11 26v110h-73v-110q0 -15 -10.5 -26t-25.5 -11t-26 11t-11 26v110h-73v-110q0 -15 -10.5 -26t-26.5 -11q-15 0 -25.5 11t-10.5 26v110h-146v-110q0 -15 -11 -26t-26 -11t-26 11t-11 26v110h-73v-110q0 -15 -10.5 -26t-25.5 -11t-26 11t-11 26v110h-146
v-110q0 -15 -10.5 -26t-26.5 -11q-15 0 -25.5 11t-10.5 26v110h-73v-110q0 -15 -11 -26t-26 -11t-26 11t-11 26v110h-73v-110q0 -15 -10.5 -26t-25.5 -11t-26 11t-11 26v110h-146v-110q0 -15 -10.5 -26t-26.5 -11q-15 0 -25.5 11t-10.5 26v110h-73v-110q0 -15 -11 -26
t-26 -11t-26 11t-11 26v110h-146v-293h1902z" />
<glyph unicode="&#x1f3ba;" horiz-adv-x="2048" d="M768 1389q-61 0 -103.5 43t-42.5 103q0 61 42.5 104t103.5 43q66 0 110 -51q44 51 109 51q66 0 110 -51q44 51 110 51q61 0 103.5 -43t42.5 -104q0 -60 -42.5 -103t-103.5 -43q-66 0 -110 51q-44 -51 -110 -51q-65 0 -109 51q-44 -51 -110 -51zM1170 658v585h-146v-585
h146zM731 658v585h-73q-121 0 -206.5 -86t-85.5 -207t85.5 -206.5t206.5 -85.5h73zM951 658v585h-146v-585h146zM1243 402q0 -15 -10.5 -26t-25.5 -11t-26 11t-11 26v183h-146v-183q0 -15 -10.5 -26t-26.5 -11q-15 0 -25.5 11t-10.5 26v183h-146v-183q0 -15 -11 -26t-26 -11
t-26 11t-11 26v183h-73q-152 0 -258.5 106.5t-106.5 258.5q0 89 39 165.5t108 127.5h-367v-146q0 -16 -10.5 -26.5t-25.5 -10.5q-16 0 -26.5 10.5t-10.5 26.5v365q0 15 10.5 26t26.5 11q15 0 25.5 -11t10.5 -26v-146h1500q61 0 123.5 32.5t106.5 75t85.5 97.5t59.5 85t29 51
q9 25 34 25q16 0 26.5 -11t10.5 -26v-731q0 -15 -10.5 -26t-26.5 -11q-26 0 -34 25q-11 21 -29 51t-59.5 85t-85.5 97.5t-106.5 75t-123.5 32.5h-330v-585h74q121 0 206.5 85.5t85.5 206.5q0 16 10.5 26.5t26.5 10.5q15 0 25.5 -10.5t10.5 -26.5q0 -152 -107 -258.5
t-258 -106.5h-74v-183z" />
<glyph unicode="&#x1f3be;" horiz-adv-x="2048" d="M987 2011q0 -193 -75 -369t-202.5 -303.5t-303.5 -202.5t-369 -75q-6 0 -17.5 0.5t-17.5 0.5q10 264 143 486t355 355t486 143q0 -6 0.5 -17.5t0.5 -17.5zM2011 1061q-208 0 -397.5 -81t-327 -218.5t-218.5 -327t-81 -397.5q0 -6 1 -18t1 -17q-198 7 -377.5 87
t-311 211.5t-211.5 311t-87 377.5q5 0 17 -1t18 -1q208 0 397.5 81t327 218.5t218.5 327t81 397.5q0 6 -1 18t-1 17q198 -7 377.5 -87t311 -211.5t211.5 -311t87 -377.5q-5 0 -17 1t-18 1zM1061 37q0 193 75 369t202.5 303.5t303.5 202.5t369 75q6 0 17.5 -0.5t17.5 -0.5
q-10 -264 -143 -486t-355 -355t-486 -143q0 6 -0.5 17.5t-0.5 17.5z" />
<glyph unicode="&#x1f3c0;" horiz-adv-x="2048" d="M1721 1773l-407 -407q-120 130 -186.5 296t-66.5 349q0 6 0.5 18t0.5 17q188 -7 357 -78t302 -195zM1263 1314l-239 -238l-697 697q134 125 303.5 196t358.5 77q0 -5 -1 -17t-1 -18q0 -198 72.5 -377.5t203.5 -319.5zM734 785q-140 131 -319.5 203.5t-377.5 72.5
q-6 0 -18 -1t-17 -1q6 189 77 358.5t196 303.5l697 -697zM2011 1061q-183 0 -349 66.5t-296 186.5l407 407q124 -133 195 -302t78 -357q-5 0 -17 -0.5t-18 -0.5zM2011 987q6 0 18 1t17 1q-6 -189 -77 -358.5t-196 -303.5l-697 697l238 239q140 -131 319.5 -203.5
t377.5 -72.5zM37 987q183 0 349 -66.5t296 -186.5l-407 -407q-124 133 -195 302t-78 357q5 0 17 0.5t18 0.5zM785 734l239 238l697 -697q-134 -124 -304 -195.5t-358 -77.5q0 5 1 17t1 18q0 198 -72.5 377.5t-203.5 319.5zM327 275l407 407q120 -130 186.5 -296t66.5 -349
q0 -6 -0.5 -18t-0.5 -17q-188 7 -357 78t-302 195z" />
<glyph unicode="&#x1f3c3;" horiz-adv-x="2048" d="M1280 37q0 -16 -10.5 -26.5t-26.5 -10.5q-15 0 -25.5 10.5t-10.5 26.5v494l-293 234v-399h-548q-15 0 -26 10.5t-11 25.5t11 26t26 11h475v402q0 11 7 21l463 674h-491l-355 -355q-11 -11 -26 -11t-26 11t-11 26t11 26l366 365q9 11 26 11h553q-78 76 -78 183
q0 106 75 181t181 75t181 -75t75 -181t-75 -181t-181 -75q-57 0 -110 25v-464h329q16 0 26.5 -10.5t10.5 -25.5q0 -16 -10.5 -26.5t-26.5 -10.5h-365q-15 0 -26 10.5t-11 26.5v407l-426 -620l339 -271q14 -12 14 -28v-512z" />
<glyph unicode="&#x1f3c6;" horiz-adv-x="2048" d="M1480 1098q-76 -95 -185 -153t-234 -65v-807h512q15 0 25.5 -10.5t10.5 -25.5q0 -16 -10.5 -26.5t-25.5 -10.5h-1098q-15 0 -25.5 10.5t-10.5 26.5q0 15 10.5 25.5t25.5 10.5h512v807q-125 7 -234 65t-185 153q-112 1 -199 25t-146.5 61t-101.5 100.5t-65 126.5
t-36 157.5t-16.5 174t-3.5 195.5q0 15 10.5 26t26.5 11h402v36q0 16 10.5 26.5t25.5 10.5h1098q15 0 25.5 -10.5t10.5 -26.5v-36h402q16 0 26.5 -11t10.5 -26q0 -116 -3.5 -195.5t-16.5 -174t-36 -157.5t-65 -126.5t-101.5 -100.5t-146.5 -61t-199 -25zM73 1902
q0 -76 1 -125t6 -117t13.5 -112.5t24 -99.5t38 -90.5t56 -72.5t76.5 -58.5t101 -36.5t128 -18q-78 137 -78 291v439h-366zM1243 1170q16 0 26.5 11t10.5 26q0 1 -2 10q-10 63 -32 199l135 169q9 11 9 24q0 15 -11 26t-26 11h-195l-100 233v1q-10 22 -34 22t-34 -22v-1
l-100 -233h-195q-15 0 -26 -11t-11 -26q0 -13 9 -24l135 -169q-22 -136 -32 -199q-2 -9 -2 -10q0 -15 10.5 -26t26.5 -11q6 0 16 4l203 102l203 -102q10 -4 16 -4zM1609 1463q0 -154 -78 -291q70 3 128 18t101 36.5t76.5 58.5t56 72.5t38 90.5t24 99.5t13.5 112.5t6 117
t1 125h-366v-439zM1196 1272l-156 77q-10 4 -16 4t-16 -4l-156 -77q16 98 25 146q1 7 1 8q0 12 -9 23h1l-99 124h143q24 0 34 22l76 177l76 -177q10 -22 34 -22h143l-99 -124h1q-9 -11 -9 -23q0 -1 1 -8q9 -48 25 -146z" />
<glyph unicode="&#x1f3c8;" horiz-adv-x="2048" d="M1973 1970q40 -42 61 -161t10 -301.5t-62 -365.5l-838 838q242 68 475 68q131 0 225.5 -21.5t128.5 -56.5zM455 1592q246 245 609 364l894 -893q-119 -364 -364 -609q-249 -248 -607 -366l-899 899q121 359 367 605zM88 88q-46 46 -70 165t-14 297t60 358l844 -844
q-226 -64 -446 -64q-134 0 -233.5 24t-140.5 64zM1327 1416l-138 -139l-130 129q-11 10 -26 10t-25 -10q-11 -10 -11 -25.5t11 -26.5l129 -129l-131 -131l-130 129q-11 11 -25.5 11t-25.5 -11t-11 -25.5t11 -25.5l129 -130l-131 -131l-129 129q-11 11 -26.5 11t-25.5 -11
q-10 -10 -10 -25t10 -26l129 -130l-139 -138q-10 -12 -10 -26q0 -15 10.5 -26t25.5 -11q17 0 26 11l139 139l129 -130q10 -10 26 -10t26 10q10 11 10 26.5t-10 25.5l-129 129l131 132l129 -130q11 -11 26 -11t26 11t11 26t-11 26l-130 129l132 131l129 -129q10 -10 25.5 -10
t26.5 10q10 10 10 26t-10 26l-130 129l139 139q11 9 11 26q0 15 -11 25.5t-26 10.5q-14 0 -26 -10z" />
<glyph unicode="&#x1f3e2;" horiz-adv-x="2048" d="M1646 1535v293h-366v-293h366zM768 1535v293h-366v-293h366zM1207 1535v293h-366v-293h366zM695 1755v-146h-220v146h220zM1134 1755v-146h-220v146h220zM1573 1755v-146h-220v146h220zM1207 1170v292h-366v-292h366zM1646 1170v292h-366v-292h366zM768 1170v292h-366
v-292h366zM1134 1389v-146h-220v146h220zM695 1389v-146h-220v146h220zM1573 1389v-146h-220v146h220zM1207 804v293h-366v-293h366zM1646 804v293h-366v-293h366zM768 804v293h-366v-293h366zM695 1023v-146h-220v146h220zM1134 1023v-146h-220v146h220zM1573 1023v-146
h-220v146h220zM1646 438v293h-366v-293h366zM768 438v293h-366v-293h366zM1792 2047q30 0 51.5 -21t21.5 -52v-1901q0 -31 -21.5 -52.5t-51.5 -21.5h-585v732h-366v-732h-585q-30 0 -51.5 21.5t-21.5 52.5v1901q0 31 21.5 52t51.5 21h1536zM695 658v-147h-220v147h220z
M1573 658v-147h-220v147h220zM914 -1v659h220v-659h-220z" />
<glyph unicode="&#x1f3e6;" horiz-adv-x="2048" d="M1975 292h-1902v73q0 31 21.5 52t51.5 21h73v805h-109q-15 0 -26 10.5t-11 25.5v74q0 18 17 30l914 586l1 -1q7 6 19 6t19 -6l1 1l914 -586q17 -12 17 -30v-74q0 -15 -11 -25.5t-26 -10.5h-109v-805h73q30 0 51.5 -21t21.5 -52v-73zM658 438v805h-146v-805h146zM1536 438
v805h-146v-805h146zM1097 438v805h-146v-805h146zM0 219h2048v-73q0 -31 -21.5 -52t-51.5 -21h-1902q-30 0 -51.5 21t-21.5 52v73z" />
<glyph unicode="&#x1f3e8;" horiz-adv-x="2048" d="M1938 2047q15 0 26 -10.5t11 -25.5v-841q0 -15 -11 -26t-26 -11h-566l-320 386v-1q-12 14 -28 14t-28 -14v1l-320 -386h-566q-15 0 -26 11t-11 26v841q0 15 11 25.5t26 10.5h1828zM1134 950v293h-220v-293h220zM1061 1170v-147h-74v147h74zM805 585v-586h-512
q-31 0 -52.5 21.5t-21.5 52.5v987h475q16 2 24 10h1l305 368l303 -365l1 -1q0 -2 1 -2q12 -10 25 -10h475v-987q0 -31 -21.5 -52.5t-52.5 -21.5h-512v586q0 91 -64 155t-155 64t-155 -64t-64 -155zM1024 731q61 0 103.5 -43t42.5 -103v-586h-292v586q0 60 42.5 103t103.5 43
zM695 365v366h-293v-366h293zM1646 365v366h-293v-366h293zM622 658v-220h-147v220h147zM1573 658v-220h-147v220h147z" />
<glyph unicode="&#x1f3ea;" horiz-adv-x="2048" d="M1609 1865v-110h-1170v110q0 15 10.5 25.5t25.5 10.5h1098q15 0 25.5 -10.5t10.5 -25.5zM1674 1682l351 -293h-2002l351 293h1300zM0 1316h2048v-110q0 -15 -10.5 -25.5t-26.5 -10.5h-109q-14 0 -36 -18t-50.5 -36.5t-60.5 -18.5q-31 0 -60 18.5t-50.5 36.5t-35.5 18h-73
q-14 0 -36 -18t-50.5 -36.5t-59.5 -18.5t-60 18.5t-51 36.5t-36 18h-73q-14 0 -35.5 -18t-50.5 -36.5t-60 -18.5t-60 18.5t-50.5 36.5t-35.5 18h-73q-14 0 -36 -18t-51 -36.5t-60 -18.5t-59.5 18.5t-50.5 36.5t-36 18h-73q-14 0 -35.5 -18t-50.5 -36.5t-60 -18.5
q-32 0 -60.5 18.5t-50.5 36.5t-36 18h-109q-16 0 -26.5 10.5t-10.5 25.5v110zM1829 146h-1610q-30 0 -51.5 21t-21.5 52v804h73v-548l235 175q12 8 21 8h1098q9 0 21 -8l235 -175v548h73v-804q0 -31 -21.5 -52t-51.5 -21z" />
<glyph unicode="&#x1f3f0;" horiz-adv-x="2048" d="M1646 2048q15 0 25.5 -10.5t10.5 -26.5v-329h-1316v329q0 16 10.5 26.5t25.5 10.5h293q15 0 25.5 -10.5t10.5 -26.5v-109h147v109q0 16 10.5 26.5t25.5 10.5h220q15 0 25.5 -10.5t10.5 -26.5v-109h147v109q0 16 10.5 26.5t25.5 10.5h293zM1539 1609q143 -1570 143 -1572
q0 -16 -10.5 -26.5t-25.5 -10.5h-439q-15 0 -26 10.5t-11 26.5v355q-12 54 -53 87t-93 33t-93 -33t-53 -87v-355q0 -16 -11 -26.5t-26 -10.5h-439q-15 0 -25.5 10.5t-10.5 26.5q0 2 143 1572h1030z" />
<glyph unicode="&#x1f3f7;" horiz-adv-x="2048" d="M2048 1901v-719q2 -63 -42 -108l-1032 -1032q-44 -43 -104 -43t-103 43l-724 724q-43 43 -43 103.5t43 103.5l1032 1032q43 45 107 43l720 -1q61 0 103.5 -42.5t42.5 -103.5zM1646 1535q45 0 77 32.5t32 77.5q0 46 -32 78t-77 32q-46 0 -78 -32t-32 -78q0 -45 32 -77.5
t78 -32.5z" />
<glyph unicode="&#x1f40b;" horiz-adv-x="2048" d="M1573 512h-659q-87 0 -160 17.5t-123.5 45.5t-90 68t-63 78.5t-40 83.5t-23.5 78.5t-10 66.5l-3 38q-47 -1 -77 -1q-158 0 -241 55.5t-83 164.5q0 46 4 84t9 61t15 45.5t15 31t17 24.5t14 19q6 9 24 25t33 27l15 12v-64q0 -80 15 -119q10 -27 25 -27q17 0 50 21
q40 26 81 26q69 0 126 -70q61 57 134 57q29 0 56 -9l8 -3q35 -22 61 -22q18 0 31 14.5t19.5 33t10.5 41t4.5 33t0.5 15.5v73l72 -71l3 -3q3 -3 7.5 -8t10 -12.5t11.5 -18t12 -23.5t11.5 -29.5t9.5 -35.5t6.5 -42.5t2.5 -49.5q0 -125 -94 -190.5t-267 -65.5h-78q1 -19 2 -28
q24 -155 218 -155q42 0 74.5 6t55.5 13.5t41 25t28 31t20 41t14 45t12 53.5q11 48 18 73.5t26 71t42 71.5t65 60t95.5 51.5t133.5 30.5t179 13q136 0 244 -38.5t173 -102.5t98.5 -140t33.5 -158q0 -83 -24 -153q-246 -67 -525 -67q-15 0 -25.5 -10.5t-10.5 -25.5t10.5 -26
t25.5 -11q263 0 483 52q-36 -55 -92.5 -95.5t-106 -59t-103.5 -29.5t-75 -12.5t-32 -1.5zM1426 841q31 0 52 21.5t21 51.5q0 31 -21 52t-52 21q-30 0 -51.5 -21t-21.5 -52q0 -30 21.5 -51.5t51.5 -21.5z" />
<glyph unicode="&#x1f41b;" horiz-adv-x="2048" d="M329 1975q-15 0 -25.5 10.5t-10.5 25.5q0 16 10.5 26.5t25.5 10.5q146 0 273.5 -110.5t157.5 -257.5q127 75 264 75t264 -75q30 147 157.5 257.5t273.5 110.5q15 0 25.5 -10.5t10.5 -26.5q0 -15 -10.5 -25.5t-25.5 -10.5q-74 0 -141.5 -32.5t-113 -83.5t-74.5 -109.5
t-35 -114.5q101 -79 176 -199q-65 -76 -210 -134.5t-297 -58.5t-297 58.5t-210 134.5q75 120 176 199q-6 56 -35 114.5t-74.5 109.5t-113 83.5t-141.5 32.5zM805 731q45 0 77 32.5t32 77.5q0 46 -32 78t-77 32q-46 0 -78 -32t-32 -78q0 -45 32 -77.5t78 -32.5zM1134 329
q76 0 129.5 53.5t53.5 129.5t-53.5 129.5t-129.5 53.5t-129.5 -53.5t-53.5 -129.5t53.5 -129.5t129.5 -53.5zM2011 914q16 0 26.5 -10.5t10.5 -25.5t-10.5 -26t-26.5 -11h-330q-4 -122 -32 -235l308 -172q14 -8 17.5 -22.5t-4.5 -27.5t-22.5 -17t-28.5 4l-291 162
q-76 -238 -240 -385.5t-364 -147.5q-201 0 -364.5 147t-239.5 386l-291 -162q-14 -8 -28.5 -4t-22.5 17t-4.5 27.5t17.5 22.5l308 172q-28 113 -32 235h-330q-16 0 -26.5 11t-10.5 26t10.5 25.5t26.5 10.5h330q4 121 32 236l-308 171q-14 8 -17.5 22.5t4.5 27.5
q7 13 22.5 17.5t28.5 -3.5l291 -162q25 75 61 148q84 -81 236.5 -141t306.5 -60t306.5 60t236.5 141q36 -73 61 -148l291 162q13 8 28.5 3.5t22.5 -17.5q8 -13 4.5 -27.5t-17.5 -22.5l-308 -171q28 -115 32 -236h330z" />
<glyph unicode="&#x1f41f;" horiz-adv-x="2048" d="M1917 1024l120 -120q11 -11 11 -26t-10 -25t-24 -11q-56 -147 -186.5 -238.5t-291.5 -91.5q-19 0 -59 2q-33 59 -64.5 127.5t-63.5 180t-32 202.5t32 202.5t63.5 180t64.5 127.5q40 2 59 2q161 0 291.5 -91.5t186.5 -238.5q14 -1 24 -11t10 -25t-11 -26zM1397 1527
q-34 -56 -64.5 -120.5t-60 -173.5t-29.5 -209t29.5 -209t60 -173.5t64.5 -120.5q-245 30 -535 135.5t-449 219.5l-354 -283v1q-11 -9 -22 -9q-16 0 -26.5 11t-10.5 26v804q0 15 10.5 26t26.5 11q11 0 22 -9v1l354 -283q159 114 449 219.5t535 135.5zM1646 1134q30 0 51.5 21
t21.5 52q0 30 -21.5 51.5t-51.5 21.5q-31 0 -52 -21.5t-21 -51.5q0 -31 21 -52t52 -21z" />
<glyph unicode="&#x1f426;" horiz-adv-x="2048" d="M1609 1902q-30 0 -51.5 -21.5t-21.5 -51.5q0 -31 21.5 -52.5t51.5 -21.5q31 0 52 21.5t21 52.5q0 30 -21 51.5t-52 21.5zM2017 1697l28 -64l-69 13q0 1 -12.5 3t-36.5 4t-49 2q-36 0 -56.5 -1t-54 -10t-53.5 -27q-34 -30 -54 -55t-29.5 -44.5t-8 -45t7 -45.5t18.5 -56
q21 -56 33 -95t24.5 -119.5t12.5 -169.5q0 -104 -35.5 -191t-99.5 -150t-146 -106.5t-182 -68.5q-121 -38 -121 -191v-207h292q15 0 26 -10.5t11 -25.5q0 -16 -11 -26.5t-26 -10.5h-439q-15 0 -25.5 10.5t-10.5 26.5q0 15 10.5 25.5t25.5 10.5h74v220q0 113 -83 141
q-61 12 -168.5 21t-150.5 15q-24 3 -78 11.5t-82.5 12.5t-75 9t-92 7t-96.5 2q-46 0 -85 9t-61 21t-39 26.5t-23 23t-8 13.5l-16 33l134 67l-137 136h89q193 0 360.5 38.5t286 101.5t214.5 146.5t156 169.5t100.5 174.5t56.5 159t16 124.5q0 142 75.5 217.5t217.5 75.5
q65 0 128 -24.5t110 -63.5t85.5 -81t65.5 -84.5t40 -65.5t16 -32z" />
<glyph unicode="&#x1f441;" horiz-adv-x="2048" d="M1024 1573q115 0 241.5 -30.5t237 -79t212.5 -109.5t174.5 -121.5t115.5 -116t43 -92.5q0 -44 -59.5 -113.5t-165 -144t-232.5 -140t-279 -108t-288 -42.5t-288 42.5t-279 108t-232.5 140t-165 144t-59.5 113.5q0 37 43 92.5t115.5 116t174.5 121.5t212.5 109.5t237 79
t241.5 30.5zM1024 767q119 0 220 59t160 161t59 222q0 112 -56 213q-208 77 -383 77t-383 -77q-56 -101 -56 -213q0 -120 59 -222t160 -161t220 -59zM1024 1389q76 0 129.5 -53.5t53.5 -129.5t-53.5 -129.5t-129.5 -53.5t-129.5 53.5t-53.5 129.5t53.5 129.5t129.5 53.5z
" />
<glyph unicode="&#x1f44d;" horiz-adv-x="2048" d="M1971 555q11 -50 -14 -102t-85 -131q2 -7 11.5 -25.5t15 -33.5t4.5 -39.5t-15 -49.5q-97 -174 -617 -174q-281 0 -432.5 19t-265.5 61q-96 36 -194.5 50.5t-270.5 14.5v1q-14 1 -24.5 11.5t-10.5 24.5v732q0 15 11 25.5t26 10.5h2q84 0 128 21.5t77 82.5q25 45 41.5 73
t61 85.5t100.5 113.5q96 96 151 154.5t105 118.5t72.5 104.5t35 91.5t12.5 101q0 74 40.5 113.5t97.5 39.5q89 0 157 -82.5t68 -215.5q0 -147 -112 -344q-8 -13 -12 -20.5t-10.5 -19.5t-10.5 -20t-8.5 -18t-7 -17t-4.5 -14.5t-1.5 -13.5t2.5 -10q11 -22 85 -35
q103 -16 309 30q69 15 118 21.5t103 1t96 -26.5q44 -23 60.5 -75.5t-1.5 -129.5q109 -62 109 -202q0 -126 -58 -192q37 -34 55 -111z" />
<glyph unicode="&#x1f44e;" horiz-adv-x="2048" d="M1259 297q0 -133 -68 -215.5t-157 -82.5q-57 0 -97.5 39.5t-40.5 113.5q0 54 -12.5 101t-35 91.5t-72.5 104.5t-105 118.5t-151 154.5q-56 56 -100.5 113.5t-61 85.5t-41.5 73q-33 61 -77 82t-128 22l-2 -1q-15 0 -25.5 10.5t-11.5 25.5v732q0 14 10.5 24.5t24.5 11.5v1
q172 0 270.5 14.5t194.5 50.5q114 42 265.5 61t432.5 19q520 0 617 -174q14 -25 15 -49.5t-4.5 -39.5t-15 -33.5t-11.5 -25.5q60 -79 85 -131t14 -102q-17 -75 -55 -111q58 -66 58 -191q0 -141 -109 -203q19 -76 2 -129t-61 -75q-42 -22 -96 -27t-103.5 1t-117.5 22
q-207 46 -309 29q-75 -12 -85 -35q-11 -22 52 -132q112 -197 112 -344z" />
<glyph unicode="&#x1f451;" horiz-adv-x="2048" d="M1865 1682q76 0 129.5 -53.5t53.5 -129.5q0 -56 -31.5 -102.5t-82.5 -66.5l-168 -672h-1484l-168 672q-51 20 -82.5 66.5t-31.5 102.5q0 76 53.5 129.5t129.5 53.5t129.5 -53.5t53.5 -129.5q0 -24 -11 -59l332 -387l178 357q-24 43 -24 89q0 76 53.5 129.5t129.5 53.5
t129.5 -53.5t53.5 -129.5q0 -46 -24 -89l178 -357l332 387q-11 35 -11 59q0 76 53.5 129.5t129.5 53.5zM1463 731q30 0 51.5 21.5t21.5 52.5q0 30 -21.5 51.5t-51.5 21.5q-31 0 -52 -21.5t-21 -51.5q0 -31 21 -52.5t52 -21.5zM1170 731q31 0 52 21.5t21 52.5q0 30 -21 51.5
t-52 21.5q-30 0 -51.5 -21.5t-21.5 -51.5q0 -31 21.5 -52.5t51.5 -21.5zM878 731q30 0 51.5 21.5t21.5 52.5q0 30 -21.5 51.5t-51.5 21.5q-31 0 -52 -21.5t-21 -51.5q0 -31 21 -52.5t52 -21.5zM585 731q31 0 52 21.5t21 52.5q0 30 -21 51.5t-52 21.5q-30 0 -51.5 -21.5
t-21.5 -51.5q0 -31 21.5 -52.5t51.5 -21.5zM239 585h1570q20 -35 20 -73q0 -61 -43 -103.5t-104 -42.5h-1316q-61 0 -104 42.5t-43 103.5q0 38 20 73z" />
<glyph unicode="&#x1f453;" horiz-adv-x="2048" d="M2011 1061q16 0 26.5 -11t10.5 -26t-10.5 -25.5t-26.5 -10.5h-111q-14 -155 -129 -260.5t-272 -105.5q-167 0 -284.5 118t-117.5 284q0 20 4 56q-1 1 -3 5q-3 6 -9 14.5t-25.5 22.5t-40.5 14q-8 0 -15 -1.5t-13 -4.5t-12 -7t-10.5 -8.5l-8.5 -8.5t-7 -8t-5 -7t-3 -5
l-1 -2l-2 -2q5 -32 5 -58q0 -166 -117.5 -284t-284.5 -118q-157 0 -272 105.5t-129 260.5h-111q-16 0 -26.5 10.5t-10.5 25.5t10.5 26t26.5 11h111q14 154 129 259.5t272 105.5q127 0 229.5 -72t145.5 -187q45 41 99 41q58 0 100 -42q44 116 146.5 188t229.5 72
q157 0 272 -105.5t129 -259.5h111z" />
<glyph unicode="&#x1f455;" horiz-adv-x="2048" d="M1609 293q0 -31 -21.5 -52t-51.5 -21h-1024q-30 0 -51.5 21t-21.5 52v1001l-240 -120v1q-8 -5 -16 -5q-25 0 -34 23l-146 365v1q-3 6 -3 14q0 22 20 32l439 220q10 4 16 4h256q16 0 27.5 -11t11.5 -26q14 -94 86 -156.5t168 -62.5t168 62.5t86 156.5q0 15 11.5 26
t27.5 11h256q6 0 16 -4l439 -220q20 -10 20 -32q0 -8 -3 -14v-1l-146 -365q-9 -23 -34 -23q-8 0 -16 5v-1l-240 120v-1001z" />
<glyph unicode="&#x1f45c;" horiz-adv-x="2048" d="M658 1609v-74h-73v74q0 181 128.5 309.5t310.5 128.5t310.5 -128.5t128.5 -309.5v-74h-73v74q0 151 -107 258t-259 107t-259 -107t-107 -258zM1755 1462l220 -1389q0 -31 -21.5 -52.5t-51.5 -21.5h-1756q-30 0 -51.5 21.5t-21.5 52.5l220 1389q0 31 21 52t52 21h219v-189
q-32 -11 -52.5 -39.5t-20.5 -63.5q0 -46 32 -78t78 -32q45 0 77 32t32 78q0 36 -20 64t-53 39v189h732v-189q-33 -11 -53 -39t-20 -64q0 -46 32 -78t77 -32q46 0 78 32t32 78q0 35 -20.5 63.5t-52.5 39.5v189h219q31 0 52 -21t21 -52z" />
<glyph unicode="&#x1f463;" horiz-adv-x="2048" d="M705 1974q14 2 25.5 -8.5t12.5 -25.5t-9 -26t-25 -13q-30 -1 -68 -8q-2 -1 -7 -1q-29 0 -36 30q-3 15 5.5 27.5t23.5 15.5q39 7 78 9zM908 1867q-31 11 -65 21q-15 4 -23 16.5t-4 27.5t16.5 22.5t27.5 4.5q39 -9 74 -24q14 -5 20.5 -19t1.5 -28q-10 -23 -35 -23
q-8 0 -13 2zM480 1918q14 6 28 0.5t21 -19.5q6 -14 0.5 -28t-19.5 -20q-26 -11 -62 -31q-10 -5 -18 -5q-21 0 -32 19q-8 13 -3.5 28t17.5 22q40 22 68 34zM1033 1805q-13 8 -16.5 23t4.5 28t23 16.5t28 -4.5q32 -20 63 -42q12 -9 14.5 -24t-6.5 -27q-11 -16 -30 -16
q-9 0 -21 7q-26 19 -59 39zM256 1683q-16 0 -26 10q-10 11 -10 26t10 26q18 18 56 52q12 10 27 8t25 -13q10 -12 8.5 -27t-13.5 -25q-25 -20 -51 -47q-11 -10 -26 -10zM1462 1346q-2 -15 -15 -23.5t-27 -5.5q-3 1 -7 3l-345 143q-27 12 -22 41q3 15 16 23l344 230q13 8 28 5
q12 -2 20 -12.5t8 -23.5h1v-373h-1v-7zM256 1609q28 0 54.5 -4.5t57 -17t53.5 -33.5t45.5 -54.5t32 -80.5t13.5 -110t-10 -144q-16 -112 -31.5 -263.5t-25.5 -270.5l-10 -119h-355q-19 92 -49.5 305t-30.5 353q0 63 1.5 106t7.5 93t17 82.5t29.5 65t45.5 51t66 30t89 11.5z
M1965 1205q49 -49 67.5 -99t13 -93.5t-39 -97t-71 -96t-100.5 -105.5q-140 -140 -501 -387l-250 251q2 3 72 86.5t161.5 197t159.5 203.5q66 88 131 140t116 67.5t99 8t80.5 -27t61.5 -48.5zM900 141q-24 24 -38.5 47t-17 47.5t-1.5 44t16.5 47t27 46t40 50t47 50.5t55.5 56
l258 -258l-52 -52t-45 -43.5t-42.5 -37.5t-37.5 -28t-37 -21.5t-33 -9.5t-34.5 -1.5t-33 10.5t-36 20t-36.5 33zM256 73q-46 0 -77.5 7.5t-51.5 32t-31 45.5t-16 73.5t-6 89t-1 118.5h366q0 -84 -1.5 -123.5t-10.5 -96.5t-27.5 -82t-54.5 -44.5t-89 -19.5z" />
<glyph unicode="&#x1f464;" horiz-adv-x="2048" d="M1024 2047q209 0 398.5 -81t326.5 -218t218 -326.5t81 -398.5q0 -208 -81 -397.5t-218 -327t-327 -218.5t-398 -81t-398 81t-327 218.5t-218 327t-81 397.5q0 209 81 398.5t218 326.5t326.5 218t398.5 81zM1024 73q194 0 367.5 73t305.5 205q-71 63 -161 114.5
t-137.5 69.5t-83.5 29q-34 28 -50.5 60.5t-19 62.5t10.5 71.5t29.5 76.5t45.5 88q5 10 17.5 32.5t18.5 34.5q71 143 42 237q15 55 19.5 133t-18.5 180t-81 164q-112 123 -329 71q-227 -2 -325 -139q-39 -55 -55.5 -126t-11.5 -138.5t12.5 -109t17.5 -73.5q-8 -27 -9 -53
t4 -47.5t11 -39t15.5 -32t14.5 -21.5t10 -13q10 -13 25 -37.5t38 -75.5t33.5 -100t-1 -107t-51.5 -101l-50 -22q-93 -41 -139 -62.5t-102 -52.5t-96 -62q132 -137 309 -213.5t374 -76.5z" />
<glyph unicode="&#x1f465;" horiz-adv-x="2048" d="M1317 534q35 -16 54.5 -25.5t54.5 -29.5t56 -37t47.5 -45t41.5 -57.5t26 -70t12 -85.5v-37h-1609v36q0 56 15.5 105.5t37 85t58 67.5t65.5 51t73 38.5t67 28t60 20.5q102 37 134 58q70 48 75 151v17q0 29 -6 57.5t-14.5 51.5t-21.5 45.5t-24.5 38.5t-25 31t-22.5 23.5
t-17 15.5l-9 8q-16 33 -19 41q-26 78 9 164q-11 28 -19.5 60.5t-18 86t-4 113.5t27.5 113q58 143 223 209q12 6 34 15t81 23.5t112 14.5q220 0 295 -216q11 -15 23.5 -36t29.5 -65t24.5 -89t1 -107t-33.5 -122q41 -100 -8 -200q-1 -1 -11.5 -11t-22 -22t-27.5 -30.5
t-29.5 -41t-26 -48.5t-19.5 -58t-7 -65q0 -38 5 -65t11 -44t22.5 -32.5t29 -23.5t39.5 -24q8 -5 29.5 -18t35.5 -21t37.5 -20.5t47.5 -22.5zM2047 330l1 -38h-382q-14 53 -43.5 99t-59 75t-75 58t-72 42t-70.5 33q-31 15 -57.5 29.5t-51 29t-34.5 20.5q-36 21 -48 32t-17 30
t-5 64q0 34 10.5 68t25.5 57.5t30.5 42t26.5 28.5l10 9l32 39q55 113 20 230q24 62 29.5 126t-2 112t-24.5 95.5t-31 73.5t-29 48l-21 47l6 2q6 3 16.5 7.5t24.5 9.5t31.5 10t36.5 9.5t41.5 7t43.5 2.5q192 0 257 -189q14 -19 27.5 -46.5t30.5 -77t13.5 -113.5t-31.5 -127
q33 -88 -8 -174q-1 -1 -17 -16.5t-31.5 -35t-33.5 -47t-29 -63.5t-11 -74q0 -52 10.5 -81.5t25.5 -42.5t53 -35q8 -4 31.5 -18.5t47 -27t49.5 -24.5q31 -14 47.5 -22t47.5 -25.5t48.5 -32.5t41 -39.5t36 -50.5t22 -61t10.5 -75z" />
<glyph unicode="&#x1f467;" horiz-adv-x="2048" d="M1024 2047q209 0 398.5 -81t326.5 -218t218 -326.5t81 -398.5q0 -208 -81 -397.5t-218 -327t-327 -218.5t-398 -81t-398 81t-327 218.5t-218 327t-81 397.5q0 209 81 398.5t218 326.5t326.5 218t398.5 81zM1024 73q185 0 351.5 67t296.5 189q-65 65 -162 129t-141 86.5
t-72 35.5q-1 0 -7 3.5t-15 12t-16 17.5q137 -5 296 86l57 34l-59 30q-19 9 -30.5 48.5t-16 128.5t-5.5 158.5t-1 216.5q0 88 -19 161t-49.5 121.5t-74 85t-86 56.5t-91 32.5t-84.5 16t-72 3.5q-220 0 -347.5 -128t-127.5 -348q0 -88 -0.5 -132t-2 -115.5t-5.5 -110.5
t-10.5 -85t-18 -73.5t-26.5 -42.5l-29 -30l33 -25q132 -99 288 -85q0 -22 -25 -35l-23 -11q-175 -78 -230.5 -111.5t-137.5 -116.5q131 -128 301.5 -198.5t360.5 -70.5z" />
<glyph unicode="&#x1f476;" horiz-adv-x="2048" d="M1215 37q-32 -37 -81 -37q-46 0 -78 32t-32 78q0 40 28 73l183 222l-121 180h-180l-121 -180l183 -222q28 -33 28 -73q0 -46 -32 -78t-78 -32q-49 0 -81 37l-312 341h1q-10 12 -10 24v220q0 10 7 20h-1l140 210v193l-84 -83q-39 -41 -99 -41q-58 0 -99 41t-41 99
q0 56 41 99l366 365q11 11 26 11h63q-100 89 -100 219q0 121 85.5 207t207.5 86t207.5 -86t85.5 -207q0 -130 -100 -219h63q15 0 26 -11l366 -365q41 -43 41 -99q0 -58 -41 -99t-99 -41q-60 0 -99 41l-84 83v-193l140 -210h-1q7 -10 7 -20v-220q0 -12 -10 -24h1z" />
<glyph unicode="&#x1f47b;" horiz-adv-x="2048" d="M1024 2048q179 0 341.5 -69.5t280 -187t187 -280t69.5 -341.5v-1133q0 -16 -11 -26.5t-26 -10.5t-25.5 10.5t-10.5 26.5q0 30 -27 51.5t-65 21.5q-37 0 -64 -21.5t-27 -51.5q0 -16 -11 -26.5t-26 -10.5t-25.5 10.5t-10.5 26.5q0 30 -32.5 51.5t-77.5 21.5
q-46 0 -78 -21.5t-32 -51.5q0 -16 -10.5 -26.5t-25.5 -10.5q-16 0 -26.5 10.5t-10.5 26.5q0 30 -32 51.5t-78 21.5q-45 0 -77 -21.5t-32 -51.5q0 -16 -11 -26.5t-26 -10.5t-26 10.5t-11 26.5q0 30 -32 51.5t-77 21.5q-46 0 -78 -21.5t-32 -51.5q0 -16 -10.5 -26.5
t-26.5 -10.5q-15 0 -25.5 10.5t-10.5 26.5q0 30 -32 51.5t-78 21.5q-45 0 -77.5 -21.5t-32.5 -51.5q0 -16 -10.5 -26.5t-25.5 -10.5t-26 10.5t-11 26.5q0 30 -27 51.5t-64 21.5q-38 0 -65 -21.5t-27 -51.5q0 -16 -10.5 -26.5t-25.5 -10.5t-26 10.5t-11 26.5v1133
q0 179 69.5 341.5t187 280t280 187t341.5 69.5zM658 1024q76 0 129.5 64t53.5 155t-53.5 155.5t-129.5 64.5t-129.5 -64.5t-53.5 -155.5t53.5 -155t129.5 -64zM1390 1024q76 0 129.5 64t53.5 155t-53.5 155.5t-129.5 64.5t-129.5 -64.5t-53.5 -155.5t53.5 -155t129.5 -64z
M1024 475q61 0 103.5 43t42.5 104t-42.5 103.5t-103.5 42.5t-103.5 -42.5t-42.5 -103.5t42.5 -104t103.5 -43z" />
<glyph unicode="&#x1f47d;" horiz-adv-x="2048" d="M1024 1975q-260 0 -463.5 -155.5t-273.5 -398.5q228 59 544 74q-26 50 -26 96q0 113 64 193.5t155 80.5t155 -80.5t64 -193.5q0 -46 -26 -96q316 -15 544 -74q-70 243 -273.5 398.5t-463.5 155.5zM929 1666q-10 -11 -6.5 -29.5t19.5 -34.5q17 -17 35.5 -20.5t29.5 7.5
q10 11 6.5 29.5t-19.5 34.5q-17 17 -35.5 20.5t-29.5 -7.5zM1052 1653q-16 -16 -20 -35t7 -29q11 -11 29.5 -7.5t35.5 20.5q16 16 19.5 34.5t-7.5 29.5t-29.5 7.5t-34.5 -20.5zM2048 1243q0 -85 -204 -153t-523 -92l278 -278q22 11 47 11q45 0 77 -32t32 -77q0 -46 -32 -78
t-77 -32q-25 0 -47 11l-136 -136v-204q0 -15 -11 -26t-26 -11t-25.5 11t-10.5 26v183h-183q-15 0 -26 10.5t-11 25.5t11 26t26 11h204l136 136q-11 22 -11 47q0 23 11 47l-324 323q-107 -5 -199 -5q-126 0 -268 10l-328 -328q11 -24 11 -47q0 -25 -11 -47l282 -282h204
q15 0 26 -11t11 -26t-11 -26t-26 -11h-183v-182q0 -16 -10.5 -26.5t-25.5 -10.5t-26 10.5t-11 26.5v204l-282 282q-22 -11 -47 -11q-45 0 -77.5 32t-32.5 78q0 45 32.5 77t77.5 32q25 0 47 -11l284 284q-294 28 -477 93t-183 146q0 85 206 154q43 185 160 333t289.5 233
t368.5 85t368.5 -85t289.5 -233t160 -333q206 -69 206 -154z" />
<glyph unicode="&#x1f480;" horiz-adv-x="2048" d="M1390 767q106 0 181 75t75 181t-75 181t-181 75t-181 -74.5t-75 -181.5q0 -106 75 -181t181 -75zM658 767q106 0 181 75t75 181q0 107 -75 181.5t-181 74.5t-181 -75t-75 -181t75 -181t181 -75zM658 1206q76 0 129.5 -53.5t53.5 -129.5q0 -75 -53.5 -128.5t-129.5 -53.5
t-129.5 53.5t-53.5 128.5q0 76 53.5 129.5t129.5 53.5zM1390 1206q76 0 129.5 -53.5t53.5 -129.5q0 -75 -53.5 -128.5t-129.5 -53.5t-129.5 53.5t-53.5 128.5q0 76 53.5 129.5t129.5 53.5zM1024 2047q209 0 398.5 -72.5t326.5 -194.5t218 -291.5t81 -355.5
q0 -229 -118 -426.5t-321 -323.5v-237q0 -61 -42.5 -104t-103.5 -43h-146v403q0 15 -11 25.5t-26 10.5t-26 -10.5t-11 -25.5v-403h-182v403q0 15 -11 25.5t-26 10.5t-26 -10.5t-11 -25.5v-403h-182v403q0 15 -11 25.5t-26 10.5t-26 -10.5t-11 -25.5v-403h-146
q-61 0 -103.5 43t-42.5 104v237q-203 126 -321 323.5t-118 426.5q0 186 81 355.5t218 291.5t326.5 194.5t398.5 72.5z" />
<glyph unicode="&#x1f48a;" horiz-adv-x="2048" d="M1609 1463q181 0 310 -128.5t129 -310.5t-129 -310.5t-310 -128.5h-1170q-182 0 -310.5 128.5t-128.5 310.5t128.5 310.5t310.5 128.5h1170zM987 658v732h-548q-151 0 -258.5 -107t-107.5 -259t107.5 -259t258.5 -107h548zM402 1243q0 31 21.5 52.5t51.5 21.5
q31 0 52.5 -21.5t21.5 -52.5q0 -30 -21.5 -51.5t-52.5 -21.5q-30 0 -51.5 21.5t-21.5 51.5zM256 1207q46 0 78 -32t32 -78q0 -45 -32 -77.5t-78 -32.5t-78 32.5t-32 77.5q0 46 32 78t78 32z" />
<glyph unicode="&#x1f48e;" horiz-adv-x="2048" d="M929 2047l-329 -585h-584l355 568h1q10 17 30 17h527zM2032 1462h-584l-329 585h527q20 0 30 -17h1zM1364 1462h-680l329 585h22zM18 1389h576l392 -1355l-2 -5zM1062 34l392 1355h576l-966 -1360zM670 1389h708l-354 -1223z" />
<glyph unicode="&#x1f4a1;" horiz-adv-x="2048" d="M1682 1353q0 -214 -112.5 -388t-293.5 -254q4 -10 4 -16v-73q0 -15 -10.5 -26t-26.5 -11h-438q-16 0 -26.5 11t-10.5 26v73q0 6 4 16q-181 80 -293.5 254t-112.5 388q0 189 88 349t239.5 253t330.5 93t330.5 -93t239.5 -253t88 -349zM1243 512q16 0 26.5 -10.5
t10.5 -26.5q0 -15 -10.5 -25.5t-26.5 -10.5h-438q-16 0 -26.5 10.5t-10.5 25.5q0 16 10.5 26.5t26.5 10.5h438zM1243 366q16 0 26.5 -11t10.5 -26t-10.5 -25.5t-26.5 -10.5h-438q-16 0 -26.5 10.5t-10.5 25.5t10.5 26t26.5 11h438zM1170 219q15 0 26 -10.5t11 -25.5t-11 -26
t-26 -11h-292q-15 0 -26 11t-11 26t11 25.5t26 10.5h292zM1061 73q15 0 25.5 -10.5t10.5 -25.5q0 -16 -10.5 -26.5t-25.5 -10.5h-74q-15 0 -25.5 10.5t-10.5 26.5q0 15 10.5 25.5t25.5 10.5h74z" />
<glyph unicode="&#x1f4a3;" horiz-adv-x="2048" d="M1317 1402q196 -86 317 -267.5t121 -403.5q0 -199 -98 -367t-266 -266t-367 -98t-367 98t-266 266t-98 367q0 222 121 403.5t317 267.5v24q0 61 43 104t104 43h111q4 76 27 141t57.5 110.5t78.5 82.5t91.5 59.5t94.5 39.5t89.5 24.5t75 12t51.5 5.5h19q15 0 25.5 -10.5
t10.5 -26.5q0 -15 -10.5 -25.5t-25.5 -10.5q-87 0 -160 -17t-123 -44t-90 -64.5t-63.5 -73.5t-40 -77.5t-23 -69.5t-10.5 -56h107q61 0 104 -43t43 -104v-24z" />
<glyph unicode="&#x1f4ac;" horiz-adv-x="2048" d="M1024 1938q208 0 398 -63.5t327 -171.5t218 -256.5t81 -312.5q0 -131 -51.5 -254t-146.5 -222t-220.5 -173.5t-282 -115t-323.5 -40.5q-105 0 -209 17q-59 -66 -142.5 -114.5t-160 -71t-144 -35t-108.5 -13.5l-41 -2q192 172 223 362q-204 111 -323 285t-119 377
q0 164 81 312.5t218 256.5t327 171.5t398 63.5z" />
<glyph unicode="&#x1f4b1;" horiz-adv-x="2048" d="M293 1865q121 0 206.5 -43t85.5 -104q0 -60 -85.5 -103t-206.5 -43t-207 43t-86 103q0 61 86 104t207 43zM1902 1718q60 0 103 -42.5t43 -103.5v-878q0 -60 -43 -103t-103 -43h-585q0 91 -107 155t-259 64q-184 0 -293 -88v1003q0 15 11 25.5t26 10.5h1207zM545 1572
q40 -35 40 -73q0 -61 -85.5 -103.5t-206.5 -42.5q-122 0 -207.5 42.5t-85.5 103.5q0 38 41 73q38 -33 105 -53t147 -20t146.5 19.5t105.5 53.5zM1755 1353q31 0 52.5 21t21.5 52q0 30 -21.5 51.5t-52.5 21.5q-30 0 -51.5 -21.5t-21.5 -51.5q0 -31 21.5 -52t51.5 -21z
M1170 841q121 0 207 85.5t86 206.5t-85.5 207t-207.5 86q-121 0 -206.5 -86t-85.5 -207t85.5 -206.5t206.5 -85.5zM1170 1353q91 0 155.5 -64.5t64.5 -155.5t-64.5 -155t-155.5 -64t-155 64t-64 155t64 155.5t155 64.5zM545 1353q40 -35 40 -74q0 -60 -85.5 -103t-206.5 -43
t-207 43t-86 103q0 39 41 74q38 -34 105 -54t147 -20q79 0 146 20t106 54zM545 1133q40 -34 40 -73q0 -61 -85.5 -103.5t-206.5 -42.5q-122 0 -207.5 42.5t-85.5 103.5q0 40 41 73q38 -33 105.5 -53t146.5 -20t146 20t106 53zM545 914q40 -35 40 -73q0 -61 -85.5 -104
t-206.5 -43t-207 43t-86 104q0 38 41 73q38 -33 105 -53t147 -20t146.5 19.5t105.5 53.5zM1755 767q31 0 52.5 21.5t21.5 52.5q0 30 -21.5 51.5t-52.5 21.5q-30 0 -51.5 -21.5t-21.5 -51.5q0 -31 21.5 -52.5t51.5 -21.5zM545 694q40 -34 40 -73q0 -61 -85.5 -103.5
t-206.5 -42.5q-122 0 -207.5 42.5t-85.5 103.5q0 40 41 73q38 -33 105.5 -53t146.5 -20t146 20t106 53zM951 694q121 0 206.5 -42.5t85.5 -103.5t-85.5 -103.5t-206.5 -42.5q-122 0 -207.5 42.5t-85.5 103.5t85.5 103.5t207.5 42.5zM1203 402q40 -35 40 -73
q0 -61 -85.5 -104t-206.5 -43t-207 43t-86 104q0 37 41 73q39 -34 105.5 -53.5t146.5 -19.5t146.5 19.5t105.5 53.5z" />
<glyph unicode="&#x1f4b3;" horiz-adv-x="2048" d="M1902 1718q60 0 103 -42.5t43 -103.5v-73h-2048v73q0 61 43 103.5t103 42.5h1756zM0 475v731h2048v-731q0 -61 -43 -103.5t-103 -42.5h-1756q-60 0 -103 42.5t-43 103.5zM256 767q-15 0 -26 -10.5t-11 -25.5t11 -26t26 -11h658q15 0 26 11t11 26t-11 25.5t-26 10.5h-658z
M1609 767v-219h220v219h-220zM256 621q-15 0 -26 -10.5t-11 -25.5q0 -16 11 -26.5t26 -10.5h366q15 0 25.5 10.5t10.5 26.5q0 15 -10.5 25.5t-25.5 10.5h-366z" />
<glyph unicode="&#x1f4b5;" horiz-adv-x="2048" d="M0 731v1024h805v-175q-84 -55 -133.5 -144t-49.5 -193t49.5 -193t133.5 -144v-175h-805zM878 731v1024h292v-1024h-292zM1243 1755h805v-1024h-805v175q84 55 133.5 144t49.5 193t-49.5 193t-133.5 144v175zM695 1243q0 146 110 245v-490q-52 46 -81 109.5t-29 135.5z
M1353 1243q0 -72 -29 -135.5t-81 -109.5v490q110 -99 110 -245zM329 1426q-76 0 -129.5 -53.5t-53.5 -129.5t53.5 -129.5t129.5 -53.5t129.5 53.5t53.5 129.5t-53.5 129.5t-129.5 53.5zM1719 1060q76 0 129.5 53.5t53.5 129.5t-53.5 129.5t-129.5 53.5t-129.5 -53.5
t-53.5 -129.5t53.5 -129.5t129.5 -53.5zM329 1133q-45 0 -77.5 32t-32.5 78q0 45 32.5 77.5t77.5 32.5q46 0 78 -32.5t32 -77.5q0 -46 -32 -78t-78 -32zM1719 1353q45 0 77.5 -32.5t32.5 -77.5q0 -46 -32.5 -78t-77.5 -32q-46 0 -78 32t-32 78q0 45 32 77.5t78 32.5z
M878 585v73h292v-73h-292zM0 585v73h805v-73h-805zM1243 585v73h805v-73h-805zM1243 438v73h805v-73h-805zM878 438v73h292v-73h-292zM0 438v73h805v-73h-805zM1243 292v73h805v-73h-805zM0 292v73h805v-73h-805zM878 292v73h292v-73h-292z" />
<glyph unicode="&#x1f4bb;" horiz-adv-x="2048" d="M1902 1975q60 0 103 -43t43 -103v-1098h-2048v1098q0 60 42.5 103t103.5 43h1756zM0 512v146h2048v-146q0 -61 -43 -103.5t-103 -42.5h-732v-220h147q15 0 25.5 -10.5t10.5 -25.5t-10.5 -26t-25.5 -11h-586q-15 0 -25.5 11t-10.5 26t10.5 25.5t25.5 10.5h147v220h-732
q-61 0 -103.5 42.5t-42.5 103.5z" />
<glyph unicode="&#x1f4bc;" horiz-adv-x="2048" d="M1463 1755v-146h219v-1463h-1316v1463h219v146q0 61 43 104t103 43h586q60 0 103 -43t43 -104zM1390 1609v146q0 31 -21.5 52.5t-51.5 21.5h-586q-30 0 -51.5 -21.5t-21.5 -52.5v-146h732zM0 1463q0 61 42.5 103.5t103.5 42.5h147v-1463h-147q-61 0 -103.5 43t-42.5 104
v1170zM1902 1609q60 0 103 -42.5t43 -103.5v-1170q0 -61 -43 -104t-103 -43h-147v1463h147z" />
<glyph unicode="&#x1f4be;" horiz-adv-x="2048" d="M1755 2047l293 -292v-1609q0 -61 -43 -104t-103 -43h-1756q-60 0 -103 43t-43 104v1755q0 61 43 103.5t103 42.5h1609zM585 1755v-512h878v512h-878zM1243 1316v366h147v-366h-147zM1682 73v804h-1316v-804h1316zM1207 658q-15 0 -26 10.5t-11 25.5t11 26t26 11t25.5 -11
t10.5 -26t-10.5 -25.5t-25.5 -10.5zM549 658q-16 0 -26.5 10.5t-10.5 25.5t10.5 26t26.5 11h512q15 0 25.5 -11t10.5 -26t-10.5 -25.5t-25.5 -10.5h-512zM549 438q-16 0 -26.5 11t-10.5 26t10.5 25.5t26.5 10.5h950q16 0 26.5 -10.5t10.5 -25.5t-10.5 -26t-26.5 -11h-950z
" />
<glyph unicode="&#x1f4bf;" horiz-adv-x="2048" d="M1975 2048q30 0 51.5 -21.5t21.5 -51.5v-1902q0 -30 -21.5 -51.5t-51.5 -21.5h-1902q-30 0 -51.5 21.5t-21.5 51.5v1902q0 30 21.5 51.5t51.5 21.5h1902zM500 220q99 0 186.5 44t139.5 116.5t52 153.5v1151l731 67v-984q-81 73 -209 73q-152 0 -264.5 -96.5
t-112.5 -216.5q0 -102 80.5 -168.5t201.5 -66.5q151 0 264 95t113 219v1185q0 15 -10.5 26t-25.5 11h-1q-82 -8 -807 -74q-14 -2 -23.5 -12t-9.5 -24v-1024q-81 73 -210 73q-152 0 -264.5 -96.5t-112.5 -216.5q0 -102 80.5 -168.5t201.5 -66.5zM1608 603q0 -91 -90 -164
t-211 -73q-93 0 -151 47.5t-58 117.5q0 91 89.5 164t210.5 73q94 0 152 -47.5t58 -117.5zM804 530q0 -90 -90.5 -163.5t-211.5 -73.5q-93 0 -151 47.5t-58 117.5q0 91 89.5 164t210.5 73q94 0 152.5 -47.5t58.5 -117.5z" />
<glyph unicode="&#x1f4c1;" horiz-adv-x="2048" d="M1902 1755q60 0 103 -43t43 -103v-74h-2048v220q0 61 43 103.5t103 42.5h403q61 0 113 -23t83 -50t76 -50t93 -23h988zM0 292v1170h2048v-1170q0 -61 -43 -103.5t-103 -42.5h-1756q-60 0 -103 42.5t-43 103.5z" />
</font>
</defs>
</svg>
