<?xml version="1.0" encoding="utf-8"?>
<!-- Generator: Adobe Illustrator 21.1.0, SVG Export Plug-In . SVG Version: 6.00 Build 0)  -->
<svg version="1.1" id="Layer_1" xmlns="http://www.w3.org/2000/svg" xmlns:xlink="http://www.w3.org/1999/xlink" x="0px" y="0px"
	 viewBox="0 0 100.3 101" style="enable-background:new 0 0 100.3 101;" xml:space="preserve">
<style type="text/css">
	.st0{fill:#86C652;stroke:#FFFFFF;stroke-width:3;}
	.st1{fill:#FFFFFF;}
</style>
<title>coin-icon</title>
<path class="st0" d="M98.8,50.5C98.6,23.6,76.7,2,49.8,2.2S1.3,24.3,1.5,51.2c0.2,26.7,21.9,48.3,48.7,48.3
	C77.1,99.4,98.9,77.5,98.8,50.5z"/>
<path class="st1" d="M62.4,46.7c-1.1,0-2.1,0-3.2,0.1V34c0-3.9-8.2-5.6-15.9-5.6S27.5,30.1,27.5,34v30.5c0,3.8,8.2,5.6,15.9,5.6
	c1.1,0,2.1,0,3.2-0.1v0.6c0,3.8,8.2,5.6,15.9,5.6c1.8,0,3.6-0.1,5.3-0.3c3.2-0.4,10.6-1.6,10.6-5.3V52.3
	C78.2,48.4,70,46.7,62.4,46.7z M33.3,32c3.3-0.9,6.6-1.3,10-1.2c3.4-0.1,6.7,0.4,10,1.2c2.8,0.9,3.4,1.8,3.4,2s-0.6,1.1-3.4,2
	c-3.3,0.9-6.6,1.3-10,1.2c-3.4,0.1-6.7-0.4-10-1.2c-2.9-0.9-3.4-1.8-3.4-2S30.5,32.9,33.3,32z M29.9,37.1c3,1.7,8.4,2.4,13.5,2.4
	s10.5-0.8,13.5-2.4V40c0,0.2-0.6,1.1-3.4,2c-3.3,0.9-6.6,1.3-10,1.2c-3.4,0.1-6.7-0.4-10-1.2c-2.9-0.9-3.4-1.8-3.4-2L29.9,37.1z
	 M29.9,43.2c3,1.7,8.4,2.4,13.5,2.4s10.5-0.8,13.5-2.4v2.9c0,0.1-0.2,0.5-1,1c-2.3,0.3-4.5,0.9-6.6,1.9c-1.9,0.3-3.9,0.4-5.8,0.4
	c-3.4,0.1-6.7-0.4-10-1.2c-2.9-0.8-3.4-1.8-3.4-2L29.9,43.2z M29.9,49.3c3,1.7,8.4,2.4,13.5,2.4c1.1,0,2.2,0,3.3-0.1
	c-0.1,0.2-0.1,0.4-0.1,0.6v3.1c-1,0.1-2.1,0.1-3.2,0.1c-3.4,0.1-6.7-0.4-10-1.2c-2.9-0.9-3.4-1.8-3.4-2L29.9,49.3z M29.9,55.4
	c3,1.7,8.4,2.4,13.5,2.4c1.1,0,2.1,0,3.2-0.1v3.7c-1,0.1-2.1,0.1-3.2,0.1c-3.4,0.1-6.7-0.4-10-1.2c-2.9-0.9-3.4-1.8-3.4-2L29.9,55.4
	z M43.3,67.6c-3.4,0.1-6.7-0.4-10-1.2c-2.9-0.9-3.4-1.8-3.4-2v-2.9c3,1.7,8.4,2.4,13.5,2.4c1.1,0,2.1,0,3.2-0.1v3.7
	C45.5,67.6,44.4,67.6,43.3,67.6z M75.8,70.6c0,0.5-2.1,2.2-8.4,2.9c-1.7,0.2-3.3,0.3-5,0.3c-3.4,0.1-6.8-0.4-10.1-1.2
	c-2.8-0.9-3.4-1.8-3.4-2v-2.9c3,1.7,8.4,2.4,13.5,2.4s10.5-0.8,13.5-2.4L75.8,70.6L75.8,70.6z M75.8,64.5c0,0.2-0.6,1.1-3.4,2
	c-3.3,0.9-6.6,1.3-10,1.2c-3.4,0.1-6.7-0.4-10-1.2c-2.8-0.9-3.4-1.8-3.4-2v-3c3,1.7,8.4,2.4,13.5,2.4s10.4-0.8,13.4-2.4L75.8,64.5
	L75.8,64.5z M75.8,58.4c0,0.2-0.6,1.1-3.4,2c-3.3,0.9-6.6,1.3-10,1.2c-3.4,0.1-6.7-0.4-10-1.2c-2.8-0.9-3.4-1.8-3.4-2v-2.9
	c3,1.7,8.4,2.4,13.5,2.4S73,57.1,76,55.5L75.8,58.4z M72.4,54.2c-3.3,0.9-6.6,1.3-10,1.2c-3.4,0.1-6.7-0.4-10-1.2
	c-2.8-0.9-3.4-1.8-3.4-2s0.6-1.1,3.4-2c3.3-0.9,6.6-1.3,10-1.2c3.4-0.1,6.7,0.4,10,1.2c2.8,0.9,3.4,1.8,3.4,2S75.2,53.3,72.4,54.2
	L72.4,54.2z"/>
</svg>
