<?xml version="1.0" standalone="no"?>

<!DOCTYPE svg PUBLIC "-//W3C//DTD SVG 20010904//EN"
 "http://www.w3.org/TR/2001/REC-SVG-20010904/DTD/svg10.dtd">
<svg version="1.0" xmlns="http://www.w3.org/2000/svg"
 width="1992.000000pt" height="2048.000000pt" viewBox="0 0 1992.000000 2048.000000"
 preserveAspectRatio="xMidYMid meet">

<g transform="translate(0.000000,2048.000000) scale(0.100000,-0.100000)"
fill="#bc3333" stroke="none" style="background: #fff">
<path d="M11545 20470 c-104 -15 -187 -40 -280 -85 -174 -85 -285 -218 -339
-406 -13 -47 -86 -447 -252 -1379 -58 -324 -84 -463 -88 -467 -3 -4 -23 -1
-180 26 -33 6 -62 8 -65 6 -5 -6 -62 -318 -58 -320 2 -2 54 -12 458 -85 91
-16 173 -30 181 -30 12 0 21 28 37 113 11 63 21 124 21 135 0 12 3 22 8 22 4
-1 30 -37 57 -81 112 -180 279 -301 475 -345 115 -26 295 -24 394 5 139 39
248 103 352 206 174 172 276 380 325 663 64 379 -34 721 -271 934 -120 109
-276 176 -461 198 -205 24 -352 -21 -547 -168 -40 -30 -75 -53 -77 -50 -4 4
64 397 81 463 22 92 107 202 191 247 91 49 152 61 297 55 181 -6 306 -44 389
-116 44 -39 99 -145 123 -238 l17 -69 191 -34 c105 -18 204 -36 220 -38 l29
-5 -8 88 c-25 307 -182 508 -502 645 -208 88 -527 137 -718 110z m247 -1231
c164 -36 273 -139 335 -316 24 -71 27 -91 27 -223 0 -112 -5 -166 -21 -236
-66 -282 -195 -460 -381 -526 -77 -27 -230 -22 -314 11 -88 34 -170 101 -227
186 -63 95 -90 166 -109 293 -14 88 -14 117 -3 205 40 323 219 543 496 610 38
9 144 7 197 -4z"/>
<path d="M9790 19929 c-36 -3 -104 -10 -152 -14 l-88 -7 1 -46 c0 -26 6 -98
13 -160 7 -62 11 -114 10 -115 -2 -1 -43 36 -92 83 -102 98 -184 149 -297 187
-73 24 -95 27 -235 27 -179 1 -237 -11 -368 -75 -146 -71 -256 -196 -318 -359
-26 -69 -28 -86 -28 -220 -1 -164 10 -215 72 -334 65 -125 170 -219 300 -270
133 -53 243 -70 527 -86 105 -5 219 -15 255 -21 198 -31 270 -93 270 -233 0
-62 -31 -125 -89 -179 -88 -82 -188 -117 -334 -117 -211 0 -384 95 -486 268
-37 61 -47 72 -70 71 -49 -1 -281 -26 -286 -31 -5 -5 36 -471 52 -591 l6 -48
41 5 c22 3 93 11 156 17 63 6 116 12 117 13 2 1 -2 55 -9 119 -6 65 -8 120 -5
123 3 4 27 -12 54 -34 182 -152 353 -213 556 -199 219 16 381 87 508 224 181
196 200 521 43 729 -136 180 -326 254 -705 274 -420 22 -533 55 -591 169 -69
135 -13 306 129 400 193 128 511 81 712 -105 55 -50 141 -169 141 -194 0 -5 7
-10 15 -10 31 0 309 31 313 35 2 2 -6 106 -18 232 -11 125 -26 282 -32 348 -6
66 -13 123 -17 126 -3 3 -35 2 -71 -2z"/>
<path d="M13490 19155 c-41 -79 -72 -146 -70 -148 3 -2 50 -28 105 -57 55 -29
102 -55 104 -56 4 -4 -76 -162 -174 -344 -34 -63 -86 -162 -115 -220 -29 -58
-56 -109 -60 -115 -4 -5 -43 -80 -88 -165 -189 -364 -202 -399 -202 -540 0
-300 225 -548 560 -616 150 -30 364 -3 526 67 26 11 49 18 51 16 2 -3 -20 -49
-48 -103 -29 -55 -63 -119 -75 -143 l-23 -45 28 -17 c16 -10 143 -77 282 -150
140 -72 259 -136 265 -140 15 -12 20 -5 103 153 l72 138 -111 55 c-60 30 -110
58 -110 61 0 7 163 324 225 439 18 33 62 116 98 185 35 69 115 222 178 340 62
118 126 241 142 272 l30 58 113 -59 112 -59 77 145 c42 80 73 149 68 153 -8 7
-239 130 -488 260 -66 34 -164 85 -217 113 -53 29 -99 49 -101 47 -3 -3 -39
-69 -80 -148 l-75 -142 109 -56 c60 -31 109 -60 109 -66 0 -8 -83 -169 -307
-593 -35 -66 -75 -143 -89 -171 -61 -121 -162 -218 -291 -279 -104 -49 -183
-68 -293 -68 -158 -1 -285 57 -351 161 -41 65 -52 113 -47 208 5 99 4 96 310
680 119 225 251 477 294 559 43 83 88 168 101 190 l22 39 -62 34 c-34 18 -145
76 -247 129 -102 53 -204 107 -228 120 -23 12 -46 23 -50 23 -4 0 -41 -65 -82
-145z"/>
<path d="M5660 18874 c-14 -2 -59 -9 -100 -16 -235 -36 -527 -185 -725 -370
-164 -153 -265 -332 -326 -578 -21 -84 -23 -118 -23 -290 0 -178 3 -206 28
-315 98 -420 361 -832 684 -1075 155 -115 363 -204 541 -230 49 -8 139 -11
224 -8 236 8 424 69 655 210 277 169 469 419 550 715 24 91 26 113 26 303 0
174 -3 220 -21 300 -66 295 -219 607 -413 845 -204 249 -476 423 -762 486 -83
18 -287 32 -338 23z m121 -428 c282 -46 539 -257 733 -604 145 -259 216 -493
216 -713 0 -280 -150 -519 -405 -643 -145 -71 -258 -93 -396 -75 -186 23 -336
105 -510 278 -313 314 -515 798 -471 1131 13 94 47 201 85 269 104 182 327
327 553 360 86 13 100 12 195 -3z"/>
<path d="M15975 17701 c-54 -65 -101 -123 -103 -129 -1 -5 30 -38 70 -73 40
-34 79 -68 87 -75 11 -10 -29 -62 -220 -285 -129 -151 -265 -310 -304 -354
-144 -166 -620 -726 -623 -734 -3 -8 482 -426 496 -426 4 0 55 54 112 119
l103 119 -34 31 c-19 17 -61 55 -93 83 l-60 53 44 52 c51 61 330 387 345 404
5 6 82 96 170 200 88 103 180 211 205 239 25 28 76 88 114 133 38 45 71 82 74
82 2 0 46 -36 98 -81 l94 -81 24 29 c13 15 60 71 105 123 44 52 81 98 81 102
0 6 -675 588 -682 588 -2 0 -48 -54 -103 -119z"/>
<path d="M3100 17135 l-314 -316 119 -119 119 -120 84 83 c45 45 86 81 90 80
4 -1 147 -140 318 -310 301 -299 312 -311 357 -399 108 -210 117 -424 26 -595
-42 -78 -124 -167 -204 -219 -36 -24 -65 -46 -65 -50 0 -3 62 -67 138 -143
l137 -137 54 36 c147 99 244 242 266 394 17 110 8 188 -40 340 -47 147 -49
156 -42 150 3 -3 78 -76 166 -163 l161 -159 229 234 230 233 -92 93 c-51 51
-105 103 -120 114 l-29 21 -81 -81 -82 -81 -192 187 c-260 253 -843 835 -843
842 0 3 38 43 85 90 l84 84 -117 113 c-64 62 -119 113 -122 113 -3 0 -147
-142 -320 -315z"/>
<path d="M17148 16716 c-159 -120 -151 -101 -83 -193 32 -43 65 -86 73 -95 13
-15 -6 -32 -205 -179 -937 -698 -889 -657 -964 -814 -80 -166 -75 -353 13
-525 39 -77 151 -215 213 -263 117 -90 233 -129 519 -174 l49 -8 -54 -41 c-30
-23 -189 -142 -354 -264 -417 -310 -510 -381 -508 -389 2 -7 78 -111 301 -408
46 -62 88 -113 93 -113 6 0 33 18 62 39 35 28 54 36 58 28 4 -7 39 -102 77
-212 119 -337 294 -834 412 -1165 61 -173 129 -364 150 -425 51 -145 51 -145
61 -145 4 0 111 36 236 81 507 179 738 262 740 263 3 2 -108 318 -114 325 -2
4 -272 -89 -511 -176 -68 -25 -127 -41 -132 -37 -4 5 -35 88 -69 184 -34 96
-69 193 -77 214 -15 39 -9 55 20 56 5 0 59 18 120 40 111 39 567 201 876 310
406 143 664 235 779 276 68 24 129 44 136 44 7 0 27 -42 45 -92 75 -211 69
-200 99 -193 30 7 304 104 309 109 2 2 -38 120 -88 262 -50 143 -130 369 -177
504 -47 135 -87 247 -89 249 -6 7 -334 -113 -334 -123 0 -6 21 -73 47 -148 30
-87 44 -141 38 -146 -6 -5 -199 -75 -430 -157 -620 -218 -1468 -518 -1496
-529 -13 -6 -26 21 -69 146 -29 84 -65 185 -80 225 l-28 72 27 9 c95 35 625
222 627 222 3 0 -107 322 -112 328 -1 2 -132 -42 -291 -98 -158 -57 -355 -126
-438 -155 -82 -29 -163 -58 -179 -64 -44 -17 -41 -7 8 30 25 19 46 37 46 40 0
4 -31 50 -70 102 -38 52 -70 97 -70 100 0 3 69 56 153 118 83 63 303 226 487
363 473 352 530 395 755 561 110 82 253 188 317 236 l118 89 75 -100 c42 -55
78 -100 80 -100 12 0 260 193 257 201 -2 9 -179 249 -430 584 -58 77 -110 140
-116 139 -6 -1 -56 -35 -111 -76 -55 -41 -110 -81 -122 -89 -13 -7 -23 -18
-23 -24 0 -5 32 -52 70 -103 39 -51 70 -96 69 -100 0 -4 -46 -41 -102 -82
-123 -90 -558 -412 -607 -449 -104 -80 -207 -111 -365 -111 -276 0 -478 126
-531 329 -28 110 4 217 94 313 40 43 428 337 1026 776 99 74 187 140 195 147
12 12 -3 37 -99 167 -224 303 -274 368 -285 367 -5 -1 -58 -38 -117 -83z"/>
<path d="M1900 15744 c-284 -412 -350 -509 -350 -515 0 -3 42 -35 93 -70 50
-34 111 -76 134 -93 24 -16 44 -28 46 -25 2 2 32 46 66 97 34 50 64 92 66 92
5 0 121 -79 365 -248 80 -55 224 -155 320 -221 96 -67 283 -196 415 -288 345
-239 366 -253 375 -253 5 0 24 24 44 53 19 28 102 149 185 267 114 163 147
218 138 226 -20 19 -248 174 -256 174 -4 0 -36 -43 -72 -95 -35 -52 -69 -95
-76 -95 -6 0 -58 33 -115 73 -58 39 -180 124 -271 187 -92 63 -231 160 -310
214 -78 54 -221 153 -317 219 -96 66 -179 124 -184 128 -6 5 -2 18 11 31 41
46 125 180 116 188 -13 12 -260 180 -264 180 -2 0 -74 -102 -159 -226z"/>
<path d="M14522 15635 c-73 -86 -135 -161 -138 -168 -3 -8 62 -71 160 -155
l165 -142 116 136 c64 74 130 150 146 168 l29 33 -165 142 c-91 77 -169 141
-173 141 -4 0 -67 -70 -140 -155z"/>
<path d="M7780 14961 c-128 -34 -130 -35 -207 -84 -144 -90 -230 -240 -253
-442 -6 -59 -10 -1084 -10 -2947 l0 -2858 -247 0 c-276 0 -335 -9 -434 -61
-114 -61 -191 -157 -236 -293 l-23 -70 0 -1203 0 -1203 3590 0 3590 0 0 1194
c0 1146 -1 1197 -19 1271 -27 105 -66 180 -126 240 -122 120 -249 151 -680
164 l-210 6 -5 2900 c-5 2756 -6 2903 -23 2960 -55 182 -157 311 -299 378 -43
21 -84 37 -91 37 -8 0 -26 9 -40 21 -24 18 -38 20 -149 17 -215 -6 -400 -71
-508 -178 -62 -62 -130 -184 -149 -270 -7 -29 -11 -444 -11 -1186 0 -1258 3
-1187 -63 -1304 -39 -69 -126 -152 -192 -184 l-51 -24 -1010 -2 c-907 -3
-1013 -1 -1052 13 -100 38 -200 135 -255 246 l-32 66 -5 1190 -5 1190 -34 78
c-63 148 -178 266 -292 299 -262 78 -305 82 -469 39z m241 -491 c20 -6 42 -17
49 -25 9 -10 11 -289 10 -1147 -1 -1242 -2 -1205 59 -1364 60 -154 190 -334
308 -424 88 -66 206 -123 313 -152 l85 -22 1029 -3 c1132 -4 1126 -4 1284 57
121 47 199 98 297 195 100 100 174 213 225 347 67 174 63 93 64 1288 0 597 -1
1113 -4 1147 -6 81 13 104 94 111 66 5 107 -9 141 -50 l25 -30 0 -2954 0
-2954 -185 0 -185 0 0 913 c0 986 -1 990 -54 1095 -33 66 -114 148 -171 173
-111 49 -93 49 -1455 49 -787 0 -1308 -4 -1362 -10 -115 -13 -186 -41 -248
-97 -56 -50 -91 -110 -117 -200 -15 -52 -17 -158 -21 -990 l-4 -933 -189 0
-189 0 0 2956 c0 2157 3 2961 11 2977 28 54 100 72 190 47z m2720 -4250 c18
-10 19 -23 19 -181 l0 -169 -182 2 -183 3 -3 165 c-2 146 -1 166 15 177 21 16
305 18 334 3z m412 -3 c16 -11 17 -31 15 -177 l-3 -165 -190 0 c-184 0 -190 1
-187 20 2 11 6 85 9 165 4 117 8 147 21 158 22 17 311 17 335 -1z m-2125 -169
l-3 -173 -170 0 -170 0 -3 173 -2 172 175 0 175 0 -2 -172z m409 145 c4 -16 8
-93 8 -173 l0 -145 -177 -3 -176 -2 -2 175 -1 175 170 0 171 0 7 -27z m461
-145 l-3 -173 -175 0 -175 0 -3 173 -3 172 181 0 180 0 -2 -172z m404 162 c2
-5 2 -82 0 -170 l-3 -160 -169 0 -170 0 0 170 0 170 169 0 c102 0 171 -4 173
-10z m-862 -564 c0 -130 -3 -175 -12 -178 -7 -2 -85 -4 -173 -4 l-160 1 -3
165 c-1 90 0 170 2 177 4 10 46 13 176 13 l170 0 0 -174z m862 -6 l-1 -175
-170 -3 -171 -2 0 180 0 181 171 -3 171 -3 0 -175z m439 170 c18 -10 19 -23
19 -180 l0 -170 -185 0 -185 0 0 170 c0 150 2 170 18 179 23 14 308 14 333 1z
m412 -3 c16 -11 17 -31 15 -177 l-3 -165 -182 -3 -183 -2 0 169 c0 151 2 171
18 180 26 16 314 14 335 -2z m-2123 -172 l0 -175 -171 2 -170 3 0 168 c0 92 1
169 1 172 0 3 77 5 170 5 l170 0 0 -175z m866 3 l-1 -173 -173 0 -172 0 0 173
0 172 174 0 174 0 -2 -172z m-861 -475 l0 -168 -170 -5 c-93 -3 -173 -4 -177
-2 -5 2 -8 79 -8 173 l0 169 178 0 177 0 0 -167z m405 -8 l0 -175 -172 2 -173
3 -3 173 -2 172 175 0 175 0 0 -175z m456 3 l-1 -173 -172 -3 -173 -2 0 175 0
175 174 0 173 0 -1 -172z m414 2 l0 -170 -175 0 -174 0 -3 170 -3 170 178 0
177 0 0 -170z m448 0 c-2 -94 -6 -170 -10 -170 -5 0 -87 0 -183 0 l-175 0 0
170 0 170 185 0 185 0 -2 -170z m407 -3 l0 -172 -169 -3 c-116 -2 -173 1 -182
9 -11 9 -14 48 -14 175 l0 164 183 0 182 0 0 -173z m-1727 -405 l2 -172 -175
0 -175 0 0 168 c0 93 2 171 4 173 3 2 80 4 173 4 l168 -1 3 -172z m-408 -7 l0
-175 -169 0 c-127 0 -170 3 -172 13 -2 6 -3 85 -1 175 l3 162 169 0 170 0 0
-175z m862 158 c2 -10 4 -88 4 -173 l-1 -155 -172 -3 -172 -2 -3 22 c-2 13 -2
92 0 176 l3 152 168 0 c152 0 169 -2 173 -17z m408 -148 c0 -91 -1 -168 -2
-172 -2 -5 -79 -8 -173 -8 -93 0 -169 3 -167 8 1 4 2 81 2 172 l0 165 170 0
170 0 0 -165z m458 -7 l-3 -173 -180 0 -180 0 -3 173 -2 172 185 0 185 0 -2
-172z m410 0 l-3 -173 -169 -3 c-116 -2 -173 1 -182 9 -11 9 -14 48 -14 175
l0 164 185 0 185 0 -2 -172z"/>
<path d="M782 14640 c-149 -21 -265 -83 -393 -210 -132 -131 -215 -265 -296
-473 -61 -160 -86 -284 -86 -437 -1 -156 19 -246 80 -365 49 -93 163 -207 258
-257 39 -20 259 -111 490 -203 637 -253 1238 -491 1257 -498 15 -5 12 -18 -24
-109 -22 -57 -41 -111 -42 -121 -1 -15 29 -31 148 -78 82 -33 150 -59 151 -57
11 11 244 612 240 617 -4 3 -57 26 -120 51 -62 25 -113 50 -113 55 0 6 30 22
67 36 177 68 306 172 390 313 86 145 121 272 121 434 -1 236 -88 423 -286 612
-96 92 -175 145 -319 215 -211 102 -382 141 -590 132 -206 -9 -353 -58 -499
-168 -198 -151 -333 -442 -313 -678 7 -81 54 -229 102 -320 19 -36 33 -66 32
-68 -6 -6 -444 175 -482 199 -140 90 -207 247 -184 430 19 152 94 323 179 409
67 67 144 97 277 107 l87 7 78 195 c43 107 78 200 78 206 0 23 -187 38 -288
24z m1128 -811 c263 -67 487 -224 575 -402 85 -172 46 -377 -99 -523 -189
-189 -543 -208 -830 -44 -293 168 -413 480 -287 746 58 121 169 209 304 240
82 18 227 11 337 -17z"/>
<path d="M3834 14215 c-65 -96 -119 -180 -119 -186 0 -12 338 -249 355 -249 5
0 15 10 21 22 6 12 53 80 103 152 50 72 99 143 108 158 l17 26 -72 52 c-146
103 -286 200 -290 200 -2 0 -57 -79 -123 -175z"/>
<path d="M230 11897 c0 -13 -7 -64 -15 -113 -8 -49 -33 -210 -55 -359 -22
-148 -45 -296 -51 -328 -6 -33 -8 -61 -5 -64 3 -3 29 -10 58 -14 161 -26 261
-40 265 -35 3 2 12 55 21 116 l16 112 40 -6 c23 -3 221 -33 441 -66 220 -34
429 -66 464 -71 163 -24 739 -113 803 -124 22 -4 27 0 32 23 13 61 96 625 93
628 -8 8 -313 51 -318 45 -4 -3 -14 -58 -23 -121 -9 -63 -18 -116 -20 -118 -2
-1 -59 6 -127 17 -68 11 -243 39 -389 61 -663 101 -925 142 -928 144 -1 2 4
52 13 112 9 60 17 116 18 124 2 11 -29 19 -143 37 -190 28 -190 28 -190 0z"/>
<path d="M18661 11382 l-144 -15 6 -61 c4 -34 20 -187 36 -341 17 -154 36
-336 43 -404 9 -86 17 -125 26 -129 14 -5 323 26 330 33 4 3 -3 76 -48 495
-11 102 -25 232 -31 290 -6 58 -12 115 -15 128 -5 26 0 26 -203 4z"/>
<path d="M2601 11115 c-18 -119 -31 -219 -29 -221 8 -7 427 -69 432 -63 4 4
66 400 66 422 0 9 -54 21 -187 40 -104 16 -202 30 -218 33 l-31 5 -33 -216z"/>
<path d="M1907 10499 c-49 -4 -94 -10 -101 -12 -9 -4 -10 -34 -4 -122 5 -65 6
-120 4 -123 -5 -4 -147 -16 -511 -41 -82 -6 -312 -22 -510 -36 -198 -13 -376
-26 -395 -27 l-35 -3 -10 125 c-9 115 -12 125 -30 125 -72 -1 -306 -19 -309
-24 -2 -3 6 -150 19 -326 13 -176 27 -374 31 -440 4 -66 9 -123 10 -127 1 -5
2 -11 3 -16 0 -4 70 -2 154 5 83 6 158 12 165 12 11 1 12 19 7 89 -3 48 -8
104 -11 124 -7 45 -27 41 311 63 138 9 303 20 367 26 190 16 325 14 393 -5
225 -66 425 -263 465 -461 16 -77 7 -162 -24 -223 -48 -95 -161 -172 -283
-193 -32 -5 -350 -30 -708 -54 -357 -25 -680 -48 -717 -51 l-68 -7 0 -46 c0
-25 9 -167 20 -316 11 -148 20 -276 20 -284 0 -14 36 -13 259 6 l73 6 -7 123
-7 122 64 6 c34 3 131 10 213 16 173 12 800 56 925 66 172 13 292 61 400 161
120 110 178 242 187 419 9 172 -32 326 -127 468 -51 75 -201 228 -258 261 -17
11 -32 22 -32 26 0 12 46 17 188 25 l132 6 0 37 c0 20 -9 158 -20 306 -11 149
-20 282 -20 298 0 27 0 27 -67 26 -38 -1 -108 -5 -156 -10z"/>
<path d="M19588 9964 c-5 -4 -8 -40 -8 -79 0 -40 -3 -94 -7 -120 l-6 -48 -101
7 c-96 6 -600 31 -1546 76 -234 11 -506 24 -605 30 -99 5 -220 10 -270 12
l-90 3 -7 -125 c-4 -69 -11 -213 -17 -320 -6 -107 -7 -197 -3 -201 4 -4 80
-11 170 -15 l162 -7 2 104 c0 57 2 111 2 119 2 19 -46 20 886 -25 291 -14 481
-23 1154 -56 l249 -13 -6 -118 c-5 -88 -3 -120 6 -123 7 -2 81 -6 164 -9 l153
-6 4 22 c3 13 10 136 16 273 6 138 15 331 20 429 5 99 9 181 7 182 -7 7 -323
15 -329 8z"/>
<path d="M16865 8849 c-2 -8 -20 -97 -39 -199 -19 -102 -44 -231 -56 -288 -31
-161 -45 -143 135 -177 85 -15 158 -25 162 -22 3 4 16 55 27 114 l21 108 30
-2 c30 -1 104 -15 920 -173 231 -45 479 -92 550 -105 72 -14 162 -31 200 -39
39 -8 144 -29 235 -46 235 -44 301 -58 307 -63 3 -3 -5 -56 -17 -117 -11 -62
-20 -114 -18 -116 5 -5 320 -66 322 -62 4 5 20 86 76 378 28 146 61 319 74
385 13 66 20 122 15 126 -15 9 -308 63 -314 57 -3 -2 -15 -54 -27 -114 -11
-60 -24 -113 -29 -118 -4 -5 -134 16 -296 47 -158 31 -418 82 -578 112 -683
132 -1633 315 -1662 321 -23 5 -34 2 -38 -7z"/>
<path d="M1900 7845 c-47 -7 -91 -14 -97 -14 -7 -1 -13 -7 -13 -13 0 -7 33
-98 74 -203 l73 -190 109 0 c96 -1 116 -4 164 -26 73 -34 130 -94 179 -188 60
-116 84 -215 79 -325 -8 -169 -75 -248 -274 -325 -44 -17 -82 -31 -86 -31 -4
0 -50 84 -104 188 -128 247 -171 322 -271 475 -138 210 -275 335 -424 386 -89
31 -224 38 -314 17 -123 -29 -230 -88 -315 -175 -207 -210 -238 -518 -84 -824
65 -127 142 -214 267 -299 73 -49 225 -138 238 -138 5 0 9 -4 9 -9 0 -5 -56
-30 -125 -56 -69 -26 -125 -53 -125 -59 0 -6 37 -105 81 -221 44 -115 95 -248
112 -293 16 -46 35 -86 42 -88 9 -4 290 98 302 110 2 2 -14 51 -36 108 -22 56
-41 109 -43 116 -2 8 98 52 297 128 336 128 629 241 752 289 118 46 187 90
268 170 229 228 242 590 35 1010 -177 357 -454 530 -770 480z m-560 -718 c82
-40 175 -131 262 -257 66 -95 262 -430 255 -436 -13 -14 -304 -116 -354 -125
-242 -42 -546 151 -618 394 -57 192 62 409 250 458 52 13 136 -1 205 -34z"/>
<path d="M16433 6938 l-111 -233 76 -75 c43 -41 171 -164 287 -275 209 -199
352 -336 580 -555 66 -63 215 -205 330 -315 115 -110 264 -252 330 -315 66
-64 150 -145 187 -180 l68 -65 -50 -104 c-28 -57 -49 -105 -48 -106 2 -1 76
-36 165 -78 l161 -75 118 251 118 250 -164 156 c-91 86 -209 199 -263 251
l-99 95 35 75 c19 41 50 109 70 150 259 552 339 716 349 719 12 4 35 1 451
-50 136 -17 252 -29 258 -27 8 3 239 481 239 495 0 4 -281 139 -308 147 -16 5
-27 -10 -67 -99 -27 -58 -51 -105 -54 -105 -3 0 -274 32 -601 71 -327 38 -651
76 -720 84 -69 8 -370 44 -670 80 -299 36 -547 65 -550 65 -4 0 -56 -105 -117
-232z m707 -243 c107 -14 319 -41 470 -61 151 -19 342 -43 424 -54 81 -10 150
-21 152 -22 5 -6 -334 -722 -344 -726 -4 -1 -19 8 -32 20 -34 30 -430 398
-505 469 -33 31 -141 131 -240 223 -99 92 -182 172 -184 177 -2 6 10 8 30 4
19 -3 122 -17 229 -30z"/>
<path d="M3763 6442 c-72 -48 -132 -90 -132 -95 -1 -4 24 -45 54 -92 31 -47
58 -91 61 -99 3 -9 -28 -35 -92 -77 -277 -182 -536 -352 -1069 -700 -165 -107
-394 -258 -510 -334 -115 -76 -217 -140 -225 -142 -10 -2 -35 28 -75 91 -33
52 -63 95 -67 95 -5 1 -259 -160 -276 -174 -2 -2 49 -84 113 -182 64 -98 176
-269 249 -380 l133 -202 137 90 c97 63 136 94 132 104 -3 8 -32 55 -66 104
-33 50 -60 92 -60 94 0 3 113 78 250 168 267 175 403 263 787 515 133 88 352
230 485 317 658 429 669 437 661 451 -37 62 -349 536 -353 535 -3 0 -64 -40
-137 -87z"/>
<path d="M14832 4980 c-330 -250 -428 -430 -339 -624 26 -57 66 -107 270 -345
54 -63 96 -117 95 -121 -2 -5 -192 -171 -245 -214 -1 -1 36 -47 83 -101 48
-55 95 -110 105 -123 10 -12 23 -22 28 -22 5 0 63 45 128 100 65 55 121 100
124 100 7 0 49 -50 648 -750 l304 -354 -59 -51 c-32 -27 -74 -64 -93 -81 l-35
-31 108 -127 108 -126 41 36 c23 20 80 68 126 108 47 39 95 80 107 91 13 11
113 97 223 190 110 94 200 173 200 177 1 8 -197 242 -209 246 -5 2 -51 -33
-102 -77 -51 -45 -96 -81 -100 -81 -4 0 -173 194 -375 432 -202 237 -414 484
-470 549 -57 64 -103 120 -103 123 0 2 52 49 116 103 63 54 128 109 144 123
l29 26 -109 127 -109 127 -88 -76 c-48 -42 -114 -98 -145 -125 l-57 -50 -127
148 c-144 169 -172 217 -155 272 14 46 41 75 165 173 55 44 103 82 105 84 3 3
-101 129 -170 207 l-34 37 -133 -100z"/>
<path d="M4755 4793 c-33 -48 -77 -112 -97 -141 -21 -30 -38 -58 -38 -63 0 -4
50 -42 110 -84 106 -73 121 -87 101 -99 -5 -4 -49 -63 -98 -134 -49 -70 -195
-277 -324 -460 -129 -183 -274 -390 -324 -461 -297 -424 -431 -611 -438 -611
-4 0 -58 35 -119 77 -97 67 -112 74 -122 60 -20 -30 -84 -121 -140 -199 -49
-70 -53 -78 -38 -91 10 -8 85 -61 167 -119 83 -57 260 -182 394 -277 l244
-173 19 24 c10 12 39 54 65 91 27 37 65 91 86 119 20 29 37 55 37 58 0 4 -47
39 -105 79 -57 39 -107 76 -110 81 -3 5 92 148 212 317 119 169 233 331 252
360 20 29 40 52 44 53 8 0 47 -26 367 -251 74 -53 221 -155 325 -229 248 -174
234 -164 235 -174 0 -4 -13 -25 -28 -45 -27 -34 -300 -421 -407 -576 -83 -121
-65 -119 -195 -25 -62 44 -116 77 -120 73 -39 -42 -201 -286 -194 -293 5 -4
65 -47 134 -96 69 -48 184 -129 255 -179 72 -50 153 -107 180 -127 28 -19 93
-65 145 -102 52 -36 97 -65 101 -64 4 2 49 62 99 133 51 72 96 135 102 141 6
8 -24 36 -99 89 -59 43 -108 83 -107 89 1 6 24 43 51 81 44 61 263 372 642
910 117 167 217 309 370 525 56 80 106 151 111 159 6 11 33 -3 120 -64 108
-74 114 -77 127 -59 84 112 193 278 185 283 -5 3 -143 101 -306 216 -163 116
-344 243 -401 283 l-104 72 -39 -52 c-21 -29 -68 -96 -104 -149 l-67 -96 107
-74 c58 -41 110 -77 115 -80 5 -4 -62 -107 -149 -230 -87 -123 -191 -271 -231
-329 -41 -58 -78 -106 -82 -108 -4 -1 -73 44 -153 100 -149 106 -211 150 -553
390 -110 77 -205 145 -212 152 -9 8 24 61 133 216 80 113 184 260 231 328 47
67 90 122 95 122 5 0 52 -31 106 -68 53 -37 102 -71 109 -75 7 -4 47 43 107
128 53 74 99 141 102 149 5 14 -20 33 -401 301 -320 226 -406 285 -413 285 -4
-1 -34 -40 -67 -87z"/>
<path d="M16829 4698 c-24 -29 -46 -55 -49 -58 -3 -3 -76 -88 -162 -190 -86
-102 -199 -236 -252 -298 -53 -63 -96 -117 -96 -121 0 -4 32 -34 72 -66 39
-33 96 -81 127 -108 30 -26 58 -46 62 -45 6 3 104 118 264 309 22 26 85 100
140 165 55 64 124 145 152 180 l53 62 -118 99 c-64 54 -124 104 -133 111 -14
11 -23 5 -60 -40z"/>
<path d="M13960 3234 c-257 -44 -445 -138 -611 -303 -129 -129 -209 -272 -255
-451 -15 -60 -19 -108 -18 -235 1 -145 4 -171 32 -277 103 -394 398 -748 732
-877 200 -78 439 -81 644 -10 411 144 675 503 676 919 0 202 -45 384 -146 584
-165 328 -417 550 -710 627 -76 20 -283 34 -344 23z m215 -388 c134 -51 253
-156 359 -316 154 -232 225 -444 214 -637 -13 -210 -119 -366 -310 -452 -179
-81 -347 -58 -534 75 -148 105 -298 332 -374 569 -42 131 -52 294 -25 403 33
138 127 255 255 321 66 33 93 43 185 65 44 11 166 -5 230 -28z"/>
<path d="M9320 2990 c-168 -3 -306 -7 -307 -8 -5 -4 -3 -137 4 -235 l6 -99
108 3 c59 2 110 1 114 -3 3 -3 10 -230 15 -504 24 -1343 31 -1767 27 -1771 -3
-2 -55 -7 -116 -10 l-111 -6 0 -163 0 -164 128 0 c71 0 217 3 325 7 l197 6 0
149 0 150 93 -95 c125 -128 233 -192 387 -229 79 -19 280 -15 360 6 279 75
473 267 584 575 126 350 102 831 -55 1143 -176 350 -470 521 -824 479 -202
-23 -305 -78 -476 -253 l-96 -99 -7 423 c-9 602 -14 709 -35 706 -9 -1 -153
-5 -321 -8z m1043 -1125 c224 -58 356 -252 398 -580 18 -147 7 -377 -24 -496
-88 -338 -311 -493 -606 -424 -209 50 -363 240 -417 515 -68 346 14 696 203
872 118 109 292 153 446 113z"/>
<path d="M6680 2803 c0 -5 -20 -75 -45 -158 -27 -91 -40 -152 -34 -156 5 -3
57 -19 114 -34 58 -16 105 -32 105 -36 0 -4 -20 -74 -44 -156 -24 -81 -97
-328 -161 -548 -64 -220 -123 -418 -130 -440 -7 -22 -19 -81 -26 -132 -11 -80
-11 -104 3 -180 21 -115 49 -185 100 -254 85 -112 191 -184 338 -231 65 -20
94 -23 220 -22 199 2 302 32 487 145 36 22 67 38 70 35 2 -2 -16 -73 -41 -157
-25 -84 -45 -153 -43 -154 1 -1 85 -26 187 -55 102 -30 241 -70 310 -91 69
-20 128 -34 132 -30 3 3 26 75 51 159 l45 152 -82 24 c-44 14 -97 29 -116 34
-21 5 -34 15 -34 23 2 14 40 147 209 719 173 586 275 935 281 965 l6 31 -164
47 c-89 26 -230 68 -313 92 -82 24 -150 43 -151 42 -6 -7 -92 -312 -89 -315 2
-2 52 -19 111 -37 60 -18 110 -37 112 -43 2 -6 -36 -142 -84 -304 -47 -161
-101 -345 -119 -408 -18 -63 -43 -144 -54 -180 -60 -190 -264 -361 -484 -406
-181 -37 -361 44 -434 195 -23 48 -27 69 -27 146 0 85 6 109 108 455 292 990
318 1081 314 1086 -4 3 -174 54 -418 125 -58 17 -125 37 -149 45 -51 16 -61
17 -61 7z"/>
<path d="M12560 1719 c-19 -6 -217 -57 -440 -115 -222 -58 -406 -107 -409
-109 -3 -4 79 -335 83 -335 1 0 93 24 206 54 113 29 304 79 425 110 121 32
234 62 250 67 l31 9 -41 163 c-28 110 -46 163 -56 164 -8 1 -30 -3 -49 -8z"/>
</g>
</svg>
