<svg xmlns="http://www.w3.org/2000/svg" viewBox="0 0 2374 2374" width="2374" height="2374">
    <title>Hatters-icon</title>

    <circle cx="1187" cy="1187" r="1187" style="fill:#313ba7"/>
    <path d="M1300.73,693l413.83-190.58v437l-413.83,185.36Z" transform="translate(-45 -58.99)" style="fill:#fff"/>
    <path d="M1111.68,774.42,1246,712.56V854.4l-134.32,60.16Z" transform="translate(-45 -58.99)" style="fill:#fff"/>
    <path d="M929.68,852.42,1064,790.56V932.4L929.68,992.56Z" transform="translate(-45 -58.99)" style="fill:#fff"/>
    <path d="M753.68,924.42,888,862.56V1004.4l-134.32,60.16Z" transform="translate(-45 -58.99)" style="fill:#fff"/>
    <path d="M1576,1438.29l134.32-61.86v141.84L1576,1578.43Z" transform="translate(-45 -58.99)" style="fill:#fff"/>
    <path d="M1402,1516.29l134.32-61.86v141.84L1402,1656.43Z" transform="translate(-45 -58.99)" style="fill:#fff"/>
    <path d="M1229,1590.29l134.32-61.86v141.84L1229,1730.43Z" transform="translate(-45 -58.99)" style="fill:#fff"/>
    <path d="M753.68,1110.85,888,1049v141.84L753.68,1251Z" transform="translate(-45 -58.99)" style="fill:#fff"/>
    <path d="M753.68,1293.36,888,1231.5v141.84L753.68,1433.5Z" transform="translate(-45 -58.99)" style="fill:#fff"/>
    <path d="M1576,1252.29l134.32-61.86v141.84L1576,1392.43Z" transform="translate(-45 -58.99)" style="fill:#fff"/>
    <path d="M1576,1065.42l134.32-61.86V1145.4L1576,1205.56Z" transform="translate(-45 -58.99)" style="fill:#fff"/>
    <path d="M759.75,1505.52l413.83-190.58v437L759.75,1937.29Z" transform="translate(-45 -58.99)" style="fill:#fff"/>



</svg>