<?xml version="1.0" encoding="utf-8"?>
<!-- Generator: Adobe Illustrator 21.1.0, SVG Export Plug-In . SVG Version: 6.00 Build 0)  -->
<svg version="1.1" id="Layer_1" xmlns="http://www.w3.org/2000/svg" xmlns:xlink="http://www.w3.org/1999/xlink" x="0px" y="0px"
	 viewBox="0 0 24 24" style="enable-background:new 0 0 24 24;" xml:space="preserve">
<style type="text/css">
	.st0{fill:none;}
	.st1{fill:#4a556b;}
</style>
<path class="st0" d="M-2-2h28v28H-2V-2z"/>
<path class="st1" d="M12,0.3C5.6,0.3,0.3,5.6,0.3,12S5.6,23.7,12,23.7S23.7,18.4,23.7,12S18.4,0.3,12,0.3z M13.1,19.6h-2.2v-2.2h2.2
	V19.6z M15.3,11.2l-1,1C13.5,13,13,13.6,13,15.3h-2.2v-0.5c0-1.2,0.5-2.3,1.3-3.1l1.3-1.4C13.8,9.9,14,9.4,14,8.8
	c0-1.2-1-2.2-2.2-2.2s-2.2,1-2.2,2.2H7.7c0-2.4,1.9-4.3,4.3-4.3s4.3,1.9,4.3,4.3C16.3,9.7,15.9,10.6,15.3,11.2z"/>
</svg>
