<?xml version="1.0" encoding="utf-8"?>
<!-- Generator: Adobe Illustrator 21.1.0, SVG Export Plug-In . SVG Version: 6.00 Build 0)  -->
<svg version="1.1" id="Layer_1" xmlns="http://www.w3.org/2000/svg" xmlns:xlink="http://www.w3.org/1999/xlink" x="0px" y="0px"
	 viewBox="0 0 100.3 101" style="enable-background:new 0 0 100.3 101;" xml:space="preserve">
<style type="text/css">
	.st0{fill:#4A556B;stroke:#FFFFFF;stroke-width:3;}
	.st1{fill:#FFFFFF;}
</style>
<title>voucher-icon</title>
<path class="st0" d="M98.8,50.5C98.6,23.6,76.7,2,49.8,2.2S1.3,24.3,1.5,51.2c0.2,26.7,21.9,48.3,48.7,48.3
	C77.1,99.4,98.9,77.5,98.8,50.5z"/>
<path class="st1" d="M73.7,51.3L53.8,31.4c-0.8-0.8-1.9-1.3-3.1-1.3H35.2c-2.4,0-4.4,2-4.4,4.5v15.5c0,1.2,0.5,2.3,1.3,3.1L52,73.1
	c0.8,0.8,1.9,1.3,3.1,1.3s2.3-0.5,3.1-1.3l15.5-15.6c0.9-0.8,1.3-1.9,1.3-3.1C75,53.3,74.5,52.1,73.7,51.3z M38.5,41.2
	c-1.8,0-3.4-1.5-3.4-3.4s1.5-3.4,3.4-3.4c1.8,0,3.4,1.5,3.4,3.4l0,0C41.8,39.7,40.3,41.2,38.5,41.2z"/>
</svg>
