<?xml version="1.0" encoding="utf-8"?>
<!-- Generator: Adobe Illustrator 21.1.0, SVG Export Plug-In . SVG Version: 6.00 Build 0)  -->
<svg version="1.1" id="Layer_1" xmlns="http://www.w3.org/2000/svg" xmlns:xlink="http://www.w3.org/1999/xlink" x="0px" y="0px"
	 viewBox="0 0 32 32" style="enable-background:new 0 0 32 32;" xml:space="preserve">
<style type="text/css">
	.st0{fill:none;}
	.st1{fill:#939393;}
</style>
<title>youtube-icon</title>
<g>
	<g>
		<title>background</title>
		<rect id="canvas_background_1_" x="-2.8" y="-2.7" class="st0" width="187.2" height="129.3"/>
	</g>
	<g>
		<title>Layer 1</title>
		<g id="svg_1_1_">
			<g id="svg_3_1_">
				<path id="svg_4_1_" class="st1" d="M3.9,15.8c-0.1,3.1,2.1,6.1,5,7c2.8,0.9,6.2,0.2,8-2.1c1.3-1.7,1.7-3.9,1.5-5.9
					c-2.4,0-4.7,0-7.1,0c0,0.8,0,1.7,0,2.5c1.4,0,2.8,0,4.3,0c-0.4,1.2-1.2,2.4-2.4,2.8c-2.4,1.1-5.4-0.3-6.2-2.8
					c-0.9-2.4,0.6-5.3,3-6c1.5-0.5,3.1,0.1,4.4,0.9c0.7-0.6,1.3-1.3,1.9-1.9c-1.5-1.2-3.4-2-5.3-1.8C7.1,8.4,3.7,12,3.9,15.8z"/>
				<path id="svg_5_1_" class="st1" d="M23,12.6c0,0.7,0,1.4,0,2.1c-0.7,0-1.4,0-2.1,0c0,0.7,0,1.4,0,2.1c0.7,0,1.4,0,2.1,0
					c0,0.7,0,1.4,0,2.1c0.7,0,1.4,0,2.1,0c0-0.7,0-1.4,0-2.1c0.7,0,1.4,0,2.1,0c0-0.7,0-1.4,0-2.1c-0.7,0-1.4,0-2.1,0
					c0-0.7,0-1.4,0-2.1C24.4,12.6,23.7,12.6,23,12.6z"/>
				<g id="svg_6_1_">
					<path id="svg_7_1_" class="st1" d="M3.9,15.8C3.7,12,7.1,8.4,10.9,8.4c2-0.2,3.9,0.6,5.3,1.8c-0.6,0.7-1.2,1.3-1.9,1.9
						c-1.3-0.8-2.9-1.4-4.4-0.9c-2.5,0.7-3.9,3.6-3,6c0.8,2.5,3.8,3.9,6.2,2.8c1.2-0.4,2.1-1.6,2.4-2.8c-1.4,0-2.8,0-4.3,0
						c0-0.8,0-1.7,0-2.5c2.4,0,4.7,0,7.1,0c0.1,2.1-0.2,4.3-1.5,5.9c-1.8,2.4-5.2,3.1-8,2.1C5.9,21.9,3.8,18.9,3.9,15.8L3.9,15.8z"
						/>
					<path id="svg_8_1_" class="st1" d="M23,12.6c0.7,0,1.4,0,2.1,0c0,0.7,0,1.4,0,2.1c0.7,0,1.4,0,2.1,0c0,0.7,0,1.4,0,2.1
						c-0.7,0-1.4,0-2.1,0c0,0.7,0,1.4,0,2.1c-0.7,0-1.4,0-2.1,0c0-0.7,0-1.4,0-2.1c-0.7,0-1.4,0-2.1,0c0-0.7,0-1.4,0-2.1
						c0.7,0,1.4,0,2.1,0C23,14,23,13.3,23,12.6z"/>
				</g>
			</g>
		</g>
		<g id="svg_9_1_">
		</g>
		<g id="svg_10_1_">
		</g>
		<g id="svg_11_1_">
		</g>
		<g id="svg_12_1_">
		</g>
		<g id="svg_13_1_">
		</g>
		<g id="svg_14_1_">
		</g>
		<g id="svg_15_1_">
		</g>
		<g id="svg_16_1_">
		</g>
		<g id="svg_17_1_">
		</g>
		<g id="svg_18_1_">
		</g>
		<g id="svg_19_1_">
		</g>
		<g id="svg_20_1_">
		</g>
		<g id="svg_21_1_">
		</g>
		<g id="svg_22_1_">
		</g>
		<g id="svg_23_1_">
		</g>
	</g>
</g>
</svg>
