<svg xmlns="http://www.w3.org/2000/svg" xmlns:xlink="http://www.w3.org/1999/xlink" width="56" height="56" viewBox="0 0 56 56">
    <defs>
        <path id="a" d="M0 0h28v28H0z"/>
        <path id="c" d="M20.582 19.331v.359h-1.288v-5.31c0-.76-.627-1.388-1.388-1.388H10.02c-.762 0-1.39.627-1.39 1.389v5.309h-1.31V1.646a.42.42 0 0 1 .415-.414h.347a.42.42 0 0 1 .415.414v6.575a2.677 2.677 0 0 0 2.676 2.677h5.556a2.677 2.677 0 0 0 2.676-2.677V1.646a.42.42 0 0 1 .415-.414h.347a.42.42 0 0 1 .414.414v17.685zM16.965 15.3h1.097v-1.064h-1.097V15.3zm0 1.355h1.097v-1.041h-1.097v1.041zm0 1.367h1.097v-1.042h-1.097v1.042zm0 1.299h1.086v-.974h-1.086v.974zM15.53 15.3h1.098v-1.065H15.53V15.3zm0 1.354h1.098v-1.041H15.53v1.041zm0 1.367h1.098v-1.042H15.53v1.042zm0 1.288h1.098v-.963H15.53v.963zm-1.422-4.01h1.097v-1.075H14.11v1.075zm0 1.355h1.097v-1.041H14.11v1.041zm0 1.367h1.097v-1.042H14.11v1.042zm0 1.288h1.097v-.963H14.11v.963zm-1.423-4.01h1.087v-1.075h-1.087v1.075zm0 1.355h1.087v-1.041h-1.087v1.041zm0 1.367h1.087v-1.042h-1.087v1.042zm0 1.288h1.087v-.963h-1.087v.963zm-1.422-4.01h1.098v-1.075h-1.098v1.075zm0 1.355h1.098v-1.041h-1.098v1.041zm0 1.367h1.098v-1.042h-1.098v1.042zm0 1.288h1.098v-.952h-1.098v.952zm-1.4-4.01h1.064v-1.075H9.864v1.075zm0 1.355h1.064v-1.041H9.864v1.041zm1.064 1.367H9.864v-1.042h1.075v1.042h-.011zm-1.075 1.277h1.075v-.952H9.853v.952zm13.675.033h-1.714V1.646A1.65 1.65 0 0 0 20.168 0h-.347a1.65 1.65 0 0 0-1.647 1.646v6.575c0 .795-.65 1.445-1.444 1.445h-5.556c-.795 0-1.444-.65-1.444-1.445V1.646A1.65 1.65 0 0 0 8.083 0h-.347A1.65 1.65 0 0 0 6.09 1.646v17.685H4.41c-.796 0-1.445.65-1.445 1.445v7.202h22.008v-7.202c0-.795-.65-1.445-1.445-1.445z"/>
    </defs>
    <g fill="none" fill-rule="evenodd">
        <circle cx="28" cy="28" r="28" fill="#4A556B"/>
        <g transform="translate(14 14)">
            <mask id="b" fill="#fff">
                <use xlink:href="#a"/>
            </mask>
            <g mask="url(#b)">
                <mask id="d" fill="#fff">
                    <use xlink:href="#c"/>
                </mask>
                <use fill="#FFF" xlink:href="#c"/>
                <g fill="#FFF" mask="url(#d)">
                    <path d="M0 0h28v28H0z"/>
                </g>
            </g>
        </g>
    </g>
</svg>
