<svg xmlns="http://www.w3.org/2000/svg" xmlns:xlink="http://www.w3.org/1999/xlink" width="35" height="35" viewBox="0 0 35 35">
    <defs>
        <circle id="a" cx="17.5" cy="17.5" r="17.5"/>
    </defs>
    <g fill="none" fill-rule="evenodd">
        <use fill="#059FF5" xlink:href="#a"/>
        <path fill="#FFF" fill-rule="nonzero" d="M25.61 14.457c0-.169-.004-.337-.011-.505a8.039 8.039 0 0 0 1.997-2.024c-.717.312-1.49.521-2.3.616a3.94 3.94 0 0 0 1.761-2.162 8.154 8.154 0 0 1-2.542.949 4.047 4.047 0 0 0-2.924-1.235c-2.211 0-4.005 1.75-4.005 3.908 0 .306.035.605.104.89a11.467 11.467 0 0 1-8.255-4.082 3.826 3.826 0 0 0-.542 1.964c0 1.356.707 2.553 1.782 3.253a4.051 4.051 0 0 1-1.814-.489v.05c0 1.893 1.38 3.473 3.213 3.831a4.105 4.105 0 0 1-1.809.067c.51 1.553 1.988 2.683 3.741 2.714a8.161 8.161 0 0 1-4.974 1.673c-.323 0-.642-.018-.955-.054a11.54 11.54 0 0 0 6.139 1.756c7.366 0 11.394-5.955 11.394-11.12z"/>
    </g>
</svg>
