<?xml version="1.0" encoding="utf-8"?>
<!-- Generator: Adobe Illustrator 21.1.0, SVG Export Plug-In . SVG Version: 6.00 Build 0)  -->
<svg version="1.1" id="Layer_1" xmlns="http://www.w3.org/2000/svg" xmlns:xlink="http://www.w3.org/1999/xlink" x="0px" y="0px"
	 viewBox="0 0 32 32" style="enable-background:new 0 0 32 32;" xml:space="preserve">
<style type="text/css">
	.st0{fill:#939393;}
</style>
<title>youtube-icon</title>
<g>
	<g transform="translate(-539.18 -568.86)">
		<path class="st0" d="M551.9,591.6c6.7,0,10.3-5.5,10.3-10.3c0-0.2,0-0.3,0-0.5c0.7-0.5,1.3-1.2,1.8-1.9c-0.6,0.3-1.3,0.5-2.1,0.6
			c0.7-0.4,1.3-1.2,1.6-2c-0.7,0.4-1.5,0.7-2.3,0.9c-0.7-0.7-1.6-1.1-2.6-1.1c-2,0-3.6,1.6-3.6,3.6c0,0.3,0,0.6,0.1,0.8
			c-3-0.2-5.7-1.6-7.5-3.8c-0.3,0.5-0.5,1.2-0.5,1.8c0,1.3,0.6,2.4,1.6,3c-0.6,0-1.2-0.2-1.6-0.5c0,0,0,0,0,0c0,1.8,1.2,3.2,2.9,3.6
			c-0.3,0.1-0.6,0.1-1,0.1c-0.2,0-0.5,0-0.7-0.1c0.5,1.4,1.8,2.5,3.4,2.5c-1.2,1-2.8,1.6-4.5,1.6c-0.3,0-0.6,0-0.9-0.1
			C548,591,549.9,591.6,551.9,591.6"/>
	</g>
</g>
</svg>
