<?xml version="1.0" encoding="UTF-8" standalone="no"?>
<!-- Created with Inkscape (http://www.inkscape.org/) -->

<svg
   xmlns:dc="http://purl.org/dc/elements/1.1/"
   xmlns:cc="http://creativecommons.org/ns#"
   xmlns:rdf="http://www.w3.org/1999/02/22-rdf-syntax-ns#"
   xmlns:svg="http://www.w3.org/2000/svg"
   xmlns="http://www.w3.org/2000/svg"
   xmlns:sodipodi="http://sodipodi.sourceforge.net/DTD/sodipodi-0.dtd"
   xmlns:inkscape="http://www.inkscape.org/namespaces/inkscape"
   width="144.49777mm"
   height="144.49777mm"
   viewBox="0 0 511.99998 511.99998"
   id="svg2"
   version="1.1"
   inkscape:version="0.91 r13725"
   sodipodi:docname="Linux Avatar.svg">
  <defs
     id="defs4" />
  <sodipodi:namedview
     id="base"
     pagecolor="white"
     bordercolor="#666666"
     borderopacity="1.0"
     inkscape:pageopacity="0.0"
     inkscape:pageshadow="2"
     inkscape:zoom="0.5"
     inkscape:cx="-224.94531"
     inkscape:cy="547.6513"
     inkscape:document-units="px"
     inkscape:current-layer="layer1"
     showgrid="false"
     inkscape:snap-bbox="true"
     inkscape:object-nodes="false"
     inkscape:snap-smooth-nodes="false"
     inkscape:snap-midpoints="false"
     inkscape:snap-intersection-paths="false"
     inkscape:snap-center="false"
     fit-margin-top="0"
     fit-margin-left="0"
     fit-margin-right="0"
     fit-margin-bottom="0"
     inkscape:window-width="1920"
     inkscape:window-height="1181"
     inkscape:window-x="0"
     inkscape:window-y="19"
     inkscape:window-maximized="0">
    <inkscape:grid
       type="xygrid"
       id="grid4152"
       originx="-132.38983"
       originy="-429.15077" />
  </sodipodi:namedview>
  <metadata
     id="metadata7">
    <rdf:RDF>
      <cc:Work
         rdf:about="">
        <dc:format>image/svg+xml</dc:format>
        <dc:type
           rdf:resource="http://purl.org/dc/dcmitype/StillImage" />
        <dc:title></dc:title>
      </cc:Work>
    </rdf:RDF>
  </metadata>
  <g
     inkscape:label="Layer 1"
     inkscape:groupmode="layer"
     id="layer1"
     transform="translate(-132.38983,-111.21144)">
    <rect
       style="opacity:1;fill:#ffbc21;fill-opacity:1;fill-rule:nonzero;stroke:none;stroke-width:5;stroke-linecap:round;stroke-linejoin:round;stroke-miterlimit:4;stroke-dasharray:none;stroke-dashoffset:0;stroke-opacity:1"
       id="rect4405"
       width="512"
       height="512"
       x="132.38983"
       y="111.21142" />
    <path
       style="opacity:1;fill:#212121;fill-opacity:1;fill-rule:nonzero;stroke:none;stroke-width:20;stroke-linecap:round;stroke-linejoin:round;stroke-miterlimit:4;stroke-dasharray:none;stroke-dashoffset:0;stroke-opacity:1"
       d="M 251 17 C 178.09841 17 122.34611 53.098205 119 149 C 115.65389 244.9018 133.95156 291.05032 29.685547 406 C 18.292788 418.56012 8.4367784 431.43661 0 444.45898 L 0 512 L 512 512 L 512 435.41992 C 504.96081 425.55534 497.0922 415.72848 488.31445 406 C 379.42587 285.31751 383.49237 245.19544 383 149 C 382.50763 52.804559 323.90159 17 251 17 z "
       transform="translate(132.38983,111.21144)"
       id="path4407" />
    <path
       inkscape:connector-curvature="0"
       id="path4173"
       d="m 388,392.36133 a 191.61657,191.61657 0 0 0 -191.61657,191.61657 191.61657,191.61657 0 0 0 1.64488,23.14515 l 380.02553,0 A 191.61657,191.61657 0 0 0 579.61657,583.9779 191.61657,191.61657 0 0 0 388,392.36133 Z"
       style="opacity:1;fill:#FFFFFFfill-opacity:1;fill-rule:nonzero;stroke:none;stroke-width:20;stroke-linecap:round;stroke-linejoin:round;stroke-miterlimit:4;stroke-dasharray:none;stroke-dashoffset:0;stroke-opacity:1" />
    <g
       id="g4181"
       transform="matrix(0.77565562,0,0,1.0018915,76.95095,37.136692)">
      <circle
         style="opacity:1;fill:#FFFFFFfill-opacity:1;fill-rule:nonzero;stroke:none;stroke-width:20;stroke-linecap:round;stroke-linejoin:round;stroke-miterlimit:4;stroke-dasharray:none;stroke-dashoffset:0;stroke-opacity:1"
         id="circle4165"
         cx="457.74704"
         cy="225.07869"
         r="53.133984" />
    </g>
    <g
       id="g4185"
       transform="matrix(0.79052589,0,0,1.0496112,-20.186737,26.502624)">
      <circle
         r="53.133984"
         cy="225.07869"
         cx="457.74704"
         id="circle4187"
         style="opacity:1;fill:#FFFFFFfill-opacity:1;fill-rule:nonzero;stroke:none;stroke-width:20;stroke-linecap:round;stroke-linejoin:round;stroke-miterlimit:4;stroke-dasharray:none;stroke-dashoffset:0;stroke-opacity:1" />
    </g>
    <path
       style="opacity:1;fill:#212121;fill-opacity:1;fill-rule:nonzero;stroke:none;stroke-width:24;stroke-linecap:round;stroke-linejoin:round;stroke-miterlimit:4;stroke-dasharray:none;stroke-dashoffset:0;stroke-opacity:1"
       d="M 258.47656 192.76953 C 199.77858 192.76953 140.42955 199.01696 118.32227 211.51172 C 118.13084 223.00914 117.6606 234.06934 116.45703 245.03711 C 143.24754 286.10902 233.73071 343.29462 255.59766 342.41016 C 276.86274 341.55005 358.20035 288.49627 389.36133 248.24023 C 386.30767 234.63097 384.76143 221.00693 383.96094 206.50586 C 358.44559 197.35223 308.71728 192.76953 258.47656 192.76953 z "
       id="path4403"
       transform="translate(132.38983,111.21144)" />
    <path
       sodipodi:nodetypes="zzzz"
       inkscape:connector-curvature="0"
       id="path4150"
       d="m 278.44439,344.97935 c -8.62067,27.46644 89.30326,92.45989 109.46407,91.64443 20.16081,-0.81545 112.3245,-64.17799 109.46407,-91.64443 -2.86043,-27.46645 -210.30749,-27.46645 -218.92814,0 z"
       style="opacity:1;fill:#ffbc21;fill-opacity:1;fill-rule:nonzero;stroke:none;stroke-width:24;stroke-linecap:round;stroke-linejoin:round;stroke-miterlimit:4;stroke-dasharray:none;stroke-dashoffset:0;stroke-opacity:1" />
    <g
       transform="matrix(0.33216421,0,0,0.33216421,279.95784,196.36331)"
       id="g4324"
       style="fill:#000000;fill-opacity:1">
      <circle
         r="53.133984"
         cy="225.07869"
         cx="457.74704"
         id="circle4326"
         style="opacity:1;fill:#000000;fill-opacity:1;fill-rule:nonzero;stroke:none;stroke-width:20;stroke-linecap:round;stroke-linejoin:round;stroke-miterlimit:4;stroke-dasharray:none;stroke-dashoffset:0;stroke-opacity:1" />
    </g>
    <g
       transform="matrix(0.40941012,0,0,0.40941012,155.68209,179.08351)"
       id="g4328"
       style="fill:#000000;fill-opacity:1">
      <circle
         style="opacity:1;fill:#000000;fill-opacity:1;fill-rule:nonzero;stroke:none;stroke-width:20;stroke-linecap:round;stroke-linejoin:round;stroke-miterlimit:4;stroke-dasharray:none;stroke-dashoffset:0;stroke-opacity:1"
         id="circle4330"
         cx="457.74704"
         cy="225.07869"
         r="53.133984" />
    </g>
  </g>
</svg>
