<svg xmlns="http://www.w3.org/2000/svg" viewBox="0 0 2047 2047" width="512" height="512">
    <title>Hatters-icon</title>
    <g transform="rotate(180, 1023, 1023) ">
    <path d="M1024 2047q209 0 398.5 -81t326.5 -218t218 -326.5t81 -398.5q0 -208 -81 -397.5t-218 -327t-327 -218.5t-398 -81t-398 81t-327 218.5t-218 327t-81 397.5q0 209 81 398.5t218 326.5t326.5 218t398.5 81zM1024 73q194 0 367.5 73t305.5 205q-71 63 -161 114.5 t-137.5 69.5t-83.5 29q-34 28 -50.5 60.5t-19 62.5t10.5 71.5t29.5 76.5t45.5 88q5 10 17.5 32.5t18.5 34.5q71 143 42 237q15 55 19.5 133t-18.5 180t-81 164q-112 123 -329 71q-227 -2 -325 -139q-39 -55 -55.5 -126t-11.5 -138.5t12.5 -109t17.5 -73.5q-8 -27 -9 -53 t4 -47.5t11 -39t15.5 -32t14.5 -21.5t10 -13q10 -13 25 -37.5t38 -75.5t33.5 -100t-1 -107t-51.5 -101l-50 -22q-93 -41 -139 -62.5t-102 -52.5t-96 -62q132 -137 309 -213.5t374 -76.5z"/>
    </g>
</svg>
