<?xml version="1.0" encoding="utf-8"?>
<!-- Generator: Adobe Illustrator 23.0.3, SVG Export Plug-In . SVG Version: 6.00 Build 0)  -->
<svg version="1.1" id="Layer_1" xmlns="http://www.w3.org/2000/svg" xmlns:xlink="http://www.w3.org/1999/xlink" x="0px" y="0px"
	 viewBox="0 0 151 48" style="enable-background:new 0 0 151 48;" xml:space="preserve">
<style type="text/css">
	.st0{fill-rule:evenodd;clip-rule:evenodd;fill:#4A556B;}
	.st1{fill-rule:evenodd;clip-rule:evenodd;fill:#FFFFFF;}
	.st2{fill:#4A556B;}
	.st3{enable-background:new    ;}
	.st4{fill:#FFFFFF;}
</style>
<g>
	<circle class="st0" cx="24" cy="24" r="24"/>
	<path class="st1" d="M29.6,28.6v0.3h-1.1v-4.5c0-0.7-0.5-1.2-1.2-1.2h-6.8c-0.7,0-1.2,0.5-1.2,1.2v4.6h-1.1V13.4
		c0-0.2,0.2-0.4,0.4-0.4h0.3c0.2,0,0.4,0.2,0.4,0.4V19c0,1.3,1,2.3,2.3,2.3c0,0,0,0,0,0h4.8c1.3,0,2.3-1,2.3-2.3c0,0,0,0,0,0v-5.6
		c0-0.2,0.2-0.4,0.4-0.4h0.3c0.2,0,0.4,0.2,0.4,0.4L29.6,28.6L29.6,28.6z M26.5,25.1h0.9v-0.9h-0.9V25.1z M26.5,26.3h0.9v-0.9h-0.9
		V26.3z M26.5,27.4h0.9v-0.9h-0.9V27.4z M26.5,28.6h0.9v-0.8h-0.9V28.6z M25.3,25.1h0.9v-0.9h-0.9L25.3,25.1L25.3,25.1z M25.3,26.3
		h0.9v-0.9h-0.9L25.3,26.3L25.3,26.3z M25.3,27.4h0.9v-0.9h-0.9L25.3,27.4L25.3,27.4z M25.3,28.5h0.9v-0.8h-0.9L25.3,28.5L25.3,28.5
		z M24.1,25.1H25v-0.9h-0.9V25.1z M24.1,26.3H25v-0.9h-0.9V26.3z M24.1,27.4H25v-0.9h-0.9V27.4z M24.1,28.5H25v-0.8h-0.9V28.5z
		 M22.9,25.1h0.9v-0.9h-0.9L22.9,25.1L22.9,25.1z M22.9,26.3h0.9v-0.9h-0.9L22.9,26.3L22.9,26.3z M22.9,27.4h0.9v-0.9h-0.9
		L22.9,27.4L22.9,27.4z M22.9,28.5h0.9v-0.8h-0.9L22.9,28.5L22.9,28.5z M21.7,25.1h0.9v-0.9h-0.9V25.1z M21.7,26.3h0.9v-0.9h-0.9
		V26.3z M21.7,27.4h0.9v-0.9h-0.9V27.4z M21.7,28.5h0.9v-0.8h-0.9V28.5z M20.5,25.1h0.9v-0.9h-0.9V25.1z M20.5,26.3h0.9v-0.9h-0.9
		V26.3z M21.4,27.4h-0.9v-0.9h0.9L21.4,27.4L21.4,27.4L21.4,27.4z M20.4,28.5h0.9v-0.8h-0.9V28.5z M32.2,28.6h-1.5V13.4
		c0-0.8-0.6-1.4-1.4-1.4H29c-0.8,0-1.4,0.6-1.4,1.4V19c0,0.7-0.6,1.2-1.2,1.2h-4.8c-0.7,0-1.2-0.6-1.2-1.2v-5.6
		c0-0.8-0.6-1.4-1.4-1.4h-0.3c-0.8,0-1.4,0.6-1.4,1.4v15.2h-1.4c-0.7,0-1.2,0.6-1.2,1.2V36h18.9v-6.2C33.4,29.1,32.8,28.6,32.2,28.6
		z"/>
	<path class="st2" d="M147,21l4,3l-4,3v-2.5h-2v-1h2V21z M57,23.5v1h-2v-1H57z M60,23.5v1h-2v-1H60z M63,23.5v1h-2v-1H63z M66,23.5
		v1h-2v-1H66z M69,23.5v1h-2v-1H69z M72,23.5v1h-2v-1H72z M75,23.5v1h-2v-1H75z M78,23.5v1h-2v-1H78z M81,23.5v1h-2v-1H81z M84,23.5
		v1h-2v-1H84z M87,23.5v1h-2v-1H87z M90,23.5v1h-2v-1H90z M93,23.5v1h-2v-1H93z M96,23.5v1h-2v-1H96z M99,23.5v1h-2v-1H99z M54,23.5
		v1h-2v-1H54z M105,23.5v1h-2v-1H105z M108,23.5v1h-2v-1H108z M111,23.5v1h-2v-1H111z M114,23.5v1h-2v-1H114z M117,23.5v1h-2v-1H117
		z M120,23.5v1h-2v-1H120z M123,23.5v1h-2v-1H123z M126,23.5v1h-2v-1H126z M129,23.5v1h-2v-1H129z M132,23.5v1h-2v-1H132z M135,23.5
		v1h-2v-1H135z M138,23.5v1h-2v-1H138z M141,23.5v1h-2v-1H141z M144,23.5v1h-2v-1H144z M102,23.5v1h-2v-1H102z"/>
	<path class="st0" d="M83,16h33c4.4,0,8,3.6,8,8l0,0c0,4.4-3.6,8-8,8H83c-4.4,0-8-3.6-8-8l0,0C75,19.6,78.6,16,83,16z"/>
	<g class="st3">
		<path class="st4" d="M87.6,24.3c0-0.4,0-0.8,0.1-1.1s0.2-0.6,0.4-0.9c0.2-0.2,0.4-0.4,0.7-0.6s0.5-0.2,0.9-0.2
			c0.3,0,0.5,0,0.8,0.1c0.2,0.1,0.4,0.2,0.6,0.4v-2.7h1.2V27h-1.1l-0.1-0.5c-0.2,0.2-0.4,0.4-0.6,0.5c-0.2,0.1-0.5,0.2-0.8,0.2
			c-0.3,0-0.6-0.1-0.9-0.2c-0.3-0.1-0.5-0.3-0.7-0.6s-0.3-0.5-0.4-0.8c-0.1-0.3-0.1-0.7-0.1-1.1V24.3z M88.8,24.4
			c0,0.2,0,0.5,0.1,0.7c0,0.2,0.1,0.4,0.2,0.5c0.1,0.2,0.2,0.3,0.4,0.4c0.2,0.1,0.3,0.1,0.6,0.1c0.3,0,0.5-0.1,0.7-0.2
			c0.2-0.1,0.3-0.3,0.4-0.5v-2.3c-0.1-0.2-0.2-0.3-0.4-0.5s-0.4-0.2-0.6-0.2c-0.2,0-0.4,0-0.6,0.1c-0.2,0.1-0.3,0.2-0.4,0.4
			c-0.1,0.2-0.2,0.3-0.2,0.6c0,0.2-0.1,0.4-0.1,0.7V24.4z"/>
		<path class="st4" d="M97.6,27c0-0.1-0.1-0.1-0.1-0.2c0-0.1,0-0.2-0.1-0.3c-0.1,0.1-0.2,0.2-0.3,0.2c-0.1,0.1-0.2,0.1-0.3,0.2
			C96.7,27,96.6,27,96.5,27c-0.1,0-0.3,0-0.5,0c-0.3,0-0.5,0-0.8-0.1c-0.2-0.1-0.4-0.2-0.6-0.3c-0.2-0.1-0.3-0.3-0.4-0.5
			s-0.1-0.4-0.1-0.6c0-0.6,0.2-1,0.6-1.3c0.4-0.3,1-0.4,1.8-0.4h0.9v-0.3c0-0.3-0.1-0.5-0.3-0.7c-0.2-0.2-0.5-0.2-0.8-0.2
			c-0.2,0-0.3,0-0.4,0.1c-0.1,0-0.2,0.1-0.3,0.2s-0.1,0.1-0.2,0.2s-0.1,0.2-0.1,0.3h-1.2c0-0.2,0-0.4,0.1-0.6
			c0.1-0.2,0.2-0.4,0.4-0.5c0.2-0.2,0.4-0.3,0.7-0.4s0.6-0.1,0.9-0.1c0.3,0,0.6,0,0.9,0.1c0.3,0.1,0.5,0.2,0.7,0.3
			c0.2,0.2,0.3,0.3,0.5,0.6c0.1,0.2,0.2,0.5,0.2,0.8v2.4c0,0.2,0,0.4,0.1,0.6c0,0.2,0.1,0.4,0.1,0.5V27H97.6z M96.2,26.2
			c0.1,0,0.3,0,0.4-0.1c0.1,0,0.3-0.1,0.4-0.1c0.1-0.1,0.2-0.1,0.3-0.2c0.1-0.1,0.1-0.2,0.2-0.2v-1h-0.7c-0.5,0-0.8,0.1-1.1,0.2
			c-0.2,0.2-0.3,0.4-0.3,0.7c0,0.1,0,0.2,0.1,0.3c0,0.1,0.1,0.2,0.2,0.2c0.1,0.1,0.2,0.1,0.3,0.2S96.1,26.2,96.2,26.2z"/>
		<path class="st4" d="M103.1,20.4v1.3h2v0.9h-2v2.5c0,0.2,0,0.4,0.1,0.5c0,0.1,0.1,0.2,0.2,0.3c0.1,0.1,0.2,0.1,0.3,0.2
			c0.1,0,0.2,0,0.4,0c0.1,0,0.2,0,0.3,0c0.1,0,0.2,0,0.3,0c0.1,0,0.2,0,0.3,0c0.1,0,0.2,0,0.2-0.1l0.1,0.8c-0.1,0-0.2,0.1-0.3,0.1
			c-0.1,0-0.2,0.1-0.4,0.1c-0.1,0-0.3,0-0.4,0.1c-0.2,0-0.3,0-0.4,0c-0.3,0-0.5,0-0.7-0.1c-0.2-0.1-0.4-0.2-0.6-0.3
			c-0.2-0.2-0.3-0.4-0.4-0.6c-0.1-0.2-0.1-0.5-0.1-0.9v-2.6h-1.3v-0.9h1.3v-1.3H103.1z"/>
		<path class="st4" d="M110.6,27c0-0.1-0.1-0.1-0.1-0.2c0-0.1,0-0.2-0.1-0.3c-0.1,0.1-0.2,0.2-0.3,0.2c-0.1,0.1-0.2,0.1-0.3,0.2
			c-0.1,0.1-0.3,0.1-0.4,0.1c-0.1,0-0.3,0-0.5,0c-0.3,0-0.5,0-0.8-0.1c-0.2-0.1-0.4-0.2-0.6-0.3c-0.2-0.1-0.3-0.3-0.4-0.5
			s-0.1-0.4-0.1-0.6c0-0.6,0.2-1,0.6-1.3c0.4-0.3,1-0.4,1.8-0.4h0.9v-0.3c0-0.3-0.1-0.5-0.3-0.7c-0.2-0.2-0.5-0.2-0.8-0.2
			c-0.2,0-0.3,0-0.4,0.1c-0.1,0-0.2,0.1-0.3,0.2s-0.1,0.1-0.2,0.2s-0.1,0.2-0.1,0.3h-1.2c0-0.2,0-0.4,0.1-0.6
			c0.1-0.2,0.2-0.4,0.4-0.5c0.2-0.2,0.4-0.3,0.7-0.4s0.6-0.1,0.9-0.1c0.3,0,0.6,0,0.9,0.1c0.3,0.1,0.5,0.2,0.7,0.3
			c0.2,0.2,0.3,0.3,0.5,0.6c0.1,0.2,0.2,0.5,0.2,0.8v2.4c0,0.2,0,0.4,0.1,0.6c0,0.2,0.1,0.4,0.1,0.5V27H110.6z M109.2,26.2
			c0.1,0,0.3,0,0.4-0.1c0.1,0,0.3-0.1,0.4-0.1c0.1-0.1,0.2-0.1,0.3-0.2c0.1-0.1,0.1-0.2,0.2-0.2v-1h-0.7c-0.5,0-0.8,0.1-1.1,0.2
			c-0.2,0.2-0.3,0.4-0.3,0.7c0,0.1,0,0.2,0.1,0.3c0,0.1,0.1,0.2,0.2,0.2c0.1,0.1,0.2,0.1,0.3,0.2S109.1,26.2,109.2,26.2z"/>
	</g>
</g>
</svg>
