<?xml version="1.0" encoding="UTF-8"?>
<svg width="100px" height="100px" viewBox="0 0 100 100" version="1.1" xmlns="http://www.w3.org/2000/svg" xmlns:xlink="http://www.w3.org/1999/xlink">
    <!-- Generator: sketchtool 54 (76480) - https://sketchapp.com -->
    <title>3180BBC0-AE07-4F48-8EA8-2E4B4246AFB5</title>
    <desc>Created with sketchtool.</desc>
    <defs>
        <linearGradient x1="88.652977%" y1="82.8502708%" x2="16.5742917%" y2="29.8147477%" id="linearGradient-1">
            <stop stop-color="#4B556B" offset="0%"></stop>
            <stop stop-color="#4B556B" offset="14.13%"></stop>
            <stop stop-color="#4B556B" offset="100%"></stop>
        </linearGradient>
        <linearGradient x1="99.18925%" y1="93.790575%" x2="26.576474%" y2="48.03015%" id="linearGradient-2">
            <stop stop-color="#4B556B" offset="0%"></stop>
            <stop stop-color="#4B556B" offset="14.13%"></stop>
            <stop stop-color="#4B556B" offset="100%"></stop>
        </linearGradient>
        <linearGradient x1="51.5454017%" y1="106.66564%" x2="49.2325096%" y2="-11.61658%" id="linearGradient-3">
            <stop stop-color="#4B556B" stop-opacity="0" offset="0%"></stop>
            <stop stop-color="#4B556B" offset="61.43%"></stop>
            <stop stop-color="#4B556B" offset="100%"></stop>
        </linearGradient>
        <linearGradient x1="48.4590604%" y1="106.648655%" x2="50.7652534%" y2="-11.4555884%" id="linearGradient-4">
            <stop stop-color="#4B556B" stop-opacity="0" offset="0%"></stop>
            <stop stop-color="#4B556B" offset="61.43%"></stop>
            <stop stop-color="#4B556B" offset="100%"></stop>
        </linearGradient>
    </defs>
    <g id="Symbols" stroke="none" stroke-width="1" fill="none" fill-rule="evenodd">
        <g id="Logos/HAT/datarights_navy_100">
            <rect id="bounding" fill-rule="nonzero" x="0" y="0" width="100" height="100"></rect>
            <g id="datarights-navy-100">
                <polygon id="Path" points="0 0 100 0 100 100 0 100"></polygon>
                <path d="M67.5,60.9 L64.3,60.9 L64.3,28.1 C64.3,26.4 62.9,25 61.2,25 L60.6,25 C58.9,25 57.5,26.4 57.5,28.1 L57.5,40.3 C57.5,41.8 56.3,43 54.8,43 L44.6,43 C43.1,43 41.9,41.8 41.9,40.3 L41.9,28.1 C41.9,26.4 40.5,25 38.8,25 L38.2,25 C36.5,25 35.1,26.4 35.1,28.1 L35.1,60.9 L32,60.9 C30.5,60.9 29.3,62.1 29.3,63.6 L29.3,77 L70.1,77 L70.1,63.6 C70.2,62.1 69,60.9 67.5,60.9 Z M45.7,73.1 C45.7,73.2 45.6,73.3 45.5,73.3 L44.5,73.3 C44.4,73.3 44.3,73.2 44.3,73.1 C44.3,73.1 44.3,73.1 44.3,73.1 L44.3,70.1 L40.7,70.1 L40.7,73.1 C40.7,73.2 40.6,73.3 40.5,73.3 L39.5,73.3 C39.4,73.3 39.3,73.2 39.3,73.1 L39.3,65.8 C39.3,65.7 39.4,65.6 39.5,65.6 L40.5,65.6 C40.6,65.6 40.7,65.7 40.7,65.8 L40.7,68.7 L44.3,68.7 L44.3,65.8 C44.3,65.7 44.4,65.6 44.5,65.6 L45.5,65.6 C45.6,65.6 45.7,65.7 45.7,65.8 L45.7,73.1 L45.7,73.1 Z M44.1,54 L44.1,55.9 L42.1,55.9 L42.1,54 L44.1,54 Z M42.2,53.4 L42.2,51.4 L44.2,51.4 L44.2,53.4 C44.1,53.4 42.2,53.4 42.2,53.4 Z M44.2,56.6 L44.2,58.5 L42.2,58.5 L42.2,56.6 L44.2,56.6 Z M44.1,59.1 L44.1,60.9 L42.1,60.9 L42.1,59.1 L44.1,59.1 L44.1,59.1 Z M46.8,60.9 L44.8,60.9 L44.8,59.1 L46.8,59.1 C46.8,59.1 46.8,60.9 46.8,60.9 Z M46.8,58.5 L44.8,58.5 L44.8,56.6 L46.8,56.6 L46.8,58.5 Z M46.8,55.9 L44.8,55.9 L44.8,54 L46.8,54 L46.8,55.9 Z M46.8,53.4 L44.8,53.4 L44.8,51.4 L46.8,51.4 L46.8,53.4 Z M49.4,54 L49.4,55.9 L47.4,55.9 L47.4,54 L49.4,54 Z M47.4,53.4 L47.4,51.4 L49.4,51.4 L49.4,53.4 L47.4,53.4 Z M49.4,56.6 L49.4,58.5 L47.4,58.5 L47.4,56.6 C47.4,56.6 49.4,56.6 49.4,56.6 Z M49.4,59.1 L49.4,60.9 L47.4,60.9 L47.4,59.1 L49.4,59.1 Z M54.9,73.3 L53.9,73.3 C53.7,73.3 53.7,73.2 53.6,73.1 L53.1,71.9 L49.8,71.9 L49.3,73.1 C49.3,73.2 49.1,73.3 49,73.3 L48,73.3 C47.8,73.3 47.7,73.2 47.8,73 L51.2,65.6 C51.2,65.5 51.3,65.5 51.4,65.5 L51.5,65.5 C51.6,65.5 51.7,65.6 51.7,65.6 L55.1,73 C55.2,73.1 55.1,73.3 54.9,73.3 L54.9,73.3 Z M52.1,54 L52.1,55.9 L50.1,55.9 L50.1,54 L52.1,54 Z M50,53.4 L50,51.4 L52,51.4 L52,53.4 L50,53.4 Z M52.1,56.6 L52.1,58.5 L50.1,58.5 L50.1,56.6 L52.1,56.6 Z M52.1,59.1 L52.1,60.9 L50.1,60.9 L50.1,59.1 L52.1,59.1 Z M54.7,54 L54.7,55.9 L52.7,55.9 L52.7,54 L54.7,54 Z M52.7,53.4 L52.7,51.4 L54.7,51.4 L54.7,53.4 C54.7,53.4 52.7,53.4 52.7,53.4 Z M54.7,56.6 L54.7,58.5 L52.7,58.5 L52.7,56.6 L54.7,56.6 Z M54.7,59.1 L54.7,60.9 L52.7,60.9 L52.7,59.1 L54.7,59.1 Z M57.4,54 L57.4,55.9 L55.4,55.9 L55.4,54 L57.4,54 L57.4,54 Z M55.3,53.4 L55.3,51.4 L57.3,51.4 L57.3,53.4 C57.4,53.4 55.3,53.4 55.3,53.4 Z M57.4,56.6 L57.4,58.5 L55.4,58.5 L55.4,56.6 L57.4,56.6 Z M57.4,59.1 L57.4,60.9 L55.4,60.9 L55.4,59.1 L57.4,59.1 L57.4,59.1 Z M61.2,66.7 C61.2,66.8 61.1,66.9 61,66.9 L59.3,66.9 L59.3,73.1 C59.3,73.2 59.2,73.3 59.1,73.3 L58.1,73.3 C58,73.3 57.9,73.2 57.9,73.1 L57.9,66.9 L56.2,66.9 C56.1,66.9 56,66.8 56,66.7 L56,65.8 C56,65.7 56.1,65.6 56.2,65.6 L61,65.6 C61.1,65.6 61.2,65.7 61.2,65.8 L61.2,66.7 L61.2,66.7 Z M62.1,60.9 L62.1,61.6 L59.7,61.6 L59.7,51.8 C59.7,50.4 58.5,49.2 57.1,49.2 L42.5,49.2 C41.1,49.2 39.9,50.4 39.9,51.8 L39.9,61.6 L37.5,61.6 L37.5,28.1 C37.5,27.7 37.8,27.3 38.3,27.3 L38.9,27.3 C39.3,27.3 39.7,27.6 39.7,28.1 L39.7,40.3 C39.7,43 41.9,45.3 44.7,45.3 C44.7,45.3 44.7,45.3 44.7,45.3 L55,45.3 C57.7,45.3 60,43.1 60,40.3 C60,40.3 60,40.3 60,40.3 L60,28.1 C60,27.7 60.3,27.3 60.8,27.3 L61.4,27.3 C61.8,27.3 62.2,27.6 62.2,28.1 L62.1,60.9 L62.1,60.9 Z" id="Shape" fill="url(#linearGradient-1)" fill-rule="nonzero"></path>
                <polygon id="Path" fill="url(#linearGradient-2)" points="51.4 68.2 50.3 70.6 52.5 70.6"></polygon>
                <path d="M13.5,86.9 C4.8,77.5 0,65.2 0,52.4 C0,39.7 4.8,27.4 13.5,18 L15.4,19.8 C7.2,28.7 2.6,40.3 2.6,52.4 C2.6,64.5 7.2,76.2 15.4,85.1 L13.5,86.9 Z" id="Path" fill="url(#linearGradient-3)"></path>
                <path d="M86.5,86.9 L84.6,85.1 C92.8,76.2 97.4,64.6 97.4,52.4 C97.4,40.3 92.8,28.6 84.6,19.7 L86.5,17.9 C95.2,27.3 100,39.6 100,52.3 C100,65.2 95.2,77.5 86.5,86.9 L86.5,86.9 Z" id="Path" fill="url(#linearGradient-4)"></path>
                <g id="Group" transform="translate(16.000000, 1.000000)" fill="#4B556B" stroke="#4B556B" stroke-width="0.2">
                    <path d="M1,11.7 C0.9,11.6 1,11.5 1,11.4 L3.1,10 C4.8,8.9 7.1,9.3 8.2,11 C9.3,12.7 8.9,15 7.2,16.1 L5.1,17.5 C5,17.6 4.9,17.5 4.8,17.4 L1,11.7 L1,11.7 Z M6.4,15.1 C7.5,14.3 7.8,12.9 7,11.8 C6.2,10.7 4.8,10.4 3.7,11.1 L2.7,11.8 L5.4,15.8 L6.4,15.1 Z M10.4,13.7 L10.3,5.9 C10.3,5.8 10.3,5.8 10.4,5.7 L10.5,5.7 C10.6,5.7 10.7,5.7 10.7,5.7 L16.7,10.7 C16.8,10.8 16.8,11 16.7,11 L15.9,11.4 C15.8,11.5 15.7,11.4 15.5,11.3 L14.5,10.5 L11.7,11.8 L11.7,13 C11.7,13.1 11.6,13.3 11.5,13.3 L10.7,13.7 C10.5,13.9 10.4,13.8 10.4,13.7 Z M13.5,9.7 L11.6,8.1 L11.6,8.1 L11.7,10.6 L13.5,9.7 L13.5,9.7 Z" id="Shape" fill-rule="nonzero"></path>
                    <path d="M16.2,4.8 L14.7,5.3 C14.6,5.3 14.5,5.3 14.4,5.2 C14.4,5.2 14.4,5.2 14.4,5.2 L14.1,4.4 C14.1,4.3 14.1,4.2 14.2,4.1 C14.2,4.1 14.2,4.1 14.2,4.1 L18.6,2.6 C18.7,2.6 18.8,2.6 18.9,2.7 L19.2,3.5 C19.2,3.6 19.2,3.7 19.1,3.8 L17.6,4.3 L19.5,9.9 C19.5,10 19.5,10.1 19.4,10.2 L18.5,10.5 C18.4,10.5 18.3,10.5 18.2,10.4 L16.2,4.8 L16.2,4.8 Z" id="Path"></path>
                    <path d="M20.8,9.3 L22.6,1.7 C22.6,1.6 22.7,1.6 22.8,1.5 L22.9,1.5 C23,1.5 23.1,1.5 23.1,1.6 L27.7,7.9 C27.8,8 27.7,8.2 27.6,8.2 L26.7,8.4 C26.5,8.4 26.5,8.4 26.4,8.3 L25.7,7.3 L22.6,7.9 L22.3,9.1 C22.3,9.2 22.2,9.3 22,9.4 L21,9.5 C20.8,9.6 20.7,9.5 20.8,9.3 L20.8,9.3 Z M24.8,6.2 L23.3,4.1 L23.3,4.1 L22.8,6.6 L24.8,6.2 L24.8,6.2 Z M30.7,0.7 C30.7,0.6 30.8,0.5 30.9,0.5 C30.9,0.5 30.9,0.5 30.9,0.5 L33.9,0.5 C35.2,0.5 36.2,1.5 36.2,2.7 C36.2,3.7 35.6,4.5 34.7,4.8 L36.2,7.5 C36.3,7.6 36.2,7.8 36,7.8 L34.9,7.8 C34.8,7.8 34.8,7.8 34.7,7.7 L33.3,5 L32.1,5 L32.1,7.7 C32.1,7.8 32,7.9 31.9,7.9 L30.9,7.9 C30.8,7.9 30.7,7.8 30.7,7.7 C30.7,7.7 30.7,7.7 30.7,7.7 L30.7,0.7 L30.7,0.7 Z M33.9,3.8 C34.5,3.8 34.9,3.3 34.9,2.7 C34.9,2.1 34.4,1.7 33.8,1.7 L32.1,1.7 L32.1,3.8 C32.1,3.9 33.9,3.8 33.9,3.8 Z" id="Shape" fill-rule="nonzero"></path>
                    <path d="M38.4,0.9 C38.4,0.8 38.5,0.7 38.6,0.7 L39.6,0.8 C39.7,0.8 39.8,0.9 39.8,1 L39.1,7.9 C39.1,8 39,8.1 38.9,8.1 L37.9,8 C37.8,8 37.7,7.9 37.7,7.8 C37.8,7.8 38.4,0.9 38.4,0.9 Z M45.7,1.6 C46.6,1.8 47.4,2.3 48,3.1 C48.1,3.2 48.1,3.3 48,3.4 L47.1,4 C47,4 47,4 46.9,3.9 C46.5,3.4 46,3.1 45.4,3 C44.1,2.7 42.9,3.6 42.6,4.9 C42.3,6.2 43.1,7.5 44.4,7.7 C45,7.8 45.5,7.7 45.7,7.7 L45.9,6.8 L45.1,6.6 C45,6.6 44.9,6.5 44.9,6.4 L45.1,5.6 C45.1,5.5 45.2,5.4 45.3,5.4 C45.3,5.4 45.3,5.4 45.3,5.4 L47.3,5.8 C47.4,5.8 47.5,5.9 47.4,6 L46.8,8.6 C46.8,8.7 46.7,8.7 46.7,8.7 C46.7,8.7 45.5,9.1 44,8.8 C42,8.4 40.7,6.4 41.1,4.4 C41.1,4.4 41.1,4.4 41.1,4.4 C41.6,2.5 43.6,1.2 45.7,1.6 C45.6,1.6 45.7,1.6 45.7,1.6 L45.7,1.6 Z M50.6,3.2 C50.6,3.1 50.8,3 50.9,3.1 L51.8,3.5 C51.9,3.5 52,3.7 51.9,3.8 L50.9,6.4 L54.1,7.6 L55.1,5 C55.1,4.9 55.3,4.8 55.4,4.9 L56.3,5.2 C56.4,5.2 56.5,5.4 56.4,5.5 L53.9,12 C53.9,12.1 53.7,12.2 53.6,12.1 L52.7,11.7 C52.6,11.7 52.5,11.5 52.6,11.4 C52.6,11.4 52.6,11.4 52.6,11.4 L53.6,8.7 L50.4,7.5 L49.4,10.2 C49.4,10.3 49.2,10.4 49.1,10.3 C49.1,10.3 49.1,10.3 49.1,10.3 L48.3,10 C48.2,10 48.1,9.8 48.2,9.7 C48.1,9.7 50.6,3.2 50.6,3.2 Z M59.2,8.1 L57.8,7.3 C57.7,7.2 57.7,7.1 57.7,7 C57.7,7 57.7,7 57.7,7 L58.1,6.2 C58.2,6.1 58.3,6.1 58.4,6.1 C58.4,6.1 58.4,6.1 58.4,6.1 L62.4,8.3 C62.5,8.4 62.5,8.5 62.5,8.6 L62.1,9.4 C62,9.5 61.9,9.5 61.8,9.5 L60.4,8.7 L57.5,13.9 C57.4,14 57.3,14 57.2,14 L56.3,13.5 C56.2,13.4 56.2,13.3 56.2,13.2 C56.4,13.3 59.2,8.1 59.2,8.1 Z M60.1,14.4 L60.8,14.1 C61,14 61.1,14.1 61.1,14.2 C61.1,14.3 61.5,15.3 62,15.7 C62.4,16 63,16 63.3,15.6 C63.6,15.2 63.5,14.6 62.9,13.8 C62.3,12.9 61.9,11.8 62.6,10.8 C63.1,10 64.3,9.6 65.7,10.5 C66.6,11.1 66.9,12 67,12.3 C67.1,12.4 67,12.6 66.9,12.6 L66.2,12.9 C66.1,13 65.9,12.9 65.8,12.8 C65.8,12.7 65.4,11.8 64.9,11.5 C64.4,11.1 63.9,11.3 63.7,11.6 C63.4,12 63.5,12.5 64,13.3 C64.6,14.2 65.2,15.4 64.4,16.5 C63.8,17.4 62.4,17.7 61.2,16.8 C60.3,16 60,15 60,14.7 C59.9,14.6 59.9,14.5 60.1,14.4 Z" id="Shape" fill-rule="nonzero"></path>
                </g>
                <g id="Group" transform="translate(19.000000, 90.000000)" fill="#4B556B" fill-rule="nonzero" stroke="#4B556B" stroke-width="0.2">
                    <path d="M0.8,0.4 C0.8,0.3 0.9,0.2 1,0.2 L3.5,0.2 C4.8,0.2 5.9,1.3 5.9,2.5 C5.9,3.8 4.8,4.9 3.6,4.9 L2.3,4.9 L2.3,7.4 C2.3,7.5 2.2,7.6 2.1,7.6 L1.1,7.6 C1,7.6 0.9,7.5 0.9,7.4 L0.8,0.4 L0.8,0.4 Z M3.4,3.7 C4,3.7 4.5,3.2 4.5,2.6 C4.5,2 4,1.6 3.4,1.6 L2.2,1.6 L2.2,3.7 C2.2,3.7 3.4,3.7 3.4,3.7 Z M7.4,0.4 C7.4,0.3 7.5,0.2 7.6,0.2 L10.6,0.2 C11.9,0.2 12.9,1.2 12.9,2.5 C12.9,3.5 12.3,4.3 11.3,4.6 L12.7,7.3 C12.8,7.4 12.7,7.6 12.5,7.6 L11.4,7.6 C11.3,7.6 11.3,7.6 11.2,7.5 L9.8,4.7 L8.6,4.7 L8.6,7.4 C8.6,7.5 8.5,7.6 8.4,7.6 L7.4,7.6 C7.3,7.6 7.2,7.5 7.2,7.4 L7.4,0.4 L7.4,0.4 Z M10.5,3.6 C11.1,3.6 11.5,3.1 11.5,2.5 C11.5,1.9 11,1.5 10.5,1.5 L8.8,1.5 L8.8,3.6 C8.8,3.6 10.5,3.6 10.5,3.6 Z M18,0.1 C20.1,0.1 21.8,1.8 21.8,3.9 C21.8,3.9 21.8,3.9 21.8,3.9 C21.8,6 20.1,7.7 18.1,7.7 C18.1,7.7 18.1,7.7 18.1,7.7 C16,7.7 14.3,6 14.3,4 C14.3,4 14.3,4 14.3,4 C14.2,1.9 15.8,0.2 18,0.1 C17.9,0.1 17.9,0.1 18,0.1 L18,0.1 Z M18,6.3 C19.3,6.3 20.4,5.2 20.4,3.9 C20.4,2.6 19.3,1.5 18,1.5 C16.7,1.5 15.6,2.6 15.6,3.9 C15.6,5.3 16.6,6.3 18,6.3 L18,6.3 Z" id="Shape"></path>
                    <path d="M24.4,1.5 L22.8,1.5 C22.7,1.5 22.6,1.4 22.6,1.3 L22.6,0.4 C22.6,0.3 22.7,0.2 22.8,0.2 L27.4,0.2 C27.5,0.2 27.6,0.3 27.6,0.4 C27.6,0.4 27.6,0.4 27.6,0.4 L27.6,1.3 C27.6,1.4 27.5,1.5 27.4,1.5 L25.8,1.5 L25.8,7.4 C25.8,7.5 25.7,7.6 25.6,7.6 L24.6,7.6 C24.5,7.6 24.4,7.5 24.4,7.4 C24.4,7.4 24.4,1.5 24.4,1.5 Z M29,0.4 C29,0.3 29.1,0.2 29.2,0.2 L33.5,0.2 C33.6,0.2 33.7,0.3 33.7,0.4 L33.7,1.3 C33.7,1.4 33.6,1.5 33.5,1.5 C33.5,1.5 33.5,1.5 33.5,1.5 L30.4,1.5 L30.4,3.2 L33,3.2 C33.1,3.2 33.2,3.3 33.2,3.4 L33.2,4.3 C33.2,4.4 33.1,4.5 33,4.5 L30.4,4.5 L30.4,6.3 L33.5,6.3 C33.6,6.3 33.7,6.4 33.7,6.5 L33.7,7.4 C33.7,7.5 33.6,7.6 33.5,7.6 L29.2,7.6 C29.1,7.6 29,7.5 29,7.4 C29,7.4 29,7.4 29,7.4 L29,0.4 L29,0.4 Z M38.7,0.1 C39.8,0.1 40.5,0.4 41.2,1.1 C41.3,1.2 41.3,1.3 41.2,1.4 L40.6,2.1 C40.5,2.2 40.4,2.2 40.3,2.1 C39.9,1.7 39.3,1.5 38.7,1.5 C37.4,1.5 36.4,2.6 36.4,4 C36.4,5.3 37.4,6.4 38.8,6.4 C39.4,6.4 40,6.2 40.4,5.8 C40.5,5.7 40.6,5.7 40.7,5.8 L41.4,6.5 C41.5,6.6 41.5,6.7 41.4,6.8 C40.7,7.5 39.8,7.8 38.8,7.8 C36.7,7.8 35,6.1 35,4.1 C35,4.1 35,4.1 35,4.1 C34.9,1.8 36.6,0.1 38.7,0.1 C38.7,0.1 38.7,0.1 38.7,0.1 L38.7,0.1 Z M43.9,1.5 L42.3,1.5 C42.2,1.5 42.1,1.4 42.1,1.3 L42.1,0.4 C42.1,0.3 42.2,0.2 42.3,0.2 L46.9,0.2 C47,0.2 47.1,0.3 47.1,0.4 L47.1,1.3 C47.1,1.4 47,1.5 46.9,1.5 C46.9,1.5 46.9,1.5 46.9,1.5 L45.3,1.5 L45.3,7.4 C45.3,7.5 45.2,7.6 45.1,7.6 L44.1,7.6 C44,7.6 43.9,7.5 43.9,7.4 C43.9,7.4 43.9,1.5 43.9,1.5 Z M48.5,0.4 C48.5,0.3 48.6,0.2 48.7,0.2 L53,0.2 C53.1,0.2 53.2,0.3 53.2,0.4 L53.2,1.3 C53.2,1.4 53.1,1.5 53,1.5 L49.9,1.5 L49.9,3.2 L52.5,3.2 C52.6,3.2 52.7,3.3 52.7,3.4 L52.7,4.3 C52.7,4.4 52.6,4.5 52.5,4.5 L49.9,4.5 L49.9,6.3 L53,6.3 C53.1,6.3 53.2,6.4 53.2,6.5 L53.2,7.4 C53.2,7.5 53.1,7.6 53,7.6 L48.7,7.6 C48.6,7.6 48.5,7.5 48.5,7.4 L48.5,0.4 L48.5,0.4 Z" id="Shape"></path>
                    <path d="M55,0.4 C55,0.3 55.1,0.2 55.2,0.2 L57.7,0.2 C59.7,0.2 61.4,1.9 61.4,3.9 C61.4,5.9 59.7,7.6 57.7,7.6 L55.2,7.6 C55.1,7.6 55,7.5 55,7.4 L55,0.4 L55,0.4 Z M57.6,6.3 C59,6.3 60,5.3 60,3.9 C60,2.5 59,1.5 57.6,1.5 L56.4,1.5 L56.4,6.3 L57.6,6.3 L57.6,6.3 Z" id="Shape"></path>
                </g>
            </g>
        </g>
    </g>
</svg>