<?xml version="1.0" encoding="utf-8"?>
<!-- Generator: Adobe Illustrator 20.0.0, SVG Export Plug-In . SVG Version: 6.00 Build 0)  -->
<svg version="1.1" id="Layer_1" xmlns="http://www.w3.org/2000/svg" xmlns:xlink="http://www.w3.org/1999/xlink" x="0px" y="0px"
	 viewBox="0 0 2374 2374" style="enable-background:new 0 0 2374 2374;" xml:space="preserve">
<style type="text/css">
	.st0{fill:#FF9B26;}
	.st1{opacity:0.4;fill:#FFFFFF;enable-background:new    ;}
	.st2{opacity:0.7;fill:#FFFFFF;enable-background:new    ;}
	.st3{fill:#FFFFFF;}
	.st4{fill:#333333;}
</style>
<title>Milliner-logo-with-text</title>
<circle class="st0" cx="1289" cy="1205" r="1205"/>
<path class="st1" d="M877.2,866.4l411.7-316.1l411.5,316.1l-411.7,316.2L877.2,866.4z"/>
<path class="st2" d="M825.3,1462l3-522.5l411.5,316.1l-3,522.5L825.3,1462z"/>
<path class="st3" d="M1750.6,1462l-3-522.5l-411.5,316.1l3,522.5L1750.6,1462z"/>
<path class="st0" d="M1458,823.1c25.4,13.7,42.9,29.7,52.3,47.8c9.5,18.4,9.5,37.5,0.1,57c-9.4,19.5-28,37.7-55.3,54.5
	c-22.4,13.8-42.8,23.9-61.2,30.7c-18.2,6.6-39.2,11.8-63.1,15.4l-84.7-57.4c23.9-3.9,46.9-9.5,68.9-17.1c22.4-7.7,41-16.3,55.6-25.8
	c12.7-8.3,19.5-16,20.1-23.2c0.7-7.1-3.2-13.1-11.5-18.1c-5.2-3.1-10.8-4.9-17-5.6c-6.2-0.7-13.7-0.5-22.7,0.7
	c-8.9,1.2-30,5.6-62.6,13.2c-28.9,6.6-52.2,10.1-70.2,10.5c-17.8,0.4-34.3-1.6-49.5-6c-15-4.4-29.8-11.5-44.2-21.2
	c-26.4-17.8-38.3-37.6-36.3-59.7c2-22,17.3-44.2,46.4-67.2c26.3-20.7,61-38.2,105-52.5l45.5,55.2c-40.5,11.6-69.5,24.2-87.8,38
	c-9.3,7-14.2,13.3-14.6,18.8c-0.4,5.5,2.1,10,7.8,13.5c6.1,3.8,14.3,5.2,24.7,4.2c10.5-1,34.9-6.6,74.3-16.9
	c38.8-10.4,71.8-14.8,98.6-13C1403.9,800.5,1431.1,808.6,1458,823.1z"/>
<g>
	<path class="st0" d="M1149.6,1616.3l-78.2-62.1l1.1-127.6l-89.7-70.9l-1.2,127.1l-77.3-61.4l3.4-309.7l76.9,60.3l-1.1,114.9
		l89.6,70.6l1-115.4l77.8,61L1149.6,1616.3z"/>
</g>
<g>
	<path class="st0" d="M1640.1,1451.4l-183.4,145.9l-0.6-323l183-148.4l0.2,70.5l-100.2,80.9l0.1,50.9l92.8-74.7l0.2,70.5l-92.8,74.4
		l0.2,61.2l100.3-80.1L1640.1,1451.4z"/>
</g>
</svg>
