<svg xmlns="http://www.w3.org/2000/svg" viewBox="0 0 254.79 107.61"><title>HAT logo</title><path d="M288.77,115.75a7,7,0,0,0-5.18-2l-10.12,0V73.88a7.17,7.17,0,0,0-7.17-7.17H241.6V54.36H262A7.21,7.21,0,1,0,262,40H206.78a7.21,7.21,0,1,0,0,14.41H227.2V77.74a3.37,3.37,0,0,0-.48,0,3.26,3.26,0,0,0-2.43,1l-6.76,6.85v-3a2.3,2.3,0,0,0-2.3-2.3h-1.15a2.31,2.31,0,0,0-2.31,2.3v8.86l-13.51,13.7a3.27,3.27,0,0,0,4.47,4.77v3.82H192.28l-35.8-71.34a2.77,2.77,0,0,0-2.56-1.88,3,3,0,0,0-2.82,1.79L115,113.65H110.1q-2.07,0-2.07-2V47.16a7.2,7.2,0,1,0-14.4,0V70.24A6.27,6.27,0,0,1,87,76.85H68.57A6.43,6.43,0,0,1,63.74,75,6.7,6.7,0,0,1,62,70.14v-23a7.2,7.2,0,1,0-14.4,0v64.52c0,1.25-.69,1.91-2.07,2l-2,.08H43.2a6.93,6.93,0,0,0-7.2,7.2v26.64H286.37v-.11h4.41V120.93A7,7,0,0,0,288.77,115.75Zm-221.3-2a.69.69,0,0,1-.69.69H64.12a.69.69,0,0,1-.69-.69v-2.67a.69.69,0,0,1,.69-.69h2.67a.69.69,0,0,1,.69.69Zm0-4.73a.69.69,0,0,1-.69.69H64.12a.69.69,0,0,1-.69-.69v-2.67a.69.69,0,0,1,.69-.69h2.67a.69.69,0,0,1,.69.69Zm0-5.6a.69.69,0,0,1-.69.69H64.12a.69.69,0,0,1-.69-.69v-2.67a.69.69,0,0,1,.69-.69h2.67a.69.69,0,0,1,.69.69Zm0-4.73a.69.69,0,0,1-.69.69H64.12a.69.69,0,0,1-.69-.69V96a.69.69,0,0,1,.69-.69h2.67a.69.69,0,0,1,.69.69Zm4.48,15.07a.69.69,0,0,1-.69.69H68.59a.69.69,0,0,1-.69-.69v-2.67a.69.69,0,0,1,.69-.69h2.67a.69.69,0,0,1,.69.69Zm0-4.73a.69.69,0,0,1-.69.69H68.59a.69.69,0,0,1-.69-.69v-2.67a.69.69,0,0,1,.69-.69h2.67a.69.69,0,0,1,.69.69Zm0-5.6a.69.69,0,0,1-.69.69H68.59a.69.69,0,0,1-.69-.69v-2.67a.69.69,0,0,1,.69-.69h2.67a.69.69,0,0,1,.69.69Zm0-4.73a.69.69,0,0,1-.69.69H68.59a.69.69,0,0,1-.69-.69V96a.69.69,0,0,1,.69-.69h2.67a.69.69,0,0,1,.69.69Zm5.65,15.07a.69.69,0,0,1-.69.69H74.24a.69.69,0,0,1-.69-.69v-2.67a.69.69,0,0,1,.69-.69h2.67a.69.69,0,0,1,.69.69Zm0-4.73a.69.69,0,0,1-.69.69H74.24a.69.69,0,0,1-.69-.69v-2.67a.69.69,0,0,1,.69-.69h2.67a.69.69,0,0,1,.69.69Zm0-5.6a.69.69,0,0,1-.69.69H74.24a.69.69,0,0,1-.69-.69v-2.67a.69.69,0,0,1,.69-.69h2.67a.69.69,0,0,1,.69.69Zm0-4.73a.69.69,0,0,1-.69.69H74.24a.69.69,0,0,1-.69-.69V96a.69.69,0,0,1,.69-.69h2.67a.69.69,0,0,1,.69.69Zm4.47,15.07a.69.69,0,0,1-.69.69H78.71a.69.69,0,0,1-.69-.69v-2.67a.69.69,0,0,1,.69-.69h2.67a.69.69,0,0,1,.69.69Zm0-4.73a.69.69,0,0,1-.69.69H78.71A.69.69,0,0,1,78,109v-2.67a.69.69,0,0,1,.69-.69h2.67a.69.69,0,0,1,.69.69Zm0-5.6a.69.69,0,0,1-.69.69H78.71a.69.69,0,0,1-.69-.69v-2.67a.69.69,0,0,1,.69-.69h2.67a.69.69,0,0,1,.69.69Zm0-4.73a.69.69,0,0,1-.69.69H78.71a.69.69,0,0,1-.69-.69V96a.69.69,0,0,1,.69-.69h2.67a.69.69,0,0,1,.69.69Zm5.65,15.07a.69.69,0,0,1-.69.69H84.36a.69.69,0,0,1-.69-.69v-2.67a.69.69,0,0,1,.69-.69H87a.69.69,0,0,1,.69.69Zm0-4.73a.69.69,0,0,1-.69.69H84.36a.69.69,0,0,1-.69-.69v-2.67a.69.69,0,0,1,.69-.69H87a.69.69,0,0,1,.69.69Zm0-5.6a.69.69,0,0,1-.69.69H84.36a.69.69,0,0,1-.69-.69v-2.67a.69.69,0,0,1,.69-.69H87a.69.69,0,0,1,.69.69Zm0-4.73a.69.69,0,0,1-.69.69H84.36a.69.69,0,0,1-.69-.69V96a.69.69,0,0,1,.69-.69H87a.69.69,0,0,1,.69.69Zm4.47,15.07a.69.69,0,0,1-.69.69H88.84a.69.69,0,0,1-.69-.69v-2.67a.69.69,0,0,1,.69-.69H91.5a.69.69,0,0,1,.69.69Zm0-4.73a.69.69,0,0,1-.69.69H88.84a.69.69,0,0,1-.69-.69v-2.67a.69.69,0,0,1,.69-.69H91.5a.69.69,0,0,1,.69.69Zm0-5.6a.69.69,0,0,1-.69.69H88.84a.69.69,0,0,1-.69-.69v-2.67a.69.69,0,0,1,.69-.69H91.5a.69.69,0,0,1,.69.69Zm0-4.73a.69.69,0,0,1-.69.69H88.84a.69.69,0,0,1-.69-.69V96a.69.69,0,0,1,.69-.69H91.5a.69.69,0,0,1,.69.69Zm6,16.92V96.24A7.17,7.17,0,0,0,91,89.07H64.91a7.17,7.17,0,0,0-7.17,7.17v19.34h-6a7.35,7.35,0,0,0,1-3.91V47.16a2,2,0,1,1,3.95,0V70.24A11.37,11.37,0,0,0,60,78.72,11.68,11.68,0,0,0,68.6,82H87.09a11.68,11.68,0,0,0,8.55-3.25A11.36,11.36,0,0,0,99,70.24V47.16a1.72,1.72,0,0,1,1.92-2,1.77,1.77,0,0,1,2,2v64.52a7.34,7.34,0,0,0,1,3.91Zm44.15,1h-3.57V113h3.57Zm0-4.42h-3.57v-3.59h3.57Zm1-4.45h-4.61a6.38,6.38,0,0,1,1.13-3.45Zm-2.92-4.08a6.09,6.09,0,0,1,4.07-1.91v6Zm6.26,12.95h-3.56V113h3.56Zm0-4.42h-3.56v-3.59h3.56Zm-1.37-4.45v-6a6.11,6.11,0,0,1,4.09,1.91Zm4.62-3.45a6.27,6.27,0,0,1,1.15,3.45h-4.6Zm1.16,12.32h-3.56V113h3.56Zm0-4.42h-3.56v-3.59h3.56Zm10,4.42h-3.57V113h3.57Zm0-4.42h-3.57v-3.59h3.57Zm1-4.45H157.6a6.38,6.38,0,0,1,1.13-3.45Zm-2.92-4.08a6.09,6.09,0,0,1,4.07-1.91v6Zm6.26,12.95H162V113h3.57Zm0-4.42H162v-3.59h3.57Zm-1.37-4.45v-6a6.1,6.1,0,0,1,4.09,1.91Zm4.62-3.45a6.29,6.29,0,0,1,1.15,3.45h-4.6ZM170,116.58H166.4V113H170Zm0-4.42H166.4v-3.59H170Zm13.1,3.42-6.52-13a11.37,11.37,0,0,0-6.77-6.09,11.06,11.06,0,0,0-2.2-.47V91.63a2,2,0,0,0-2-2h-1a2,2,0,0,0-2,2V96L141.1,96a11,11,0,0,0-3,.52,11.37,11.37,0,0,0-6.77,6.09l-6.52,13h-4.87L153.7,48l33.77,67.54Zm35.84-5.11a1.07,1.07,0,0,1-1.07,1.07H213.7a1.07,1.07,0,0,1-1.07-1.07v-4.13a1.06,1.06,0,0,1,1.07-1.06h4.13a1.07,1.07,0,0,1,1.07,1.06Zm0-7.33a1.07,1.07,0,0,1-1.07,1.07H213.7a1.07,1.07,0,0,1-1.07-1.07V99A1.07,1.07,0,0,1,213.7,98h4.13A1.07,1.07,0,0,1,218.89,99Zm6.93,7.33a1.07,1.07,0,0,1-1.07,1.07h-4.13a1.06,1.06,0,0,1-1.06-1.07v-4.13a1.06,1.06,0,0,1,1.06-1.06h4.13a1.07,1.07,0,0,1,1.07,1.06Zm0-7.33a1.07,1.07,0,0,1-1.07,1.07h-4.13a1.07,1.07,0,0,1-1.06-1.07V99A1.07,1.07,0,0,1,220.63,98h4.13A1.07,1.07,0,0,1,225.82,99Zm3.28,12.44h0a11.54,11.54,0,0,0,3.31-8.54V49.13H206.78q-2.07,0-2.07-2t2.07-2H262q2.07,0,2.07,2t-2.07,2H236.37V107a11.49,11.49,0,0,0,3.36,8.48l.07.06Zm37.69-38.53h-3.86l2.89-2.9A5.27,5.27,0,0,1,266.79,77.05Zm-6.69,3.74v-3h3v3Zm3,.71v3h-3v-3ZM261.94,72a5.11,5.11,0,0,1,3.43,1.6l-3.43,3.43Zm-.69,0v5l-3.42-3.43A5.11,5.11,0,0,1,261.26,72Zm-3.88,2.13,2.92,2.9h-3.87A5.35,5.35,0,0,1,257.38,74.16Zm-1,3.62h3v3h-3Zm-3.64-.72h-3.86l2.89-2.9A5.27,5.27,0,0,1,252.77,77.05Zm-6.69,3.74v-3h3v3Zm3,.71v3h-3v-3ZM247.93,72a5.12,5.12,0,0,1,3.44,1.6l-3.44,3.43Zm-.68,0v5l-3.42-3.43A5.11,5.11,0,0,1,247.24,72Zm-3.88,2.13,2.92,2.9h-3.87A5.34,5.34,0,0,1,243.36,74.16Zm-1,3.62h3v3h-3Zm0,3.72h3v3h-3Zm4.93,28.2a.83.83,0,0,1-.83.83h-3.24a.83.83,0,0,1-.83-.83v-3.24a.83.83,0,0,1,.83-.84h3.24a.83.83,0,0,1,.83.84Zm0-5.74a.83.83,0,0,1-.83.84h-3.24a.84.84,0,0,1-.83-.84v-3.24a.83.83,0,0,1,.83-.83h3.24a.83.83,0,0,1,.83.83Zm0-7.21a.83.83,0,0,1-.83.84h-3.24a.84.84,0,0,1-.83-.84V93.51a.84.84,0,0,1,.83-.84h3.24a.83.83,0,0,1,.83.84Zm0-5.74a.83.83,0,0,1-.83.83h-3.24a.83.83,0,0,1-.83-.83V87.77a.83.83,0,0,1,.83-.83h3.24a.83.83,0,0,1,.83.83Zm5.43,18.69a.84.84,0,0,1-.84.83h-3.24a.83.83,0,0,1-.83-.83v-3.24a.83.83,0,0,1,.83-.84h3.24a.84.84,0,0,1,.84.84Zm0-5.74a.84.84,0,0,1-.84.84h-3.24a.83.83,0,0,1-.83-.84v-3.24a.83.83,0,0,1,.83-.83h3.24a.84.84,0,0,1,.84.83Zm0-7.21a.84.84,0,0,1-.84.84h-3.24a.83.83,0,0,1-.83-.84V93.51a.83.83,0,0,1,.83-.84h3.24a.84.84,0,0,1,.84.84Zm0-5.74a.84.84,0,0,1-.84.83h-3.24a.83.83,0,0,1-.83-.83V87.77a.83.83,0,0,1,.83-.83h3.24a.84.84,0,0,1,.84.83Zm0-6.51h-3v-3h3Zm0-3.71h-3v-3h3Zm3.63.71h3v3h-3Zm4.93,28.2a.83.83,0,0,1-.83.83h-3.24a.83.83,0,0,1-.83-.83v-3.24a.83.83,0,0,1,.83-.84h3.24a.83.83,0,0,1,.83.84Zm0-5.74a.83.83,0,0,1-.83.84h-3.24a.83.83,0,0,1-.83-.84v-3.24a.83.83,0,0,1,.83-.83h3.24a.83.83,0,0,1,.83.83Zm0-7.21a.83.83,0,0,1-.83.84h-3.24a.83.83,0,0,1-.83-.84V93.51a.83.83,0,0,1,.83-.84h3.24a.83.83,0,0,1,.83.84Zm0-5.74a.83.83,0,0,1-.83.83h-3.24a.83.83,0,0,1-.83-.83V87.77a.83.83,0,0,1,.83-.83h3.24a.83.83,0,0,1,.83.83Zm5.43,18.69a.83.83,0,0,1-.84.83h-3.23a.83.83,0,0,1-.83-.83v-3.24a.83.83,0,0,1,.83-.84h3.23a.84.84,0,0,1,.84.84Zm0-5.74a.84.84,0,0,1-.84.84h-3.23a.83.83,0,0,1-.83-.84v-3.24a.83.83,0,0,1,.83-.83h3.23a.83.83,0,0,1,.84.83Zm0-7.21a.84.84,0,0,1-.84.84h-3.23a.83.83,0,0,1-.83-.84V93.51a.83.83,0,0,1,.83-.84h3.23a.84.84,0,0,1,.84.84Zm0-5.74a.83.83,0,0,1-.84.83h-3.23a.83.83,0,0,1-.83-.83V87.77a.83.83,0,0,1,.83-.83h3.23a.84.84,0,0,1,.84.83Zm0-6.51h-3v-3h3Zm0-3.71h-3v-3h3Z" transform="translate(-35.99 -39.95)" style="fill:#BA332D"/><path d="M80.16,124.42c0-.36-.18-.53-.48-.53H75.1v-1.5h5.26c.94,0,1.34.43,1.34,1.48v6.26h8.9v-6.26c0-1,.4-1.48,1.32-1.48h1.65v1.5h-.94c-.31,0-.49.17-.49.53v15H90.6v-7.76H81.7v7.76H80.16Z" transform="translate(-35.99 -39.95)" style="fill:#fff"/><path d="M96.22,128.89c0-.34-.18-.53-.48-.53h-.93v-1.43h1.56c.95,0,1.34.43,1.34,1.43v5.87c0,1.91.29,3.6,2.42,3.6,2.51,0,4.08-2.44,4.08-5.07v-5.82h1.5v10.2c0,.36.18.53.48.53h.93v1.43h-1.52c-.93,0-1.34-.43-1.34-1.35v-.55a8.49,8.49,0,0,1,0-.87h0a4.76,4.76,0,0,1-4.32,3.07c-2.62,0-3.72-1.55-3.72-4.71Z" transform="translate(-35.99 -39.95)" style="fill:#fff"/><path d="M109.83,124.06a.47.47,0,0,0-.49-.53h-.93V122.1H110c.95,0,1.35.43,1.35,1.47V128c0,.56,0,1,0,1h0a4,4,0,0,1,3.77-2.32c3,0,4.82,2.61,4.82,6.38s-2.09,6.35-5,6.35a4.06,4.06,0,0,1-3.63-2.34h0s0,.41,0,1v1.06h-1.45Zm5,13.87c2,0,3.57-1.81,3.57-4.9s-1.45-4.88-3.5-4.88c-1.85,0-3.59,1.45-3.59,4.9C111.28,135.49,112.42,137.93,114.8,137.93Z" transform="translate(-35.99 -39.95)" style="fill:#fff"/><path d="M133.74,126.65a6,6,0,0,1,5.86,6.3c0,3.67-2.62,6.43-5.84,6.43s-5.86-2.76-5.86-6.43A6,6,0,0,1,133.74,126.65Zm0,11.26c2.36,0,4.3-2.13,4.3-5a4.33,4.33,0,1,0-8.61,0C129.44,135.78,131.38,137.91,133.76,137.91Z" transform="translate(-35.99 -39.95)" style="fill:#fff"/><path d="M142.22,128.6h-1.39v-1.38h1.39v-.44c0-4,2.58-4.52,3.81-4.52a4.13,4.13,0,0,1,.68,0v1.47a2.49,2.49,0,0,0-.53,0c-.84,0-2.47.34-2.47,3v.44h2.82v1.38h-2.82v10.78h-1.5Z" transform="translate(-35.99 -39.95)" style="fill:#fff"/><path d="M152.86,137.92h.28a.68.68,0,0,0,.79-.53l5.07-15h1.65l5.07,15c.15.46.37.53.79.53h.27v1.5h-.7c-1.1,0-1.43-.24-1.83-1.4l-1.34-4h-6.15l-1.37,4c-.39,1.16-.71,1.4-1.8,1.4h-.73Zm9.62-5.39-2-6.06c-.27-.8-.6-2.2-.6-2.2h0s-.33,1.4-.59,2.2l-2,6.06Z" transform="translate(-35.99 -39.95)" style="fill:#fff"/><path d="M169.35,124.39c0-.34-.17-.53-.48-.53h-.93v-1.43h1.56c.95,0,1.34.44,1.34,1.47v13.56c0,.36.18.53.48.53h.92v1.43h-1.56c-.95,0-1.35-.43-1.35-1.47Z" transform="translate(-35.99 -39.95)" style="fill:#fff"/><path d="M174.74,124.39c0-.34-.17-.53-.48-.53h-.93v-1.43h1.57c.95,0,1.34.44,1.34,1.47v13.56c0,.36.18.53.48.53h.93v1.43h-1.56c-.95,0-1.34-.43-1.34-1.47Z" transform="translate(-35.99 -39.95)" style="fill:#fff"/><path d="M190.15,123.81h-3.83c-.31,0-.48.14-.48.53v1.14h-1.41v-1.79c0-1,.31-1.38,1.25-1.38h10.48c.95,0,1.26.34,1.26,1.38v1.79H196v-1.14c0-.39-.15-.53-.48-.53h-3.81V139.3h-1.54Z" transform="translate(-35.99 -39.95)" style="fill:#fff"/><path d="M199.88,124.27c0-.34-.17-.53-.49-.53h-.92v-1.42H200c.94,0,1.34.43,1.34,1.42v5.15c0,.55,0,1,0,1h0a4.75,4.75,0,0,1,4.38-3c2.75,0,3.72,1.72,3.72,4.71v5.77c0,.36.18.53.49.53h.93v1.43h-1.57c-.94,0-1.34-.44-1.34-1.48V132c0-1.91-.27-3.6-2.42-3.6a4.3,4.3,0,0,0-4,3.45,6.25,6.25,0,0,0-.18,1.62v5.82h-1.5Z" transform="translate(-35.99 -39.95)" style="fill:#fff"/><path d="M213.39,129.1a.46.46,0,0,0-.49-.53H212v-1.43h1.56c.95,0,1.35.44,1.35,1.47v8.72c0,.36.18.53.48.53h.92v1.43h-1.56c-.95,0-1.34-.44-1.34-1.48Zm0-6.79h1.45v2.08h-1.45Z" transform="translate(-35.99 -39.95)" style="fill:#fff"/><path d="M218.8,129.1c0-.34-.18-.53-.48-.53h-.92v-1.43h1.54a1.17,1.17,0,0,1,1.34,1.35v.56a8.49,8.49,0,0,1,0,.87h0a4.73,4.73,0,0,1,4.4-3.07c2.75,0,3.73,1.72,3.73,4.71v5.77c0,.36.17.53.48.53h.93v1.43h-1.56c-.95,0-1.34-.44-1.34-1.48V132c0-1.91-.26-3.6-2.4-3.6a4.3,4.3,0,0,0-4,3.43,6.52,6.52,0,0,0-.18,1.64v5.82h-1.5Z" transform="translate(-35.99 -39.95)" style="fill:#fff"/><path d="M235.41,127c3,0,3.68,2.08,3.68,2.08h0v-.46c0-.87.35-1.33,1.26-1.33h1.54v1.43H241c-.31,0-.48.17-.48.53v9.91c0,3.87-2.6,5.36-5.33,5.36a7.52,7.52,0,0,1-3.61-1l.57-1.38a6.36,6.36,0,0,0,3,.85c2.16,0,3.88-1.11,3.88-3.82v-1.06c0-.46,0-.87,0-.87h0a3.58,3.58,0,0,1-3.48,2.1c-3,0-4.93-2.58-4.93-6.23S232.44,127,235.41,127Zm3.66,6.14c0-3.55-1.54-4.64-3.5-4.64-2.16,0-3.41,1.72-3.41,4.62s1.43,4.79,3.61,4.79C237.53,137.87,239.07,136.69,239.07,133.11Z" transform="translate(-35.99 -39.95)" style="fill:#fff"/><path d="M247.34,137.87c1.23,0,2.34-.65,2.34-1.93,0-2.66-6.21-2.17-6.21-6.09,0-2.2,1.72-3.29,3.94-3.29h3.76V128l-3.72,0c-1.54,0-2.46.58-2.46,1.76,0,2.73,6.21,2.1,6.21,6.14,0,2-1.67,3.41-3.88,3.41h-4.1l0-1.41Z" transform="translate(-35.99 -39.95)" style="fill:#fff"/><rect x="85.81" y="92.22" width="4.32" height="1.94" style="fill:#fff"/><rect x="111.87" y="92.22" width="4.32" height="1.94" style="fill:#fff"/><rect x="143.04" y="92.22" width="4.32" height="1.94" style="fill:#fff"/></svg>
