<?xml version="1.0" encoding="utf-8"?>
<!-- Generator: Adobe Illustrator 16.0.0, SVG Export Plug-In . SVG Version: 6.00 Build 0)  -->
<!DOCTYPE svg PUBLIC "-//W3C//DTD SVG 1.1//EN" "http://www.w3.org/Graphics/SVG/1.1/DTD/svg11.dtd">
<svg version="1.1" id="Layer_1" xmlns="http://www.w3.org/2000/svg" xmlns:xlink="http://www.w3.org/1999/xlink" x="0px" y="0px"
	 width="612.001px" height="611.406px" viewBox="0 0 612.001 611.406" enable-background="new 0 0 612.001 611.406"
	 xml:space="preserve">
<path fill="#FFFFFF" d="M604.688,361.165v221.417c0,36.9-91.437,22.074-114.576,22.281c-156.52,1.416-313.052,0.857-469.576,2.646
	c-19.839,0.225-16.548-20.783-16.357-33.834c0.553-36.781,0.938-73.57,1.208-110.363c0.69-93.614,0.372-187.226,0.372-280.834
	V23.198c0-22.769,35.688-16.477,50.089-16.477h441.088c18.428,0,107.753-13.203,107.753,17.919V361.165"/>
<path fill="#A8A8A8" d="M21.168,2.858c-28.958,0-19.211,59.646-19.211,76.627v149.573c0,100.895,0.164,201.791-1.071,302.691
	c-0.239,19.953-0.54,39.904-0.854,59.854c-0.358,22.91,24.596,19.725,39.688,19.568c76.698-0.818,153.4-1.393,230.107-1.623
	c91.994-0.279,183.987-0.363,275.98-1.434c26.914-0.314,62.752,6.646,62.752-28.988V64.022c0-15.22,6.469-51.917-11.751-59.646
	c-15.273-6.491-40.493-1.513-56.293-1.513H257.404L21.168,2.858 M7.696,592.178c0-186.088,1.938-372.198,1.938-558.3
	c0-20.18,8.336-23.348,26.759-23.348h97.418h304.42c16.162,0,162.595-12.433,162.595,11.924V216.48v297.448v72.078
	c0,26.312-91.874,14.809-107.387,14.965c-104.705,0.973-209.418,0.68-314.127,1.336C163.096,602.398,7.696,616.043,7.696,592.178"/>
<path fill="#F4F4F4" d="M563.643,436.627c-2.619,43.391-93.201,16.133-117.938,27.516c-12.693,5.846-13.933,16.297-16.569,28.318
	c-2.495,11.348-7.243,22.223-13.048,32.248c-4.681,8.062-10.172,15.641-16.273,22.686c-12.597,14.543-17.8,16.043-36.471,16.539
	c-80.786,2.127-161.594,3.281-242.407,4.07c-18.958,0.189-71.769,11.432-71.61-17.836l2.496-479.045
	c0.097-18.627,13.937-18.304,28.392-18.304h90.64h274.135h87.608c22.216,0,25.95,9.402,26.242,30.728
	C560.431,201.238,562.015,318.932,563.643,436.627"/>
<path fill="#939393" d="M608.852,135.641c0,22.467-43.231,15.357-56.58,15.357H430.864H125.192h-94.48
	c-31.838,0-28.126-23.472-28.126-50.426C2.582,83.039-9.666,0,19.182,0h67.765h399.298h106.652
	C622.523,0,608.852,114.483,608.852,135.641"/>
<path fill="#BCBCBC" d="M20.505,126.367c-0.469-0.394,10.557-60.009,11.207-66.442C34,37.666,37.884,29.122,60.953,28.246
	c71.553-2.743,143.167-5.57,214.777-6.123c91.772-0.721,183.708,1.677,275.374,6.004c19.326,0.907,26.272,6.256,27.772,26.356
	c1.155,15.304-2.593,64.066,9.186,75.043c0.039,0.031,5.773-37.147,6.017-40.625c1.35-19.437,2.288-38.896,3.049-58.354
	c0.946-23.918-24.622-19.029-40.683-19.029H315.377H64.475c-12.698,0-50.341-6.292-50.341,14.764
	c-3.708,12.384,0.814,32.613,1.31,45.369C15.833,81.49,12.107,119.27,20.505,126.367"/>
<path fill="#BCBCBC" d="M604.688,148.768H125.705H24.08H4.006c-4.446,0-3.119-13.092,6.553-13.26
	c163.506-2.73,327.025-3.504,490.544-1.473c28.383,0.354,56.767,0.766,85.158,1.265
	C598.468,135.526,609.383,131.751,604.688,148.768"/>
<linearGradient id="SVGID_1_" gradientUnits="userSpaceOnUse" x1="-0.0381" y1="715.834" x2="321.3488" y2="715.834" gradientTransform="matrix(4.4245 0 0 -4.4245 6.7878 3572.1802)">
	<stop  offset="0" style="stop-color:#F4F4F4"/>
	<stop  offset="1" style="stop-color:#6E6E6E"/>
</linearGradient>
<path fill="url(#SVGID_1_)" d="M166.773,277.13h-63.345c-10.827,0-5.694,17.388-5.694,26.476v173.12v51.74
	c0,7.414,41.922,3.242,49.311,3.242c2.106,0,19.724,1.059,19.724-0.867v-41.496c0-20.637,0.376-17.344-22.158-17.902
	c-2.23-0.053-42.944-0.402-42.944-2.41c0-4.846,65.102,1.871,65.102-5.371v-60.35C166.773,361.252,166.773,319.198,166.773,277.13"
	/>
<linearGradient id="SVGID_2_" gradientUnits="userSpaceOnUse" x1="78.9634" y1="732.2402" x2="393.0224" y2="732.2402" gradientTransform="matrix(4.4245 0 0 -4.4245 6.7878 3572.1802)">
	<stop  offset="0" style="stop-color:#F4F4F4"/>
	<stop  offset="1" style="stop-color:#6E6E6E"/>
</linearGradient>
<path fill="url(#SVGID_2_)" d="M512.15,215.697h-65.915c5.114,77.233,4.119,156.161,0.495,233.434
	c22.18-0.566,44.479-4.951,64.35-15.092c-0.774-24.061-1.066-48.128-1.199-72.198C509.594,313.234,508.943,264.233,512.15,215.697"
	/>
<linearGradient id="SVGID_3_" gradientUnits="userSpaceOnUse" x1="78.6201" y1="702.2979" x2="395.9355" y2="702.2979" gradientTransform="matrix(4.4245 0 0 -4.4245 6.7878 3572.1802)">
	<stop  offset="0" style="stop-color:#FFFFFF"/>
	<stop  offset="1" style="stop-color:#737373"/>
</linearGradient>
<path fill="url(#SVGID_3_)" d="M471.875,464.625c-4.615-0.031-9.221,0.15-13.813,0.541h38.271
	C488.179,464.971,480.024,464.625,471.875,464.625"/>
<path fill="#BCBCBC" d="M308.864,407.594H236.37c1.938,0-5.216-62.017-0.65-66.273c8.628-8.035,59.549,0,72.495,0
	C309.528,341.325,308.864,400.666,308.864,407.594"/>
<path fill="#A8A8A8" d="M105.601,409.824c0,7.941,0.69,132.725-3.929,132.725c-5.924,0-5.924-265.449,0-265.449
	C106.291,277.1,105.601,401.879,105.601,409.824"/>
<path fill="#A8A8A8" d="M170.866,409.824c0,7.941,0.69,132.725-3.929,132.725c-5.92,0-5.92-265.449,0-265.449
	C171.556,277.1,170.866,401.879,170.866,409.824"/>
<path fill="#A8A8A8" d="M237.414,369.517c0,9.796,0.69,165.356-3.929,165.356c-5.929,0-5.929-330.715,0-330.715
	C238.104,204.158,237.414,359.717,237.414,369.517"/>
<path fill="#A8A8A8" d="M312.922,369.517c0,9.796,0.69,165.356-3.929,165.356c-5.929,0-5.929-330.715,0-330.715
	C313.612,204.158,312.922,359.717,312.922,369.517"/>
<path fill="#A8A8A8" d="M448.585,336.905c0,7.946,0.646,132.685-3.938,132.685c-5.959,0-5.959-265.432,0-265.432
	C449.235,204.158,448.585,328.967,448.585,336.905"/>
<path fill="#A8A8A8" d="M379.461,369.517c0,9.796,0.69,165.356-3.929,165.356c-5.934,0-5.934-330.715,0-330.715
	C380.151,204.158,379.461,359.717,379.461,369.517"/>
<path fill="#A8A8A8" d="M517.686,336.905c0,7.946,0.65,132.685-3.938,132.685c-5.955,0-5.955-265.432,0-265.432
	C518.341,204.158,517.686,328.967,517.686,336.905"/>
<path fill="#A8A8A8" d="M308.626,273.17c12.167,0,206.94-0.699,206.94,3.929c0,5.929-413.895,5.929-413.895,0
	C101.671,272.472,296.454,273.17,308.626,273.17"/>
<path fill="#A8A8A8" d="M308.626,334.595c12.167,0,206.94-0.694,206.94,3.934c0,5.929-413.895,5.929-413.895,0
	C101.671,333.901,296.454,334.595,308.626,334.595"/>
<path fill="#A8A8A8" d="M308.626,404.984c12.167,0,206.94-0.699,206.94,3.928c0,5.934-413.895,5.926-413.895,0
	C101.671,404.285,296.454,404.984,308.626,404.984"/>
<path fill="#A8A8A8" d="M373.936,209.184c8.773,0,147.392-0.69,147.392,3.929c0,5.924-294.793,5.924-294.793,0
	C226.534,208.498,365.161,209.184,373.936,209.184"/>
<path fill="#A8A8A8" d="M308.639,465.086c12.172,0,206.905-0.65,206.905,3.951c0,5.969-413.873,5.969-413.873,0
	C101.671,464.436,296.472,465.086,308.639,465.086"/>
<path fill="#A8A8A8" d="M240.892,530.404c8.309,0,139.202-0.695,139.202,3.924c0,5.926-278.427,5.926-278.427,0
	C101.671,529.709,232.583,530.404,240.892,530.404"/>
<path fill="#DBDBDB" d="M373.674,594.736c57.085,5.68,114.775-24.012,152.927-64.615c21.265-22.582,33.042-52.258,49.7-78.008
	c15.667-24.201,10.894,21.389,10.871,30.789c-0.062,27.035,12.371,94.463-21.627,103.697
	C504.979,603.066,435.387,597.363,373.674,594.736"/>
<path fill="#DBDBDB" d="M538.688,459.896c-7.729,1.686-15.733,2.078-23.622,1.91C514.412,469.51,533.906,461.879,538.688,459.896
	 M578.774,334.971c-1.694,12.809-5.518,25.379-10.712,37.184c-9.906,22.512,0.726,45.757-5.102,68.947
	C584.867,412.352,584.535,369.08,578.774,334.971"/>
<path fill="#D2D2D2" d="M562.895,382.711c-7.375,13.636-17.101,26.001-28.918,36.068c-10.132,8.615-17.256,7.766-17.791,21.879
	c-0.261,7.049-0.549,14.105-1.119,21.145c17.065,0.371,30.785-2.49,42.988-15.016C570.766,433.756,563.134,399.838,562.895,382.711"
	/>
<path fill="#DBDBDB" d="M443.643,465.184C440.581,466.859,443.806,466.52,443.643,465.184"/>
<path fill="#D2D2D2" d="M442.562,449.201c-12.649,0-22.073,4.951-28.073,16.455c7.274,0.08,22.821,3.01,29.153-0.473
	C443.643,460.844,442.788,454.121,442.562,449.201"/>
<path fill="#DBDBDB" d="M512.297,461.715C512.434,464.1,512.682,468.502,512.297,461.715"/>
<path fill="#D2D2D2" d="M512.297,460.113C512.395,462.586,512.442,461.914,512.297,460.113"/>
<path fill="#DBDBDB" d="M427.308,499.322c-4.827,15.826-13.27,30.494-23.578,43.363c-12.765,15.938-13.039,38.404-30.056,52.051
	C414.118,583.037,428.294,537.094,427.308,499.322 M435.868,472.156C435.258,472.156,433.068,474.268,435.868,472.156
	 M458.062,465.166c-2.469-0.041-12.256-1.23-12.534,0.928C449.744,466.422,453.921,466.117,458.062,465.166 M512.297,465.166
	h-15.959C501.651,465.324,506.97,465.324,512.297,465.166"/>
<path fill="#D2D2D2" d="M435.364,472.16c-25.48,0.373-26.264,2.42-30.484,27.348c-2.929,17.301-4.694,34.807-8.689,51.922
	c12.499-13.49,22.9-29.219,29.241-46.537C429.838,492.895,427.06,483.318,435.364,472.16"/>
<linearGradient id="SVGID_4_" gradientUnits="userSpaceOnUse" x1="78.9624" y1="702.9023" x2="393.5212" y2="702.9023" gradientTransform="matrix(4.4245 0 0 -4.4245 6.7878 3572.1802)">
	<stop  offset="0" style="stop-color:#DBDBDB"/>
	<stop  offset="1" style="stop-color:#636363"/>
</linearGradient>
<path fill="url(#SVGID_4_)" d="M476.667,459.02c-4.014,0-30.325,0.031-31.024,6.146c22.153,0.57,44.461,0,66.649,0v-3.447
	C500.328,461.232,488.679,459.02,476.667,459.02"/>
<linearGradient id="SVGID_5_" gradientUnits="userSpaceOnUse" x1="78.7812" y1="705.7539" x2="394.7727" y2="705.7539" gradientTransform="matrix(4.4245 0 0 -4.4245 6.7878 3572.1802)">
	<stop  offset="0" style="stop-color:#D2D2D2"/>
	<stop  offset="1" style="stop-color:#5E5E5E"/>
</linearGradient>
<path fill="url(#SVGID_5_)" d="M443.258,461.02c0.058,1.256,0.062,3.438,0.385,4.146
	C443.519,463.785,443.381,462.404,443.258,461.02 M511.08,434.039c-10.513,5.363-21.772,9.164-33.303,11.592
	c-19.773,4.164-29.874-3.234-32.021,18.49c20.973-9.619,44.652-3.273,66.54-2.402C511.858,452.494,511.372,443.273,511.08,434.039"
	/>
<path fill="#909090" d="M446.73,449.131l-4.168,0.076c0.262,5.623,0.575,11.25,1.187,16.865
	C448.288,466.148,446.606,451.834,446.73,449.131"/>
<path fill="#909090" d="M516.509,431.092c-9.649,5.572-5,23.207-3.766,34.057C517.686,464.984,516.372,435.57,516.509,431.092"/>
<path fill="#909090" d="M414.489,465.656l-3.004,6.801c16.468-0.168,24.29-3.416,39.17-6.273
	C438.599,465.967,426.546,465.793,414.489,465.656"/>
<path fill="#D0D0D0" d="M409.539,593.391c-4.841,0.178-9.672,0.301-14.517,0.377C399.894,594.562,404.733,594.439,409.539,593.391
	 M583.553,420.426c-4.079,0-20.349,46.23-22.512,50.395c-19.905,38.254-48.599,73.305-83.645,98.66
	c35.918-20.771,60.155-50.07,80.445-85.512c7.172-12.521,13.402-27.064,22.937-38.037
	C583.035,443.33,589.42,420.426,583.553,420.426"/>
<path fill="#BFBFBF" d="M584.473,443.273c-13.512,0.004-44.178,70.5-53.262,81.578c-32.612,39.816-78.034,63.854-128.251,69.402
	c28.684,1.654,59.429,6.451,85.923-5.846c26.25-12.189,55.031-29.736,67.565-57.109c6.946-15.172,3.778-48.117,21.578-56.457
	C586.247,470.988,589.101,443.273,584.473,443.273"/>
<path fill="#FFFFFF" d="M440.567,474.135c0,15.816,94.25,14.162,91.551-6.531C530.981,458.91,440.567,462.051,440.567,474.135"/>
</svg>
