<?xml version="1.0" encoding="utf-8"?>
<!-- Generator: Adobe Illustrator 21.1.0, SVG Export Plug-In . SVG Version: 6.00 Build 0)  -->
<svg version="1.1" id="Layer_1" xmlns="http://www.w3.org/2000/svg" xmlns:xlink="http://www.w3.org/1999/xlink" x="0px" y="0px"
	 viewBox="0 0 76 68.6" style="enable-background:new 0 0 76 68.6;" xml:space="preserve">
<style type="text/css">
	.st0{fill:#E34B5F;}
	.st1{fill:#E7CE9C;}
	.st2{fill:#1E7889;}
	.st3{fill:#97BAA6;}
</style>
<title>logo</title>
<g id="Layer_3">
	<path class="st0" d="M76,49.9c0,0.9-0.4,1.8-1,2.5L59.2,68.2c-0.6,0.5-1.4,0.5-2,0c-0.3-0.3-0.4-0.6-0.4-1V31.9l19-18.9H76V49.9z"
		/>
	<path class="st1" d="M63.5,0.4c-0.5-0.6-1.4-0.6-2,0c0,0,0,0,0,0L38,23.9h-0.3v26.5L38,51l18.8-18.8L76,13L63.5,0.4z"/>
	<path class="st2" d="M0,49.9c0,0.9,0.4,1.8,1,2.5l15.8,15.8c0.6,0.5,1.4,0.5,2,0c0.3-0.3,0.4-0.6,0.4-1V31.9L0.2,13H0V49.9z"/>
	<path class="st3" d="M14.6,0.4c-0.5-0.6-1.4-0.6-2,0c0,0,0,0,0,0L0,13l19.2,19.2L38,51V23.9L14.6,0.4z"/>
</g>
</svg>
