<?xml version="1.0" encoding="UTF-8" standalone="no"?>
<svg viewBox="0 0 463.07864 463.07864" xmlns="http://www.w3.org/2000/svg">
<defs>
<filter id="filter5590">
<feGaussianBlur stdDeviation=".8107"/>
</filter>
<filter id="filter5827">
<feGaussianBlur stdDeviation="1.0174"/>
</filter>
<linearGradient gradientUnits="userSpaceOnUse" id="linearGradient5957" x1="277.5" x2="284.25" y1="484.14483" y2="443.87658">
<stop offset="0" stop-color="#89269d"/>
<stop offset=".33681" stop-color="#a40000"/>
<stop offset="1" stop-color="#89269d" stop-opacity="0"/>
</linearGradient>
<linearGradient gradientUnits="userSpaceOnUse" id="linearGradient5965" x1="242.37724" x2="252.07443" y1="226.28256" y2="338.54925">
<stop offset="0" stop-color="#2a5e89"/>
<stop offset="1" stop-color="#2a5e89" stop-opacity="0"/>
</linearGradient>
<linearGradient gradientTransform="matrix(0,1,-1,0,511.37658,554.37659)" gradientUnits="userSpaceOnUse" id="linearGradient5974" x1="-356.81097" x2="47.81096">
<stop offset="0"/>
<stop offset="1" stop-color="#fff" stop-opacity=".99608"/>
</linearGradient>
<linearGradient gradientUnits="userSpaceOnUse" id="linearGradient5989" spreadMethod="reflect" x1="-838.1897" x2="-807.76764" y1="-119.63782" y2="-191.78227">
<stop offset="0" stop-color="#cdd0ce"/>
<stop offset="1" stop-color="#cdd0ce" stop-opacity="0"/>
</linearGradient>
<linearGradient gradientUnits="userSpaceOnUse" id="linearGradient5991" x1="-228.88583" x2="22.88583">
<stop offset="0" stop-color="#aed3ff"/>
<stop offset=".21015" stop-color="#d6e9ff" stop-opacity=".13245"/>
<stop offset=".77785" stop-color="#c2deff" stop-opacity=".13245"/>
<stop offset="1" stop-color="#aed3ff"/>
</linearGradient>
<linearGradient gradientUnits="userSpaceOnUse" id="linearGradient5993" x1="-210.08661" x2="-149.5">
<stop offset="0" stop-color="#fff"/>
<stop offset="1" stop-color="#fff" stop-opacity=".03793"/>
</linearGradient>
<linearGradient gradientUnits="userSpaceOnUse" id="linearGradient5995" x1="-210.08661" x2="-164.82713" y1="245.86218" y2="249.55072">
<stop offset="0" stop-color="#fff"/>
<stop offset="1" stop-color="#fff" stop-opacity=".05314"/>
</linearGradient>
<linearGradient gradientUnits="userSpaceOnUse" id="linearGradient5999" x1="-153" x2="-145.55725" y1="-47.63782" y2="-89.63782">
<stop offset="0" stop-color="#2ad4ff"/>
<stop offset="1" stop-color="#2ad4ff" stop-opacity="0"/>
</linearGradient>
<radialGradient cx="-167" cy="337.36218" gradientTransform="matrix(1.33929,0,0,1.17188,495.16071,127.68933)" gradientUnits="userSpaceOnUse" id="radialGradient5961" r="56">
<stop offset="0" stop-color="#042b76"/>
<stop offset="1" stop-color="#2e75f8"/>
</radialGradient>
<radialGradient cx="81.5" cy="127.87659" gradientTransform="matrix(1.50477,.23121,-.16112,1.04861,317.46449,104.9398)" gradientUnits="userSpaceOnUse" id="radialGradient5971" r="231.53931">
<stop offset="0" stop-color="#acacac"/>
<stop offset="1"/>
</radialGradient>
</defs>
<g transform="translate(-45.96068,-168.33727)">
<path d="m483,326.36218a187,187 0 1,1 -374,0 187,187 0 1,1 374,0z" fill="#212121" stroke="#000" stroke-linecap="round" stroke-linejoin="round" stroke-width="3.54331" transform="translate(-18.5,73.5144)"/>
<path d="m478.27471,399.87658c0-110.626-90.14871-200.77471-200.77472-200.77471s-200.77471,90.14871-200.77471,200.77471 90.14871,200.77472 200.77471,200.77472 200.77472-90.14871 200.77472-200.77472zm-36.87015,0c0,90.67696-73.22761,163.90457-163.90457,163.90457s-163.90456-73.22761-163.90456-163.90457 73.22761-163.90456 163.90456-163.90456 163.90457,73.22761 163.90457,163.90456z" fill="#a3a3a3" stroke="url(#linearGradient5974)" stroke-linecap="round" stroke-linejoin="round" stroke-width="3.07251"/>
<path d="m277.49999,168.33727c-127.57716,0-231.53931,103.96215-231.53931,231.53932s103.96215,231.53931 231.53931,231.53931 231.53932-103.96215 231.53932-231.53931-103.96215-231.53932-231.53932-231.53932zm0,42.51974c104.57134,0 189.01958,84.44824 189.01958,189.01958s-84.44824,189.01957-189.01958,189.01957-189.01957-84.44824-189.01957-189.01957 84.44824-189.01958 189.01957-189.01958z" fill="url(#radialGradient5971)"/>
<path d="m22,249.36218a125,125 0 1,1 -250,0 125,125 0 1,1 250,0z" fill="none" stroke="url(#linearGradient5991)" stroke-linecap="round" stroke-linejoin="round" stroke-width="1.77165" transform="matrix(0,-1,1,0,28.13781,296.87659)"/>
<path d="m-96,245.86218a53.5,51.5 0 1,1 -107,0 53.5,51.5 0 1,1 107,0z" fill="none" filter="url(#filter5590)" stroke="url(#linearGradient5993)" stroke-linecap="round" stroke-linejoin="round" stroke-width="8.85827" transform="matrix(0,1,-1,0,523.36218,549.37659)"/>
<path d="m-96,245.86218a53.5,51.5 0 1,1 -107,0 53.5,51.5 0 1,1 107,0z" fill="none" opacity=".55517" stroke="url(#linearGradient5995)" stroke-linecap="round" stroke-linejoin="round" stroke-width="4.79556" transform="matrix(0,1.30488,-1.35555,0,610.77843,594.9554)"/>
<path d="m277.5,235.74324c-69.04954,0-126.98442,47.89937-142.34375,112.26669h284.6875c-15.35935-64.36732-73.29422-112.26669-142.34375-112.26669z" fill="url(#linearGradient5965)"/>
<path d="m22,249.36218a125,125 0 1,1 -250,0 125,125 0 1,1 250,0z" fill="none" stroke="url(#linearGradient5991)" stroke-linecap="round" stroke-linejoin="round" stroke-width="1.77165" transform="matrix(0,-.86893,.86893,0,60.82199,310.37691)"/>
<path d="m271.5,457.42346c-41.4,0-75,29.39999-75,65.625 0,6.57736 1.12652,12.91403 3.1875,18.90625 23.48983,12.98301 50.51703,20.37501 79.3125,20.375 21.34672,0 41.72135-4.04864 60.40625-11.4375 4.54044-8.45631 7.09375-17.88771 7.09375-27.84375 0-36.225-33.6-65.62501-75-65.625z" fill="url(#radialGradient5961)" opacity=".34138"/>
<path d="m-114-68.63782a39,21 0 1,1 -78,0 39,21 0 1,1 78,0z" fill="#5fd3bc" opacity=".3838" transform="translate(430.5,404.5144)"/>
<path d="m300.00603,403.60835-46.93133,1.15879-9.3247,73.0043c9.5194,4.03888 20.62959,6.37339 32.50067,6.37339 12.92428,0 24.9511-2.77185 34.99933-7.49598l-11.24397-73.0405z" fill="url(#linearGradient5957)" opacity=".92759"/>
<path d="m-114-68.63782a39,21 0 1,1 -78,0 39,21 0 1,1 78,0z" fill="url(#linearGradient5999)" opacity=".3838" transform="matrix(1.67949,0,0,1,535.96153,383.5144)"/>
<path d="m64.54814,410.36216 1.65566-.16702c-.43896.57824-.74991,1.1802-.93284,1.80587-.18343.62051-.24117,1.26759-.17323,1.94125 .13384,1.32661.64308,2.30125 1.52774,2.92393s2.08619.85746 3.62006.70272 2.6643-.62472 3.40678-1.41155 1.03905-1.84275.90523-3.16935c-.06796-.67366-.25377-1.29617-.55744-1.86755-.30419-.57654-.72909-1.10426-1.27471-1.58318l1.64011-.16545c.42852.51167.76716,1.06642 1.01592,1.66426 .24823.59267.40685,1.23101.47585,1.91503 .17721,1.75672-.21956,3.19442-1.19031,4.31312-.97592,1.11923-2.39406,1.77267-4.25442,1.96033-1.86552.18819-3.38559-.16886-4.56022-1.07115-1.17978-.90177-1.85828-2.23101-2.0355-3.98772-.07004-.69439-.04263-1.35673.08223-1.98704s.33554-1.24045.64909-1.8165m.27665-6.96304 5.89639,1.8733-.19587-4.28459-5.70052,2.41129m-1.51239.9607-.08171-1.7872 11.44888-4.97336 .07493,1.63892-2.94054,1.19804 .24012,5.25233 3.03759.92474 .07599,1.66232-11.85526-3.91579m-.29902-8.59271 .02445-2.12486 9.81669-5.05924-9.75717-.11229 .01762-1.53115 11.66329.13422-.02445,2.12486-9.81668,5.05925 9.75716.11229-.01762,1.53114-11.66329-.13422m.26083-12.66741 .15191-2.11956 10.10257-4.46109-9.73285-.69755 .10946-1.52733 11.63422.83382-.15191,2.11956-10.10256,4.46109 9.73284.69756-.10946,1.52733-11.63422-.83383m2.70636-17.19951c-.15227,1.13568.1499,2.09581.9065,2.8804s1.8664,1.26709 3.32728,1.46297 2.65152.01659 3.5874-.53582c.93657-.55755 1.481-1.40417 1.63327-2.53984s-.15058-2.09064-.90857-2.86491c-.7573-.77942-1.86381-1.26673-3.31954-1.46194s-2.65926-.01761-3.59514.53478-1.47891,1.3887-1.6312,2.52436m-1.26988-.17027c.21735-1.6209.93569-2.84357 2.15501-3.66802 1.21419-.82511 2.73497-1.11516 4.56236-.87015 1.82224.24435 3.21289.92478 4.17198,2.0413 .95392,1.11584 1.32221,2.48422 1.10487,4.10512-.21804,1.62608-.93449,2.85425-2.14935,3.68454s-2.73496,1.11518-4.56236.87015-3.21805-.92546-4.17198-2.0413c-.95838-1.12168-1.32856-2.49556-1.11053-4.12164m1.4771-8.45844 .41183-2.08471 10.57512-3.18275-9.57281-1.89107 .29676-1.50222 11.44292,2.2605-.41183,2.08471-10.57512,3.18276 9.57281,1.89106-.29676,1.50222-11.44292-2.2605m3.70472-16.959 2.51606-8.81189 1.15689.33032 6.75699,9.59907 2.07419-7.26437 1.27709.36465-2.61473,9.15746-1.15689-.33033-6.75698-9.59906-1.97553,6.9188-1.27709-.36465m6.04636-15.94451c-.3789,1.08138-.27725,2.08279.30495,3.00423s1.57142,1.61852 2.96245,2.10594 2.59332.55274 3.62161.20112c1.03002-.35652 1.73448-1.07547 2.11339-2.15685s.27554-2.07785-.31011-2.98948c-.58393-.91653-1.56895-1.61765-2.95507-2.10335s-2.6007-.55531-3.62899-.20371-1.72931,1.06074-2.10823,2.1421m-1.20916-.42369c.54082-1.5434 1.49169-2.59544 2.85261-3.15612s2.90403-.53872 4.64405.07097 2.95933,1.55573 3.67266,2.84321 .79222,2.70037.25141,4.24377c-.54253,1.54833-1.49267,2.60614-2.8504,3.17344-1.35602.56239-2.90403.53874-4.64406-.07097s-2.96423-1.55744-3.67266-2.84321-.79614-2.71276-.25361-4.26109m5.98393-11.94283c-.44597,1.05549-.40731,2.0613.11596,3.01744 .52531.95136 1.46683,1.71387 2.82456,2.28756 1.35294.57166 2.55356.71427 3.60188.42782s1.7985-.96459 2.24448-2.02007 .40529-2.05649-.12204-3.00305-1.46443-1.71285-2.81737-2.28452c-1.35773-.57367-2.56075-.7173-3.60907-.43087-1.04628.28166-1.79242.95022-2.2384,2.00569m-1.18022-.49869c.63654-1.50644 1.65151-2.49678 3.04491-2.97102 1.38861-.47624 2.9321-.35556 4.63046.36205 1.69357.7156 2.85595,1.73823 3.48714,3.06791s.62133,2.74473-.01519,4.25118-1.65316,2.50741-3.0438,2.98846-2.93209.35557-4.63046-.36205-2.86074-1.74025-3.48714-3.06791-.62447-2.75735.01408-4.26862m3.65134-7.82087 1.05517-2.10154 8.42918.90155-5.75094-6.23568 1.05517-2.10154 10.42391,5.23378-.69059,1.37543-9.15321-4.59578 5.79978,6.2777-.71163,1.41732-8.49905-.90167 9.15321,4.59577-.68709,1.36844-10.42391-5.23378m9.32858-17.5232 .82044-1.3481 8.82936,5.37346 2.95276-4.8518 1.13453.69046-3.7732,6.19991-9.96389-6.06393m4.9769-8.03849 4.12565-6.11307 1.10087.74297-3.24283,4.80497 2.86226,1.93172 3.10735-4.60423 1.10087.74296-3.10735,4.60423 3.50337,2.36438 3.32149-4.92154 1.10087.74297-4.20431,6.22963-9.66824-6.52499m6.08436-8.87625 1.28287-1.69406 10.90129,1.76779-7.779-5.89085 .92443-1.22072 9.29867,7.04166-1.28287,1.69407-10.90129-1.7678 7.77899,5.89085-.92442,1.22073-9.29867-7.04167m12.522-15.05958 1.17448.99464c-.60568.27196-1.13384.56519-1.58449.8797s-.83583.66059-1.15561,1.03816c-.55537.65581-.85735,1.27028-.90592,1.8434s.16671,1.05233.6357,1.44951c.39348.33324.79087.46843 1.19216.40559 .40069-.07017.94201-.38297 1.62397-.93841l.76501-.60112c.93162-.7535 1.79411-1.15945 2.5875-1.21785 .79277-.06571 1.55084.20772 2.27421.82032 .86248.73042 1.27058,1.57426 1.2243,2.53153-.04292.9533-.53729,1.98837-1.48312,3.10521-.3568.42131-.78485.83004-1.28415,1.2262-.49594.39219-1.05273.76356-1.67038,1.1141l-1.24006-1.05018c.68826-.25662 1.30054-.56052 1.83683-.91171s.9963-.75333 1.38002-1.20643c.5823-.68759.89653-1.33264.94266-1.93514s-.1812-1.11578-.68199-1.5399c-.43721-.37025-.89346-.52459-1.36877-.46302-.47194.05762-1.02869.34029-1.67026.84802l-.76411.61213c-.93955.74678-1.77009,1.15932-2.49162,1.23761s-1.42209-.17033-2.10175-.74592c-.78695-.66645-1.17305-1.46777-1.15828-2.40396 .01814-.94015.43954-1.89711 1.26419-2.87088 .35343-.41732.75135-.81062 1.19375-1.1799s.93099-.7165 1.46573-1.0417m9.99179-9.21794 1.63874,7.20832 2.7965-2.8381-4.43524-4.37022m-1.27004-.67012 1.39277-1.41349 5.41465,5.33528 1.16795-1.18532 .93491.9212-1.16795,1.18532 1.95885,1.93013-1.10215,1.11855-1.95885-1.93013-3.69577,3.75075-1.08515-1.06925-1.85926-8.64304m12.04544-7.43791 .5565,5.27547 5.49119,1.05026-1.24714,1.14836-4.20205-.80359 .45487,4.25395-1.24714,1.14835-.60106-5.66986-5.11329-.96281 1.24714-1.14835 3.81841.72142-.40457-3.86485 1.24714-1.14835" fill="#e6e6e6"/>
<path d="m-414-119.63782a212,212 0 1,1 -424,0 212,212 0 1,1 424,0z" fill="none" opacity=".67606" stroke="url(#linearGradient5989)" stroke-linecap="round" stroke-linejoin="round" stroke-width=".37938" transform="matrix(.87231,0,0,.87231,823.56756,506.10672)"/>
<path d="m-414-119.63782a212,212 0 1,1 -424,0 212,212 0 1,1 424,0z" fill="none" opacity=".67606" stroke="url(#linearGradient5989)" stroke-linecap="round" stroke-linejoin="round" stroke-width=".37938" transform="matrix(.85351,7.7214931e-2,-7.7214931e-2,.85351,799.30963,555.44383)"/>
<path d="m275.5,211.84375c-104.57133,0-189.03124,84.45991-189.03125,189.03125s84.45991,189.03125 189.03125,189.03125 189.03126-84.45992 189.03125-189.03125-84.45992-189.03125-189.03125-189.03125z" fill="none" stroke="#000" stroke-linecap="round" stroke-linejoin="round" stroke-width="3.54331"/>
<path d="m-137,243.36218-21.62436,9.45449-19-14 2.62436-23.45449 21.62436-9.45448 19,14-2.62436,23.45448z" fill="#ff7f2a" filter="url(#filter5827)" opacity=".67606" transform="matrix(.63005,0,0,.54478,371.2873,255.08841)"/>
<path d="m-137,243.36218-21.62436,9.45449-19-14 2.62436-23.45449 21.62436-9.45448 19,14-2.62436,23.45448z" fill="#636667" filter="url(#filter5827)" opacity=".67606" transform="matrix(.7919,0,0,.7919,414.22899,209.02503)"/>
<path d="m-414-119.63782a212,212 0 1,1 -424,0 212,212 0 1,1 424,0z" fill="none" opacity=".67606" stroke="url(#linearGradient5989)" stroke-linecap="round" stroke-linejoin="round" stroke-width=".37938" transform="matrix(.83843,.12016,-.12016,.83843,782.61194,582.64453)"/>
</g>
</svg>
