<?xml version="1.0" encoding="utf-8"?>
<!-- Generator: Adobe Illustrator 20.0.0, SVG Export Plug-In . SVG Version: 6.00 Build 0)  -->
<svg version="1.1" xmlns="http://www.w3.org/2000/svg" xmlns:xlink="http://www.w3.org/1999/xlink" x="0px" y="0px"
	 viewBox="0 0 7494.6 2374" style="enable-background:new 0 0 7494.6 2374;" xml:space="preserve">
<style type="text/css">
	.st0{fill:#FFFFFF;}
	.st1{fill:none;stroke:#FFFFFF;stroke-width:18;stroke-miterlimit:10;}
	.st2{fill:#009688;}
</style>
<g id="Layer_2">
	<g>
		<path class="st0" d="M2992.6,27h99.2c40.6,0,71.8,10.4,93.7,31.2c21.8,20.8,32.8,51.5,32.8,92.1c0,70.1-25.6,110.3-76.8,120.4v2.8
			c29.5,6.1,51.5,19.3,65.9,39.5c14.4,20.2,21.6,48.3,21.6,84.5c0,46.3-10.3,82.4-30.8,108.4c-20.5,26-49.3,39-86.4,39h-119V27z
			 M3027.3,257.5h65.2c32.3,0,55.4-8.9,69.2-26.7c13.8-17.8,20.7-44.9,20.7-81.3c0-29.3-7.6-51.7-22.8-67.3
			c-15.2-15.6-37.8-23.4-67.8-23.4h-64.5V257.5z M3027.3,289.4v223.5h79.7c57.1,0,85.7-38.7,85.7-116.2c0-34.5-8.4-61-25.1-79.5
			c-16.8-18.5-40.3-27.8-70.5-27.8H3027.3z"/>
		<path class="st0" d="M3417.5,551.8c-40.6,0-71.8-17.3-93.7-51.9c-21.8-34.6-32.8-82.8-32.8-144.7c0-65.6,9.7-115.7,29.2-150.3
			c19.5-34.6,47.5-51.9,84.1-51.9c31.9,0,57,15.2,75.4,45.5c18.4,30.3,27.6,71.2,27.6,122.7v31.2h-182c0.5,56,8.4,97.9,23.7,125.7
			c15.3,27.9,38.6,41.8,69.8,41.8c24.1,0,49.5-7.9,76.1-23.7v32.6C3470.5,544.1,3444.7,551.8,3417.5,551.8z M3402.3,183.5
			c-46.3,0-71.7,46.2-76.1,138.5h147.7c0-42.3-6.4-75.9-19.3-100.9C3441.7,196,3424.3,183.5,3402.3,183.5z"/>
		<path class="st0" d="M3663.3,520.7c10.4,0,19.6-1.4,27.6-4.2v28.3c-10.4,4.7-23.7,7.1-40,7.1c-39.7,0-59.5-29.6-59.5-88.9V190.3
			h-34.7v-19.8l34-9.9l11-91.4h23.4v91.4h60.9v29.7H3625v263.1c0,26,2.8,43.7,8.5,53.1C3639.2,515.9,3649.1,520.7,3663.3,520.7z"/>
		<path class="st0" d="M3900.6,544.7l-4.2-53.8h-1.4c-18.4,40.6-46.3,60.9-83.6,60.9c-25,0-45.2-10-60.4-29.9
			c-15.2-19.9-22.8-46.7-22.8-80.2c0-36.6,11-65.6,32.9-86.9c22-21.4,52.8-33,92.4-34.9l41.4-2.1v-31.9c0-35.9-4.5-62-13.5-78.4
			c-9-16.4-23.8-24.6-44.6-24.6c-22,0-44.4,7.2-67.3,21.6l-14.5-26.6c26.7-16.5,54.7-24.8,83.9-24.8c31.6,0,54.4,10,68.3,29.9
			c13.9,20,20.9,53.3,20.9,100v261.7H3900.6z M3818.8,523.1c24.1,0,42.8-11.9,56.1-35.6c13.3-23.7,20-57.3,20-100.7v-40l-40,2.1
			c-30.9,1.7-53.9,10.2-68.9,25.7c-15,15.5-22.5,38.1-22.5,67.8c0,27.9,5,48.3,14.9,61.3C3788.3,516.6,3801.8,523.1,3818.8,523.1z"
			/>
	</g>
</g>
<g id="Layer_1">
	<title>Rumpel-logo-with-text</title>
	<path class="st0" d="M3077.3,1344.6v539h-82.7V650.4h168.7c120.3,0,208.3,28.4,264,85.2s83.5,141.7,83.5,254.8
		c0,85.5-15.2,155.8-45.6,210.9c-30.4,55.1-81.3,96.4-152.7,124l244.6,558.5h-92.8l-230.3-539L3077.3,1344.6z M3077.3,1268.7h115.6
		c74.8,0,132.4-23.1,172.9-69.2c40.5-46.1,60.7-114.7,60.7-205.8c0-92.8-20.7-159.7-62-200.8c-41.3-41.1-106.4-61.6-195.3-61.6h-92
		L3077.3,1268.7z"/>
	<path class="st0" d="M3792.6,968.4v597.2c0,90.6,10.8,156.6,32.5,198.2c21.7,41.6,55,62.4,100,62.4c69.2,0,119.9-28,152.3-83.9
		c32.3-56,48.5-146.4,48.5-271.2V968.4h79.3v915.3h-67.5l-10.1-128.2h-6.8c-19.7,46.7-47,82.5-81.8,107.6
		c-34.9,25-72.8,37.6-113.9,37.5c-73.7,0-127.5-26.2-161.6-78.4s-51-137.8-51-256.4V968.4H3792.6z"/>
	<path class="st0" d="M5227.6,1883.7v-623.4c0-153.5-45-230.3-135-230.3c-61.9,0-106.4,26.9-133.7,80.6S4918,1243.4,4918,1348v535.7
		h-79.3v-623.4c0-77.6-11-135.4-32.9-173.4c-21.9-38-56-56.9-102.1-56.9c-60.7,0-104.9,27.6-132.4,82.7
		c-27.6,55.1-41.3,144.5-41.3,268.3v502.8h-80.1V968.4h67.5l6.8,127.4h7.6c36.5-96.7,98.7-145.1,186.4-145.1
		c50.6,0,90.5,13.5,119.8,40.5c29.2,27,50.3,66.4,63.3,118.1c21.9-56.2,48.9-96.7,81-121.5s73.7-37.1,124.9-37.1
		c69.2,0,119.8,26.6,151.8,79.7c32.1,53.1,48.1,138.2,48.1,255.2v598.1L5227.6,1883.7z"/>
	<path class="st0" d="M5843.4,1900.5c-46.1,0-88.2-12.8-126.1-38.4s-66.8-60.6-86.5-105h-7.6l5.9,100.4v441.2H5549V968.4h65.8
		l8.4,125.7h7.6c22.5-46.1,51.3-81.5,86.5-106.3c35.2-24.8,73.5-37.1,115.1-37.1c178.8,0,268.3,157.7,268.3,473.3
		c0,152.4-21.9,270-65.8,352.6C5991,1859.2,5927.2,1900.5,5843.4,1900.5z M5827.4,1026.6c-66.9,0-116.7,29.5-149.3,88.6
		c-32.6,59.1-48.9,151.6-48.9,277.5v26.2c0,140.6,16.6,243.9,49.8,310c33.2,66.1,83.8,99.1,151.8,99.2c63,0,109.8-32.8,140.5-98.3
		c30.7-65.5,46-167.5,46-305.8c0-132.2-14.3-231.4-43-297.8C5945.5,1059.8,5896.6,1026.6,5827.4,1026.6L5827.4,1026.6z"/>
	<path class="st0" d="M6562.1,1900.5c-96.7,0-171.1-41.2-223.1-123.6c-52-82.4-78-197.3-78-344.6c0-156.3,23.2-275.7,69.6-358.1
		s113.2-123.6,200.4-123.6c75.9,0,135.8,36.1,179.7,108.4s65.8,169.7,65.8,292.3v74.2h-433.6c1.1,133.3,20,233.1,56.5,299.5
		s92,99.5,166.2,99.5c57.3,0,117.8-18.8,181.4-56.5v77.6C6688.4,1882.3,6626.8,1900.5,6562.1,1900.5z M6525.8,1023.2
		c-110.2,0-170.7,109.9-181.4,329.8h351.8c0-100.7-15.3-180.8-46-240.4C6619.6,1053,6578.1,1023.2,6525.8,1023.2z"/>
	<path class="st0" d="M7059.8,1883.7h-80.1V571h80.1V1883.7z"/>
	<path class="st0" d="M7335,387h45.8c7.5,0,13.8,1.1,18.7,3.4c9.3,4.3,13.9,12.2,14,23.8c0,6-1.2,11-3.7,14.8
		c-2.6,4-6.2,7.1-10.5,9.3c3.5,1.3,6.5,3.4,8.9,6.3c2,2.6,3.1,6.8,3.3,12.7l0.5,13.5c0,2.9,0.4,5.8,1,8.6c0.8,3.2,2.3,5.3,4.4,6.2
		v2.3h-16.7c-0.5-1.1-0.9-2.2-1.1-3.4c-0.4-2.6-0.6-5.3-0.7-8l-0.8-16.8c-0.3-6.6-2.7-11-7.1-13.2c-2.5-1.2-6.5-1.9-11.9-1.9h-30.2
		v43.2H7335V387z M7379.3,433.2c6.2,0,11.2-1.3,14.8-3.8c3.6-2.6,5.4-7.2,5.4-13.9c0-7.2-2.5-12.1-7.6-14.7
		c-2.7-1.4-6.3-2.1-10.9-2.1h-32.4v34.4L7379.3,433.2z"/>
	<circle class="st1" cx="7373.6" cy="436" r="112"/>
	<circle class="st2" cx="1187" cy="1187" r="1187"/>
	<path class="st0" d="M596.8,807.4l413.8-190.6v437l-413.8,185.3V807.4z"/>
	<path class="st0" d="M1125.7,574l413.8-190.6v437l-413.8,185.4V574z"/>
	<path class="st0" d="M1454.2,1429.8l413.8-190.6v437l-413.8,185.3V1429.8z"/>
	<path class="st0" d="M596.8,1386.5l413.8-190.6v437l-413.8,185.3V1386.5z"/>
</g>
</svg>
