<svg xmlns="http://www.w3.org/2000/svg" xmlns:xlink="http://www.w3.org/1999/xlink" width="35" height="35" viewBox="0 0 35 35">
    <defs>
        <circle id="a" cx="17.5" cy="17.5" r="17.5"/>
    </defs>
    <g fill="none" fill-rule="evenodd">
        <use fill="#FFF" xlink:href="#a"/>
        <g fill-rule="nonzero">
            <path fill="#FFF" d="M13.899 10.068a.607.607 0 0 1 .382.034c.177.072.3.24.344.422.014.13.01.267-.05.387a.59.59 0 0 1-.666.319.608.608 0 0 1-.46-.59.587.587 0 0 1 .45-.572zM21.506 10.06a.705.705 0 0 1 .385.038.596.596 0 0 1 .345.508.63.63 0 0 1-.178.456.62.62 0 0 1-.399.178.607.607 0 0 1-.556-.35c-.061-.116-.05-.246-.044-.373a.612.612 0 0 1 .447-.456zM20.742 19.104h.904c-.004 1.2 0 2.407 0 3.607h-.9c0-1.203 0-2.407-.004-3.607z"/>
            <g fill="#C7C7C7">
                <path d="M10.985 9.54c.191-.083.4-.1.604-.09h12.646a1.203 1.203 0 0 1 1.204 1.235c-.003.411.003.822-.003 1.234a1.196 1.196 0 0 0-.427-.069H10.7c-.15.004-.307.01-.45.069-.007-.429-.004-.854-.004-1.282 0-.47.304-.926.74-1.097zm2.914.528a.596.596 0 0 0-.45.572.605.605 0 0 0 .46.59.589.589 0 0 0 .665-.32.686.686 0 0 0 .051-.386.585.585 0 0 0-.344-.422.607.607 0 0 0-.382-.034zm7.607-.007a.607.607 0 0 0-.447.456c-.007.123-.014.26.044.373a.59.59 0 0 0 .556.35c.15-.007.3-.069.4-.178a.63.63 0 0 0 .177-.456.605.605 0 0 0-.345-.508.705.705 0 0 0-.385-.037zM21.434 15.494a.508.508 0 0 1 .215-.024c-.003 1.204 0 2.414-.003 3.617v.01h-.904v-.006-2.5c-.6.2-1.198.402-1.798.604v-.816c.825-.298 1.661-.586 2.49-.885zM14.093 15.926a2.357 2.357 0 0 1 1.313-.456c.464-.013.949.062 1.358.299a1.7 1.7 0 0 1 .716.83c.14.346.185.726.144 1.096-.089.59-.543 1.07-1.075 1.307.075.024.15.051.222.085a.641.641 0 0 1-.143.01c-.625-.003-1.256.004-1.88-.003a4.137 4.137 0 0 1 .003-.411c.454-.01.928.044 1.351-.155.348-.147.608-.483.655-.857.041-.356.007-.754-.204-1.052-.164-.24-.45-.374-.73-.415-.382-.051-.799-.014-1.116.22-.314.222-.48.613-.47.997-.29.007-.58.004-.87.004.006-.162.017-.32.06-.474.09-.41.335-.774.666-1.025z"/>
            </g>
            <g fill="#4483EF">
                <path d="M10.252 11.922a1.33 1.33 0 0 1 .45-.068h14.31c.147 0 .294.013.427.068.413.151.747.535.791.98a1.289 1.289 0 0 0-.535-.757 1.207 1.207 0 0 0-.655-.192c-4.786.004-9.572.004-14.358.004a1.224 1.224 0 0 0-.955.432c-.113.12-.167.274-.246.414.072-.408.386-.747.771-.88zM20.725 19.094h.017v.01c.003 1.2 0 2.407 0 3.607h.9c0-1.2-.003-2.407 0-3.607v-.01h.014c.13.014.266.007.396.007 1.129 0 2.254-.003 3.384 0 .13 1.892.252 3.792.382 5.684.01.22.04.439-.017.651l-.004.007c-.054.065-.085.14-.126.21-.208.346-.604.579-1.01.575-4.5-.003-8.992.004-13.488 0-.143 0-.283.007-.423-.03a1.244 1.244 0 0 1-.75-.577c-.035-.065-.065-.126-.11-.181l-.006-.007c-.075-.281-.014-.58-.004-.867.123-1.82.239-3.645.369-5.465 1.497-.003 2.995-.003 4.496 0 0 .086.003.175 0 .26.474.007.968-.047 1.422.141.304.12.556.374.648.69.106.349.092.733-.03 1.076a1.1 1.1 0 0 1-.72.665 1.825 1.825 0 0 1-1.215-.055 1.1 1.1 0 0 1-.624-.693 1.493 1.493 0 0 1-.065-.425c-.29.004-.573 0-.863 0 .004.367.092.734.297 1.042.218.336.55.58.918.724a2.84 2.84 0 0 0 1.473.147c.481-.075.949-.295 1.273-.661.3-.336.453-.779.47-1.224.028-.425-.071-.871-.337-1.207-.15-.199-.358-.343-.57-.47.106-.01.205-.01.31-.01h3.183c.147-.003.277.007.41-.007z"/>
            </g>
            <g fill="#3664D0">
                <path d="M9.723 12.385a1.22 1.22 0 0 1 .955-.432c4.786 0 9.572 0 14.358-.003.232-.004.461.068.655.192.27.168.454.452.536.757a.97.97 0 0 1 .003.33c-.259 1.957-.528 3.911-.788 5.869-1.081-.004-2.166 0-3.244 0-.18 0-.358.006-.539-.004h-.013c.003-1.203-.004-2.413.003-3.617a.419.419 0 0 0-.215.024c-.832.299-1.665.587-2.493.885.003.27 0 .545 0 .816.6-.2 1.197-.401 1.797-.604v2.5h-.017c-1.259.01-2.514 0-3.773.003-.064 0-.126.017-.187-.007a1.097 1.097 0 0 0-.222-.086c.532-.236.986-.716 1.075-1.306.04-.37-.004-.754-.144-1.097a1.682 1.682 0 0 0-.716-.83c-.41-.236-.89-.311-1.358-.298a2.273 2.273 0 0 0-1.313.456c-.331.247-.577.614-.679 1.015-.04.154-.051.315-.061.473.29 0 .58.004.87-.003-.007-.38.156-.775.47-.998.317-.233.737-.27 1.116-.22.28.042.566.179.73.416.215.305.245.695.204 1.052a1.092 1.092 0 0 1-.655.857c-.423.199-.9.144-1.35.154h-.01c.003.137 0 .275.003.412a984.234 984.234 0 0 0-4.5 0c-.256-1.917-.518-3.836-.77-5.753-.031-.182-.042-.37.003-.545.099-.134.157-.288.27-.408zM9.89 25.443c.045.055.075.12.11.182.156.284.436.49.75.576.14.038.28.03.423.03 4.496 0 8.992-.003 13.488 0 .41.004.802-.229 1.01-.575.04-.072.072-.151.126-.21a1.19 1.19 0 0 1-.788.823c-.208.076-.436.055-.655.055h-13.14c-.177 0-.351.004-.522-.051a1.193 1.193 0 0 1-.802-.83z"/>
            </g>
        </g>
    </g>
</svg>
