<svg id="Layer_1" data-name="Layer 1" xmlns="http://www.w3.org/2000/svg" viewBox="0 0 500 500"><defs><style>.cls-1{fill:#14233c;}.cls-2{fill:#e44d60;}.cls-3{fill:#e4bd7a;}.cls-4{fill:#1c798a;}.cls-5{fill:#77b691;}</style></defs><title>Artboard 11</title><rect class="cls-1" x="-0.43" y="-0.87" width="500" height="500"/><path class="cls-2" d="M384.89,301.21a12.54,12.54,0,0,1-3.67,8.86L325.1,366.19a5,5,0,0,1-8.56-3.54V236.89l67.58-67.19h.77Z"/><path class="cls-3" d="M340.11,124.92a5,5,0,0,0-7.09,0l-83.45,83.45h-1.16v94.18l1.16,2.48,67-67,68.35-68.35Z"/><path class="cls-4" d="M114.24,301.21a12.54,12.54,0,0,0,3.67,8.86L174,366.19a5,5,0,0,0,8.55-3.54V236.89L115,169.7h-.78Z"/><path class="cls-5" d="M166.12,124.92a5,5,0,0,0-7.09,0L114.24,169.7l68.35,68.35,67,67V208.37Z"/></svg>