<?xml version="1.0" encoding="utf-8"?>
<!-- Generator: Adobe Illustrator 16.0.0, SVG Export Plug-In . SVG Version: 6.00 Build 0)  -->
<!DOCTYPE svg PUBLIC "-//W3C//DTD SVG 1.1//EN" "http://www.w3.org/Graphics/SVG/1.1/DTD/svg11.dtd">
<svg version="1.1" id="Layer_1" xmlns="http://www.w3.org/2000/svg" xmlns:xlink="http://www.w3.org/1999/xlink" x="0px" y="0px"
	 width="468px" height="468px" viewBox="0 0 468 468" enable-background="new 0 0 468 468" xml:space="preserve">
<circle fill="#1DA1F2" cx="234" cy="234" r="234"/>
<g>
	<g transform="translate(-539.18 -568.86)">
		<path fill="#FFFFFF" d="M731.498,892.667c83.78,0,129.594-69.407,129.594-129.595c0-1.971-0.039-3.934-0.128-5.887
			c8.894-6.429,16.623-14.453,22.72-23.586c-8.161,3.627-16.943,6.069-26.157,7.17c9.404-5.639,16.624-14.559,20.031-25.192
			c-8.801,5.217-18.547,9.009-28.923,11.056c-8.312-8.853-20.146-14.391-33.247-14.391c-25.154,0-45.551,20.398-45.551,45.542
			c0,3.574,0.399,7.051,1.181,10.386c-37.855-1.905-71.423-20.029-93.889-47.589c-3.911,6.731-6.167,14.55-6.167,22.893
			c0,15.802,8.041,29.752,20.269,37.914c-7.473-0.231-14.493-2.282-20.628-5.697c-0.007,0.191-0.007,0.378-0.007,0.582
			c0,22.059,15.701,40.476,36.542,44.648c-3.828,1.044-7.854,1.604-12.011,1.604c-2.931,0-5.786-0.289-8.56-0.822
			c5.798,18.098,22.613,31.268,42.549,31.636c-15.59,12.218-35.228,19.495-56.571,19.495c-3.672,0-7.299-0.207-10.865-0.63
			c20.158,12.921,44.094,20.461,69.82,20.461"/>
	</g>
</g>
</svg>
