<?xml version="1.0" encoding="UTF-8" standalone="no"?>
<svg enable-background="new 0 0 138.322 138.188" viewBox="0 0 138.322 138.188" xmlns="http://www.w3.org/2000/svg">
<defs>
<linearGradient gradientUnits="userSpaceOnUse" id="XMLID_6_" x1="1.49629" x2="322.8733">
<stop offset="0" stop-color="#f4f4f4"/>
<stop offset="1" stop-color="#6e6e6e"/>
</linearGradient>
<linearGradient gradientUnits="userSpaceOnUse" id="XMLID_7_" x1="80.49629" x2="394.56556">
<stop offset="0" stop-color="#f4f4f4"/>
<stop offset="1" stop-color="#6e6e6e"/>
</linearGradient>
<linearGradient gradientUnits="userSpaceOnUse" id="XMLID_8_" x1="80.15175" x2="397.48503">
<stop offset="0" stop-color="#fff"/>
<stop offset="1" stop-color="#737373"/>
</linearGradient>
<linearGradient gradientUnits="userSpaceOnUse" id="XMLID_9_" x1="80.49629" x2="395.05516">
<stop offset="0" stop-color="#dbdbdb"/>
<stop offset="1" stop-color="#636363"/>
</linearGradient>
<linearGradient gradientUnits="userSpaceOnUse" id="XMLID_10_" x1="80.31495" x2="396.30636">
<stop offset="0" stop-color="#d2d2d2"/>
<stop offset="1" stop-color="#5e5e5e"/>
</linearGradient>
</defs>
<path d="m136.669,81.629v50.044c0,8.34-20.666,4.989-25.896,5.036-35.376.32-70.755.194-106.132.598-4.484.051-3.74-4.697-3.697-7.647 .125-8.313.212-16.628.273-24.944 .156-21.158.084-42.316.084-63.473v-36c0-5.146 8.066-3.724 11.321-3.724h99.693c4.165,0 24.354-2.984 24.354,4.05v76.06" fill="#fff"/>
<path d="m4.784.646c-6.545,0-4.342,13.481-4.342,17.319v33.806c0,22.804.037,45.608-.242,68.413-.054,4.51-.122,9.019-.193,13.528-.081,5.178 5.559,4.458 8.97,4.423 17.335-.185 34.671-.315 52.008-.367 20.792-.063 41.584-.082 62.376-.324 6.083-.071 14.183,1.502 14.183-6.552v-116.422c0-3.44 1.462-11.734-2.656-13.481-3.452-1.467-9.152-.342-12.723-.342h-63.988l-53.393-.001m-3.045,133.196c0-42.059.438-84.123.438-126.185 0-4.561 1.884-5.277 6.048-5.277h22.018 68.804c3.653,0 36.749-2.81 36.749,2.695v43.853 67.228 16.291c0,5.947-20.765,3.347-24.271,3.382-23.665.22-47.332.154-70.998.302-3.665.021-38.788,3.105-38.788-2.289" fill="#a8a8a8"/>
<path d="m127.392,98.685c-.592,9.807-21.065,3.646-26.656,6.219-2.869,1.321-3.149,3.683-3.745,6.4-.564,2.565-1.637,5.023-2.949,7.289-1.058,1.822-2.299,3.535-3.678,5.127-2.847,3.287-4.023,3.626-8.243,3.738-18.259.481-36.523.742-54.788.92-4.285.043-16.221,2.584-16.185-4.031l.564-108.272c.022-4.21 3.15-4.137 6.417-4.137h20.486 61.959 19.801c5.021,0 5.865,2.125 5.931,6.945 .36,26.6.718,53.201 1.086,79.802" fill="#f4f4f4"/>
<path d="m137.61,30.657c0,5.078-9.771,3.471-12.788,3.471h-27.44-69.087-21.354c-7.196,0-6.357-5.305-6.357-11.397-.001-3.963-2.769-22.731 3.751-22.731h15.316 90.248 24.105c6.696,0 3.606,25.875 3.606,30.657" fill="#d82a2a"/>
<path d="m4.634,28.561c-.106-.089 2.386-13.563 2.533-15.017 .517-5.031 1.395-6.962 6.609-7.16 16.172-.62 32.358-1.259 48.543-1.384 20.742-.163 41.521.379 62.239,1.357 4.368.205 5.938,1.414 6.277,5.957 .261,3.459-.586,14.48 2.076,16.961 .009.007 1.305-8.396 1.36-9.182 .305-4.393.517-8.791.689-13.189 .214-5.406-5.565-4.301-9.195-4.301h-54.485-56.708c-2.87,0-11.378-1.422-11.378,3.337-.838,2.799.184,7.371.296,10.254 .088,2.224-.754,10.763 1.144,12.367" fill="#ef5656"/>
<path d="m136.669,33.624h-108.258-22.969-4.537c-1.005,0-.705-2.959 1.481-2.997 36.955-.617 73.913-.792 110.871-.333 6.415.08 12.83.173 19.247.286 2.759.051 5.226-.802 4.165,3.044" fill="#b20d0d"/>
<path d="m37.693,62.636h-14.317c-2.447,0-1.287,3.93-1.287,5.984v39.128 11.694c0,1.676 9.475.733 11.145.733 .476,0 4.458.239 4.458-.196v-9.379c0-4.664.085-3.92-5.008-4.046-.504-.012-9.706-.091-9.706-.545 0-1.095 14.714.423 14.714-1.214v-13.64c.001-9.506.001-19.011.001-28.519" fill="url(#XMLID_6_)"/>
<path d="m115.754,48.751h-14.898c1.156,17.456.931,35.295.112,52.76 5.013-.128 10.053-1.119 14.544-3.411-.175-5.438-.241-10.878-.271-16.318-.065-10.986-.212-22.061.513-33.031" fill="url(#XMLID_7_)"/>
<path d="m106.651,105.013c-1.043-.007-2.084.034-3.122.122h8.65c-1.843-.044-3.686-.122-5.528-.122" fill="url(#XMLID_8_)"/>
<path d="m69.808,92.123h-16.385c.438,0-1.179-14.017-.147-14.979 1.95-1.816 13.459,0 16.385,0 .297.001.147,13.413.147,14.979" fill="#ef5656"/>
<path d="m23.867,92.627c0,1.795.156,29.998-.888,29.998-1.339,0-1.339-59.996 0-59.996 1.044,0 .888,28.202.888,29.998" fill="#a8a8a8"/>
<path d="m38.618,92.627c0,1.795.156,29.998-.888,29.998-1.338,0-1.338-59.996 0-59.996 1.044,0 .888,28.202.888,29.998" fill="#a8a8a8"/>
<path d="m53.659,83.517c0,2.214.156,37.373-.888,37.373-1.34,0-1.34-74.747 0-74.747 1.044,0 .888,35.159.888,37.374" fill="#a8a8a8"/>
<path d="m70.725,83.517c0,2.214.156,37.373-.888,37.373-1.34,0-1.34-74.747 0-74.747 1.044,0 .888,35.159.888,37.374" fill="#a8a8a8"/>
<path d="m101.387,76.146c0,1.796.146,29.989-.89,29.989-1.347,0-1.347-59.992 0-59.992 1.037,0 .89,28.209.89,30.003" fill="#a8a8a8"/>
<path d="m85.764,83.517c0,2.214.156,37.373-.888,37.373-1.341,0-1.341-74.747 0-74.747 1.044,0 .888,35.159.888,37.374" fill="#a8a8a8"/>
<path d="m117.005,76.146c0,1.796.147,29.989-.89,29.989-1.346,0-1.346-59.992 0-59.992 1.038,0 .89,28.209.89,30.003" fill="#a8a8a8"/>
<path d="m69.754,61.741c2.75,0 46.772-.158 46.772.888 0,1.34-93.547,1.34-93.547,0 0-1.046 44.024-.888 46.775-.888" fill="#a8a8a8"/>
<path d="m69.754,75.624c2.75,0 46.772-.157 46.772.889 0,1.34-93.547,1.34-93.547,0 0-1.046 44.024-.889 46.775-.889" fill="#a8a8a8"/>
<path d="m69.754,91.533c2.75,0 46.772-.158 46.772.888 0,1.341-93.547,1.339-93.547,0 0-1.046 44.024-.888 46.775-.888" fill="#a8a8a8"/>
<path d="m84.515,47.279c1.983,0 33.313-.156 33.313.888 0,1.339-66.628,1.339-66.628,0 0-1.043 31.332-.888 33.315-.888" fill="#a8a8a8"/>
<path d="m69.757,105.117c2.751,0 46.764-.147 46.764.893 0,1.349-93.542,1.349-93.542,0 0-1.04 44.028-.893 46.778-.893" fill="#a8a8a8"/>
<path d="m54.445,119.88c1.878,0 31.462-.157 31.462.887 0,1.339-62.929,1.339-62.929,0 .001-1.044 29.589-.887 31.467-.887" fill="#a8a8a8"/>
<path d="m84.456,134.42c12.902,1.284 25.941-5.427 34.564-14.604 4.806-5.104 7.468-11.811 11.233-17.631 3.541-5.47 2.462,4.834 2.457,6.959-.014,6.11 2.796,21.35-4.888,23.437-13.689,3.722-29.418,2.433-43.366,1.839" fill="#dbdbdb"/>
<path d="m121.752,103.944c-1.747.381-3.556.47-5.339.432-.148,1.741 4.258.016 5.339-.432m9.06-28.235c-.383,2.895-1.247,5.736-2.421,8.404-2.239,5.088.164,10.342-1.153,15.583 4.951-6.498 4.876-16.278 3.574-23.987" fill="#dbdbdb"/>
<path d="m127.223,86.499c-1.667,3.082-3.865,5.877-6.536,8.152-2.29,1.947-3.9,1.755-4.021,4.945-.059,1.593-.124,3.188-.253,4.779 3.857.084 6.958-.563 9.716-3.394 2.873-2.945 1.148-10.611 1.094-14.482" fill="#d2d2d2"/>
<path d="m100.27,105.139c-.692.379.037.302 0,0" fill="#dbdbdb"/>
<path d="m100.026,101.527c-2.859,0-4.989,1.119-6.345,3.719 1.644.018 5.158.68 6.589-.107 0-.981-.193-2.5-.244-3.612" fill="#d2d2d2"/>
<path d="m115.787,104.355c.031.539.087,1.534 0,0" fill="#dbdbdb"/>
<path d="m115.787,103.993c.022.559.033.407 0,0" fill="#d2d2d2"/>
<path d="m96.578,112.855c-1.091,3.577-2.999,6.892-5.329,9.801-2.885,3.602-2.947,8.68-6.793,11.764 9.141-2.644 12.345-13.028 12.122-21.565m1.935-6.14c-.138,0-.633.477 0,0m5.016-1.58c-.558-.009-2.77-.278-2.833.21 .953.074 1.897.005 2.833-.21m12.258,0h-3.607c1.201.036 2.403.036 3.607,0" fill="#dbdbdb"/>
<path d="m98.399,106.716c-5.759.084-5.936.547-6.89,6.181-.662,3.91-1.061,7.867-1.964,11.735 2.825-3.049 5.176-6.604 6.609-10.518 .996-2.712.368-4.876 2.245-7.398" fill="#d2d2d2"/>
<path d="m107.734,103.746c-.907,0-6.854.007-7.012,1.389 5.007.129 10.049,0 15.064,0v-.779c-2.704-.11-5.337-.61-8.052-.61" fill="url(#XMLID_9_)"/>
<path d="m100.183,104.198c.013.284.014.777.087.937-.028-.312-.059-.624-.087-.937m15.329-6.098c-2.376,1.212-4.921,2.071-7.527,2.62-4.469.941-6.752-.731-7.237,4.179 4.74-2.174 10.092-.74 15.039-.543-.099-2.085-.209-4.169-.275-6.256" fill="url(#XMLID_10_)"/>
<path d="m100.968,101.511-.942.017c.059,1.271.13,2.543.268,3.812 1.026.017.646-3.218.674-3.829" fill="#909090"/>
<path d="m116.739,97.434c-2.181,1.259-1.13,5.245-.851,7.697 1.117-.037.82-6.685.851-7.697" fill="#909090"/>
<path d="m93.681,105.246-.679,1.537c3.722-.038 5.49-.772 8.853-1.418-2.725-.049-5.449-.088-8.174-.119" fill="#909090"/>
<path d="m92.562,134.116c-1.094.04-2.186.068-3.281.085 1.101.18 2.195.152 3.281-.085m39.33-39.093c-.922,0-4.599,10.449-5.088,11.39-4.499,8.646-10.984,16.568-18.905,22.299 8.118-4.695 13.596-11.317 18.182-19.327 1.621-2.83 3.029-6.117 5.184-8.597 .51-.588 1.953-5.765.627-5.765" fill="#d0d0d0"/>
<path d="m132.1,100.187c-3.054.001-9.985,15.934-12.038,18.438-7.371,8.999-17.637,14.432-28.987,15.686 6.483.374 13.432,1.458 19.42-1.321 5.933-2.755 12.438-6.721 15.271-12.908 1.57-3.429.854-10.875 4.877-12.76 1.858-.871 2.503-7.135 1.457-7.135" fill="#bfbfbf"/>
<path d="m99.575,107.162c0,3.575 21.302,3.201 20.692-1.476-.257-1.965-20.692-1.255-20.692,1.476" fill="#fff"/>
</svg>
