<?xml version="1.0" encoding="utf-8"?>
<!-- Generator: Adobe Illustrator 21.1.0, SVG Export Plug-In . SVG Version: 6.00 Build 0)  -->
<svg version="1.1" id="Layer_1" xmlns="http://www.w3.org/2000/svg" xmlns:xlink="http://www.w3.org/1999/xlink" x="0px" y="0px"
	 viewBox="0 0 100 100" style="enable-background:new 0 0 100 100;" xml:space="preserve">
<style type="text/css">
	.st0{fill:#E4E1E0;}
	.st1{fill:#2FA7AB;}
</style>
<g id="Layer_2">
	<circle class="st0" cx="49.5" cy="49.5" r="49.5"/>
</g>
<g id="Layer_1_1_">
	<g>
		<g>
			<path class="st1" d="M53.4,23.6c0,2.5-2.1,4.6-4.6,4.6s-4.6-2.1-4.6-4.6s2.1-4.6,4.6-4.6S53.4,21.1,53.4,23.6z M48.7,32
				c-2.7,0-4.8,2.1-4.8,4.8s2.1,4.8,4.8,4.8s4.8-2.1,4.8-4.8S51.5,32,48.7,32z M48.7,45.1c-2.7,0-5.1,2.3-5.1,5.1
				c0,2.7,2.3,5.1,5.1,5.1s5.1-2.3,5.1-5.1C53.8,47.4,51.5,45.1,48.7,45.1z M48.7,58.3c-2.7,0-4.8,2.1-4.8,4.8
				c0,2.7,2.1,4.8,4.8,4.8s4.8-2.1,4.8-4.8C53.6,60.6,51.5,58.3,48.7,58.3z M48.7,71.8c-2.5,0-4.6,2.1-4.6,4.6s2.1,4.6,4.6,4.6
				s4.6-2.1,4.6-4.6S51.3,71.8,48.7,71.8z M61.6,31.4c-3,0-5.4,2.5-5.4,5.4s2.5,5.4,5.4,5.4s5.4-2.5,5.4-5.4S64.5,31.4,61.6,31.4z
				 M61.6,44.4c-3.2,0-5.7,2.5-5.7,5.7s2.5,5.7,5.7,5.7c3.2,0,5.7-2.5,5.7-5.7C67.3,47,64.8,44.4,61.6,44.4z M61.6,57.7
				c-3,0-5.4,2.5-5.4,5.4c0,2.9,2.5,5.4,5.4,5.4S67,66,67,63.1S64.5,57.7,61.6,57.7z M74.8,43.8c-3.4,0-6.3,2.7-6.3,6.3
				c0,3.4,2.7,6.3,6.3,6.3s6.3-2.7,6.3-6.3C81,46.5,78.2,43.8,74.8,43.8z M35.7,32.6c-2.3,0-4.2,1.9-4.2,4.2s1.9,4.2,4.2,4.2
				s4.2-1.9,4.2-4.2S38,32.6,35.7,32.6z M35.7,45.7c-2.5,0-4.4,1.9-4.4,4.4s1.9,4.4,4.4,4.4s4.4-1.9,4.4-4.4S38.2,45.7,35.7,45.7z
				 M35.7,58.9c-2.3,0-4.2,1.9-4.2,4.2s1.9,4.2,4.2,4.2s4.2-1.9,4.2-4.2S38,58.9,35.7,58.9z M22.6,46.3c-2.1,0-3.8,1.7-3.8,3.8
				s1.7,3.8,3.8,3.8s3.8-1.7,3.8-3.8S24.7,46.3,22.6,46.3z"/>
		</g>
	</g>
</g>
</svg>
