<?xml version="1.0" encoding="utf-8"?>
<!-- Generator: Adobe Illustrator 19.0.0, SVG Export Plug-In . SVG Version: 6.00 Build 0)  -->
<svg class="blog-logo" version="1.1" id="Layer_1" xmlns="http://www.w3.org/2000/svg" xmlns:xlink="http://www.w3.org/1999/xlink" x="0px" y="0px" viewBox="0 0 100 100" style="enable-background:new 0 0 100 100;" xml:space="preserve">
            <style type="text/css">
                .st0{fill:#04B0B9;}
            </style>
            <g>
                <g>
                    <path class="st0" d="M55.3,8.3c0,4-3.3,7.3-7.3,7.3s-7.3-3.3-7.3-7.3S44,1,48,1S55.3,4.3,55.3,8.3z M48,21.6
                        c-4.3,0-7.6,3.3-7.6,7.6s3.3,7.6,7.6,7.6s7.6-3.3,7.6-7.6S52.3,21.6,48,21.6z M48,42.2c-4.3,0-8,3.7-8,8s3.7,8,8,8s8-3.7,8-8
                        S52.3,42.2,48,42.2z M48,63.1c-4.3,0-7.6,3.3-7.6,7.6s3.3,7.6,7.6,7.6s7.6-3.3,7.6-7.6C55.7,66.8,52.3,63.1,48,63.1z M48,84.4
                        c-4,0-7.3,3.3-7.3,7.3c0,4,3.3,7.3,7.3,7.3s7.3-3.3,7.3-7.3C55.3,87.7,52,84.4,48,84.4z M68.3,20.6c-4.7,0-8.6,4-8.6,8.6
                        s4,8.6,8.6,8.6s8.6-4,8.6-8.6S72.9,20.6,68.3,20.6z M68.3,41.2c-5,0-9,4-9,9s4,9,9,9c5,0,9-4,9-9S73.3,41.2,68.3,41.2z M68.3,62.1
                        c-4.7,0-8.6,4-8.6,8.6s4,8.6,8.6,8.6s8.6-4,8.6-8.6S72.9,62.1,68.3,62.1z M89.2,40.2c-5.3,0-10,4.3-10,10c0,5.3,4.3,10,10,10
                        s10-4.3,10-10C98.9,44.5,94.5,40.2,89.2,40.2z M27.4,22.6c-3.7,0-6.6,3-6.6,6.6s3,6.6,6.6,6.6s6.6-3,6.6-6.6
                        C34,25.6,31.1,22.6,27.4,22.6z M27.4,43.2c-4,0-7,3-7,7s3,7,7,7s7-3,7-7C34.4,46.2,31.4,43.2,27.4,43.2z M27.4,64.1
                        c-3.7,0-6.6,3-6.6,6.6s3,6.6,6.6,6.6s6.6-3,6.6-6.6S31.1,64.1,27.4,64.1z M6.8,44.2c-3.3,0-6,2.7-6,6s2.7,6,6,6s6-2.7,6-6
                        S10.1,44.2,6.8,44.2z"></path>
                </g>
            </g>
            </svg>