<?xml version="1.0" encoding="utf-8"?>
<!-- Generator: Adobe Illustrator 21.1.0, SVG Export Plug-In . SVG Version: 6.00 Build 0)  -->
<svg version="1.1" id="iconDemo-steps" xmlns="http://www.w3.org/2000/svg" xmlns:xlink="http://www.w3.org/1999/xlink" x="0px"
	 y="0px" viewBox="0 0 4.2 5" style="enable-background:new 0 0 4.2 5;" xml:space="preserve">
<style type="text/css">
	.st0{fill:#4AC5C2;}
</style>
<path class="st0" d="M3.5,2.9C3.2,2.8,3,2.7,2.8,2.6C1.9,3.6,3.3,4.3,3.5,2.9z M3.6,2.4C3.9,2.3,4.2,1.3,4.2,1c0-0.4,0-1-0.7-1
	C3.3,0,3,0.3,2.9,0.9c-0.1,0.3-0.1,0.5,0,0.7s0,0.4,0,0.6C3.1,2.2,3.4,2.3,3.6,2.4z M0.9,4C0.6,4,0.4,4,0.1,3.9
	C-0.4,5.3,1.1,5.3,0.9,4z M1,3.7c0.1-0.2,0.2-0.4,0.3-0.5c0.2-0.1,0.3-0.3,0.4-0.6c0.1-0.5,0.1-0.9-0.2-1.1C1,1.1,0.6,1.6,0.4,2
	C0.3,2.2,0,3.3,0.2,3.5C0.5,3.6,0.7,3.6,1,3.7z"/>
</svg>
