<?xml version="1.0" encoding="utf-8"?>
<!-- Generator: Adobe Illustrator 16.0.0, SVG Export Plug-In . SVG Version: 6.00 Build 0)  -->
<!DOCTYPE svg PUBLIC "-//W3C//DTD SVG 1.1//EN" "http://www.w3.org/Graphics/SVG/1.1/DTD/svg11.dtd">
<svg version="1.1" id="Layer_1" xmlns="http://www.w3.org/2000/svg" xmlns:xlink="http://www.w3.org/1999/xlink" x="0px" y="0px"
	 width="272.235px" height="270.702px" viewBox="0 0 272.235 270.702" enable-background="new 0 0 272.235 270.702"
	 xml:space="preserve">
<g>
	<defs>
		<rect id="SVGID_1_" x="-119.882" y="-119.891" width="512" height="512"/>
	</defs>
	<clipPath id="SVGID_2_">
		<use xlink:href="#SVGID_1_"  overflow="visible"/>
	</clipPath>
	<path clip-path="url(#SVGID_2_)" fill="#FFFFFF" d="M72.155,9.961c2.057-0.334,4.285-0.368,6.214,0.543
		c2.854,1.15,4.873,3.883,5.564,6.828c0.235,2.095,0.167,4.316-0.824,6.229c-1.799,3.955-6.585,6.236-10.787,5.139
		c-4.312-0.964-7.519-5.113-7.477-9.519C64.761,14.892,68.044,10.974,72.155,9.961"/>
	<path clip-path="url(#SVGID_2_)" fill="#FFFFFF" d="M195.465,9.946c2.084-0.326,4.331-0.33,6.267,0.626
		c3.203,1.412,5.374,4.756,5.606,8.222c-0.004,2.668-0.896,5.454-2.873,7.322c-1.683,1.772-4.104,2.751-6.521,2.861
		c-3.742,0.054-7.516-2.182-8.98-5.674c-0.949-1.864-0.831-4.012-0.71-6.031C188.963,13.711,191.946,10.77,195.465,9.946"/>
	<path clip-path="url(#SVGID_2_)" fill="#FFFFFF" d="M183.091,155.719c4.877-0.023,9.755-0.027,14.628,0
		c-0.06,19.384-0.011,38.772-0.021,58.156c-4.859,0-9.718,0.004-14.579-0.004C183.106,194.487,183.16,175.103,183.091,155.719"/>
	<path clip-path="url(#SVGID_2_)" fill="#C7C7C7" d="M24.975,1.485c3.075-1.347,6.476-1.552,9.789-1.468
		c68.326,0.007,136.652,0,204.977-0.004c7.455-0.126,14.717,4.482,17.73,11.311c1.271,2.691,1.81,5.678,1.757,8.646
		c-0.03,6.643,0.069,13.285-0.038,19.924c-2.205-0.839-4.581-1.063-6.923-1.078c-77.31,0.015-154.62,0.007-231.93,0.011
		c-2.448,0.065-4.954,0.171-7.265,1.071c-0.099-6.901-0.046-13.801-0.068-20.698C12.958,11.593,17.911,4.29,24.975,1.485
		 M72.155,9.961c-4.11,1.014-7.394,4.931-7.31,9.22c-0.042,4.407,3.165,8.555,7.477,9.519c4.202,1.097,8.988-1.184,10.788-5.139
		c0.99-1.913,1.059-4.133,0.823-6.229c-0.691-2.945-2.71-5.678-5.564-6.828C76.441,9.593,74.212,9.627,72.155,9.961 M195.465,9.946
		c-3.52,0.824-6.502,3.765-7.212,7.326c-0.121,2.019-0.239,4.167,0.71,6.031c1.465,3.492,5.238,5.728,8.98,5.674
		c2.417-0.11,4.839-1.089,6.521-2.861c1.977-1.868,2.869-4.654,2.873-7.322c-0.232-3.466-2.403-6.81-5.606-8.222
		C199.796,9.616,197.549,9.62,195.465,9.946"/>
	<path clip-path="url(#SVGID_2_)" fill="#C7C7C7" d="M194.319,97.531c1.093-0.452,2.285-0.429,3.443-0.338
		c-0.069,19.449,0.007,38.902-0.038,58.351l-0.004,0.175c-4.874-0.027-9.751-0.023-14.629,0v-0.171
		c-0.008-13.448-0.012-26.893,0.004-40.341c-9.725,3.234-19.431,6.521-29.158,9.736c-0.03-4.391,0.022-8.783-0.027-13.174
		C167.362,106.975,180.86,102.298,194.319,97.531"/>
	<path clip-path="url(#SVGID_2_)" fill="#C7C7C7" d="M75.325,104.519c6.092-4.642,13.718-7.041,21.332-7.326
		c7.553-0.265,15.372,0.957,21.98,4.794c5.227,2.995,9.364,7.789,11.619,13.369c2.247,5.572,2.96,11.732,2.277,17.687
		c-1.461,9.539-8.828,17.244-17.437,21.055c1.23,0.372,2.429,0.839,3.575,1.42c-0.755,0.144-1.518,0.227-2.285,0.205
		c-10.157-0.073-20.314,0.067-30.464-0.069c-0.037-2.205-0.091-4.414,0.05-6.616c7.322-0.174,15.046,0.723,21.897-2.489
		c5.629-2.376,9.816-7.759,10.609-13.835c0.683-5.788,0.099-12.119-3.333-17.02c-2.698-3.879-7.272-6.027-11.846-6.707
		c-6.172-0.861-12.939-0.246-18.12,3.5c-5.102,3.587-7.801,9.918-7.671,16.063c-4.7,0.126-9.402,0.031-14.105,0.046
		c0.091-2.581,0.288-5.177,0.96-7.679C65.98,114.398,69.969,108.542,75.325,104.519"/>
	<path clip-path="url(#SVGID_2_)" fill="#606060" d="M13.072,39.897c2.312-0.9,4.817-1.006,7.265-1.07
		c77.31-0.004,154.621,0.003,231.93-0.012c2.342,0.015,4.718,0.239,6.923,1.078c6.681,2.41,12.093,8.597,12.792,15.764
		c-1.358-4.912-4.297-9.482-8.688-12.188c-3.182-1.985-6.894-3.132-10.651-3.098c-77.557,0.054-155.117,0.054-232.678,0.054
		c-5.842-0.107-11.729,2.414-15.452,6.961c-1.807,1.932-2.752,4.426-4.016,6.699C1.75,47.549,6.862,42.103,13.072,39.897"/>
	<path clip-path="url(#SVGID_2_)" fill="#9E9E9E" d="M182.818,155.57l0.273-0.023v0.171c0.068,19.386,0.015,38.77,0.026,58.153
		c4.862,0.008,9.722,0.004,14.579,0.004c0.012-19.384-0.038-38.771,0.023-58.157l0.004-0.175l0.235,0.02
		c2.144,0.259,4.308,0.103,6.464,0.126c18.268-0.013,36.541-0.034,54.809,0c2.111,30.551,4.096,61.109,6.184,91.661
		c0.204,3.491,0.649,7.078-0.318,10.503l-0.088,0.109c-0.896,1.006-1.412,2.258-2.053,3.428c-3.429,5.595-9.798,9.359-16.401,9.296
		c-72.881-0.042-145.758,0.033-218.634,0.008c-2.285,0-4.616,0.117-6.844-0.483c-5.037-1.374-9.603-4.672-12.138-9.284
		c-0.532-1.009-1.025-2.046-1.735-2.94l-0.091-0.126c-1.219-4.577-0.228-9.322-0.076-13.96c2.004-29.386,3.913-58.784,5.944-88.17
		c24.288-0.061,48.581-0.034,72.869-0.016c0.023,1.397,0.034,2.794,0.015,4.191c7.698,0.147,15.752-0.775,23.044,2.272
		c4.923,1.922,8.965,6.035,10.521,11.118c1.716,5.625,1.519,11.851-0.497,17.373c-1.879,5.177-6.38,9.177-11.637,10.723
		c-6.385,1.891-13.494,1.727-19.643-0.911c-4.786-2.046-8.692-6.168-10.169-11.193c-0.702-2.213-0.975-4.54-1.017-6.851
		c-4.653,0.029-9.307,0.019-13.96,0.004c0.087,5.887,1.514,11.864,4.801,16.807c3.504,5.405,8.939,9.353,14.895,11.668
		c7.549,2.945,15.892,3.603,23.874,2.379c7.762-1.229,15.365-4.706,20.637-10.653c4.844-5.375,7.349-12.564,7.679-19.734
		c0.444-6.843-1.131-14.032-5.477-19.468c-2.445-3.219-5.804-5.541-9.235-7.583c1.67-0.209,3.355-0.164,5.037-0.156
		c17.209-0.015,34.419,0.004,51.628-0.008C178.502,155.646,180.67,155.824,182.818,155.57"/>
	<path clip-path="url(#SVGID_2_)" fill="#939393" d="M4.513,47.386c3.724-4.547,9.611-7.068,15.452-6.961
		c77.561,0,155.121,0,232.678-0.053c3.758-0.035,7.47,1.112,10.65,3.097c4.392,2.706,7.329,7.276,8.688,12.188
		c0.376,1.734,0.272,3.534,0.076,5.287c-4.213,31.561-8.582,63.103-12.738,94.672c-17.532-0.031-35.065,0.015-52.593-0.004
		c-2.923-0.023-5.85,0.11-8.769-0.05l-0.234-0.02c0.045-19.449-0.031-38.901,0.038-58.35c-1.158-0.091-2.351-0.114-3.443,0.338
		c-13.459,4.767-26.957,9.443-40.409,14.237c0.05,4.392-0.003,8.783,0.027,13.175c9.728-3.215,19.434-6.502,29.158-9.736
		c-0.016,13.448-0.012,26.893-0.004,40.34l-0.273,0.023c-20.371,0.152-40.75,0.004-61.121,0.08
		c-1.006-0.023-2.069,0.288-3.026-0.133c-1.146-0.581-2.345-1.049-3.575-1.42c8.608-3.812,15.976-11.517,17.437-21.055
		c0.683-5.956-0.03-12.116-2.277-17.688c-2.255-5.58-6.392-10.374-11.619-13.368c-6.608-3.838-14.427-5.06-21.98-4.794
		c-7.615,0.284-15.24,2.683-21.332,7.325c-5.356,4.024-9.345,9.88-10.962,16.398c-0.672,2.501-0.869,5.097-0.96,7.678
		c4.703-0.015,9.405,0.08,14.104-0.045c-0.129-6.145,2.57-12.477,7.671-16.064c5.182-3.746,11.949-4.361,18.121-3.499
		c4.574,0.679,9.148,2.828,11.846,6.707c3.432,4.9,4.016,11.231,3.333,17.02c-0.793,6.076-4.98,11.458-10.609,13.834
		c-6.851,3.211-14.575,2.315-21.897,2.49l-0.182,0.004c0.075,2.205-0.012,4.414,0.049,6.623c-24.3-0.038-48.604-0.046-72.907,0.004
		C8.787,124.745,4.578,93.83,0.41,62.91c-0.478-2.915-0.642-5.94,0.087-8.825C1.761,51.812,2.706,49.318,4.513,47.386"/>
	<path clip-path="url(#SVGID_2_)" fill="#606060" d="M7.204,257.984c0.71,0.896,1.203,1.933,1.735,2.942
		c2.535,4.611,7.101,7.91,12.138,9.284c2.228,0.6,4.559,0.481,6.844,0.481c72.877,0.026,145.753-0.049,218.634-0.008
		c6.604,0.065,12.973-3.7,16.4-9.295c0.642-1.169,1.158-2.422,2.054-3.428c-1.609,6.229-6.619,11.398-12.745,13.319
		c-3.417,1.191-7.079,0.892-10.628,0.93c-70.983,0-141.966-0.004-212.949-0.004c-2.831,0.022-5.727,0.05-8.452-0.835
		C13.987,269.52,8.851,264.301,7.204,257.984"/>
</g>
</svg>
