<svg xmlns="http://www.w3.org/2000/svg" xmlns:xlink="http://www.w3.org/1999/xlink" width="35" height="35" viewBox="0 0 35 35">
    <defs>
        <circle id="a" cx="17.5" cy="17.5" r="17.5"/>
    </defs>
    <g fill="none" fill-rule="evenodd">
        <use fill="#939393" xlink:href="#a"/>
        <path fill="#FFF" fill-rule="nonzero" d="M17.5 7.404c-5.576 0-10.096 4.52-10.096 10.096 0 5.576 4.52 10.096 10.096 10.096 5.576 0 10.096-4.52 10.096-10.096 0-5.576-4.52-10.096-10.096-10.096zm4.394 15.846c-.128.333-.36.518-.597.518a.523.523 0 0 1-.347-.143c-1.815-1.604-3.91-1.862-5.35-1.796-1.594.073-2.763.55-2.775.555-.367.152-.747-.176-.848-.732-.1-.556.115-1.13.482-1.283.053-.022 1.311-.54 3.06-.627a9.032 9.032 0 0 1 2.949.323 8.174 8.174 0 0 1 3.178 1.756c.33.291.44.931.248 1.43zm1.284-3.095c-.153.333-.426.518-.707.518a.684.684 0 0 1-.412-.143c-2.15-1.604-4.632-1.862-6.337-1.796-1.888.073-3.273.55-3.287.555-.435.151-.885-.176-1.004-.732-.12-.556.136-1.13.57-1.283.063-.022 1.553-.54 3.626-.627 1.22-.051 2.395.057 3.492.323a10.31 10.31 0 0 1 3.765 1.756c.39.291.521.931.294 1.43zm.789-3.027a.968.968 0 0 1-.506-.143c-5.109-3.11-11.736-1.261-11.803-1.242-.534.153-1.086-.174-1.233-.73-.147-.556.166-1.132.7-1.285.077-.022 1.905-.539 4.447-.626a18.825 18.825 0 0 1 4.283.323c1.704.336 3.257.927 4.619 1.756.478.29.64.93.36 1.429a.995.995 0 0 1-.867.518z"/>
    </g>
</svg>
