<?xml version="1.0" encoding="utf-8"?>
<!-- Generator: Adobe Illustrator 16.0.0, SVG Export Plug-In . SVG Version: 6.00 Build 0)  -->
<!DOCTYPE svg PUBLIC "-//W3C//DTD SVG 1.1//EN" "http://www.w3.org/Graphics/SVG/1.1/DTD/svg11.dtd">
<svg version="1.1"
	 id="Layer_1" xmlns:rdf="http://www.w3.org/1999/02/22-rdf-syntax-ns#" xmlns:cc="http://creativecommons.org/ns#" xmlns:dc="http://purl.org/dc/elements/1.1/"
	 xmlns="http://www.w3.org/2000/svg" xmlns:xlink="http://www.w3.org/1999/xlink" x="0px" y="0px" width="300px" height="244.189px"
	 viewBox="0 0 300 244.189" enable-background="new 0 0 300 244.189" xml:space="preserve">
<g transform="translate(-539.18 -568.86)">
	<path fill="#939393" d="M633.9,812.042c112.459,0,173.959-93.168,173.959-173.96c0-2.646-0.055-5.281-0.173-7.903
		c11.938-8.63,22.313-19.4,30.498-31.66c-10.955,4.869-22.744,8.147-35.11,9.626c12.623-7.569,22.313-19.543,26.885-33.817
		c-11.812,7.003-24.896,12.094-38.822,14.842c-11.158-11.885-27.041-19.316-44.63-19.316c-33.765,0-61.144,27.381-61.144,61.132
		c0,4.798,0.536,9.465,1.585,13.94c-50.815-2.558-95.874-26.886-126.03-63.88c-5.25,9.034-8.278,19.53-8.278,30.729
		c0,21.212,10.794,39.938,27.208,50.894c-10.031-0.311-19.454-3.063-27.69-7.646c-0.009,0.257-0.009,0.507-0.009,0.78
		c0,29.609,21.075,54.332,49.051,59.935c-5.138,1.4-10.543,2.151-16.122,2.151c-3.934,0-7.766-0.387-11.491-1.104
		c7.784,24.293,30.354,41.972,57.115,42.466c-20.926,16.401-47.287,26.171-75.937,26.171c-4.929,0-9.798-0.28-14.584-0.847
		c27.059,17.345,59.189,27.465,93.722,27.465"/>
</g>
</svg>
