<?xml version="1.0" encoding="utf-8"?>
<!-- Generator: Adobe Illustrator 16.0.0, SVG Export Plug-In . SVG Version: 6.00 Build 0)  -->
<!DOCTYPE svg PUBLIC "-//W3C//DTD SVG 1.1//EN" "http://www.w3.org/Graphics/SVG/1.1/DTD/svg11.dtd">
<svg version="1.1" id="Layer_1" xmlns="http://www.w3.org/2000/svg" xmlns:xlink="http://www.w3.org/1999/xlink" x="0px" y="0px"
	 width="311.219px" height="68.609px" viewBox="0 0 311.219 68.609" enable-background="new 0 0 311.219 68.609"
	 xml:space="preserve">
<title>logo</title>
<g id="Layer_3">
	<path fill="#939393" d="M76,49.94c0.008,0.93-0.351,1.825-1,2.49L59.24,68.2c-0.555,0.546-1.447,0.54-1.994-0.015
		c-0.259-0.264-0.405-0.616-0.406-0.985V31.87L75.82,13H76V49.94z"/>
	<path fill="#BCBCBC" d="M63.46,0.41c-0.549-0.553-1.442-0.556-1.994-0.006c-0.002,0.002-0.004,0.004-0.006,0.006L38,23.86h-0.33
		v26.46L38,51l18.84-18.8L76,13L63.46,0.41z"/>
	<path fill="#BCBCBC" d="M0,49.94c-0.008,0.93,0.351,1.825,1,2.49L16.8,68.2c0.555,0.546,1.447,0.54,1.994-0.015
		c0.259-0.264,0.405-0.616,0.406-0.985V31.87L0.22,13H0V49.94z"/>
	<path fill="#939393" d="M14.57,0.41c-0.549-0.553-1.441-0.556-1.994-0.006c-0.002,0.002-0.004,0.004-0.006,0.006L0,13l19.2,19.2
		L38,51V23.86L14.57,0.41z"/>
</g>
</svg>
