<?xml version="1.0" encoding="utf-8"?>
<!-- Generator: Adobe Illustrator 16.0.0, SVG Export Plug-In . SVG Version: 6.00 Build 0)  -->
<!DOCTYPE svg PUBLIC "-//W3C//DTD SVG 1.1//EN" "http://www.w3.org/Graphics/SVG/1.1/DTD/svg11.dtd">
<svg version="1.1" id="Layer_1" xmlns="http://www.w3.org/2000/svg" xmlns:xlink="http://www.w3.org/1999/xlink" x="0px" y="0px"
	 width="612px" height="792px" viewBox="0 0 612 792" enable-background="new 0 0 612 792" xml:space="preserve">
<g>
	<g>
		<path fill="#939393" d="M338.436,140.796c0,24.48-20.194,44.676-44.676,44.676c-24.48,0-44.676-20.196-44.676-44.676
			S269.28,96.12,293.76,96.12C318.24,96.12,338.436,116.316,338.436,140.796z M293.76,222.192
			c-26.316,0-46.512,20.196-46.512,46.512s20.196,46.512,46.512,46.512c26.316,0,46.513-20.196,46.513-46.512
			S320.076,222.192,293.76,222.192z M293.76,348.264c-26.316,0-48.96,22.644-48.96,48.96c0,26.314,22.644,48.958,48.96,48.958
			c26.316,0,48.96-22.644,48.96-48.958C342.72,370.908,320.076,348.264,293.76,348.264z M293.76,476.172
			c-26.316,0-46.512,20.196-46.512,46.512c0,26.316,20.196,46.514,46.512,46.514c26.316,0,46.513-20.196,46.513-46.514
			C340.884,498.816,320.076,476.172,293.76,476.172z M293.76,606.528c-24.48,0-44.676,20.194-44.676,44.676
			c0,24.479,20.196,44.676,44.676,44.676c24.48,0,44.676-20.196,44.676-44.676C338.436,626.724,318.24,606.528,293.76,606.528z
			 M417.996,216.072c-28.764,0-52.632,24.479-52.632,52.632c0,28.152,24.479,52.632,52.632,52.632s52.632-24.48,52.632-52.632
			C470.628,240.552,446.148,216.072,417.996,216.072z M417.996,342.144c-30.6,0-55.08,24.48-55.08,55.081s24.48,55.079,55.08,55.079
			s55.08-24.479,55.08-55.079S448.596,342.144,417.996,342.144z M417.996,470.052c-28.764,0-52.632,24.48-52.632,52.632
			c0,28.152,24.479,52.634,52.632,52.634s52.632-24.48,52.632-52.634C470.628,494.532,446.148,470.052,417.996,470.052z
			 M545.904,336.024c-32.438,0-61.2,26.316-61.2,61.201c0,32.437,26.314,61.199,61.2,61.199c34.884,0,61.198-26.314,61.198-61.199
			C605.268,362.34,578.34,336.024,545.904,336.024z M167.688,228.312c-22.644,0-40.392,18.36-40.392,40.392
			c0,22.032,18.36,40.392,40.392,40.392c22.032,0,40.392-18.36,40.392-40.392C208.08,246.672,190.332,228.312,167.688,228.312z
			 M167.688,354.384c-24.48,0-42.84,18.36-42.84,42.841c0,24.479,18.36,42.841,42.84,42.841s42.84-18.36,42.84-42.841
			S192.168,354.384,167.688,354.384z M167.688,482.292c-22.644,0-40.392,18.36-40.392,40.392c0,22.032,18.36,40.394,40.392,40.394
			c22.032,0,40.392-18.36,40.392-40.394C208.08,500.652,190.332,482.292,167.688,482.292z M41.616,360.504
			c-20.196,0-36.72,16.524-36.72,36.721c0,20.195,16.524,36.721,36.72,36.721c20.196,0,36.72-16.524,36.72-36.721
			C78.336,377.028,61.812,360.504,41.616,360.504z"/>
	</g>
</g>
</svg>
