<?xml version="1.0" encoding="utf-8"?>
<!-- Generator: Adobe Illustrator 16.0.0, SVG Export Plug-In . SVG Version: 6.00 Build 0)  -->
<!DOCTYPE svg PUBLIC "-//W3C//DTD SVG 1.1//EN" "http://www.w3.org/Graphics/SVG/1.1/DTD/svg11.dtd">
<svg version="1.1" id="Layer_1" xmlns="http://www.w3.org/2000/svg" xmlns:xlink="http://www.w3.org/1999/xlink" x="0px" y="0px"
	 width="43px" height="40px" viewBox="0 0 43 40" enable-background="new 0 0 43 40" xml:space="preserve">
<path fill="#939393" d="M12.5,0L0,8.1l8.7,7l12.5-7.8L12.5,0z M0,21.9L12.5,30.1l8.7-7.3L8.7,15.1L0,21.9z M21.2,22.8l8.8,7.3
	L42.4,22L33.8,15.1L21.2,22.8z M42.4,8.1L30,0l-8.8,7.3l12.6,7.8L42.4,8.1z M21.3,24.4l-8.8,7.3l-3.7-2.5V32l12.5,7.5L33.8,32v-2.8
	L30,31.7L21.3,24.4z"/>
</svg>
