<svg xmlns="http://www.w3.org/2000/svg" xmlns:xlink="http://www.w3.org/1999/xlink" width="52" height="52" viewBox="0 0 52 52">
    <defs>
        <circle id="a" cx="26" cy="26" r="26"/>
    </defs>
    <g fill="none" fill-rule="evenodd">
        <use fill="#6297B1" xlink:href="#a"/>
        <path d="M14 14h24v24H14z"/>
        <path fill="#FFF" fill-rule="nonzero" d="M21 19h10v2h2v-4c0-1.1-.9-1.99-2-1.99L21 15c-1.1 0-2 .9-2 2v4h2v-2zm8.41 11L34 25.5 29.41 21 28 22.392l3.17 3.108L28 28.608 29.41 30zM24 28.608L20.83 25.5 24 22.392 22.59 21 18 25.5l4.59 4.5L24 28.608zM31 33H21v-2h-2v4c0 1.1.9 2 2 2h10c1.1 0 2-.9 2-2v-4h-2v2z"/>
    </g>
</svg>
