<?xml version="1.0" encoding="utf-8"?>
<!-- Generator: Adobe Illustrator 16.0.0, SVG Export Plug-In . SVG Version: 6.00 Build 0)  -->
<!DOCTYPE svg PUBLIC "-//W3C//DTD SVG 1.1//EN" "http://www.w3.org/Graphics/SVG/1.1/DTD/svg11.dtd">
<svg version="1.1" id="Layer_1" xmlns="http://www.w3.org/2000/svg" xmlns:xlink="http://www.w3.org/1999/xlink" x="0px" y="0px"
	 width="468px" height="468px" viewBox="0 0 468 468" enable-background="new 0 0 468 468" xml:space="preserve">
<circle fill="#6297b1" cx="234" cy="234" r="234"/>
<g>
	<path fill="#FFFFFF" d="M233.5,97.291c-52.715,0-95.347,42.631-95.347,95.346c0,71.511,95.347,177.074,95.347,177.074
		s95.348-105.563,95.348-177.074C328.848,139.922,286.215,97.291,233.5,97.291z M233.5,226.689
		c-18.795,0-34.052-15.257-34.052-34.053c0-18.795,15.257-34.052,34.052-34.052s34.054,15.257,34.054,34.052
		C267.554,211.432,252.295,226.689,233.5,226.689z"/>
	<path fill="none" d="M70.048,70.048h326.904v326.904H70.048V70.048z"/>
</g>
</svg>
