<?xml version="1.0" encoding="utf-8"?>
<!-- Generator: Adobe Illustrator 21.1.0, SVG Export Plug-In . SVG Version: 6.00 Build 0)  -->
<svg version="1.1" xmlns="http://www.w3.org/2000/svg" xmlns:xlink="http://www.w3.org/1999/xlink" x="0px" y="0px"
	 viewBox="0 0 100 100" style="enable-background:new 0 0 100 100;" xml:space="preserve">
<style type="text/css">
	.st0{fill:#E34B5F;}
	.st1{fill:#E7CE9C;}
	.st2{fill:#1E7889;}
	.st3{fill:#97BAA6;}
</style>
<g id="Layer_1">
</g>
<g id="Layer_2_1_">
	<g id="Layer_3">
		<path class="st0" d="M81.1,62.5c0,0.7-0.3,1.5-0.8,2.1L67.1,77.7c-0.5,0.4-1.2,0.4-1.7,0c-0.2-0.2-0.3-0.5-0.3-0.8V47.5l15.8-15.7
			h0.2V62.5z"/>
		<path class="st1" d="M70.7,21.3c-0.4-0.5-1.2-0.5-1.7,0l0,0L49.5,40.9h-0.2v22l0.2,0.5l15.6-15.6l16-16L70.7,21.3z"/>
		<path class="st2" d="M17.9,62.5c0,0.7,0.3,1.5,0.8,2.1l13.1,13.1c0.5,0.4,1.2,0.4,1.7,0c0.2-0.2,0.3-0.5,0.3-0.8V47.5L18.1,31.8
			h-0.2V62.5z"/>
		<path class="st3" d="M30,21.3c-0.4-0.5-1.2-0.5-1.7,0l0,0L17.9,31.8l16,16l15.6,15.6V40.9L30,21.3z"/>
	</g>
</g>
</svg>
