<?xml version="1.0" encoding="utf-8"?>
<!-- Generator: Adobe Illustrator 16.0.0, SVG Export Plug-In . SVG Version: 6.00 Build 0)  -->
<!DOCTYPE svg PUBLIC "-//W3C//DTD SVG 1.1//EN" "http://www.w3.org/Graphics/SVG/1.1/DTD/svg11.dtd">
<svg version="1.1" id="Layer_1" xmlns="http://www.w3.org/2000/svg" xmlns:xlink="http://www.w3.org/1999/xlink" x="0px" y="0px"
	 width="20px" height="18px" viewBox="0 0 20 18" enable-background="new 0 0 20 18" xml:space="preserve">
<circle fill="#446F87" cx="10" cy="10" r="3.2"/>
<path fill="#446F87" d="M7,0L5.17,2H2C0.9,2,0,2.9,0,4v12c0,1.1,0.9,2,2,2h16c1.1,0,2-0.9,2-2V4c0-1.1-0.9-2-2-2h-3.17L13,0H7z
	 M10,15c-2.76,0-5-2.24-5-5s2.24-5,5-5s5,2.24,5,5S12.76,15,10,15z"/>
<path fill="none" d="M0,0h24v24H0V0z"/>
</svg>
