<svg xmlns="http://www.w3.org/2000/svg" viewBox="0 0 7494.64 2374"><title>Rumpel-logo-with-text</title><path d="M3122.28,1323.6v539h-82.67V629.34h168.72q180.51,0,264,85.2t83.51,254.76q0,128.24-45.55,210.89t-152.69,124l244.64,558.45h-92.79l-230.3-539Zm0-75.92h115.57q112.18,0,172.93-69.17t60.74-205.83q0-139.19-62-200.77t-195.29-61.58h-92Z" transform="translate(-45 -58.99)" style="fill:#fff"/><path d="M3837.63,947.37v597.25q0,135.83,32.48,198.24t100,62.42q103.76,0,152.27-83.94t48.51-271.21V947.37h79.3v915.28h-67.49l-10.12-128.22h-6.75q-29.54,70-81.83,107.56t-113.88,37.54q-110.52,0-161.55-78.45t-51-256.45V947.37Z" transform="translate(-45 -58.99)" style="fill:#fff"/><path d="M5272.56,1862.65v-623.4q0-230.3-135-230.3-92.81,0-133.71,80.56T4963,1327v535.67h-79.3v-623.4q0-116.41-32.9-173.36t-102.07-56.94q-91.11,0-132.44,82.67t-41.34,268.26v502.77h-80.14V947.37h67.49l6.75,127.38h7.59q54.82-145.08,186.43-145.1,75.92,0,119.79,40.49t63.27,118.1q32.9-84.35,81-121.48t124.85-37.12q103.76,0,151.84,79.72t48.08,255.18v598.1Z" transform="translate(-45 -58.99)" style="fill:#fff"/><path d="M5888.37,1879.52q-69.18,0-126.11-38.38t-86.47-105h-7.59l5.91,100.39v441.19H5594V947.37h65.8l8.44,125.69h7.59q33.73-69.16,86.47-106.29t115.15-37.12q268.26,0,268.26,473.25,0,228.62-65.8,352.62T5888.37,1879.52Zm-16-873.95q-100.4,0-149.31,88.58t-48.93,277.54v26.15q0,210.9,49.77,310T5875.72,1807q94.47,0,140.46-98.28t46-305.8q0-198.23-43-297.78T5872.34,1005.57Z" transform="translate(-45 -58.99)" style="fill:#fff"/><path d="M6607.1,1879.52q-145.1,0-223.13-123.58t-78-344.6q0-234.51,69.6-358.1t200.35-123.58q113.88,0,179.68,108.4t65.8,292.3v74.23h-433.6q1.68,199.93,56.52,299.47t166.18,99.54q86,0,181.37-56.52v77.61Q6704.1,1879.53,6607.1,1879.52Zm-36.27-877.32q-165.35,0-181.37,329.84h351.77q0-151-46-240.42T6570.83,1002.2Z" transform="translate(-45 -58.99)" style="fill:#fff"/><path d="M7104.81,1862.65h-80.14V550h80.14Z" transform="translate(-45 -58.99)" style="fill:#fff"/><path d="M7380,446h45.81q11.32,0,18.66,3.36,13.94,6.45,13.95,23.81,0,9.06-3.74,14.82a27,27,0,0,1-10.46,9.26,20.62,20.62,0,0,1,8.88,6.31q3,3.91,3.33,12.69l.48,13.52a41.52,41.52,0,0,0,1,8.58q1.24,4.8,4.39,6.17v2.26h-16.74a12.57,12.57,0,0,1-1.1-3.36,64.38,64.38,0,0,1-.69-8l-.82-16.81q-.47-9.88-7.13-13.24-3.8-1.85-11.93-1.85h-30.2v43.22H7380Zm44.34,46.17q9.34,0,14.78-3.84t5.44-13.86q0-10.77-7.61-14.68-4.07-2.06-10.88-2.06H7393.7v34.44Z" transform="translate(-45 -58.99)" style="fill:#fff"/><circle cx="7373.64" cy="436.01" r="112" style="fill:none;stroke:#fff;stroke-miterlimit:10;stroke-width:18px"/><circle cx="1187" cy="1187" r="1187" style="fill:$app-mid-tone"/><path d="M641.75,866.39l413.83-190.58v437L641.75,1298.16Z" transform="translate(-45 -58.99)" style="fill:#fff"/><path d="M1170.73,633l413.83-190.58v437l-413.83,185.36Z" transform="translate(-45 -58.99)" style="fill:#fff"/><path d="M1499.24,1488.74l413.83-190.58v437L1499.24,1920.5Z" transform="translate(-45 -58.99)" style="fill:#fff"/><path d="M641.75,1445.52l413.83-190.58v437L641.75,1877.29Z" transform="translate(-45 -58.99)" style="fill:#fff"/></svg>