<svg xmlns="http://www.w3.org/2000/svg" xmlns:xlink="http://www.w3.org/1999/xlink" width="35" height="35" viewBox="0 0 35 35">
    <defs>
        <circle id="a" cx="17.5" cy="17.5" r="17.5"/>
    </defs>
    <g fill="none" fill-rule="evenodd">
        <mask id="b" fill="#fff">
            <use xlink:href="#a"/>
        </mask>
        <use fill="#1CB0B9" xlink:href="#a"/>
        <path fill="#FFF" fill-rule="nonzero" d="M18.173 8.75c0 .734-.612 1.346-1.346 1.346A1.358 1.358 0 0 1 15.48 8.75c0-.734.612-1.346 1.346-1.346.734 0 1.346.612 1.346 1.346zm-1.01 2.692c-.95 0-1.682.732-1.682 1.683 0 .951.731 1.683 1.682 1.683.952 0 1.683-.732 1.683-1.683 0-.951-.731-1.683-1.683-1.683zm0 4.712c-.911 0-1.682.771-1.682 1.683 0 .911.771 1.682 1.682 1.682.912 0 1.683-.771 1.683-1.682 0-.912-.771-1.683-1.683-1.683zm0 4.038c-.95 0-1.682.732-1.682 1.683 0 .951.731 1.683 1.682 1.683.952 0 1.683-.732 1.683-1.683 0-.878-.731-1.683-1.683-1.683zm-.336 4.712c-.734 0-1.346.612-1.346 1.346 0 .734.612 1.346 1.346 1.346.734 0 1.346-.612 1.346-1.346 0-.734-.612-1.346-1.346-1.346zm4.375-13.462c-.906 0-1.683.777-1.683 1.683s.777 1.683 1.683 1.683 1.683-.777 1.683-1.683-.777-1.683-1.683-1.683zm0 4.039c-.935 0-1.683.748-1.683 1.682 0 .935.748 1.683 1.683 1.683s1.683-.748 1.683-1.683c0-.934-.748-1.682-1.683-1.682zm0 4.711c-.906 0-1.683.777-1.683 1.683s.777 1.683 1.683 1.683 1.683-.777 1.683-1.683-.777-1.683-1.683-1.683zm4.375-4.711c-1.077 0-2.02.875-2.02 2.019 0 1.077.876 2.02 2.02 2.02 1.144 0 2.02-.876 2.02-2.02-.068-1.144-.943-2.02-2.02-2.02zm-12.789-3.366a1.35 1.35 0 0 0-1.346 1.347c0 .74.606 1.346 1.346 1.346a1.35 1.35 0 0 0 1.347-1.346 1.35 1.35 0 0 0-1.347-1.347zm0 4.039c-.769 0-1.346.577-1.346 1.346 0 .77.577 1.346 1.346 1.346.77 0 1.347-.577 1.347-1.346 0-.77-.577-1.346-1.347-1.346zm0 4.038a1.35 1.35 0 0 0-1.346 1.346c0 .74.606 1.347 1.346 1.347a1.35 1.35 0 0 0 1.347-1.347 1.35 1.35 0 0 0-1.347-1.346zM8.75 16.154A1.34 1.34 0 0 0 7.404 17.5a1.34 1.34 0 0 0 1.346 1.346 1.34 1.34 0 0 0 1.346-1.346 1.34 1.34 0 0 0-1.346-1.346z" mask="url(#b)"/>
    </g>
</svg>
