<?xml version="1.0" encoding="UTF-8"?>
<svg width="300px" height="300px" viewBox="0 0 300 300" version="1.1" xmlns="http://www.w3.org/2000/svg" xmlns:xlink="http://www.w3.org/1999/xlink">
    <!-- Generator: Sketch 53.2 (72643) - https://sketchapp.com -->
    <title>Word Cloud</title>
    <desc>Created with Sketch.</desc>
    <g id="Word-Cloud" stroke="none" stroke-width="1" fill="none" fill-rule="evenodd">
        <path d="M150,292 C228.424722,292 292,228.424722 292,150 C292,71.575278 228.424722,8 150,8 C71.575278,8 8,71.575278 8,150 C8,228.424722 71.575278,292 150,292 Z M150,300 C67.157,300 0,232.843 0,150 C0,67.157 67.157,0 150,0 C232.843,0 300,67.157 300,150 C300,232.843 232.843,300 150,300 Z M149,72.7130435 C179.590859,72.7130435 205.793496,93.6868502 212.920222,122.859762 C235.126823,125.867801 252.000001,144.720688 252.000001,167.463044 C252.000001,192.442183 231.72914,212.713044 206.750001,212.713044 L99.5000002,212.713044 C69.9833611,212.713044 46,188.729683 46,159.213044 C46,132.55334 65.6163732,110.144782 91.5978373,106.333106 C103.149163,85.7836423 124.926351,72.7130435 149,72.7130435 Z M149,80.7130435 C127.220079,80.7130435 107.580826,92.891095 97.6851565,111.890781 L96.6940025,113.793797 L94.5603664,114.020629 C71.594811,116.46215 54,135.93313 54,159.213044 C54,184.311405 74.4016391,204.713044 99.5000002,204.713044 L206.750001,204.713044 C227.310862,204.713044 244.000001,188.023905 244.000001,167.463044 C244.000001,147.928387 228.858891,131.88333 209.361239,130.533492 L206.305367,130.321932 L205.713006,127.316567 C200.401887,100.370452 176.75833,80.7130435 149,80.7130435 Z M76,159.5 C73.790861,159.5 72,157.709139 72,155.5 C72,153.290861 73.790861,151.5 76,151.5 L129.493243,151.5 C131.702382,151.5 133.493243,153.290861 133.493243,155.5 C133.493243,157.709139 131.702382,159.5 129.493243,159.5 L76,159.5 Z M162,141.5 C159.790861,141.5 158,139.709139 158,137.5 C158,135.290861 159.790861,133.5 162,133.5 L191,133.5 C193.209139,133.5 195,135.290861 195,137.5 C195,139.709139 193.209139,141.5 191,141.5 L162,141.5 Z M162,126 C159.790861,126 158,124.209139 158,122 C158,119.790861 159.790861,118 162,118 L172,118 C174.209139,118 176,119.790861 176,122 C176,124.209139 174.209139,126 172,126 L162,126 Z M179,161.5 C176.790861,161.5 175,159.709139 175,157.5 C175,155.290861 176.790861,153.5 179,153.5 L219,153.5 C221.209139,153.5 223,155.290861 223,157.5 C223,159.709139 221.209139,161.5 219,161.5 L179,161.5 Z M181,181.5 C178.790861,181.5 177,179.709139 177,177.5 C177,175.290861 178.790861,173.5 181,173.5 L199,173.5 C201.209139,173.5 203,175.290861 203,177.5 C203,179.709139 201.209139,181.5 199,181.5 L181,181.5 Z M92.71124,180.5 C90.502101,180.5 88.71124,178.709139 88.71124,176.5 C88.71124,174.290861 90.502101,172.5 92.71124,172.5 L146.461111,172.5 C148.67025,172.5 150.461111,174.290861 150.461111,176.5 C150.461111,178.709139 148.67025,180.5 146.461111,180.5 L92.71124,180.5 Z M109,141.5 C106.790861,141.5 105,139.709139 105,137.5 C105,135.290861 106.790861,133.5 109,133.5 L127.610985,133.5 C129.820124,133.5 131.610985,135.290861 131.610985,137.5 C131.610985,139.709139 129.820124,141.5 127.610985,141.5 L109,141.5 Z M140.75,109.75 C140.75,107.540861 142.540861,105.75 144.75,105.75 C146.959139,105.75 148.75,107.540861 148.75,109.75 L148.75,156.25 C148.75,158.459139 146.959139,160.25 144.75,160.25 C142.540861,160.25 140.75,158.459139 140.75,156.25 L140.75,109.75 Z M159.25,152.75 C159.25,150.540861 161.040861,148.75 163.25,148.75 C165.459139,148.75 167.25,150.540861 167.25,152.75 L167.25,181.25 C167.25,183.459139 165.459139,185.25 163.25,185.25 C161.040861,185.25 159.25,183.459139 159.25,181.25 L159.25,152.75 Z" id="Combined-Shape" fill="#FF9B26" fill-rule="nonzero"></path>
    </g>
</svg>